<?xml version="1.0" encoding="UTF-8"?>
<svg width="16px" height="16px" viewBox="0 0 16 16" version="1.1" xmlns="http://www.w3.org/2000/svg" xmlns:xlink="http://www.w3.org/1999/xlink">
    <title>back</title>
    <g id="页面-1" stroke="none" stroke-width="1" fill="none" fill-rule="evenodd">
        <g id="Project_Requests" transform="translate(-962.000000, -2318.000000)">
            <g id="编组-4备份-3" transform="translate(340.000000, 2312.000000)">
                <g id="编组-10备份" transform="translate(616.000000, 0.000000)">
                    <g id="编组" transform="translate(6.000000, 6.000000)">
                        <rect id="矩形" x="0" y="0" width="16" height="16"></rect>
                        <path d="M4,4 L8.70414851e-14,8 L4,12 C4.39052429,12.3905243 5.02368927,12.3905243 5.41421356,12 C5.80476013,11.6094534 5.80482181,10.9762713 5.41435133,10.5856487 L3.82921356,8.99989322 L14.4142136,8.99999078 C14.9270447,8.99999551 15.3497157,8.61396277 15.4074848,8.11662921 L15.4142136,8 L15.4142136,8 C15.4142136,7.44771376 14.9664998,6.99999587 14.4142136,6.99999078 L3.82921356,6.99989322 L5.41431839,5.41431837 C5.80480174,5.02371924 5.80475481,4.39054125 5.41421356,4 C5.02368927,3.60947571 4.39052429,3.60947571 4,4 Z" id="路径" fill="#3F3F3F"></path>
                    </g>
                </g>
            </g>
        </g>
    </g>
</svg>