<?xml version="1.0" encoding="UTF-8"?>
<svg width="16px" height="16px" viewBox="0 0 16 16" version="1.1" xmlns="http://www.w3.org/2000/svg" xmlns:xlink="http://www.w3.org/1999/xlink">
    <title>状态 运行中</title>
    <g id="页面-1" stroke="none" stroke-width="1" fill="none" fill-rule="evenodd">
        <g id="控制台" transform="translate(-710.000000, -188.000000)" fill="#232323" fill-rule="nonzero">
            <g id="编组-7" transform="translate(170.000000, 164.000000)">
                <path d="M548,24 C552.418278,24 556,27.581722 556,32 C556,36.418278 552.418278,40 548,40 C543.581722,40 540,36.418278 540,32 C540,27.581722 543.581722,24 548,24 Z M548,25 C544.134007,25 541,28.1340068 541,32 C541,35.8659932 544.134007,39 548,39 C551.865993,39 555,35.8659932 555,32 C555,28.1340068 551.865993,25 548,25 Z M548,29 C549.656854,29 551,30.3431458 551,32 C551,33.6568542 549.656854,35 548,35 C546.343146,35 545,33.6568542 545,32 C545,30.3431458 546.343146,29 548,29 Z" id="状态-运行中"></path>
            </g>
        </g>
    </g>
</svg>