<?xml version="1.0" encoding="UTF-8"?>
<svg width="26px" height="18px" viewBox="0 0 26 18" version="1.1" xmlns="http://www.w3.org/2000/svg" xmlns:xlink="http://www.w3.org/1999/xlink">
    <title>箭头 详情</title>
    <g id="页面-1" stroke="none" stroke-width="1" fill="none" fill-rule="evenodd">
        <g id="控制台" transform="translate(-1194.000000, -203.000000)" fill="#232323" fill-rule="nonzero">
            <g id="编组-7" transform="translate(170.000000, 164.000000)">
                <g id="箭头-详情" transform="translate(1024.000000, 39.000000)">
                    <path d="M18.6641116,0.252224456 L18.7525767,0.341495392 L25.7525767,8.34149539 C26.054983,8.68710255 26.0801835,9.1889436 25.8281783,9.56058974 L25.7525767,9.65850461 L18.7525767,17.6585046 C18.3888946,18.0741412 17.757132,18.1162587 17.3414954,17.7525767 C16.9578308,17.4168702 16.892431,16.85274 17.1706855,16.4410277 L17.2474233,16.3414954 L22.796,10 L1,10 C0.44771525,10 0,9.55228475 0,9 C0,8.48716416 0.38604019,8.06449284 0.883378875,8.00672773 L1,8 L22.796,8 L17.2474233,1.65850461 C16.9117168,1.27484002 16.9217803,0.707020755 17.2522245,0.335888365 L17.3414954,0.247423305 C17.6931879,-0.0603076623 18.1996216,-0.0774957493 18.5674513,0.176302712 L18.6641116,0.252224456 Z"></path>
                </g>
            </g>
        </g>
    </g>
</svg>