<?xml version="1.0" encoding="UTF-8"?>
<svg width="80px" height="80px" viewBox="0 0 80 80" version="1.1" xmlns="http://www.w3.org/2000/svg" xmlns:xlink="http://www.w3.org/1999/xlink">
    <title>丰富的多链支持</title>
    <g id="页面-1" stroke="none" stroke-width="1" fill="none" fill-rule="evenodd">
        <g id="Linkweb3-首页" transform="translate(-290.000000, -1217.000000)" fill="#39CA9F">
            <g id="丰富的多链支持" transform="translate(290.000000, 1217.000000)">
                <path d="M80,53 L80,57 L57,57 L57,80 L53,80 L53,53 L80,53 Z M38,40 C39.1045695,40 40,40.8954305 40,42 L40,78 C40,79.1045695 39.1045695,80 38,80 L2,80 C0.8954305,80 0,79.1045695 0,78 L0,42 C0,40.8954305 0.8954305,40 2,40 L38,40 Z M36,44 L4,44 L4,76 L36,76 L36,44 Z M78,0 C79.1045695,0 80,0.8954305 80,2 L80,38 C80,39.1045695 79.1045695,40 78,40 L42,40 C40.8954305,40 40,39.1045695 40,38 L40,2 C40,0.8954305 40.8954305,0 42,0 L78,0 Z M76,4 L44,4 L44,36 L76,36 L76,4 Z M27,0 L27,27 L0,27 L0,23 L23,23 L23,0 L27,0 Z"></path>
            </g>
        </g>
    </g>
</svg>