<?xml version="1.0" encoding="UTF-8"?>
<svg width="16px" height="16px" viewBox="0 0 16 16" version="1.1" xmlns="http://www.w3.org/2000/svg" xmlns:xlink="http://www.w3.org/1999/xlink">
    <title>创建时间</title>
    <g id="页面-1" stroke="none" stroke-width="1" fill="none" fill-rule="evenodd">
        <g id="控制台" transform="translate(-423.000000, -188.000000)" fill="#232323" fill-rule="nonzero">
            <g id="编组-7" transform="translate(170.000000, 164.000000)">
                <path d="M261.000737,24.0000002 C265.431298,23.9990532 269.006127,27.5781925 268.999992,32.0088856 C268.993841,36.4437153 265.421021,40.0054578 260.984026,40.0000002 C256.565172,39.9945364 252.983272,36.3921434 253.000059,31.9704 C253.016925,27.5632699 256.59274,24.0009475 261.000737,24.0000002 Z M261.083072,25.5637596 C257.551246,25.50001 254.643735,28.3520213 254.570016,31.9524813 C254.498885,35.4258674 257.357539,38.3546372 260.901517,38.4393016 C264.384526,38.5225163 267.371764,35.6494936 267.434568,32.1560818 C267.499188,28.5610341 264.673839,25.628553 261.083072,25.5637596 Z M260.869584,28.0001949 C261.231824,28.0065539 261.510139,28.1711977 261.616483,28.4918189 C261.67089,28.655845 261.682232,28.8357323 261.683048,29.008552 C261.688576,30.1502483 261.685924,31.2919992 261.685924,32.5116752 L262.85975,32.5114836 C262.984403,32.5115662 263.108094,32.5117252 263.231783,32.5120022 C263.488392,32.5125655 263.745491,32.5083504 264.001509,32.5204688 C264.629314,32.5502108 264.999469,32.8253742 265,33.2516821 C265.000571,33.6954137 264.592023,33.9986839 263.970583,33.9999012 C263.306405,34.0012094 262.642207,33.9891636 261.977989,33.9852028 C261.615708,33.9830408 261.253264,33.9911803 260.891126,33.9846759 C260.353673,33.9750284 259.99945,33.6652357 260,33.2062606 C260.001735,31.7809343 260.005243,30.3556261 260.013567,28.930318 C260.014423,28.7843333 260.028254,28.6316263 260.077887,28.4940173 C260.198736,28.1588612 260.487699,27.9935089 260.869584,28.0001949 Z" id="创建时间"></path>
            </g>
        </g>
    </g>
</svg>