<?xml version="1.0" encoding="UTF-8"?>
<svg width="40px" height="40px" viewBox="0 0 40 40" version="1.1" xmlns="http://www.w3.org/2000/svg" xmlns:xlink="http://www.w3.org/1999/xlink">
    <title>Jupiter</title>
    <g id="页面-1" stroke="none" stroke-width="1" fill="none" fill-rule="evenodd">
        <g id="控制台" transform="translate(-50.000000, -272.000000)" fill="#232323">
            <g id="编组-11" transform="translate(0.000000, 68.000000)">
                <g id="编组-4备份-3" transform="translate(41.000000, 204.000000)">
                    <path d="M48.9706767,18.9076647 C48.990142,19.2693069 49,19.6335022 49,20 C49,31.045695 40.045695,40 29,40 C21.2726478,40 14.5688487,35.6176486 11.2383522,29.2026954 C11.4837891,29.6747492 11.7472754,30.1357115 12.0281417,30.5846556 C16.6360613,31.1822328 22.4154813,30.7388139 28.5450223,29.2640019 C30.3035036,31.0088298 33.4606582,31.6831958 36.6538241,30.7675702 C40.4046596,29.6920354 42.9507911,26.782337 42.8649799,23.9232923 C45.2237126,22.6549762 47.2953197,21.2788476 48.9998852,19.8435593 L48.997,19.845 L48.9918309,19.4227971 L48.9918309,19.4227971 Z M29,0 C38.2047458,0 45.9571375,6.21826736 48.2855807,14.6832078 L48.3620485,14.969546 C46.7777821,16.7309652 44.2442072,18.6111581 41.0210332,20.3494317 C39.2063541,18.8960945 36.291585,18.3878474 33.3461759,19.2324298 C29.8572813,20.2328543 27.4107041,22.8202086 27.1560206,25.4780345 C20.1657854,27.0873712 13.8771239,27.1820917 9.9645509,26.1536525 C9.33831763,24.2150546 9,22.1470365 9,20 C9,8.954305 17.954305,0 29,0 Z" id="Jupiter"></path>
                </g>
            </g>
        </g>
    </g>
</svg>