<?xml version="1.0" encoding="UTF-8"?>
<svg width="83px" height="30px" viewBox="0 0 83 30" version="1.1" xmlns="http://www.w3.org/2000/svg" xmlns:xlink="http://www.w3.org/1999/xlink">
    <title>Elara</title>
    <g id="页面-1" stroke="none" stroke-width="1" fill="none" fill-rule="evenodd">
        <g id="首页滚动导航" transform="translate(-30.000000, -19.000000)" fill="#FFFFFF" fill-rule="nonzero">
            <path d="M38.28,49 C42.2,49 45.7066667,47.150134 48.8,43.4504021 L48.8,43.4504021 L47.2,41.9624665 C44.9066667,44.1876676 42.6666667,45.3002681 40.48,45.3002681 C39.28,45.3002681 38.3,44.9182306 37.54,44.1541555 C36.78,43.3900804 36.4,42.4182306 36.4,41.2386059 C36.4,39.3619303 37.1066667,37.8538874 38.52,36.7144772 C39.9333333,35.575067 41.6,35.0053619 43.52,35.0053619 L43.52,35.0053619 L43.84,32.7935657 C42.72,32.5790885 41.7466667,32.2037534 40.92,31.6675603 C40.3866667,31.3190349 39.9733333,30.8230563 39.68,30.1796247 C39.3866667,29.536193 39.24,28.5844504 39.24,27.3243968 C39.24,26.0643432 39.5133333,24.9450402 40.06,23.9664879 C40.6066667,22.9879357 41.3533333,22.4986595 42.3,22.4986595 C43.2466667,22.4986595 43.92,22.6997319 44.32,23.1018767 L44.32,23.1018767 L43.84,27.2439678 C44.32,27.6997319 45.0733333,28.075067 46.1,28.3699732 C47.1266667,28.6648794 48.0666667,28.8123324 48.92,28.8123324 L48.92,28.8123324 L49.2,28.4101877 C49.4133333,28.1689008 49.62,27.766756 49.82,27.2037534 C50.02,26.6407507 50.12,26.0643432 50.12,25.4745308 C50.12,23.7855228 49.3466667,22.4450402 47.8,21.4530831 C46.2533333,20.461126 44.32,19.9651475 42,19.9651475 C39.68,19.9651475 37.62,20.6420912 35.82,21.9959786 C34.02,23.349866 33.12,25.1796247 33.12,27.4852547 C33.12,29.0134048 33.5666667,30.2734584 34.46,31.2654155 C35.3533333,32.2573727 36.5466667,32.9544236 38.04,33.3565684 C35.8266667,33.5978552 33.9333333,34.4691689 32.36,35.9705094 C30.7866667,37.4718499 30,39.4155496 30,41.8016086 C30,43.0616622 30.2733333,44.1742627 30.82,45.1394102 C31.3666667,46.1045576 32.0666667,46.8552279 32.92,47.3914209 C34.6266667,48.463807 36.4133333,49 38.28,49 Z M53.2,49 C54.1333333,49 55.2466667,48.691689 56.54,48.075067 C57.8333333,47.458445 58.9333333,46.7882038 59.84,46.0643432 L59.84,46.0643432 L59.12,44.6568365 L56.32,45.6621984 C56.08,45.6621984 55.96,45.1595174 55.96,44.1541555 C55.96,43.1487936 56.6333333,39.5697051 57.98,33.4168901 C59.3266667,27.2640751 60,23.1152815 60,20.9705094 C60,20.0321716 59.8666667,19.3753351 59.6,19 C57.7866667,19 55.84,19.3619303 53.76,20.0857909 L53.76,20.0857909 L54,21.8552279 C54,24.5093834 53.34,28.8324397 52.02,34.8243968 C50.7,40.8163539 50.04,44.3686327 50.04,45.4812332 C50.04,46.5938338 50.34,47.458445 50.94,48.075067 C51.54,48.691689 52.2933333,49 53.2,49 Z M73.24,49 C74.0933333,49 75.0533333,48.7252011 76.12,48.1756032 C77.1866667,47.6260054 77.9133333,47.1903485 78.3,46.8686327 C78.6866667,46.5469169 79,46.2788204 79.24,46.0643432 L79.24,46.0643432 L78.52,44.6568365 L78.04,44.8981233 C77.0266667,45.4075067 76.44,45.6621984 76.28,45.6621984 C76.0666667,45.6621984 75.96,45.1461126 75.96,44.113941 C75.96,43.0817694 76.16,41.3525469 76.56,38.9262735 C76.96,36.5 77.4933333,34.1742627 78.16,31.9490617 C76.0533333,31.1983914 74.3733333,30.8230563 73.12,30.8230563 C72.88,31.4664879 72.7333333,31.8150134 72.68,31.8686327 C71.2933333,31.0911528 69.8533333,30.7024129 68.36,30.7024129 C66.28,30.7024129 64.5066667,31.7412869 63.04,33.8190349 C61.5733333,35.8967828 60.84,38.7319035 60.84,42.3243968 C60.84,44.6300268 61.3133333,46.3190349 62.26,47.3914209 C63.2066667,48.463807 64.3666667,49 65.74,49 C67.1133333,49 68.6533333,48.2493298 70.36,46.7479893 C70.6266667,48.2493298 71.5866667,49 73.24,49 Z M68.12,45.5817694 C67.1333333,45.5817694 66.64,44.4423592 66.64,42.1635389 C66.64,39.8847185 66.98,37.8002681 67.66,35.9101877 C68.34,34.0201072 69.16,33.075067 70.12,33.075067 C70.68,33.075067 71.36,33.2493298 72.16,33.5978552 C71.0933333,37.2975871 70.4666667,41.0375335 70.28,44.8176944 C69.48,45.3270777 68.76,45.5817694 68.12,45.5817694 Z M80.76,48.6380697 C83.5333333,48.6380697 85.3866667,48.4504021 86.32,48.075067 C86.2933333,47.8337802 86.28,47.4182306 86.28,46.8284182 C86.28,45.1930295 86.8933333,41.6005362 88.12,36.0509383 C88.6266667,35.4879357 89.2133333,35.0857909 89.88,34.844504 C90.0933333,34.844504 90.4133333,35.2064343 90.84,35.9302949 C91.2666667,36.6541555 91.4933333,37.0160858 91.52,37.0160858 C92.16,36.9088472 92.82,36.6273458 93.5,36.1715818 C94.18,35.7158177 94.6333333,35.3605898 94.86,35.1058981 C95.0866667,34.8512064 95.2666667,34.6434316 95.4,34.4825737 C95.4,31.9624665 94.68,30.7024129 93.24,30.7024129 C92.2533333,30.7024129 91.2933333,31.1045576 90.36,31.9088472 C89.4266667,32.7131367 88.8133333,33.3565684 88.52,33.8391421 C88.52,32.5790885 88.36,31.6005362 88.04,30.9034853 C84.8666667,30.9034853 82.56,31.1045576 81.12,31.5067024 L81.12,31.5067024 L81.08,32.0294906 L81.44,32.5120643 C82.1866667,33.5040214 82.56,34.4155496 82.56,35.2466488 C82.56,35.7292225 82.2,37.6461126 81.48,40.997319 C80.76,44.3485255 80.4,46.4061662 80.4,47.1702413 C80.4,47.9343164 80.4266667,48.4235925 80.48,48.6380697 L80.48,48.6380697 L80.76,48.6380697 Z M107,49 C107.853333,49 108.813333,48.7252011 109.88,48.1756032 C110.946667,47.6260054 111.673333,47.1903485 112.06,46.8686327 C112.446667,46.5469169 112.76,46.2788204 113,46.0643432 L113,46.0643432 L112.28,44.6568365 L111.8,44.8981233 C110.786667,45.4075067 110.2,45.6621984 110.04,45.6621984 C109.826667,45.6621984 109.72,45.1461126 109.72,44.113941 C109.72,43.0817694 109.92,41.3525469 110.32,38.9262735 C110.72,36.5 111.253333,34.1742627 111.92,31.9490617 C109.813333,31.1983914 108.133333,30.8230563 106.88,30.8230563 C106.64,31.4664879 106.493333,31.8150134 106.44,31.8686327 C105.053333,31.0911528 103.613333,30.7024129 102.12,30.7024129 C100.04,30.7024129 98.2666667,31.7412869 96.8,33.8190349 C95.3333333,35.8967828 94.6,38.7319035 94.6,42.3243968 C94.6,44.6300268 95.0733333,46.3190349 96.02,47.3914209 C96.9666667,48.463807 98.1266667,49 99.5,49 C100.873333,49 102.413333,48.2493298 104.12,46.7479893 C104.386667,48.2493298 105.346667,49 107,49 Z M101.88,45.5817694 C100.893333,45.5817694 100.4,44.4423592 100.4,42.1635389 C100.4,39.8847185 100.74,37.8002681 101.42,35.9101877 C102.1,34.0201072 102.92,33.075067 103.88,33.075067 C104.44,33.075067 105.12,33.2493298 105.92,33.5978552 C104.853333,37.2975871 104.226667,41.0375335 104.04,44.8176944 C103.24,45.3270777 102.52,45.5817694 101.88,45.5817694 Z" id="Elara"></path>
        </g>
    </g>
</svg>