<svg id="图层_1" data-name="图层 1" xmlns="http://www.w3.org/2000/svg" viewBox="0 0 130 45"><defs><style>.cls-1,.cls-4{fill:#fff;}.cls-2{fill:#00fdff;}.cls-2,.cls-3,.cls-4,.cls-6,.cls-7{stroke:#000072;stroke-miterlimit:10;}.cls-2,.cls-3,.cls-4{stroke-width:0.76px;}.cls-3{fill:#ffda00;stroke-linecap:round;}.cls-5{fill:#ff1e97;}.cls-6,.cls-7{fill:#000072;}.cls-6{stroke-width:0.23px;}.cls-7{stroke-width:0.19px;}</style></defs><path class="cls-1" d="M67.51,34.44l-3.82,0-6.21,0-5.2,0-3.68,0c0-.68,0-2.15,0-4.42s0-5.15,0-8.63c0-1.47,0-3.34,0-5.62s0-4.6-.06-7H63.71a3.54,3.54,0,0,1,3.55,3.54v1.19l-2.52,0-4.39,0H54.68c0,1,0,2,0,3s0,2,0,2.89h9.71l2.75,0v3.81l-3,0-4.33,0H54.64c0,1.5,0,2.78,0,3.85s0,1.94,0,2.61c.77,0,1.79,0,3.07,0h3.47c1.45,0,2.78,0,4,0l2.32,0Z"/><path class="cls-1" d="M76.27,34.44H70.38c0-.9,0-2.78,0-5.66s0-5.85,0-8.93c0-1.77,0-3.8,0-6.12s0-4.78-.05-7.4h5.89c0,2.14,0,4.37,0,6.71s0,4.53,0,6.58q0,5,0,8.78T76.27,34.44Z"/><path class="cls-1" d="M96,24.25q0,4.7,0,7.24c0,1.7,0,2.68,0,2.95q-.3,0-2.49.18c-1.46.1-3,.14-4.64.14a28.41,28.41,0,0,1-3.67-.26,12.84,12.84,0,0,1-3.44-.87,6.89,6.89,0,0,1-2.76-2,4.57,4.57,0,0,1-1-2.94A4.82,4.82,0,0,1,79,25.52a7.6,7.6,0,0,1,3.33-2.14,17.81,17.81,0,0,1,3.74-.91c1.48-.21,2.82-.37,4-.46a3.12,3.12,0,0,0-.55-1.69,3.17,3.17,0,0,0-1.66-1,9.11,9.11,0,0,0-1.7-.35A19.83,19.83,0,0,0,84,18.83c-.78,0-1.44,0-2,0L80.2,19l.52-4.28L82,14.62c.56,0,1.35,0,2.37,0a22.16,22.16,0,0,1,5.4.55A8.67,8.67,0,0,1,93.35,17a6.9,6.9,0,0,1,2,2.84A12.85,12.85,0,0,1,96,24.25ZM90.4,27.79V26.36c0-.55,0-1.12,0-1.72-.37,0-1,.09-2,.22a10,10,0,0,0-2.53.68,4.31,4.31,0,0,0-1.41,1,2.2,2.2,0,0,0-.64,1.61,2.45,2.45,0,0,0,.56,1.71,3.76,3.76,0,0,0,1.47,1,8.16,8.16,0,0,0,1.47.34,12.5,12.5,0,0,0,1.79.12h1.26c0-.17,0-.56,0-1.17S90.4,28.69,90.4,27.79Z"/><path class="cls-1" d="M113.3,19.23c-1,.32-2.23.73-3.53,1.21s-3,1.2-5.08,2.15c0,.32,0,.9,0,1.74s0,1.7,0,2.57c0,1.36,0,2.87,0,4.55s0,2.67,0,3H98.86c0-.39,0-1.34,0-2.88s0-3.58,0-6.15c0-1.23,0-2.78,0-4.64s0-3.84,0-5.91h5.75l0,2.82,0,0a41.19,41.19,0,0,1,3.91-2.12,24.08,24.08,0,0,1,3.26-1.33Z"/><path class="cls-1" d="M129.5,24.25q0,4.7,0,7.24c0,1.7,0,2.68,0,2.95q-.3,0-2.49.18c-1.46.1-3,.14-4.64.14a28.41,28.41,0,0,1-3.67-.26,12.84,12.84,0,0,1-3.44-.87,7,7,0,0,1-2.77-2,4.62,4.62,0,0,1-1-2.94,4.82,4.82,0,0,1,1.06-3.15,7.6,7.6,0,0,1,3.33-2.14,17.65,17.65,0,0,1,3.74-.91c1.48-.21,2.82-.37,4-.46a3,3,0,0,0-.54-1.69,3.17,3.17,0,0,0-1.66-1,9.11,9.11,0,0,0-1.7-.35,20,20,0,0,0-2.21-.11c-.78,0-1.45,0-2,0l-1.78.08.52-4.28,1.22-.05c.57,0,1.36,0,2.38,0a22.16,22.16,0,0,1,5.4.55A8.67,8.67,0,0,1,126.89,17a6.9,6.9,0,0,1,2,2.84A13.1,13.1,0,0,1,129.5,24.25Zm-5.56,3.54V26.36c0-.55,0-1.12,0-1.72-.37,0-1,.09-2,.22a10,10,0,0,0-2.53.68,4.12,4.12,0,0,0-1.41,1,2.21,2.21,0,0,0-.65,1.61,2.45,2.45,0,0,0,.57,1.71,3.69,3.69,0,0,0,1.47,1,8,8,0,0,0,1.47.34,12.5,12.5,0,0,0,1.79.12h1.26c0-.17,0-.56,0-1.17S123.94,28.69,123.94,27.79Z"/><rect class="cls-2" x="5.79" y="8.62" width="20.99" height="28.57" rx="2.43" transform="translate(-9.27 11.21) rotate(-30)"/><line class="cls-3" x1="7.29" y1="22.2" x2="19.21" y2="15.32"/><line class="cls-3" x1="9.78" y1="26.51" x2="21.7" y2="19.62"/><line class="cls-3" x1="12.26" y1="30.81" x2="24.18" y2="23.93"/><rect class="cls-4" x="11.98" y="7.75" width="23.81" height="30.29" rx="2.43" transform="translate(-8.25 15.01) rotate(-30)"/><circle class="cls-5" cx="36.18" cy="28.84" r="1.53"/><path class="cls-6" d="M30.27,18.9a6.9,6.9,0,0,0-6.35-4.26h-.07A6.89,6.89,0,0,0,17.55,19,5,5,0,0,0,19,28.84h10a5,5,0,0,0,1.22-9.94ZM32,26.67a3.72,3.72,0,0,1-2.67,1.13H18.78A3.81,3.81,0,0,1,15,24.37a3.85,3.85,0,0,1,2.84-4.17.77.77,0,0,0,.66-.53,5.67,5.67,0,0,1,5.33-4h.05a5.69,5.69,0,0,1,5.35,3.85l0,.11a.76.76,0,0,0,.59.48,3.82,3.82,0,0,1,3.17,3.81A3.89,3.89,0,0,1,32,26.67Z"/><path class="cls-7" d="M27.41,22a1.32,1.32,0,0,0-1.32-1.29h-.75v-.5A1.3,1.3,0,0,0,24,19h0L21.2,19a1.29,1.29,0,0,0-1.28,1.31l0,2.82a1.31,1.31,0,0,0,1.31,1.29H22v.5a1.31,1.31,0,0,0,1.3,1.29h0l2.83,0a1.3,1.3,0,0,0,1.28-1.31Zm-4.1,3.44a.58.58,0,0,1-.58-.58v-.5h1.36a1.32,1.32,0,0,0,1.29-1.31v-.81a.36.36,0,0,0-.11-.25.35.35,0,0,0-.25-.1h0a.36.36,0,0,0-.36.36v.8a.58.58,0,0,1-.58.59l-2.82,0h0a.59.59,0,0,1-.59-.58l0-2.82a.59.59,0,0,1,.58-.59l2.82,0h0a.58.58,0,0,1,.58.58v.5l-1.36,0A1.3,1.3,0,0,0,22,22.08v.79a.36.36,0,0,0,.36.36h0a.36.36,0,0,0,.36-.36v-.8a.59.59,0,0,1,.58-.59l2.82,0h0a.58.58,0,0,1,.58.58l0,2.82a.6.6,0,0,1-.58.6l-2.82,0Z"/></svg>