<?xml version="1.0" encoding="UTF-8"?>
<svg width="24px" height="24px" viewBox="0 0 24 24" version="1.1" xmlns="http://www.w3.org/2000/svg" xmlns:xlink="http://www.w3.org/1999/xlink">
    <title>Medium</title>
    <g id="页面-1" stroke="none" stroke-width="1" fill="none" fill-rule="evenodd" opacity="0.900000036">
        <g id="Linkweb3-首页" transform="translate(-719.000000, -2629.000000)" fill="#DFDFDF" fill-rule="nonzero">
            <g id="contact" transform="translate(321.000000, 2629.000000)">
                <g id="编组-12" transform="translate(398.000000, 0.000000)">
                    <g id="medium">
                        <path d="M12,0 C5.376,0 0,5.376 0,12 C0,18.624 5.376,24 12,24 C18.624,24 24,18.624 24,12 C24,5.376 18.624,0 12,0 Z M18,15.36 L18,16.764 L13.704,16.764 L13.704,15.36 L14.604,15.36 L14.604,9.144 L14.568,9.144 L12.468,16.776 L10.824,16.776 L8.76,9.144 L8.712,9.144 L8.712,15.36 L9.6,15.36 L9.6,16.764 L6,16.764 L6,15.36 L6.456,15.36 C6.552,15.36 6.648,15.312 6.744,15.228 C6.84,15.144 6.888,15.06 6.888,14.976 L6.888,9.06 C6.888,8.976 6.84,8.892 6.744,8.796 C6.648,8.7 6.552,8.652 6.456,8.652 L6,8.652 L6,7.236 L10.5,7.236 L11.976,12.756 L12.012,12.756 L13.5,7.236 L18,7.236 L18,8.64 L17.52,8.64 C17.436,8.64 17.34,8.688 17.244,8.784 C17.148,8.88 17.1,8.976 17.1,9.048 L17.1,14.964 C17.1,15.048 17.148,15.132 17.244,15.216 C17.34,15.3 17.436,15.348 17.52,15.348 L18,15.36 L18,15.36 Z" id="Medium"></path>
                    </g>
                </g>
            </g>
        </g>
    </g>
</svg>