<?xml version="1.0" encoding="UTF-8"?>
<svg width="14px" height="14px" viewBox="0 0 14 14" version="1.1" xmlns="http://www.w3.org/2000/svg" xmlns:xlink="http://www.w3.org/1999/xlink">
    <title>新建项目 大</title>
    <g id="页面-1" stroke="none" stroke-width="1" fill="none" fill-rule="evenodd">
        <g id="控制台空状态" transform="translate(-668.000000, -369.000000)" fill="#232323">
            <g id="编组-10" transform="translate(628.000000, 352.000000)">
                <path d="M47,17 C47.5522847,17 48,17.4477153 48,18 L48,23 L53,23 C53.5522847,23 54,23.4477153 54,24 C54,24.5522847 53.5522847,25 53,25 L48,25 L48,30 C48,30.5522847 47.5522847,31 47,31 C46.4477153,31 46,30.5522847 46,30 L46,25 L41,25 C40.4477153,25 40,24.5522847 40,24 C40,23.4477153 40.4477153,23 41,23 L46,23 L46,18 C46,17.4477153 46.4477153,17 47,17 Z" id="新建项目-大"></path>
            </g>
        </g>
    </g>
</svg>