<?xml version="1.0" encoding="UTF-8"?>
<svg width="40px" height="40px" viewBox="0 0 40 40" version="1.1" xmlns="http://www.w3.org/2000/svg" xmlns:xlink="http://www.w3.org/1999/xlink">
    <title>Polkadot</title>
    <g id="页面-1" stroke="none" stroke-width="1" fill="none" fill-rule="evenodd">
        <g id="控制台" transform="translate(-50.000000, -84.000000)" fill="#232323">
            <g id="编组-11" transform="translate(0.000000, 68.000000)">
                <g id="编组-9" transform="translate(50.000000, 16.000000)">
                    <path d="M20,0 C31.045695,0 40,8.954305 40,20 C40,31.045695 31.045695,40 20,40 C8.954305,40 0,31.045695 0,20 C0,8.954305 8.954305,0 20,0 Z M20.0814421,8 C15.0736848,8.0189998 11.0187442,12.1292479 11,17.2053088 C11,18.2220445 11.161481,19.2321499 11.4785704,20.1967454 C11.7149373,20.852156 12.4147116,21.2068155 13.0738049,21.0052417 C13.7134056,20.7588703 14.0530117,20.0501445 13.8486331,19.388249 C13.5788945,18.6381194 13.458828,17.841154 13.4954026,17.0436095 C13.6004335,13.4550271 16.5,10.6007176 20.0418449,10.5993301 C23.5836966,10.5979425 26.485432,13.4499793 26.5931995,17.0384783 C26.6985721,20.5472329 24.0954687,23.5178885 20.6748392,23.8510266 L20.6748392,23.8510266 L20.4275687,23.8704517 C20.2930886,23.8791406 19.1323446,23.9552344 18.5317857,24.0313282 C18.2978025,24.0648 18.0657752,24.1110673 17.8367193,24.1699276 C17.8026963,24.1957928 17.7550876,24.1923632 17.7250152,24.1618807 C17.6949429,24.1313982 17.6915595,24.0831401 17.7170767,24.0486531 L17.7170767,24.0486531 L17.916481,22.957183 L19.1129069,17.4651826 L19.1331312,17.3377633 C19.2015572,16.7025813 18.7855604,16.1055134 18.1557662,15.9694643 C17.4839856,15.8243453 16.8233406,16.2587166 16.6801743,16.9396599 C16.6801743,16.9396599 13.8315413,30.3491499 13.8315413,30.4704243 C13.7522632,30.7974141 13.8093465,31.1430662 13.9893611,31.4260585 C14.1693758,31.7090508 14.4564287,31.9043988 14.7829847,31.9661426 C15.1062809,32.0446551 15.4471976,31.9852874 15.7261063,31.8019061 C16.005015,31.6185247 16.1974908,31.3271891 16.2585766,30.995947 C16.2984575,30.8342477 16.6573852,29.0555557 16.6573852,29.0555557 C16.9281798,27.7146032 17.99456,26.6866872 19.329403,26.4799172 C19.6028717,26.4394924 20.7594167,26.3586427 20.7594167,26.3586427 C25.5583983,25.9090465 29.1738231,21.7357768 28.9935426,16.8540255 C28.8132622,11.9722742 24.9001537,8.08466514 20.0814421,8 Z M21.0532834,29.0297547 C20.6619329,28.9508565 20.2551006,29.0303426 19.9228534,29.2506159 C19.5906062,29.4708891 19.3603525,29.8137784 19.2830671,30.2033728 C19.1989397,30.5930129 19.2768895,30.9999258 19.4991782,31.3315151 C19.721467,31.6631043 20.0691869,31.891165 20.4632113,31.9638 C20.8547874,32.0523789 21.2657623,31.9767807 21.5995687,31.754769 C21.933375,31.5327573 22.160584,31.1839047 22.2278079,30.7901819 C22.3652652,29.9869849 21.8508703,29.215988 21.0532834,29.0297547 Z" id="Polkadot"></path>
                </g>
            </g>
        </g>
    </g>
</svg>