<?xml version="1.0" encoding="UTF-8"?>
<svg width="80px" height="80px" viewBox="0 0 80 80" version="1.1" xmlns="http://www.w3.org/2000/svg" xmlns:xlink="http://www.w3.org/1999/xlink">
    <title>1,000,000</title>
    <g id="页面-1" stroke="none" stroke-width="1" fill="none" fill-rule="evenodd">
        <g id="Linkweb3-首页" transform="translate(-463.000000, -1927.000000)">
            <g id="编组-11" transform="translate(100.000000, 1867.000000)">
                <g id="1,000,000" transform="translate(363.000000, 60.000000)">
                    <path d="M2.8,0 C3.9045695,-2.02906125e-16 4.8,0.8954305 4.8,2 L4.8,78 C4.8,79.1045695 3.9045695,80 2.8,80 L2,80 C0.8954305,80 1.08726566e-12,79.1045695 1.08713039e-12,78 L1.08713039e-12,2 C1.08699511e-12,0.8954305 0.8954305,2.02906125e-16 2,0 L2.8,0 Z M13.2,0 C14.3045695,-2.02906125e-16 15.2,0.8954305 15.2,2 L15.2,78 C15.2,79.1045695 14.3045695,80 13.2,80 L9.2,80 C8.0954305,80 7.2,79.1045695 7.2,78 L7.2,2 C7.2,0.8954305 8.0954305,2.02906125e-16 9.2,0 L13.2,0 Z M25.2,0 C26.3045695,-2.02906125e-16 27.2,0.8954305 27.2,2 L27.2,78 C27.2,79.1045695 26.3045695,80 25.2,80 L19.6,80 C18.4954305,80 17.6,79.1045695 17.6,78 L17.6,2 C17.6,0.8954305 18.4954305,2.02906125e-16 19.6,0 L25.2,0 Z M60.4,0 C61.5045695,-2.02906125e-16 62.4,0.8954305 62.4,2 L62.4,78 C62.4,79.1045695 61.5045695,80 60.4,80 L54.8,80 C53.6954305,80 52.8,79.1045695 52.8,78 L52.8,2 C52.8,0.8954305 53.6954305,2.02906125e-16 54.8,0 L60.4,0 Z M70.8,0 C71.9045695,-2.02906125e-16 72.8,0.8954305 72.8,2 L72.8,78 C72.8,79.1045695 71.9045695,80 70.8,80 L66.8,80 C65.6954305,80 64.8,79.1045695 64.8,78 L64.8,2 C64.8,0.8954305 65.6954305,2.02906125e-16 66.8,0 L70.8,0 Z M78,0 C79.1045695,-2.02906125e-16 80,0.8954305 80,2 L80,78 C80,79.1045695 79.1045695,80 78,80 L77.2,80 C76.0954305,80 75.2,79.1045695 75.2,78 L75.2,2 C75.2,0.8954305 76.0954305,2.02906125e-16 77.2,0 L78,0 Z" id="形状结合" fill="#BABABA"></path>
                    <rect id="矩形备份-11" fill="#39CA9F" x="30.4" y="0" width="19.2" height="80" rx="2"></rect>
                </g>
            </g>
        </g>
    </g>
</svg>