<?xml version="1.0" encoding="UTF-8"?>
<svg width="80px" height="80px" viewBox="0 0 80 80" version="1.1" xmlns="http://www.w3.org/2000/svg" xmlns:xlink="http://www.w3.org/1999/xlink">
    <title>10个</title>
    <g id="页面-1" stroke="none" stroke-width="1" fill="none" fill-rule="evenodd">
        <g id="Linkweb3-首页" transform="translate(-738.000000, -1927.000000)">
            <g id="编组-11" transform="translate(100.000000, 1867.000000)">
                <g id="10个" transform="translate(638.000000, 60.000000)">
                    <rect id="矩形" fill="#FFFFFF" x="0" y="0" width="80" height="80"></rect>
                    <path d="M62.4,62.4 C67.2601058,62.4 71.2,66.3398942 71.2,71.2 C71.2,76.0601058 67.2601058,80 62.4,80 C57.5398942,80 53.6,76.0601058 53.6,71.2 C53.6,66.3398942 57.5398942,62.4 62.4,62.4 Z M24.8,67.2 C28.3346224,67.2 31.2,70.0653776 31.2,73.6 C31.2,77.1346224 28.3346224,80 24.8,80 C21.2653776,80 18.4,77.1346224 18.4,73.6 C18.4,70.0653776 21.2653776,67.2 24.8,67.2 Z M18.8,58.4 C20.7882251,58.4 22.4,60.0117749 22.4,62 C22.4,63.9882251 20.7882251,65.6 18.8,65.6 C16.8117749,65.6 15.2,63.9882251 15.2,62 C15.2,60.0117749 16.8117749,58.4 18.8,58.4 Z M5.6,52.8 C8.6927946,52.8 11.2,55.3072054 11.2,58.4 C11.2,61.4927946 8.6927946,64 5.6,64 C2.5072054,64 -1.44950718e-12,61.4927946 -1.44950718e-12,58.4 C-1.44950718e-12,55.3072054 2.5072054,52.8 5.6,52.8 Z M72,47.2 C75.0927946,47.2 77.6,49.7072054 77.6,52.8 C77.6,55.8927946 75.0927946,58.4 72,58.4 C68.9072054,58.4 66.4,55.8927946 66.4,52.8 C66.4,49.7072054 68.9072054,47.2 72,47.2 Z M69.2,28 C71.1882251,28 72.8,29.6117749 72.8,31.6 C72.8,33.5882251 71.1882251,35.2 69.2,35.2 C67.2117749,35.2 65.6,33.5882251 65.6,31.6 C65.6,29.6117749 67.2117749,28 69.2,28 Z M13.2,20 C16.0718807,20 18.4,22.3281193 18.4,25.2 C18.4,28.0718807 16.0718807,30.4 13.2,30.4 C10.3281193,30.4 8,28.0718807 8,25.2 C8,22.3281193 10.3281193,20 13.2,20 Z M72,8 C76.418278,8 80,11.581722 80,16 C80,20.418278 76.418278,24 72,24 C67.581722,24 64,20.418278 64,16 C64,11.581722 67.581722,8 72,8 Z M6.8,-7.2475359e-13 C10.5555363,-7.2475359e-13 13.6,3.0444637 13.6,6.8 C13.6,10.5555363 10.5555363,13.6 6.8,13.6 C3.0444637,13.6 -1.17683641e-12,10.5555363 -1.17683641e-12,6.8 C-1.17683641e-12,3.0444637 3.0444637,-7.2475359e-13 6.8,-7.2475359e-13 Z M46.4,4 C49.0509668,4 51.2,6.1490332 51.2,8.8 C51.2,11.4509668 49.0509668,13.6 46.4,13.6 C43.7490332,13.6 41.6,11.4509668 41.6,8.8 C41.6,6.1490332 43.7490332,4 46.4,4 Z" id="形状结合" fill="#BABABA"></path>
                    <path d="M24,22.4 L56,22.4 C58.209139,22.4 60,24.190861 60,26.4 L60,58.4 C60,60.609139 58.209139,62.4 56,62.4 L24,62.4 C21.790861,62.4 20,60.609139 20,58.4 L20,26.4 C20,24.190861 21.790861,22.4 24,22.4 Z" id="矩形" fill="#39CA9F" transform="translate(40.000000, 42.400000) rotate(45.000000) translate(-40.000000, -42.400000) "></path>
                </g>
            </g>
        </g>
    </g>
</svg>