<?xml version="1.0" encoding="UTF-8"?>
<svg width="56px" height="56px" viewBox="0 0 56 56" version="1.1" xmlns="http://www.w3.org/2000/svg" xmlns:xlink="http://www.w3.org/1999/xlink">
    <title>编组 2备份</title>
    <g id="页面-1" stroke="none" stroke-width="1" fill="none" fill-rule="evenodd">
        <g id="Project_Requests_No-Project" transform="translate(-752.000000, -354.000000)">
            <g id="编组-2备份" transform="translate(752.000000, 354.000000)">
                <rect id="矩形" x="0" y="0" width="56" height="56"></rect>
                <path d="M28,10.5 C35.0944123,10.5 41.1170934,15.088627 43.2620475,21.4598854 L43.3630041,21.770581 L43.4061101,21.9120691 C43.4707226,22.1273882 43.6348151,22.2985745 43.8472085,22.3722365 L44.1146452,22.4683346 C48.6063781,24.1692019 51.8,28.5116458 51.8,33.6 L51.8,34.3 C51.8,40.8721885 46.4721885,46.2 39.9,46.2 L16.1,46.2 C9.52781148,46.2 4.2,40.8721885 4.2,34.3 L4.2,33.6 C4.2,28.5904789 7.29543189,24.3039346 11.6779386,22.5487242 L11.9768141,22.4339366 L12.1532477,22.3714937 C12.3656844,22.2978491 12.529818,22.1266466 12.5944449,21.9112952 L12.6591174,21.7011359 C14.731188,15.2050796 20.8161289,10.5 28,10.5 Z M28,14.7 C22.7116577,14.7 18.1075104,18.1810991 16.6071705,23.1490517 L16.5380814,23.3867368 L16.2531001,24.406638 C16.0498554,25.1340171 15.493757,25.7100076 14.7739672,25.9386806 L13.7647073,26.2593166 C10.6627682,27.2447847 8.49195358,30.0988957 8.40284929,33.3893896 L8.4,33.6 L8.4,34.3 C8.4,38.4850911 11.7388345,41.8903556 15.8981148,41.9974048 L16.1,42 L39.9,42 C44.0850911,42 47.4903556,38.6611655 47.5974048,34.5018852 L47.6,34.3 L47.6,33.6 C47.6,30.2916492 45.4939096,27.3892813 42.4328438,26.3254978 L42.2361707,26.2601075 L41.2268134,25.939548 C40.5069597,25.7109313 39.9507858,25.1349424 39.7474991,24.4075296 L39.4624565,23.387573 C38.0385801,18.2925722 33.3723542,14.7 28,14.7 Z M29.4,21 C31.3329966,21 32.9,22.5670034 32.9,24.5 L32.9,25.2 L33.6,25.2 C35.5329966,25.2 37.1,26.7670034 37.1,28.7 L37.1,35 C37.1,36.9329966 35.5329966,38.5 33.6,38.5 L27.3,38.5 C25.3670034,38.5 23.8,36.9329966 23.8,35 L23.8,34.3 L23.1,34.3 C21.1670034,34.3 19.6,32.7329966 19.6,30.8 L19.6,24.5 C19.6,22.5670034 21.1670034,21 23.1,21 L29.4,21 Z M30.1,23.8 L22.4,23.8 L22.4,31.5 L30.1,31.5 L30.1,28.7 L32.9,28.7 L32.9,30.8 C32.9,32.7329966 31.3329966,34.3 29.4,34.3 L26.6,34.3 L26.6,35.7 L34.3,35.7 L34.3,28 L26.6,28 L26.6,30.8 L23.8,30.8 L23.8,28.7 C23.8,26.7670034 25.3670034,25.2 27.3,25.2 L30.1,25.2 L30.1,23.8 Z M46.2,12.6 C48.1329966,12.6 49.7,14.1670034 49.7,16.1 C49.7,18.0329966 48.1329966,19.6 46.2,19.6 C44.2670034,19.6 42.7,18.0329966 42.7,16.1 C42.7,14.1670034 44.2670034,12.6 46.2,12.6 Z" id="形状结合" fill="#E8E8E8" fill-rule="nonzero"></path>
            </g>
        </g>
    </g>
</svg>