<?xml version="1.0" encoding="utf-8"?>
<!-- Generator: Adobe Illustrator 25.0.0, SVG Export Plug-In . SVG Version: 6.00 Build 0)  -->
<svg version="1.1" id="图层_1" xmlns="http://www.w3.org/2000/svg" xmlns:xlink="http://www.w3.org/1999/xlink" x="0px" y="0px"
	 viewBox="0 0 1024 1024" style="enable-background:new 0 0 1024 1024;" xml:space="preserve">
<style type="text/css">
	.st0{fill:#00FDFF;}
	.st1{fill:#000072;}
	.st2{fill:#FFFFFF;stroke:#000072;stroke-width:16.7259;stroke-miterlimit:10;}
	.st3{fill:#FF1E97;}
</style>
<path class="st0" d="M719.74,694.59L414.17,871.01c-25.31,14.62-57.99,5.86-72.6-19.45L82.21,402.33
	c-14.62-25.32-5.86-57.99,19.45-72.6l305.56-176.42c25.32-14.62,57.99-5.86,72.6,19.45l259.36,449.23
	C753.8,647.31,745.05,679.98,719.74,694.59z"/>
<path class="st1" d="M387.7,886.48c-21.28,0-41.99-11.03-53.37-30.74L74.97,406.51c-8.19-14.18-10.35-30.75-6.08-46.66
	c4.26-15.91,14.42-29.18,28.6-37.37l305.56-176.42c29.37-16.96,67.07-6.86,84.03,22.51l259.36,449.23
	c8.19,14.18,10.35,30.75,6.08,46.66c-4.26,15.91-14.42,29.18-28.6,37.37L418.35,878.25C408.69,883.83,398.13,886.48,387.7,886.48z
	 M433.73,154.56c-7.59,0-15.28,1.93-22.32,5.99L105.84,336.97c-21.39,12.35-28.74,39.79-16.39,61.18l259.36,449.23
	c12.35,21.39,39.79,28.74,61.18,16.39l305.56-176.42c10.31-5.95,17.7-15.62,20.8-27.21c3.11-11.6,1.54-23.66-4.41-33.97
	L472.58,176.94C464.3,162.59,449.21,154.56,433.73,154.56z"/>
<path class="st1" d="M214.01,505.15c-2.89,0-5.7-1.5-7.25-4.18c-2.31-4-0.94-9.11,3.06-11.42l260.86-150.61
	c4-2.31,9.11-0.94,11.42,3.06c2.31,4,0.94,9.11-3.06,11.42L218.18,504.03C216.87,504.79,215.43,505.15,214.01,505.15z"/>
<path class="st1" d="M268.37,599.31c-2.89,0-5.7-1.5-7.25-4.18c-2.31-4-0.94-9.12,3.06-11.42l260.86-150.61
	c4-2.31,9.12-0.94,11.42,3.06c2.31,4,0.94,9.11-3.06,11.42L272.54,598.18C271.23,598.95,269.79,599.31,268.37,599.31z"/>
<path class="st1" d="M322.73,693.46c-2.89,0-5.7-1.5-7.25-4.18c-2.31-4-0.94-9.12,3.06-11.42L579.4,527.25
	c4-2.31,9.12-0.94,11.42,3.06c2.31,4,0.94,9.12-3.06,11.42L326.9,692.34C325.59,693.1,324.15,693.46,322.73,693.46z"/>
<path class="st2" d="M922.34,695.3L563.19,902.65c-25.32,14.62-57.99,5.86-72.6-19.45L212.37,401.3
	c-14.62-25.31-5.86-57.99,19.45-72.6l359.14-207.35c25.32-14.62,57.99-5.86,72.6,19.45l278.23,481.9
	C956.41,648.02,947.65,680.69,922.34,695.3z"/>
<circle class="st3" cx="846" cy="642.11" r="33.45"/>
<path class="st1" d="M778.78,462.15c-15.26-19.49-36.63-33.58-60.28-39.77c-11.53-27.44-30.78-50.76-55.74-67.51
	c-25.33-17-54.71-25.98-84.95-25.98l-1.51,0.01c-30.21,0.3-59.5,9.61-84.71,26.92c-24.84,17.05-43.87,40.59-55.09,68.13
	c-22.77,7.17-42.34,21.13-56.66,40.42c-14.59,19.65-22.29,42.92-22.29,67.31c0,62.27,50.65,112.94,112.91,112.94h172.55l46.97-0.01
	c62.26,0,112.91-50.66,112.91-112.93C802.9,506.72,794.34,482.03,778.78,462.15z M751.63,592.8
	c-15.12,15.47-35.21,23.98-56.58,23.98H465.37c-40.76-0.05-74.93-31.36-79.48-72.81c-4.45-40.55,21.29-78.61,59.9-88.61
	c7.52-0.63,13.95-5.75,16.45-13.12c16.27-50.62,62.19-84.98,114.24-85.5l1.22-0.01c51.26,0,97.24,33.19,114.46,82.59
	c0.2,0.84,0.46,1.68,0.76,2.48c2.51,6.55,8.24,11.2,14.9,12.12c38.98,6.47,67.27,40.5,67.26,80.92
	C775.08,556.74,766.75,577.32,751.63,592.8z"/>
<path class="st1" d="M656.16,492.95L656.16,492.95c-0.18-16.7-13.9-30.23-30.65-30.23c-0.05,0-0.11,0-0.16,0l-14.33,0.13l-0.09-8.87
	c-0.18-16.67-13.88-30.22-30.54-30.22l-62,0.59c-16.81,0.18-30.37,14-30.23,30.82l0.59,61.71c0.18,16.67,13.88,30.23,30.55,30.23
	c0,0,0,0,0.01,0l14.59-0.13l0.09,8.88c0.18,16.66,13.88,30.22,30.55,30.22l62-0.59c16.81-0.18,30.37-13.99,30.23-30.8L656.16,492.95
	z M581.29,546.51c16.81-0.18,30.37-14,30.23-30.82l-0.17-17.63c-0.03-2.65-1.08-5.13-2.96-6.97c-1.86-1.83-4.33-2.84-7.03-2.84
	c-5.46,0.05-9.86,4.54-9.82,10l0.17,17.63c0.05,5.9-4.71,10.75-10.61,10.82l-61.7,0.59h-0.11c-5.85,0-10.67-4.76-10.73-10.61
	l-0.59-61.71c-0.05-5.9,4.71-10.75,10.61-10.82l61.71-0.59h0.11c5.85,0,10.66,4.76,10.72,10.61l0.09,8.87l-27.59,0.26
	c-16.81,0.18-30.37,14-30.23,30.81l0.17,17.41c0.05,5.41,4.5,9.81,10.01,9.81c5.46-0.06,9.85-4.54,9.8-10l-0.16-17.41
	c-0.05-5.9,4.71-10.75,10.61-10.81l61.7-0.59h0.11c5.85,0,10.67,4.76,10.73,10.61l0.59,61.7c0.05,5.9-4.71,10.75-10.61,10.82
	l-61.71,0.59h-0.11c-5.85,0-10.66-4.76-10.72-10.6l-0.09-8.87L581.29,546.51z"/>
</svg>
