<?xml version="1.0" encoding="UTF-8"?>
<svg width="64px" height="64px" viewBox="0 0 64 64" version="1.1" xmlns="http://www.w3.org/2000/svg" xmlns:xlink="http://www.w3.org/1999/xlink">
    <title>手机</title>
    <g id="手机" stroke="none" stroke-width="1" fill="none" fill-rule="evenodd">
        <g id="elara" transform="translate(1.000000, 4.000000)" fill-rule="nonzero">
            <path d="M45.7618,40.6413 L24.3719,52.9907 C22.6002,54.0141 20.3126,53.4009 19.2899,51.6292 L1.1347,20.1831 C0.1113,18.4107 0.7245,16.1238 2.4962,15.1011 L23.8854,2.7517 C25.6578,1.7283 27.9447,2.3415 28.9674,4.1132 L47.1226,35.5593 C48.146,37.3317 47.5335,39.6186 45.7618,40.6413 Z" id="路径" fill="#00FDFF"></path>
            <path d="M22.519,54.0736 C21.0294,54.0736 19.5797,53.3015 18.7831,51.9218 L0.6279,20.4757 C0.0546,19.4831 -0.0966,18.3232 0.2023,17.2095 C0.5005,16.0958 1.2117,15.1669 2.2043,14.5936 L23.5935,2.2442 C25.6494,1.057 28.2884,1.764 29.4756,3.8199 L47.6308,35.266 C48.2041,36.2586 48.3553,37.4185 48.0564,38.5322 C47.7582,39.6459 47.047,40.5748 46.0544,41.1481 L24.6645,53.4975 C23.9883,53.8881 23.2491,54.0736 22.519,54.0736 Z M25.7411,2.8392 C25.2098,2.8392 24.6715,2.9743 24.1787,3.2585 L2.7888,15.6079 C1.2915,16.4724 0.777,18.3932 1.6415,19.8905 L19.7967,51.3366 C20.6612,52.8339 22.582,53.3484 24.0793,52.4839 L45.4685,40.1345 C46.1902,39.718 46.7075,39.0411 46.9245,38.2298 C47.1422,37.4178 47.0323,36.5736 46.6158,35.8519 L28.4606,4.4058 C27.881,3.4013 26.8247,2.8392 25.7411,2.8392 Z" id="形状" fill="#000072"></path>
            <path d="M10.3607,27.3805 C10.1584,27.3805 9.9617,27.2755 9.8532,27.0879 C9.6915,26.8079 9.7874,26.4502 10.0674,26.2885 L28.3276,15.7458 C28.6076,15.5841 28.9653,15.68 29.127,15.96 C29.2887,16.24 29.1928,16.5977 28.9128,16.7594 L10.6526,27.3021 C10.5609,27.3553 10.4601,27.3805 10.3607,27.3805 Z" id="路径" fill="#000072"></path>
            <path d="M14.1659,33.9717 C13.9636,33.9717 13.7669,33.8667 13.6584,33.6791 C13.4967,33.3991 13.5926,33.0407 13.8726,32.8797 L32.1328,22.337 C32.4128,22.1753 32.7712,22.2712 32.9322,22.5512 C33.0939,22.8312 32.998,23.1889 32.718,23.3506 L14.4578,33.8926 C14.3661,33.9465 14.2653,33.9717 14.1659,33.9717 Z" id="路径" fill="#000072"></path>
            <path d="M17.9711,40.5622 C17.7688,40.5622 17.5721,40.4572 17.4636,40.2696 C17.3019,39.9896 17.3978,39.6312 17.6778,39.4702 L35.938,28.9275 C36.218,28.7658 36.5764,28.8617 36.7374,29.1417 C36.8991,29.4217 36.8032,29.7801 36.5232,29.9411 L18.263,40.4838 C18.1713,40.537 18.0705,40.5622 17.9711,40.5622 Z" id="路径" fill="#000072"></path>
            <path d="M59.9438,40.691 L34.8033,55.2055 C33.0309,56.2289 30.744,55.6157 29.7213,53.844 L10.2459,20.111 C9.2225,18.3393 9.8357,16.0517 11.6074,15.029 L36.7472,0.5145 C38.5196,-0.5089 40.8065,0.1043 41.8292,1.876 L61.3053,35.609 C62.3287,37.3814 61.7155,39.6683 59.9438,40.691 Z" id="路径" stroke="#000072" stroke-width="1.170813" fill="#FFFFFF"></path>
            <circle id="椭圆形" fill="#FF1E97" cx="54.6" cy="36.9677" r="2.3415"></circle>
            <path d="M49.8946,24.3705 C48.8264,23.0062 47.3305,22.0199 45.675,21.5866 C44.8679,19.6658 43.5204,18.0334 41.7732,16.8609 C40.0001,15.6709 37.9435,15.0423 35.8267,15.0423 L35.721,15.043 C33.6063,15.064 31.556,15.7157 29.7913,16.9274 C28.0525,18.1209 26.7204,19.7687 25.935,21.6965 C24.3411,22.1984 22.9712,23.1756 21.9688,24.5259 C20.9475,25.9014 20.4085,27.5303 20.4085,29.2376 C20.4085,33.5965 23.954,37.1434 28.3122,37.1434 L40.3907,37.1434 L43.6786,37.1427 C48.0368,37.1427 51.5823006,33.5965 51.5823006,29.2376 C51.583,27.4904 50.9838,25.7621 49.8946,24.3705 Z M47.9941,33.516 C46.9357,34.5989 45.5294,35.1946 44.0335,35.1946 L27.9559,35.1946 C25.1027,35.1911 22.7108,32.9994 22.3923,30.0979 C22.0808,27.2594 23.8826,24.5952 26.5853,23.8952 C27.1117,23.8511 27.5618,23.4927 27.7368,22.9768 C28.8757,19.4334 32.0901,17.0282 35.7336,16.9918 L35.819,16.9911 C39.4072,16.9911 42.6258,19.3144 43.8312,22.7724 C43.8452,22.8312 43.8634,22.89 43.8844,22.946 C44.0601,23.4045 44.4612,23.73 44.9274,23.7944 C47.656,24.2473 49.6363,26.6294 49.6356002,29.4588 C49.6356002,30.9918 49.0525,32.4324 47.9941,33.516 Z" id="形状" fill="#000072"></path>
            <path d="M41.3112,26.5265 L41.3112,26.5265 C41.2986,25.3575 40.3382,24.4104 39.1657,24.4104 C39.1622,24.4104 39.158,24.4104 39.1545,24.4104 L38.1514,24.4195 L38.1451,23.7986 C38.1325,22.6317 37.1735,21.6832 36.0073,21.6832 L31.6673,21.7245 C30.4906,21.7371 29.5414,22.7045 29.5511248,23.8819 L29.5925,28.2016 C29.6051,29.3685 30.5641,30.3177 31.731,30.3177 C31.731,30.3177 31.731,30.3177 31.7317,30.3177 L32.753,30.3086 L32.7593,30.9302 C32.7719,32.0964 33.7309,33.0456 34.8978,33.0456 L39.2378,33.0043 C40.4145,32.9917 41.3637,32.025 41.3539752,30.8483 L41.3112,26.5265 Z M36.0703,30.2757 C37.247,30.2631 38.1962,29.2957 38.1864,28.1183 L38.1745,26.8842 C38.1724,26.6987 38.0989,26.5251 37.9673,26.3963 C37.8371,26.2682 37.6642,26.1975 37.4752,26.1975 C37.093,26.201 36.785,26.5153 36.7878,26.8975 L36.7997,28.1316 C36.8032,28.5446 36.47,28.8841 36.057,28.889 L31.738,28.9303 L31.7303,28.9303 C31.3208,28.9303 30.9834,28.5971 30.9792,28.1876 L30.9378727,23.8679 C30.9344,23.4549 31.2676,23.1154 31.6806,23.1105 L36.0003,23.0692 L36.008,23.0692 C36.4175,23.0692 36.7542,23.4024 36.7584,23.8119 L36.7647,24.4328 L34.8334,24.451 C33.6567,24.4636 32.7075,25.431 32.7173,26.6077 L32.7292,27.8264 C32.7327,28.2051 33.0442,28.5131 33.4299,28.5131 C33.8121,28.5089 34.1194,28.1953 34.1159,27.8131 L34.1047,26.5944 C34.1012,26.1814 34.4344,25.8419 34.8474,25.8377 L39.1664,25.7964 L39.1741,25.7964 C39.5836,25.7964 39.921,26.1296 39.9252,26.5391 L39.9665273,30.8581 C39.97,31.2711 39.6368,31.6106 39.2238,31.6155 L34.9041,31.6568 L34.8964,31.6568 C34.4869,31.6568 34.1502,31.3236 34.146,30.9148 L34.1397,30.2939 L36.0703,30.2757 Z" id="形状" fill="#000072"></path>
        </g>
    </g>
</svg>