<?xml version="1.0" encoding="UTF-8"?>
<svg width="12px" height="12px" viewBox="0 0 12 12" version="1.1" xmlns="http://www.w3.org/2000/svg" xmlns:xlink="http://www.w3.org/1999/xlink">
    <title>形状结合</title>
    <g id="Elara-Web" stroke="none" stroke-width="1" fill="none" fill-rule="evenodd">
        <g id="中文/英文备份" transform="translate(-267.000000, -142.000000)" fill="#FFFFFF">
            <g id="编组" transform="translate(240.000000, 114.000000)">
                <g id="Group" transform="translate(17.000000, 20.000000)">
                    <path d="M16,8 C19.3137085,8 22,10.6862915 22,14 C22,17.3137085 19.3137085,20 16,20 C12.6862915,20 10,17.3137085 10,14 C10,10.6862915 12.6862915,8 16,8 Z M16.5,11 L15.5,11 L15.5,13.5 L13,13.5 L13,14.5 L15.5,14.5 L15.5,17 L16.5,17 L16.5,14.5 L19,14.5 L19,13.5 L16.5,13.5 L16.5,11 Z" id="形状结合"></path>
                </g>
            </g>
        </g>
    </g>
</svg>