<svg xmlns="http://www.w3.org/2000/svg" width="15" height="15" viewBox="0 0 15 15">
  <g fill="none">
    <path fill="#333" d="M0,7.5 C0,11.6421356 3.35786438,15 7.5,15 C11.6421356,15 15,11.6421356 15,7.5 C15,3.35786438 11.6421356,0 7.5,0 C3.35786438,0 0,3.35786438 0,7.5 Z"/>
    <path fill="#FFF" d="M12.2018555,7.91708496 L10.1796094,7.91446289 C10.0715588,7.94433308 9.95966266,7.88136369 9.92912109,7.77350098 L9.62359863,6.83009766 L8.66825684,11.1972803 C8.66825684,11.1972803 8.64874512,11.4276709 8.52087891,11.4276709 C8.3930127,11.4276709 8.17718262,11.4308789 8.17718262,11.4308789 C8.07281256,11.4593301 7.9649229,11.3987689 7.93485352,11.2948535 L6.74941406,5.59806152 L5.85058594,9.71359863 C5.8214502,9.8169873 5.69794922,9.90291504 5.59019531,9.87524414 L5.27213379,9.87960938 C5.16271862,9.90941495 5.04943088,9.84683999 5.01640137,9.73835449 L4.4169873,7.9176709 L2.79815918,7.9176709 C2.68701975,7.91880365 2.59587494,7.8298787 2.59426758,7.71874512 L2.59426758,7.32 C2.59587482,7.20881999 2.68697179,7.11981081 2.79815918,7.12078125 L4.81048828,7.1146582 C4.93280273,7.11058594 5.03651367,7.12456055 5.06649902,7.23117187 L5.37815918,8.17804687 L6.25543945,3.71097656 C6.25543945,3.71097656 6.29912109,3.57553711 6.43951172,3.57553711 C6.57990234,3.57553711 6.87640137,3.56970703 6.87640137,3.56970703 C6.98082149,3.54160563 7.08853646,3.6021953 7.11874512,3.70602539 L8.29369629,9.35796387 L9.16019531,5.29833984 C9.18931641,5.19580078 9.2714502,5.1098877 9.37688965,5.13726563 L9.72640137,5.13319336 C9.83425983,5.10414871 9.94555148,5.16664776 9.97688965,5.2738623 L10.5742676,7.12133789 L12.2018555,7.12133789 C12.3130372,7.12037555 12.4041252,7.2093824 12.4057324,7.32055664 L12.4057324,7.71873047 C12.4041251,7.82986405 12.3129803,7.918789 12.2018408,7.91765625"/>
  </g>
</svg>
