<?xml version="1.0" encoding="UTF-8"?>
<svg width="80px" height="80px" viewBox="0 0 80 80" version="1.1" xmlns="http://www.w3.org/2000/svg" xmlns:xlink="http://www.w3.org/1999/xlink">
    <title>简单易用</title>
    <g id="页面-1" stroke="none" stroke-width="1" fill="none" fill-rule="evenodd">
        <g id="Linkweb3-首页" transform="translate(-290.000000, -931.000000)" fill="#39CA9F" fill-rule="nonzero">
            <g id="简单易用" transform="translate(290.000000, 931.000000)">
                <path d="M38,0 C38.502077,0 38.9609436,0.185006302 39.3121469,0.490566285 L39.4142136,0.585786438 L79.4142136,40.5857864 C79.7761424,40.9477153 80,41.4477153 80,42 L80,78 C80,79.1045695 79.1045695,80 78,80 L42,80 C41.4477153,80 40.9477153,79.7761424 40.5857864,79.4142136 L0.585786438,39.4142136 L0.490566285,39.3121469 C0.185006302,38.9609436 0,38.502077 0,38 L0,2 C0,0.8954305 0.8954305,0 2,0 L38,0 Z M76,44 L44,44 L44,76 L76,76 L76,44 Z M40,6.829 L40,38 C40,39.1045695 39.1045695,40 38,40 L6.829,40 L40,73.171 L40,42 C40,40.8954305 40.8954305,40 42,40 L73.171,40 L40,6.829 Z M36,4 L4,4 L4,36 L36,36 L36,4 Z"></path>
            </g>
        </g>
    </g>
</svg>