<?xml version="1.0" encoding="UTF-8"?>
<svg width="81px" height="81px" viewBox="0 0 81 81" version="1.1" xmlns="http://www.w3.org/2000/svg" xmlns:xlink="http://www.w3.org/1999/xlink">
    <title>编组 14</title>
    <defs>
        <linearGradient x1="82%" y1="0%" x2="18%" y2="100%" id="linearGradient-1">
            <stop stop-color="#1AB174" offset="0%"></stop>
            <stop stop-color="#118A68" offset="100%"></stop>
        </linearGradient>
    </defs>
    <g id="页面-1" stroke="none" stroke-width="1" fill="none" fill-rule="evenodd">
        <g id="Elara中文" transform="translate(-880.000000, -780.000000)">
            <g id="编组-14" transform="translate(880.000000, 780.000000)">
                <rect id="矩形" x="0" y="0" width="80" height="80"></rect>
                <g id="编组-13" transform="translate(1.000000, 1.000000)">
                    <path d="M16.0608163,11.7703143 C30.7547557,9.135465 38.7547557,6.7810991 40.0608163,4.70721654 C41.5498773,6.83988279 49.5498773,9.19424869 64.0608163,11.7703143 L63.9854088,28.722881 C63.9155852,44.420137 54.5084249,58.5691935 40.0608163,64.7072165 L40.0608163,64.7072165 L40.0608163,64.7072165 C25.6132077,58.5691935 16.2060474,44.420137 16.1362238,28.722881 L16.0608163,11.7703143 L16.0608163,11.7703143 Z" id="矩形" fill="url(#linearGradient-1)"></path>
                    <polyline id="路径-7" stroke="#FFFFFF" stroke-width="2" stroke-linecap="round" stroke-linejoin="round" points="32.5608163 35.0109999 38.4361261 41.2072165 50.5608163 27.2072165"></polyline>
                    <g id="编组-12" transform="translate(30.000000, 0.000000)" stroke="#686868">
                        <path d="M0,8.81686715 C0.0590977636,26.074767 1.19650859,38.1034733 3.41223248,44.9029863 C11.4706483,69.6322872 41,78.8168671 41,78.8168671" id="路径-6备份" stroke-linecap="round" transform="translate(20.500000, 43.816867) scale(-1, 1) translate(-20.500000, -43.816867) "></path>
                        <path d="M42.450328,9.66992285 C41.012554,8.0880649 40.293667,6.76868569 40.293667,5.71178522 C40.293667,4.65488474 41.2044147,3.08581256 43.0259102,1.00456868 C44.7771642,2.95185958 45.6527912,4.42133743 45.6527912,5.41300225 C45.6527912,6.40466706 44.5853035,7.82364059 42.450328,9.66992285 Z" id="路径-6" transform="translate(42.973229, 5.337246) rotate(20.000000) translate(-42.973229, -5.337246) "></path>
                        <path d="M44.5061166,17.3363442 C43.1465694,15.6534776 42.4667958,14.283594 42.4667958,13.2266936 C42.4667958,12.1697931 43.1465694,10.6007209 44.5061166,8.51947702 C45.8132361,10.4667679 46.4667958,11.9362458 46.4667958,12.9279106 C46.4667958,13.9195754 45.8132361,15.3890533 44.5061166,17.3363442 Z" id="路径-6备份-2" transform="translate(44.466796, 12.927911) rotate(45.000000) translate(-44.466796, -12.927911) "></path>
                        <path d="M44.5061166,24.3363442 C43.1465694,22.6534776 42.4667958,21.283594 42.4667958,20.2266936 C42.4667958,19.1697931 43.1465694,17.6007209 44.5061166,15.519477 C45.8132361,17.4667679 46.4667958,18.9362458 46.4667958,19.9279106 C46.4667958,20.9195754 45.8132361,22.3890533 44.5061166,24.3363442 Z" id="路径-6备份-3" transform="translate(44.466796, 19.927911) rotate(45.000000) translate(-44.466796, -19.927911) "></path>
                        <path d="M43.5061166,31.3363442 C42.1465694,29.6534776 41.4667958,28.283594 41.4667958,27.2266936 C41.4667958,26.1697931 42.1465694,24.6007209 43.5061166,22.519477 C44.8132361,24.4667679 45.4667958,25.9362458 45.4667958,26.9279106 C45.4667958,27.9195754 44.8132361,29.3890533 43.5061166,31.3363442 Z" id="路径-6备份-4" transform="translate(43.466796, 26.927911) rotate(45.000000) translate(-43.466796, -26.927911) "></path>
                        <path d="M42.5061166,38.3363442 C41.1465694,36.6534776 40.4667958,35.283594 40.4667958,34.2266936 C40.4667958,33.1697931 41.1465694,31.6007209 42.5061166,29.519477 C43.8132361,31.4667679 44.4667958,32.9362458 44.4667958,33.9279106 C44.4667958,34.9195754 43.8132361,36.3890533 42.5061166,38.3363442 Z" id="路径-6备份-5" transform="translate(42.466796, 33.927911) rotate(45.000000) translate(-42.466796, -33.927911) "></path>
                        <path d="M41.5061166,45.3363442 C40.1465694,43.6534776 39.4667958,42.283594 39.4667958,41.2266936 C39.4667958,40.1697931 40.1465694,38.6007209 41.5061166,36.519477 C42.8132361,38.4667679 43.4667958,39.9362458 43.4667958,40.9279106 C43.4667958,41.9195754 42.8132361,43.3890533 41.5061166,45.3363442 Z" id="路径-6备份-6" transform="translate(41.466796, 40.927911) rotate(45.000000) translate(-41.466796, -40.927911) "></path>
                        <path d="M37.9822986,53.6629565 C36.9735134,51.7629903 36.4691208,50.284557 36.4691208,49.2276566 C36.4691208,48.1707561 37.2299174,46.4909422 38.7515106,44.1882149 C39.8965841,46.3569892 40.4691208,47.9372088 40.4691208,48.9288736 C40.4691208,49.9205384 39.6401801,51.498566 37.9822986,53.6629565 Z" id="路径-6备份-7" transform="translate(38.469121, 48.925586) rotate(45.000000) translate(-38.469121, -48.925586) "></path>
                        <path d="M32.6960331,62.5649694 C32.4341965,60.0030356 32.3032782,58.1936184 32.3032782,57.136718 C32.3032782,56.0798175 33.1908337,54.2327924 34.9659448,51.5956427 C36.0283048,53.9815303 36.4312411,55.8294833 36.1747536,57.1395017 C35.9182662,58.4495201 34.7586927,60.2580094 32.6960331,62.5649694 Z" id="路径-6备份-8" transform="translate(34.276427, 57.080306) rotate(45.000000) translate(-34.276427, -57.080306) "></path>
                        <path d="M26.0147268,70.7400058 C25.7528902,68.178072 25.6219719,66.3686549 25.6219719,65.3117544 C25.6219719,64.2548539 26.5906913,62.1496915 28.5281301,58.9962671 C29.4281623,61.8984294 29.7499347,64.0045197 29.4934473,65.3145381 C29.2369599,66.6245565 28.0773864,68.4330458 26.0147268,70.7400058 Z" id="路径-6备份-9" transform="translate(27.600372, 64.868136) rotate(56.000000) translate(-27.600372, -64.868136) "></path>
                    </g>
                    <g id="编组-12" transform="translate(24.500000, 39.500000) scale(-1, 1) translate(-24.500000, -39.500000) " stroke="#686868">
                        <path d="M0,8.81686715 C0.0590977636,26.074767 1.19650859,38.1034733 3.41223248,44.9029863 C11.4706483,69.6322872 41,78.8168671 41,78.8168671" id="路径-6备份" stroke-linecap="round" transform="translate(20.500000, 43.816867) scale(-1, 1) translate(-20.500000, -43.816867) "></path>
                        <path d="M42.4284407,9.55991386 C41.0181899,8.05367545 40.3130645,6.772106 40.3130645,5.71520553 C40.3130645,4.65830505 41.2238123,3.08923287 43.0453078,1.00798899 C44.7965618,2.95527989 45.6721887,4.42475775 45.6721887,5.41642256 C45.6721887,6.40808737 44.5909394,7.78925114 42.4284407,9.55991386 Z" id="路径-6" transform="translate(42.992627, 5.283951) rotate(20.000000) translate(-42.992627, -5.283951) "></path>
                        <path d="M44.5061166,17.3363442 C43.1465694,15.6534776 42.4667958,14.283594 42.4667958,13.2266936 C42.4667958,12.1697931 43.1465694,10.6007209 44.5061166,8.51947702 C45.8132361,10.4667679 46.4667958,11.9362458 46.4667958,12.9279106 C46.4667958,13.9195754 45.8132361,15.3890533 44.5061166,17.3363442 Z" id="路径-6备份-2" transform="translate(44.466796, 12.927911) rotate(45.000000) translate(-44.466796, -12.927911) "></path>
                        <path d="M44.5061166,24.3363442 C43.1465694,22.6534776 42.4667958,21.283594 42.4667958,20.2266936 C42.4667958,19.1697931 43.1465694,17.6007209 44.5061166,15.519477 C45.8132361,17.4667679 46.4667958,18.9362458 46.4667958,19.9279106 C46.4667958,20.9195754 45.8132361,22.3890533 44.5061166,24.3363442 Z" id="路径-6备份-3" transform="translate(44.466796, 19.927911) rotate(45.000000) translate(-44.466796, -19.927911) "></path>
                        <path d="M43.5061166,31.3363442 C42.1465694,29.6534776 41.4667958,28.283594 41.4667958,27.2266936 C41.4667958,26.1697931 42.1465694,24.6007209 43.5061166,22.519477 C44.8132361,24.4667679 45.4667958,25.9362458 45.4667958,26.9279106 C45.4667958,27.9195754 44.8132361,29.3890533 43.5061166,31.3363442 Z" id="路径-6备份-4" transform="translate(43.466796, 26.927911) rotate(45.000000) translate(-43.466796, -26.927911) "></path>
                        <path d="M42.5061166,38.3363442 C41.1465694,36.6534776 40.4667958,35.283594 40.4667958,34.2266936 C40.4667958,33.1697931 41.1465694,31.6007209 42.5061166,29.519477 C43.8132361,31.4667679 44.4667958,32.9362458 44.4667958,33.9279106 C44.4667958,34.9195754 43.8132361,36.3890533 42.5061166,38.3363442 Z" id="路径-6备份-5" transform="translate(42.466796, 33.927911) rotate(45.000000) translate(-42.466796, -33.927911) "></path>
                        <path d="M41.5061166,45.3363442 C40.1465694,43.6534776 39.4667958,42.283594 39.4667958,41.2266936 C39.4667958,40.1697931 40.1465694,38.6007209 41.5061166,36.519477 C42.8132361,38.4667679 43.4667958,39.9362458 43.4667958,40.9279106 C43.4667958,41.9195754 42.8132361,43.3890533 41.5061166,45.3363442 Z" id="路径-6备份-6" transform="translate(41.466796, 40.927911) rotate(45.000000) translate(-41.466796, -40.927911) "></path>
                        <path d="M37.9822986,53.6629565 C36.9735134,51.7629903 36.4691208,50.284557 36.4691208,49.2276566 C36.4691208,48.1707561 37.2299174,46.4909422 38.7515106,44.1882149 C39.8965841,46.3569892 40.4691208,47.9372088 40.4691208,48.9288736 C40.4691208,49.9205384 39.6401801,51.498566 37.9822986,53.6629565 Z" id="路径-6备份-7" transform="translate(38.469121, 48.925586) rotate(45.000000) translate(-38.469121, -48.925586) "></path>
                        <path d="M32.6960331,62.5649694 C32.4341965,60.0030356 32.3032782,58.1936184 32.3032782,57.136718 C32.3032782,56.0798175 33.1908337,54.2327924 34.9659448,51.5956427 C36.0283048,53.9815303 36.4312411,55.8294833 36.1747536,57.1395017 C35.9182662,58.4495201 34.7586927,60.2580094 32.6960331,62.5649694 Z" id="路径-6备份-8" transform="translate(34.276427, 57.080306) rotate(45.000000) translate(-34.276427, -57.080306) "></path>
                        <path d="M26.0147268,70.7400058 C25.7528902,68.178072 25.6219719,66.3686549 25.6219719,65.3117544 C25.6219719,64.2548539 26.5906913,62.1496915 28.5281301,58.9962671 C29.4281623,61.8984294 29.7499347,64.0045197 29.4934473,65.3145381 C29.2369599,66.6245565 28.0773864,68.4330458 26.0147268,70.7400058 Z" id="路径-6备份-9" transform="translate(27.600372, 64.868136) rotate(56.000000) translate(-27.600372, -64.868136) "></path>
                    </g>
                </g>
            </g>
        </g>
    </g>
</svg>