<?xml version="1.0" encoding="UTF-8"?>
<svg width="80px" height="80px" viewBox="0 0 80 80" version="1.1" xmlns="http://www.w3.org/2000/svg" xmlns:xlink="http://www.w3.org/1999/xlink">
    <title>稳定高可用</title>
    <g id="页面-1" stroke="none" stroke-width="1" fill="none" fill-rule="evenodd">
        <g id="Linkweb3-首页" transform="translate(-910.000000, -931.000000)" fill="#39CA9F" fill-rule="nonzero">
            <path d="M912.063762,1011 C910.923978,1011 910,1010.07602 910,1008.93624 C910,1008.61585 910.074595,1008.29986 910.217877,1008.01329 L948.153889,932.141272 C948.663616,931.121818 949.903262,930.708602 950.922717,931.218329 C951.322111,931.418027 951.645962,931.741877 951.845659,932.141272 L970.636,969.724 L970.637399,969.724751 L970.637,969.725 L989.781671,1008.01329 C990.291398,1009.03275 989.878182,1010.2724 988.858728,1010.78212 C988.572163,1010.92541 988.256174,1011 987.935785,1011 L912.063762,1011 Z M931.669,974.337 L915.401828,1006.87248 L947.935,1006.872 L931.669,974.337 Z M968.33,974.339 L952.063,1006.872 L984.596688,1006.87248 L968.33,974.339 Z M963.959063,973.852276 L936.039453,973.852276 L949.999774,1001.77189 L963.959063,973.852276 Z M949.999774,937.677615 L933.975,969.724 L966.022,969.724 L949.999774,937.677615 Z" id="稳定高可用"></path>
        </g>
    </g>
</svg>