<?xml version="1.0" encoding="UTF-8"?>
<svg width="80px" height="81px" viewBox="0 0 80 81" version="1.1" xmlns="http://www.w3.org/2000/svg" xmlns:xlink="http://www.w3.org/1999/xlink">
    <title>客户服务</title>
    <g id="页面-1" stroke="none" stroke-width="1" fill="none" fill-rule="evenodd">
        <g id="Linkweb3-首页" transform="translate(-909.000000, -1217.000000)" fill="#39CA9F" fill-rule="nonzero">
            <path d="M950.414214,1218.12994 L975.554,1243.26916 L987.020012,1243.26937 C988.025831,1243.26937 988.858342,1242.5201 989,1241.54416 C988.548042,1255.95492 980.623404,1268.46276 969.009539,1275.24705 L969.008874,1295.52334 C969.008771,1296.63938 968.112793,1297.54416 967.007562,1297.54416 L930.985152,1297.54416 C929.930134,1297.54416 929.065793,1296.71981 928.989396,1295.67418 L928.983931,1295.52334 L928.984172,1275.24763 C917.433094,1268.50047 909.531222,1256.09157 909,1241.77878 C909.58818,1242.71962 910.193368,1243.21444 910.815565,1243.26324 L910.972702,1243.26937 L922.445,1243.26916 L947.585786,1218.12994 C948.366835,1217.34889 949.633165,1217.34889 950.414214,1218.12994 Z M913.656184,1247.30999 L913.705129,1247.5591 C915.727782,1257.53937 921.830494,1266.22447 930.535713,1271.48037 L930.988296,1271.74915 L932.98669,1272.91645 L932.98621,1293.50179 L965.00613,1293.50179 L965.007126,1272.91588 L967.005315,1271.74863 C976.026397,1266.47893 982.332526,1257.56561 984.336491,1247.31084 L974.974,1247.31016 L950.414214,1271.87006 C949.633165,1272.65111 948.366835,1272.65111 947.585786,1271.87006 L923.024,1247.30916 L913.656184,1247.30999 Z M928.682,1247.30916 L949.000383,1267.62677 L969.316,1247.31016 L928.682,1247.30916 Z M949.000383,1222.37194 L928.102,1243.26916 L969.897,1243.26916 L949.000383,1222.37194 Z" id="客户服务"></path>
        </g>
    </g>
</svg>