<?xml version="1.0" encoding="UTF-8"?>
<svg width="12px" height="16px" viewBox="0 0 12 16" version="1.1" xmlns="http://www.w3.org/2000/svg" xmlns:xlink="http://www.w3.org/1999/xlink">
    <title>项目名称</title>
    <g id="页面-1" stroke="none" stroke-width="1" fill="none" fill-rule="evenodd">
        <g id="控制台" transform="translate(-200.000000, -188.000000)" fill="#232323" fill-rule="nonzero">
            <g id="编组-7" transform="translate(170.000000, 164.000000)">
                <g id="名称" transform="translate(30.000000, 24.000000)">
                    <path d="M6.049875,11.73675 C6.025875,11.71275 5.985875,11.69675 5.945875,11.69675 C5.889875,11.69675 5.833875,11.72075 5.793875,11.75275 L1.193875,15.92875 L0.985875,15.89675 C0.537875,15.83275 0.169875,15.55275 0.049875,15.16875 C0.025875,15.08075 0.009875,14.99275 0.009875,14.89675 L0.009875,1.01675 C0.009875,0.46475 0.521875,0.00875 1.161875,0.00875 L10.705875,0.00875 C11.337875,0.00875 11.857875,0.45675 11.857875,1.01675 L11.857875,14.90475 C11.857875,14.98475 11.849875,15.06475 11.825875,15.14475 C11.713875,15.52875 11.361875,15.82475 10.913875,15.89675 L10.697875,15.92875 L6.049875,11.73675 Z M1.817875,1.48075 C1.705875,1.48075 1.617875,1.55275 1.617875,1.63275 L1.617875,13.47275 L5.121875,10.28875 C5.345875,10.08875 5.633875,9.97675 5.945875,9.97675 C6.241875,9.97675 6.513875,10.08075 6.721875,10.26475 L10.225875,13.44875 L10.225875,1.63275 C10.225875,1.55275 10.137875,1.48075 10.025875,1.48075 L1.817875,1.48075 Z" id="项目名称"></path>
                </g>
            </g>
        </g>
    </g>
</svg>