<?xml version="1.0" encoding="UTF-8"?>
<svg width="16px" height="16px" viewBox="0 0 16 16" version="1.1" xmlns="http://www.w3.org/2000/svg" xmlns:xlink="http://www.w3.org/1999/xlink">
    <title>请求数</title>
    <g id="页面-1" stroke="none" stroke-width="1" fill="none" fill-rule="evenodd">
        <g id="控制台" transform="translate(-914.000000, -188.000000)" fill="#232323" fill-rule="nonzero">
            <g id="编组-7" transform="translate(170.000000, 164.000000)">
                <g id="编组-6" transform="translate(744.000000, 24.000000)">
                    <path d="M4,12 L4,16 L0,16 L0,12 L4,12 Z M10,12 L10,16 L6,16 L6,12 L10,12 Z M16,12 L16,16 L12,16 L12,12 L16,12 Z M3,13 L1,13 L1,15 L3,15 L3,13 Z M9,13 L7,13 L7,15 L9,15 L9,13 Z M15,13 L13,13 L13,15 L15,15 L15,13 Z M4,6 L4,10 L0,10 L0,6 L4,6 Z M10,6 L10,10 L6,10 L6,6 L10,6 Z M16,6 L16,10 L12,10 L12,6 L16,6 Z M3,7 L1,7 L1,9 L3,9 L3,7 Z M9,7 L7,7 L7,9 L9,9 L9,7 Z M15,7 L13,7 L13,9 L15,9 L15,7 Z M4,0 L4,4 L0,4 L0,0 L4,0 Z M10,0 L10,4 L6,4 L6,0 L10,0 Z M16,0 L16,4 L12,4 L12,0 L16,0 Z M3,1 L1,1 L1,3 L3,3 L3,1 Z M9,1 L7,1 L7,3 L9,3 L9,1 Z M15,1 L13,1 L13,3 L15,3 L15,1 Z" id="请求数"></path>
                </g>
            </g>
        </g>
    </g>
</svg>