<?xml version="1.0" encoding="UTF-8"?>
<svg width="146px" height="56px" viewBox="0 0 146 56" version="1.1" xmlns="http://www.w3.org/2000/svg" xmlns:xlink="http://www.w3.org/1999/xlink">
    <title>编组 4</title>
    <g id="页面-1" stroke="none" stroke-width="1" fill="none" fill-rule="evenodd">
        <g id="Elara中文" transform="translate(-50.000000, -2536.000000)">
            <g id="底部" transform="translate(0.000000, 2176.000000)">
                <g id="编组-4" transform="translate(50.000000, 360.000000)">
                    <rect id="矩形" x="0" y="0" width="145.6" height="56"></rect>
                    <path d="M81.326,39.2 L81.326,35.7812 L69.8992,35.7812 L69.8992,30.6068 L78.554,30.6068 L78.554,27.342 L69.8992,27.342 L69.8992,22.2908 L80.8948,22.2908 L80.8948,18.872 L65.6488,18.872 L65.6488,39.2 L81.326,39.2 Z M88.9779502,39.508 C89.4912835,39.508 90.0097502,39.4515333 90.5333502,39.3386 C91.0569502,39.2256667 91.4932835,39.0665333 91.8423502,38.8612 L91.8423502,38.8612 L92.2119502,36.0892 C91.8628835,36.1918667 91.5754169,36.2688667 91.3495502,36.3202 C91.1236835,36.3715333 90.8362169,36.3972 90.4871502,36.3972 C89.9122169,36.3972 89.5015502,36.2534667 89.2551502,35.966 C89.0087502,35.6785333 88.8855502,35.1754667 88.8855502,34.4568 L88.8855502,34.4568 L88.8855502,17.0548 L84.6659502,17.0548 L84.6659502,34.9188 C84.6659502,36.5204 85.0098835,37.6856667 85.6977502,38.4146 C86.3856169,39.1435333 87.4790169,39.508 88.9779502,39.508 Z M98.9971955,39.508 C99.8390621,39.508 100.655262,39.3642667 101.445795,39.0768 C102.236329,38.7893333 102.908795,38.3735333 103.463195,37.8294 C103.601795,37.6933667 103.72692,37.5499542 103.83857,37.3991625 L103.9108,37.2932 L103.991824,37.5207714 C104.025348,37.6031143 104.062224,37.6828381 104.102453,37.7599429 L104.233195,37.9834 C104.561729,38.4864667 105.013462,38.8612 105.588395,39.1076 C106.163329,39.354 106.810129,39.4772 107.528795,39.4772 C108.329595,39.4772 108.996929,39.3437333 109.530795,39.0768 L109.530795,39.0768 L109.777195,36.4588 C109.469195,36.5614667 109.140662,36.6128 108.791595,36.6128 C108.052395,36.6128 107.682795,36.2226667 107.682795,35.4424 L107.682795,35.4424 L107.682795,29.19 C107.682795,27.9169333 107.400462,26.8594667 106.835795,26.0176 C106.271129,25.1757333 105.485729,24.5443333 104.479595,24.1234 C103.473462,23.7024667 102.292795,23.492 100.937595,23.492 C98.9458621,23.492 97.3596621,23.9026667 96.1789955,24.724 C94.9983288,25.5453333 94.2334621,26.6336 93.8843955,27.9888 L93.8843955,27.9888 L97.4879955,29.0976 C97.7549288,28.1941333 98.1758621,27.5473333 98.7507955,27.1572 C99.3257288,26.7670667 99.9930621,26.572 100.752795,26.572 C101.574129,26.572 102.236329,26.8184 102.739395,27.3112 C103.242462,27.804 103.493995,28.4918667 103.493995,29.3748 L103.493995,29.3748 L103.4936,29.967 L98.1963955,31.038 C96.9582355,31.27824 95.9778715,31.70559 95.2553035,32.32005 L95.0239955,32.5318 C94.2847955,33.2607333 93.9151955,34.2001333 93.9151955,35.35 C93.9151955,36.2534667 94.1205288,37.0132 94.5311955,37.6292 C94.9418621,38.2452 95.5270621,38.7123333 96.2867955,39.0306 C97.0465288,39.3488667 97.9499955,39.508 98.9971955,39.508 Z M100.075195,36.5204 C99.5413288,36.5204 99.0844621,36.3869333 98.7045955,36.12 C98.3247288,35.8530667 98.1347955,35.4629333 98.1347955,34.9496 C98.1347955,34.4157333 98.3144621,34.0307333 98.6737955,33.7946 C99.0331288,33.5584667 99.5618621,33.3685333 100.259995,33.2248 L100.259995,33.2248 L103.4936,32.578 L103.493995,33.5328 C103.493995,33.97632 103.434859,34.3672747 103.316587,34.705664 L103.216795,34.9496 C103.031995,35.3397333 102.775329,35.6477333 102.446795,35.8736 C102.118262,36.0994667 101.748662,36.2637333 101.337995,36.3664 C100.927329,36.4690667 100.506395,36.5204 100.075195,36.5204 Z M116.614795,39.2 L116.614795,31.2228 C116.614795,30.2988 116.799595,29.5339333 117.169195,28.9282 C117.538795,28.3224667 118.011062,27.8707333 118.585995,27.573 C119.160929,27.2752667 119.756395,27.1264 120.372395,27.1264 C120.844662,27.1264 121.229662,27.1469333 121.527395,27.188 C121.825129,27.2290667 122.076662,27.2906667 122.281995,27.3728 L122.281995,27.3728 L122.774795,23.8308 C122.589995,23.7281333 122.353862,23.646 122.066395,23.5844 C121.778929,23.5228 121.460662,23.492 121.111595,23.492 C119.920662,23.492 118.929929,23.7794667 118.139395,24.3544 C117.348862,24.9293333 116.748262,25.7506667 116.337595,26.8184 L116.337595,26.8184 L116.060395,23.8 L112.395195,23.8 L112.395195,39.2 L116.614795,39.2 Z M129.386945,39.508 C130.228812,39.508 131.045012,39.3642667 131.835545,39.0768 C132.626078,38.7893333 133.298545,38.3735333 133.852945,37.8294 C133.991545,37.6933667 134.11667,37.5499542 134.22832,37.3991625 L134.3006,37.2932 L134.381573,37.5207714 C134.415097,37.6031143 134.451973,37.6828381 134.492202,37.7599429 L134.622945,37.9834 C134.951478,38.4864667 135.403212,38.8612 135.978145,39.1076 C136.553078,39.354 137.199878,39.4772 137.918545,39.4772 C138.719345,39.4772 139.386678,39.3437333 139.920545,39.0768 L139.920545,39.0768 L140.166945,36.4588 C139.858945,36.5614667 139.530412,36.6128 139.181345,36.6128 C138.442145,36.6128 138.072545,36.2226667 138.072545,35.4424 L138.072545,35.4424 L138.072545,29.19 C138.072545,27.9169333 137.790212,26.8594667 137.225545,26.0176 C136.660878,25.1757333 135.875478,24.5443333 134.869345,24.1234 C133.863212,23.7024667 132.682545,23.492 131.327345,23.492 C129.335612,23.492 127.749412,23.9026667 126.568745,24.724 C125.388078,25.5453333 124.623212,26.6336 124.274145,27.9888 L124.274145,27.9888 L127.877745,29.0976 C128.144678,28.1941333 128.565612,27.5473333 129.140545,27.1572 C129.715478,26.7670667 130.382812,26.572 131.142545,26.572 C131.963878,26.572 132.626078,26.8184 133.129145,27.3112 C133.632212,27.804 133.883745,28.4918667 133.883745,29.3748 L133.883745,29.3748 L133.8834,29.967 L128.586145,31.038 C127.347985,31.27824 126.367621,31.70559 125.645053,32.32005 L125.413745,32.5318 C124.674545,33.2607333 124.304945,34.2001333 124.304945,35.35 C124.304945,36.2534667 124.510278,37.0132 124.920945,37.6292 C125.331612,38.2452 125.916812,38.7123333 126.676545,39.0306 C127.436278,39.3488667 128.339745,39.508 129.386945,39.508 Z M130.464945,36.5204 C129.931078,36.5204 129.474212,36.3869333 129.094345,36.12 C128.714478,35.8530667 128.524545,35.4629333 128.524545,34.9496 C128.524545,34.4157333 128.704212,34.0307333 129.063545,33.7946 C129.422878,33.5584667 129.951612,33.3685333 130.649745,33.2248 L130.649745,33.2248 L133.8834,32.578 L133.883745,33.5328 C133.883745,33.97632 133.824609,34.3672747 133.706337,34.705664 L133.606545,34.9496 C133.421745,35.3397333 133.165078,35.6477333 132.836545,35.8736 C132.508012,36.0994667 132.138412,36.2637333 131.727745,36.3664 C131.317078,36.4690667 130.896145,36.5204 130.464945,36.5204 Z" id="Elara" fill="#2A292B" fill-rule="nonzero"></path>
                    <g id="Elara" transform="translate(0.000000, 1.400000)">
                        <rect id="矩形" x="0" y="0" width="53.2" height="53.2"></rect>
                        <g id="资源-8" transform="translate(0.665000, 2.660000)" fill-rule="nonzero">
                            <path d="M3.34220385,12.6589326 L18.9649873,3.63911435 C21.0006007,2.4638524 23.6035294,3.16130504 24.7787914,5.19691845 L38.5962823,29.1295148 C39.7715442,31.1651282 39.0740916,33.7680569 37.0384782,34.9433189 L21.4156948,43.9631371 C19.3800814,45.138399 16.7771526,44.4409464 15.6018907,42.405333 L1.78439972,18.4727367 C0.609137774,16.4371233 1.30659044,13.8341945 3.34220385,12.6589326 Z" id="矩形" fill="#00D595"></path>
                            <path d="M18.6324873,3.06320746 L3.00970385,12.0830257 C0.656025847,13.4419223 -0.150403798,16.4515587 1.20849283,18.8052367 L15.0259838,42.737833 C16.3848804,45.091511 19.3945168,45.8979406 21.7481948,44.539044 L37.3709782,35.5192258 C39.7246562,34.1603292 40.5310858,31.1506928 39.1721892,28.7970148 L25.3546983,4.86441845 C23.9958016,2.51074045 20.9861653,1.70431083 18.6324873,3.06320746 Z M3.67470385,13.2348394 L19.2974873,4.21502124 C21.0150361,3.22339397 23.2112572,3.81186964 24.2028845,5.52941845 L38.0203754,29.4620148 C39.0120027,31.1795636 38.423527,33.3757847 36.7059782,34.367412 L21.0831948,43.3872302 C19.365646,44.3788575 17.1694248,43.7903818 16.1777975,42.072833 L2.36030662,18.1402367 C1.36867935,16.4226878 1.95715503,14.2264667 3.67470385,13.2348394 Z" id="形状" fill="#000072"></path>
                            <path d="M23.5714118,13.6066229 C23.8895352,13.4230902 24.2962079,13.5321975 24.4797407,13.8503209 C24.6501639,14.1457212 24.5682598,14.5174727 24.3009823,14.7160195 L24.2360427,14.7586498 L9.14658819,23.4641043 C8.82846477,23.6476371 8.42179209,23.5385298 8.23825934,23.2204063 C8.06783608,22.925006 8.1497402,22.5532545 8.41701772,22.3547077 L8.48195732,22.3120775 L23.5714118,13.6066229 Z" id="路径" fill="#000072"></path>
                            <path d="M26.7150482,19.0717138 C27.0331716,18.8881811 27.4398443,18.9972884 27.6233771,19.3154118 C27.7938003,19.6108121 27.7118962,19.9825636 27.4446187,20.1811104 L27.3796791,20.2237407 L12.2902245,28.9291952 C11.9721011,29.112728 11.5654284,29.0036207 11.3818957,28.6854972 C11.2114724,28.3900969 11.2933766,28.0183454 11.5606541,27.8197986 L11.6255937,27.7771684 L26.7150482,19.0717138 Z" id="路径" fill="#000072"></path>
                            <path d="M29.8573023,24.4892408 C30.1749841,24.3049447 30.5819176,24.4130751 30.7662137,24.7307568 C30.9373459,25.0257471 30.8563347,25.3976941 30.5895348,25.5968822 L30.5246977,25.6396683 L15.4352432,34.3934865 C15.1175614,34.5777826 14.7106279,34.4696522 14.5263317,34.1519705 C14.3551996,33.8569803 14.4362107,33.4850332 14.7030107,33.2858451 L14.7678477,33.243059 L29.8573023,24.4892408 Z" id="路径" fill="#000072"></path>
                            <path d="M10.8770705,12.5661428 L29.59928,1.75687004 C31.6348934,0.581608097 34.2378222,1.27906073 35.4130841,3.31467414 L50.321175,29.1362451 C51.496437,31.1718585 50.7989843,33.7747872 48.7633709,34.9500492 L30.0411614,45.7593219 C28.005548,46.9345839 25.4026192,46.2371312 24.2273573,44.2015178 L9.31926632,18.3799469 C8.14400438,16.3443335 8.84145705,13.7414047 10.8770705,12.5661428 Z" id="矩形" fill="#FFFFFF"></path>
                            <path d="M29.26678,1.18096315 L10.5445705,11.9902359 C8.19089245,13.3491325 7.38446281,16.3587689 8.74335943,18.7124469 L23.6514504,44.5340178 C25.010347,46.8876958 28.0199834,47.6941254 30.3736614,46.3352288 L49.0958709,35.5259561 C51.4495489,34.1670595 52.2559786,31.1574231 50.8970819,28.8037451 L35.988991,2.98217414 C34.6300944,0.628496143 31.620458,-0.177933478 29.26678,1.18096315 Z M11.2095705,13.1420497 L29.93178,2.33277694 C31.6493288,1.34114967 33.84555,1.92962533 34.8371772,3.64717414 L49.7452681,29.4687451 C50.7368954,31.1862939 50.1484197,33.382515 48.4308709,34.3741423 L29.7086614,45.183415 C27.9911126,46.1750423 25.7948914,45.5865666 24.8032641,43.8690178 L9.89517322,18.0474469 C8.90354595,16.3298981 9.49202164,14.1336769 11.2095705,13.1420497 Z" id="形状" fill="#000072"></path>
                            <circle id="椭圆形" fill="#FF1E97" cx="45.3771818" cy="31.3033637" r="1.93454546"></circle>
                            <path d="M37.8808182,18.7288182 C36.5442338,15.4741923 33.370832,13.3522187 29.8524546,13.3604069 L29.7557272,13.3604069 C26.235362,13.4009538 23.0859392,15.5578312 21.7757272,18.8255454 C18.7679326,19.7647189 16.8952535,22.7579517 17.3662188,25.8735684 C17.8371841,28.9891851 20.5109079,31.2951709 23.6619091,31.3033637 L36.3331818,31.3033637 C39.5528108,31.297312 42.2640777,28.8947366 42.6573728,25.6992137 C43.0506679,22.5036909 41.0028939,19.5153873 37.8808182,18.7288182 L37.8808182,18.7288182 Z M40.0088182,28.5466363 C39.1220894,29.4669101 37.9013059,29.990103 36.6233637,29.9975454 L23.3717272,29.9975454 C20.9069975,29.9828509 18.8561174,28.0993896 18.6320909,25.6448182 C18.3353949,23.2390206 19.8655104,20.9852019 22.211,20.3731818 C22.5958338,20.3322826 22.9192487,20.065941 23.0331818,19.6960909 C23.9776359,16.7613723 26.6737627,14.7441264 29.7557272,14.6662728 L29.8524546,14.6662728 C32.9236429,14.6733075 35.6480593,16.6387794 36.6233637,19.551 C36.6188716,19.6039536 36.6363615,19.6564232 36.6717272,19.6960909 C36.7907431,20.0065428 37.0681766,20.2284895 37.3971818,20.2764546 C39.743185,20.680907 41.4459723,22.732458 41.4113637,25.1128182 C41.4242029,26.3993776 40.9187088,27.6369666 40.0088182,28.5466363 L40.0088182,28.5466363 Z" id="形状" stroke="#000072" stroke-width="0.6" fill="#000072"></path>
                            <path d="M34.2535454,22.6946363 C34.2535454,21.7864794 33.5173388,21.0502728 32.6091818,21.0502728 L31.6419091,21.0502728 L31.6419091,20.4215454 C31.6157445,19.53233 30.8871457,18.8251606 29.9975454,18.8255452 L26.4186363,18.8255452 C25.502709,18.8517254 24.7738986,19.6019713 24.7742724,20.5182728 L24.7742724,24.0488182 C24.7742724,24.9569751 25.5104794,25.6931818 26.4186363,25.6931818 L27.3859091,25.6931818 L27.3859091,26.3219091 C27.3859091,27.230066 28.1221158,27.9662728 29.0302728,27.9662728 L32.6091818,27.9662728 C33.5173388,27.9662728 34.2535454,27.230066 34.2535454,26.3219091 L34.2535454,22.6946363 Z M29.0786363,27.0473637 C28.6779789,27.0473637 28.3531818,26.7225665 28.3531818,26.3219091 L28.3531818,25.6931818 L30.0459091,25.6931818 C30.4905318,25.6933742 30.9162819,25.5135061 31.2260886,25.1945874 C31.5358953,24.8756686 31.7033499,24.4448849 31.6902728,24.0004546 L31.6902728,22.9848182 C31.6943906,22.8560591 31.6412611,22.7320901 31.5451818,22.6462728 L31.2066363,22.5495454 L31.2066363,22.5495454 C30.9662419,22.5495454 30.7713637,22.7444237 30.7713637,22.9848182 L30.7713637,24.0004546 C30.7721635,24.4096263 30.4542818,24.7487002 30.0459091,24.7742728 L26.467,24.7742728 C26.0663425,24.7742728 25.7415418,24.4494757 25.7415418,24.0488182 L25.7415418,20.4699091 C25.7406946,20.0874032 26.0369804,19.769954 26.4186363,19.7444546 L29.9975454,19.7444546 C30.398203,19.7444546 30.723,20.0692516 30.723,20.4699091 L30.723,21.0986363 L29.0302728,21.0986363 C28.1221158,21.0986363 27.3859091,21.834843 27.3859091,22.743 L27.3859091,23.7586363 C27.3859091,23.9990309 27.5807874,24.1939091 27.8211818,24.1939091 L27.8211818,24.1939091 C28.0615763,24.1939091 28.2564546,23.9990309 28.2564546,23.7586363 L28.2564546,22.743 C28.2564546,22.3423425 28.5812516,22.0175454 28.9819091,22.0175454 L32.5608182,22.0175454 C32.96999,22.0167456 33.3090638,22.3346273 33.3346363,22.743 L33.3346363,26.3219091 C33.3346363,26.7225665 33.0098393,27.0473637 32.6091818,27.0473637 L29.0786363,27.0473637 Z" id="形状" stroke="#000072" stroke-width="0.5" fill="#000072"></path>
                        </g>
                    </g>
                </g>
            </g>
        </g>
    </g>
</svg>