<?xml version="1.0" encoding="UTF-8"?>
<svg width="456px" height="80px" viewBox="0 0 456 80" version="1.1" xmlns="http://www.w3.org/2000/svg" xmlns:xlink="http://www.w3.org/1999/xlink">
    <title>FreeService</title>
    <defs>
        <linearGradient x1="100%" y1="50%" x2="0%" y2="50%" id="linearGradient-1">
            <stop stop-color="#00BCFC" offset="0%"></stop>
            <stop stop-color="#39CA9F" offset="100%"></stop>
        </linearGradient>
        <linearGradient x1="100%" y1="50%" x2="0%" y2="50%" id="linearGradient-2">
            <stop stop-color="#00A3FF" offset="0%"></stop>
            <stop stop-color="#00DD60" offset="100%"></stop>
        </linearGradient>
        <linearGradient x1="103.6448%" y1="50%" x2="0%" y2="48.5509873%" id="linearGradient-3">
            <stop stop-color="#0079BE" offset="0%"></stop>
            <stop stop-color="#002044" offset="100%"></stop>
        </linearGradient>
        <linearGradient x1="100%" y1="50%" x2="0%" y2="50%" id="linearGradient-4">
            <stop stop-color="#00A3FF" stop-opacity="0.538151988" offset="0%"></stop>
            <stop stop-color="#00DD60" stop-opacity="0.594707462" offset="100%"></stop>
        </linearGradient>
    </defs>
    <g id="Elara-Web" stroke="none" stroke-width="1" fill="none" fill-rule="evenodd">
        <g id="Elara切图" transform="translate(-166.000000, -663.000000)">
            <g id="FreeService" transform="translate(166.000000, 664.000000)">
                <g id="编组-4" transform="translate(0.000000, 34.000000)" fill="url(#linearGradient-1)">
                    <g id="编组-3">
                        <circle id="椭圆形" cx="5.25" cy="5.25" r="5.25"></circle>
                        <circle id="椭圆形备份-3" fill-opacity="0.9" cx="26.75" cy="5.25" r="5.25"></circle>
                        <circle id="椭圆形备份-5" fill-opacity="0.7" cx="48.25" cy="5.25" r="5.25"></circle>
                        <circle id="椭圆形备份-92" fill-opacity="0.5" cx="69.75" cy="5.25" r="5.25"></circle>
                        <circle id="椭圆形备份-93" fill-opacity="0.3" cx="91.25" cy="5.25" r="5.25"></circle>
                        <circle id="椭圆形备份-94" opacity="0.1" cx="112.75" cy="5.25" r="5.25"></circle>
                    </g>
                    <g id="编组-3备份" transform="translate(397.000000, 5.500000) scale(-1, 1) translate(-397.000000, -5.500000) translate(338.000000, 0.000000)">
                        <circle id="椭圆形" cx="5.25" cy="5.25" r="5.25"></circle>
                        <circle id="椭圆形备份-3" fill-opacity="0.9" cx="26.75" cy="5.25" r="5.25"></circle>
                        <circle id="椭圆形备份-5" fill-opacity="0.7" cx="48.25" cy="5.25" r="5.25"></circle>
                        <circle id="椭圆形备份-92" fill-opacity="0.5" cx="69.75" cy="5.25" r="5.25"></circle>
                        <circle id="椭圆形备份-93" fill-opacity="0.3" cx="91.25" cy="5.25" r="5.25"></circle>
                        <circle id="椭圆形备份-94" opacity="0.1" cx="112.75" cy="5.25" r="5.25"></circle>
                    </g>
                </g>
                <g id="编组-5" transform="translate(128.000000, 0.000000)">
                    <polygon id="路径-13" stroke="url(#linearGradient-2)" stroke-width="0.5" points="35.254805 4.4556495 157.497989 4.4556495 162.440813 0 194.264352 0 200 4.4556495 200 70.8953841 194.264352 75.3510336 173.640934 75.3510336 124.477258 75.3510336 118.741611 70.8953841 109.280918 70.8953841 103.54527 75.3510336 38.6647541 75.3510336 35.254805 78 9.14559678 78 0 70.8953841 0 7.37509175 6.85880543 0 31.6125886 0"></polygon>
                    <polygon id="路径-13" fill="url(#linearGradient-3)" opacity="0.5" points="33.4794614 8.88441239 160.090514 8.88441239 164.390186 5 189.010665 5 194 8.88441239 194 66.8062323 189.010665 70.6906447 124.56655 70.6906447 119.577215 66.8062323 107.62323 66.8062323 102.633895 70.6906447 36.4457137 70.6906447 33.4794614 73 13.9555872 73 6 66.8062323 6 11.4295672 11.9663493 5 30.3111641 5"></polygon>
                </g>
                <path d="M309.492188,35.7734375 C311.046594,35.7734375 312.192026,35.9000514 312.931876,36.1371303 C313.720645,36.389885 314.376863,36.7845475 314.903833,37.3158733 C315.533018,37.9502582 316.039468,38.8533384 316.40568,40.0371234 L316.40568,40.0371234 L311.345,40.535 L311.583433,40.5728561 C312.486972,40.7212273 313.215703,40.900812 313.770598,41.1084326 L313.949126,41.1786735 C314.820763,41.5396545 315.483027,42.0593661 315.944591,42.7275361 C316.414307,43.4075052 316.648438,44.1547264 316.648438,44.96875 C316.648438,45.7787442 316.408756,46.5684944 315.919578,47.3353141 C315.437798,48.0905369 314.684783,48.7005855 313.645152,49.1486272 C312.663126,49.5718438 311.327299,49.7929687 309.632813,49.7929688 C307.220755,49.7929688 305.516734,49.4209697 304.496492,48.7353008 C303.279939,47.9176986 302.553582,46.7111096 302.32821,45.107953 L302.32821,45.107953 L307.984848,44.5758929 C308.257484,45.3307648 308.458582,45.699552 308.756309,45.9046524 C309.036958,46.0979887 309.414805,46.1796875 309.878906,46.1796875 C310.381683,46.1796875 310.781167,46.0918939 311.069025,45.8681593 C311.162425,45.3045349 311.111246,45.2086191 311.009303,45.1554248 C310.76967,45.0319777 310.129791,44.8923362 309.101535,44.7113046 C307.400282,44.4143879 306.219886,44.1358537 305.557977,43.8831248 C304.826797,43.6039471 304.209112,43.1339304 303.708062,42.46882 C303.200386,41.7949143 302.945313,41.0269408 302.945313,40.1640625 C302.945313,39.2215894 303.223342,38.4113553 303.770223,37.7299959 C304.301636,37.0679078 305.030187,36.5681382 305.963535,36.2410302 C306.840575,35.9336563 308.015877,35.7734375 309.492188,35.7734375 Z M309.257813,39.2929688 C308.868378,39.2929688 308.568999,39.333237 308.387048,39.4747542 C308.869898,40.1992017 309.444988,40.2946846 310.27504,40.3938037 C310.39272,40.4071368 310.508235,40.4208727 310.621589,40.4350071 L310.816,40.46 L310.802413,40.418538 C310.665272,40.0021836 310.558322,39.7708139 310.401247,39.6319235 L310.339837,39.5839939 C310.041348,39.3850008 309.67903,39.2929688 309.257813,39.2929688 Z M279.025781,35.7734375 C281.185434,35.7734375 282.822774,36.1794871 283.953793,36.9500715 C285.249921,37.8331478 286.120789,39.1687915 286.548173,40.9710691 L286.548173,40.9710691 L281.069589,41.7005933 C280.869385,40.9531007 280.684585,40.5826919 280.366714,40.3518177 C280.068599,40.1352916 279.664448,40.0429688 279.166406,40.0429688 C278.535071,40.0429688 278.020867,40.2645932 277.629096,40.7190479 C277.202787,41.2135664 277.017969,41.9709219 277.017969,42.9648438 C277.017969,43.8324725 277.199605,44.5054906 277.614009,44.9599981 C278.001728,45.3852375 278.496995,45.59375 279.096094,45.59375 C279.599764,45.59375 280.027097,45.4729484 280.371679,45.2137216 C280.805021,44.8877214 281.086397,44.3361739 281.257592,43.5914585 L281.257592,43.5914585 L286.804092,44.2220683 C286.394277,45.7723096 285.942341,46.6683644 285.317745,47.4255809 C284.698271,48.1765864 283.908151,48.7618431 282.944664,49.1777979 C282.005967,49.5830501 280.81414,49.7929687 279.365625,49.7929688 C277.990982,49.7929688 276.846807,49.6614611 275.931982,49.4053101 C274.977551,49.1380695 274.157915,48.7035761 273.470957,48.105668 C272.786235,47.5097068 272.249751,46.8099912 271.860918,46.0069668 C271.475025,45.210015 271.271875,44.1548907 271.271875,42.8359375 C271.271875,41.4616181 271.51464,40.3206106 271.983158,39.4086734 C272.33088,38.7301916 272.805057,38.1210187 273.407304,37.5823888 C274.007846,37.0452849 274.626418,36.6476882 275.261188,36.3853172 C276.240393,35.9821148 277.494147,35.7734375 279.025781,35.7734375 Z M213.142969,31.0273438 C215.470332,31.0273437 217.234825,31.4805678 218.4535,32.3439681 C219.820345,33.3123429 220.610189,34.8912203 220.768406,37.1172497 L220.768406,37.1172497 L215.092,37.449 L215.290954,37.5029934 C216.409113,37.8084351 217.293547,38.1165036 217.945195,38.424898 L218.133707,38.5174238 C219.233626,39.078083 220.026317,39.7800867 220.526208,40.6089666 C221.029648,41.4437297 221.283594,42.3770338 221.283594,43.4101562 C221.283594,44.6107356 220.951901,45.7178067 220.287706,46.7311292 C219.626248,47.7402772 218.703766,48.5082482 217.515939,49.0300436 C216.369019,49.533869 214.924261,49.7929688 213.178125,49.7929688 C210.067932,49.7929688 207.944783,49.1495455 206.754259,47.9590221 C205.439015,46.6437781 204.739088,44.9426814 204.669334,42.8485229 L204.669334,42.8485229 L210.673969,42.4723624 C210.82909,43.5911222 211.004843,44.1763257 211.309412,44.5658942 C211.764586,45.144615 212.420466,45.4179688 213.260156,45.4179688 C213.869651,45.4179687 214.351152,45.2959476 214.684644,45.0069211 C214.969449,44.7600901 215.127344,44.4782343 215.127344,44.1484375 C215.127344,43.8371165 214.976096,43.5670266 214.706924,43.3247721 C214.349914,43.0034633 213.506555,42.7291623 212.212978,42.4448537 C209.776486,41.8970518 208.049831,41.1536452 207.01461,40.2488409 C205.900707,39.2828785 205.342188,38.0519757 205.342188,36.5546875 C205.342188,35.5760515 205.623321,34.6505581 206.190877,33.7797276 C206.751748,32.919155 207.590429,32.2361159 208.718041,31.7430532 C209.794099,31.2725339 211.267355,31.0273438 213.142969,31.0273438 Z M212.615625,35.2265625 C212.148408,35.2265625 211.782687,35.3009959 211.542128,35.5024646 C211.355051,35.6591416 211.252344,35.8470162 211.252344,36.0742188 C211.691032,36.6379467 212.220801,36.7888456 213.025639,36.956532 C213.585227,37.0771166 214.107328,37.1983423 214.592003,37.320062 L214.791,37.371 L214.768907,37.2460537 C214.619318,36.4681678 214.440069,36.0066789 214.144505,35.7149317 L214.060948,35.6394626 C213.712021,35.3513585 213.224825,35.2265625 212.615625,35.2265625 Z M294.4875,35.7734375 C296.369054,35.7734375 297.850007,36.0702592 298.937877,36.6389185 C300.061512,37.226273 300.916778,38.0776996 301.504105,39.1927689 C302.03385,40.1985177 302.326666,41.484102 302.365794,43.0544338 L302.370313,43.421875 L302.370313,44.4609375 L292.909644,44.4609375 C293.006655,44.869959 293.130538,45.1430295 293.308923,45.3469331 C293.6728,45.7724841 294.149202,45.9804687 294.733594,45.9804688 C295.11731,45.9804688 295.481515,45.8836024 295.820049,45.695595 C296.04457,45.5663255 296.280491,45.3275172 296.539991,44.9946328 L296.671762,44.8204226 L302.427533,45.3515037 C301.36512,47.2700711 300.382684,48.2941437 299.234953,48.9077384 C298.164555,49.4799896 296.632142,49.78125 294.628125,49.78125 C292.883952,49.78125 291.515785,49.5238762 290.516865,49.0326714 C289.490588,48.5280145 288.636603,47.7299711 287.961779,46.6307302 C287.295154,45.5448443 286.95625,44.2693282 286.95625,42.8007812 C286.95625,40.7041755 287.637091,39.0131852 288.978093,37.7184243 C290.308022,36.4343552 292.138694,35.7734375 294.4875,35.7734375 Z M294.686719,39.5976562 C294.095785,39.5976562 293.623185,39.8315334 293.269689,40.3008292 C293.100283,40.5206345 292.98195,40.8135128 292.902935,41.1757812 L292.902935,41.1757812 L296.440274,41.1757813 L296.393417,40.9707242 C296.291505,40.5748962 296.139574,40.2652706 295.922785,40.0505863 C295.609587,39.7404295 295.193897,39.5976562 294.686719,39.5976562 Z M229.272656,35.7734375 C231.15421,35.7734375 232.635163,36.0702592 233.723033,36.6389185 C234.846668,37.226273 235.701934,38.0776996 236.289261,39.1927689 C236.819006,40.1985177 237.111822,41.484102 237.15095,43.0544338 L237.155469,43.421875 L237.155469,44.4609375 L227.694801,44.4609375 C227.791812,44.869959 227.915694,45.1430295 228.094079,45.3469331 C228.457956,45.7724841 228.934358,45.9804688 229.51875,45.9804688 C229.902466,45.9804688 230.266671,45.8836024 230.605205,45.695595 C230.829726,45.5663255 231.065647,45.3275172 231.325147,44.9946328 L231.456918,44.8204226 L237.212689,45.3515037 C236.150276,47.2700711 235.16784,48.2941437 234.020109,48.9077384 C232.949711,49.4799896 231.417298,49.78125 229.413281,49.78125 C227.669108,49.78125 226.300942,49.5238762 225.302021,49.0326714 C224.275744,48.5280145 223.421759,47.7299711 222.746936,46.6307302 C222.080311,45.5448443 221.741406,44.2693282 221.741406,42.8007812 C221.741406,40.7041755 222.422247,39.0131852 223.76325,37.7184243 C225.093178,36.4343552 226.92385,35.7734375 229.272656,35.7734375 Z M229.471875,39.5976562 C228.880941,39.5976562 228.408341,39.8315334 228.054845,40.3008292 C227.885439,40.5206345 227.767106,40.8135128 227.688091,41.1757813 L227.688091,41.1757813 L231.22543,41.1757813 L231.178574,40.9707242 C231.076661,40.5748962 230.92473,40.2652706 230.707941,40.0505863 C230.394744,39.7404295 229.979053,39.5976562 229.471875,39.5976562 Z M172.821094,35.7734375 C174.702648,35.7734375 176.183601,36.0702592 177.271471,36.6389185 C178.395106,37.226273 179.250372,38.0776996 179.837698,39.1927689 C180.367444,40.1985177 180.66026,41.484102 180.699388,43.0544338 L180.703906,43.421875 L180.703906,44.4609375 L171.243238,44.4609375 C171.340249,44.869959 171.464132,45.1430295 171.642517,45.3469331 C172.006394,45.7724841 172.482796,45.9804687 173.067188,45.9804688 C173.450903,45.9804688 173.815109,45.8836024 174.153643,45.695595 C174.378164,45.5663255 174.614085,45.3275172 174.873585,44.9946328 L175.005356,44.8204226 L180.761127,45.3515037 C179.698714,47.2700711 178.716278,48.2941437 177.568547,48.9077384 C176.498149,49.4799896 174.965735,49.78125 172.961719,49.78125 C171.217545,49.78125 169.849379,49.5238762 168.850458,49.0326714 C167.824181,48.5280145 166.970197,47.7299711 166.295373,46.6307302 C165.628748,45.5448443 165.289844,44.2693282 165.289844,42.8007812 C165.289844,40.7041755 165.970685,39.0131852 167.311687,37.7184243 C168.641616,36.4343552 170.472288,35.7734375 172.821094,35.7734375 Z M173.020313,39.5976562 C172.429379,39.5976562 171.956779,39.8315334 171.603283,40.3008292 C171.433876,40.5206345 171.315544,40.8135128 171.236528,41.1757813 L171.236528,41.1757813 L174.773868,41.1757813 L174.727011,40.9707242 C174.625098,40.5748962 174.473168,40.2652706 174.256379,40.0505863 C173.943181,39.7404295 173.52749,39.5976562 173.020313,39.5976562 Z M188.528906,35.7734375 C190.41046,35.7734375 191.891413,36.0702592 192.979283,36.6389185 C194.102918,37.226273 194.958184,38.0776996 195.545511,39.1927689 C196.075256,40.1985177 196.368072,41.484102 196.4072,43.0544338 L196.411719,43.421875 L196.411719,44.4609375 L186.951051,44.4609375 C187.048062,44.869959 187.171944,45.1430295 187.350329,45.3469331 C187.714206,45.7724841 188.190608,45.9804687 188.775,45.9804688 C189.158716,45.9804688 189.522921,45.8836024 189.861455,45.695595 C190.085976,45.5663255 190.321897,45.3275172 190.581397,44.9946328 L190.713168,44.8204226 L196.468939,45.3515037 C195.406526,47.2700711 194.42409,48.2941437 193.276359,48.9077384 C192.205961,49.4799896 190.673548,49.78125 188.669531,49.78125 C186.925358,49.78125 185.557192,49.5238762 184.558271,49.0326714 C183.531994,48.5280145 182.678009,47.7299711 182.003186,46.6307302 C181.336561,45.5448443 180.997656,44.2693282 180.997656,42.8007812 C180.997656,40.7041755 181.678497,39.0131852 183.0195,37.7184243 C184.349428,36.4343552 186.1801,35.7734375 188.528906,35.7734375 Z M188.728125,39.5976562 C188.137191,39.5976562 187.664591,39.8315334 187.311095,40.3008292 C187.141689,40.5206345 187.023356,40.8135128 186.944341,41.1757812 L186.944341,41.1757812 L190.48168,41.1757813 L190.434824,40.9707242 C190.332911,40.5748962 190.18098,40.2652706 189.964191,40.0505863 C189.650994,39.7404295 189.235303,39.5976562 188.728125,39.5976562 Z M154.725781,31.3203125 L154.725781,36.0117188 L146.932813,36.0117188 L146.932813,38.0117188 L153.589063,38.0117188 L153.589063,42.4804688 L146.932813,42.4804688 L146.932813,49.5 L140.600781,49.5 L140.600781,31.3203125 L154.725781,31.3203125 Z M163.183594,35.7734375 C164.068819,35.7734375 165.053246,36.077841 166.131298,36.7134413 L166.131298,36.7134413 L164.280473,40.9732756 C163.407635,40.6148175 162.986458,40.4765625 162.679688,40.4765625 C162.23406,40.4765625 161.887923,40.6593469 161.640522,41.0304241 C161.182179,41.707026 160.988281,42.9833242 160.988281,44.828125 L160.988281,44.828125 L160.988281,49.5 L155.195313,49.5 L155.195313,36.0546875 L160.660156,36.0546875 L160.660156,36.8750053 C160.843763,36.6581601 161.02023,36.4949204 161.196354,36.3669669 C161.732703,35.977312 162.392967,35.7734375 163.183594,35.7734375 Z M246.082031,35.7734375 C246.967257,35.7734375 247.951683,36.077841 249.029735,36.7134413 L249.029735,36.7134413 L247.178911,40.9732756 C246.306073,40.6148175 245.884895,40.4765625 245.578125,40.4765625 C245.132497,40.4765625 244.786361,40.6593469 244.538959,41.0304241 C244.080616,41.707026 243.886719,42.9833242 243.886719,44.828125 L243.886719,44.828125 L243.886719,49.5 L238.09375,49.5 L238.09375,36.0546875 L243.558594,36.0546875 L243.558594,36.8750053 C243.742201,36.6581601 243.918667,36.4949204 244.094792,36.3669669 C244.63114,35.977312 245.291405,35.7734375 246.082031,35.7734375 Z M254.214384,36.0546875 L256.26657,42.7591581 L258.38849,36.0546875 L264.326647,36.0546875 L258.616821,49.5 L253.721991,49.5 L248.126107,36.0546875 L254.214384,36.0546875 Z M270.099219,36.0546875 L270.099219,49.5 L264.329688,49.5 L264.329688,36.0546875 L270.099219,36.0546875 Z M270.099219,31.3203125 L270.099219,35.5664062 L264.329688,35.5664063 L264.329688,31.3203125 L270.099219,31.3203125 Z" id="FreeServices" stroke="url(#linearGradient-4)" fill="#FFFFFF" fill-rule="nonzero"></path>
            </g>
        </g>
    </g>
</svg>