<?xml version="1.0" encoding="UTF-8"?>
<svg width="457px" height="80px" viewBox="0 0 457 80" version="1.1" xmlns="http://www.w3.org/2000/svg" xmlns:xlink="http://www.w3.org/1999/xlink">
    <title>编组 2</title>
    <defs>
        <linearGradient x1="100%" y1="50%" x2="0%" y2="50%" id="linearGradient-1">
            <stop stop-color="#00BCFC" offset="0%"></stop>
            <stop stop-color="#39CA9F" offset="100%"></stop>
        </linearGradient>
        <linearGradient x1="100%" y1="50%" x2="0%" y2="50%" id="linearGradient-2">
            <stop stop-color="#00A3FF" offset="0%"></stop>
            <stop stop-color="#00DD60" offset="100%"></stop>
        </linearGradient>
        <linearGradient x1="103.6448%" y1="50%" x2="0%" y2="48.5509873%" id="linearGradient-3">
            <stop stop-color="#0079BE" offset="0%"></stop>
            <stop stop-color="#002044" offset="100%"></stop>
        </linearGradient>
        <linearGradient x1="100%" y1="50%" x2="0%" y2="50%" id="linearGradient-4">
            <stop stop-color="#00A3FF" stop-opacity="0.538151988" offset="0%"></stop>
            <stop stop-color="#00DD60" stop-opacity="0.594707462" offset="100%"></stop>
        </linearGradient>
    </defs>
    <g id="Elara-Web" stroke="none" stroke-width="1" fill="none" fill-rule="evenodd">
        <g id="Elara切图" transform="translate(-178.000000, -363.000000)">
            <g id="编组-2" transform="translate(178.000000, 364.000000)">
                <g id="编组-19备份">
                    <g id="编组-4" transform="translate(0.000000, 34.000000)" fill="url(#linearGradient-1)">
                        <g id="编组-3">
                            <circle id="椭圆形" cx="5.25" cy="5.25" r="5.25"></circle>
                            <circle id="椭圆形备份-3" fill-opacity="0.9" cx="26.75" cy="5.25" r="5.25"></circle>
                            <circle id="椭圆形备份-5" fill-opacity="0.7" cx="48.25" cy="5.25" r="5.25"></circle>
                            <circle id="椭圆形备份-92" fill-opacity="0.5" cx="69.75" cy="5.25" r="5.25"></circle>
                            <circle id="椭圆形备份-93" fill-opacity="0.3" cx="91.25" cy="5.25" r="5.25"></circle>
                            <circle id="椭圆形备份-94" opacity="0.1" cx="112.75" cy="5.25" r="5.25"></circle>
                        </g>
                        <g id="编组-3备份" transform="translate(398.000000, 5.500000) scale(-1, 1) translate(-398.000000, -5.500000) translate(339.000000, 0.000000)">
                            <circle id="椭圆形" cx="5.25" cy="5.25" r="5.25"></circle>
                            <circle id="椭圆形备份-3" fill-opacity="0.9" cx="26.75" cy="5.25" r="5.25"></circle>
                            <circle id="椭圆形备份-5" fill-opacity="0.7" cx="48.25" cy="5.25" r="5.25"></circle>
                            <circle id="椭圆形备份-92" fill-opacity="0.5" cx="69.75" cy="5.25" r="5.25"></circle>
                            <circle id="椭圆形备份-93" fill-opacity="0.3" cx="91.25" cy="5.25" r="5.25"></circle>
                            <circle id="椭圆形备份-94" opacity="0.1" cx="112.75" cy="5.25" r="5.25"></circle>
                        </g>
                    </g>
                    <g id="编组-5" transform="translate(129.000000, 0.000000)">
                        <polygon id="路径-13" stroke="url(#linearGradient-2)" stroke-width="0.5" points="35.254805 4.4556495 157.497989 4.4556495 162.440813 0 194.264352 0 200 4.4556495 200 70.8953841 194.264352 75.3510336 173.640934 75.3510336 124.477258 75.3510336 118.741611 70.8953841 109.280918 70.8953841 103.54527 75.3510336 38.6647541 75.3510336 35.254805 78 9.14559678 78 0 70.8953841 0 7.37509175 6.85880543 0 31.6125886 0"></polygon>
                        <polygon id="路径-13" fill="url(#linearGradient-3)" opacity="0.5" points="33.4794614 8.88441239 160.090514 8.88441239 164.390186 5 189.010665 5 194 8.88441239 194 66.8062323 189.010665 70.6906447 124.56655 70.6906447 119.577215 66.8062323 107.62323 66.8062323 102.633895 70.6906447 36.4457137 70.6906447 33.4794614 73 13.9555872 73 6 66.8062323 6 11.4295672 11.9663493 5 30.3111641 5"></polygon>
                    </g>
                </g>
                <path d="M245.388,28.796 L245.388,47.608 C245.388,49.3381875 245.092214,50.3927823 244.114764,51.0443644 C243.206037,51.6674918 242.047021,51.78 240.376,51.78 C240.027391,50.9661598 239.747729,50.0861167 239.489022,49.3392475 L239.471,49.289 L239.445347,49.3908407 C239.276741,50.0042492 239.084495,50.5883675 238.865866,51.1315448 L238.696906,51.5310692 C238.602931,51.7425135 238.500638,51.9554832 238.390706,52.1692063 C238.218868,51.9857104 238.056751,51.8270641 237.918404,51.7108524 C237.35074,51.234015 236.010292,50.4863197 235.261128,50.2138967 C235.111424,50.1594587 234.931433,50.1043999 234.733694,50.0505729 C234.819406,49.8810296 234.899834,49.7115163 234.974541,49.5421799 C236.330614,46.4684147 236.459144,41.9632764 236.467501,38.5436723 L236.468,38.104 L236.468,28.796 L245.388,28.796 Z M241.11073,43.908 L240.356993,43.908 C240.26803,44.9375928 240.142834,45.9733721 239.972155,46.9760165 L239.888,47.439 L240.08924,47.445566 L240.376821,47.4494456 L241.11073,43.908 Z M241.172,38.4454642 L240.587718,38.5339918 L240.586397,38.886762 C240.584987,39.1250196 240.582337,39.3694322 240.577356,39.62 L240.577356,39.62 L241.172,39.62 L241.172,38.4454642 Z M241.172,33.012 L240.588,33.012 L240.588,34.148 L241.172,34.148 L241.172,33.012 Z M257.892,28.796 L257.892,33.952 C257.892,34.8130664 257.780994,35.4707678 257.512378,35.9766615 C257.268996,36.4350309 256.901676,36.7856481 256.352341,37.0381363 L256.137695,37.1282383 L255.987,37.183 L256.129939,37.1585925 L258.71499,37.9701785 C258.264554,41.2746968 257.399589,44.0217401 256.152491,46.2620298 C257.00688,47.0201499 257.985126,47.6615824 259.037554,48.1362066 C259.299748,48.2544511 259.566655,48.3623909 259.837177,48.4600787 C259.58036,48.633322 259.347394,48.8069727 259.159465,48.9698445 C258.474475,49.5635025 257.562694,50.7290681 257.106122,51.5280695 C256.731711,51.8776328 256.582344,51.8000755 256.433858,51.719646 C255.391089,51.1548124 254.443185,50.4761382 253.589962,49.6839251 C252.804774,50.4713873 251.926015,51.1490862 250.953248,51.7327465 C250.803123,51.8228215 250.652075,51.909867 250.500171,51.9937241 C250.133158,51.3318236 249.903747,50.9716152 249.667282,50.6389655 L249.588,50.5287269 L249.588,51.78 L245.3,51.78 L245.3,28.796 L257.892,28.796 Z M249.588,43.8900378 L249.588,47.6037736 L249.867963,47.3848508 C250.236282,47.0850374 250.584743,46.7533687 250.913384,46.3875729 C250.422904,45.6039237 249.983861,44.7685872 249.588,43.8900378 L249.588,43.8900378 Z M253.724631,41.412 L252.671077,41.412 L252.862439,41.8236331 C252.993787,42.0956415 253.132579,42.3627203 253.2782,42.624256 C253.443146,42.231922 253.592638,41.8271248 253.724631,41.412 L253.724631,41.412 Z M253.380402,33.012 L249.588,33.012 L249.588,37.268 L251.422,37.267 L251.416737,37.2543972 C250.928704,36.2399266 250.561529,35.32336 250.2359,34.636042 L250.128786,34.4156068 C250.00411,34.1662533 249.85236,33.8902809 249.684319,33.6101257 C250.005185,33.6441909 250.32497,33.6737235 250.610012,33.6931582 C251.35117,33.7436917 252.334323,33.7584693 252.959861,33.7540951 L253.154306,33.7519505 L253.380402,33.012 Z M221.516,27.98 L221.516,29.084 L222.508,29.084 L222.508,27.98 L226.772,27.98 L226.772,29.084 L231.764,29.084 L231.764,34.867 L233.349382,34.892 C233.336299,35.12083 233.326346,35.3479567 233.324063,35.4011629 L233.323567,35.4128153 C233.323567,35.4128153 233.3,35.9753116 233.3,36.28 C233.193525,38.2104366 232.986167,39.2367224 232.518434,39.8083475 C232.046303,40.3985116 231.315613,40.6544607 230.663405,40.7137477 L230.663405,40.7137477 L230.659,40.713 L230.659,47.258 L231.023006,47.3654822 C232.231107,47.7250235 233.306307,48.0846724 234.065674,48.4012579 L234.283826,48.4948985 L231.713926,51.9214322 C229.70717,50.9995597 224.560465,49.4223441 221.475856,48.7610011 L221.546,48.776 L221.381273,48.8940664 C221.29669,48.9518577 221.210055,49.0089709 221.121305,49.0654078 L220.848653,49.2326923 C218.999942,50.3272755 216.25803,51.1544489 212.081192,51.7037318 C211.330061,50.5706203 210.677843,49.2196937 210.137566,48.5443475 C209.960815,48.3234091 209.716153,48.0749104 209.442709,47.8277501 C209.775769,47.8001486 210.121305,47.7690217 210.479838,47.734325 C211.55869,47.6299199 212.515858,47.5163552 213.36543,47.392111 L213.412,47.385 L213.412,42.2215004 C213.295735,42.2427702 213.177769,42.2631488 213.0581,42.2830682 L212.693981,42.3418815 C211.881272,41.3574717 211.092279,40.1177796 210.551306,39.5542659 C210.345272,39.3396465 210.042704,39.0850791 209.710382,38.8356531 C210.068784,38.8050243 210.447434,38.7640381 210.847723,38.7121487 C212.03218,38.558608 213.009086,38.3610687 213.816943,38.124 L213.816943,38.124 L211.53535,38.124 C211.87753,36.7074548 212.298875,34.0863169 212.472618,32.0839963 L212.449,32.336 L211.996,32.316 L211.996,29.084 L217.396,29.084 L217.396,27.98 L221.516,27.98 Z M220.209,43.86 L217.772,43.86 L217.772,46.3237948 C219.193543,45.6969127 219.793867,44.9082607 220.195471,43.897901 L220.209,43.86 Z M226.03678,43.86 L224.699,43.859 L224.643608,44.0726225 C224.497988,44.6045344 224.327553,45.1103646 224.118921,45.590567 L224.093,45.646 L224.290965,45.6840914 C224.633809,45.7508737 224.996498,45.8275138 225.372161,45.9094609 L225.751896,45.9930084 L226.03678,43.86 Z M227.17,38.234 L226.772,38.1870544 L226.772,40.051 L227.909,40.051 L227.855794,39.9213872 C227.619287,39.3396192 227.452339,38.8455312 227.2875,38.4775032 L227.216786,38.3276068 L227.17,38.234 Z M222.507,40.051 L222.508,38.124 L220.678895,38.124 C220.308534,38.8256686 219.779557,39.4761203 219.038472,40.052 L219.038472,40.052 L222.507,40.051 Z M269.217683,39.4402262 L273.843694,39.8078563 C273.821938,39.9858357 273.796514,40.1661972 273.764606,40.3496706 C273.730504,40.5457536 273.690631,40.7359904 273.647923,40.9223806 L273.647923,40.9223806 L282.132492,41.3502157 C282.116751,41.6366494 282.098449,41.8633506 282.098449,41.8633513 C282.098449,41.8633527 282.023393,42.7930533 281.92471,43.2559641 C281.368713,47.439266 280.653419,49.4561118 279.651081,50.3349625 C278.77631,51.151157 277.829527,51.3872815 276.453395,51.4665997 C275.480045,51.5396009 273.825353,51.5405312 272.146281,51.4675281 C271.625039,50.1867259 271.206935,49.03043 270.661174,48.2881952 C270.565027,48.1574343 270.455431,48.0266238 270.335975,47.8982956 L270.267,47.828 L270.050869,48.0542741 C268.45979,49.6615286 266.388057,50.802256 263.754784,51.6164304 L263.355571,51.7361249 C262.422918,50.7649086 261.415771,49.3708775 260.798447,48.7535534 C260.606249,48.5613555 260.338762,48.3313709 260.040145,48.095405 C260.368681,48.0443852 260.705061,47.982711 261.049568,47.9106047 C263.516534,47.3942631 265.387136,46.5550499 266.725,45.276 L266.725,45.276 L262.188,45.276 L262.188,41.324 L268.881103,41.324 C269.028796,40.73162 269.131987,40.0950977 269.217683,39.4402262 L269.217683,39.4402262 Z M277.142117,45.276 L272.087108,45.276 C271.691381,46.0140714 271.241729,46.6864197 270.734683,47.2990465 L270.609,47.445 L270.655126,47.450597 L270.655126,47.450597 L271.107947,47.4939351 C272.723063,47.6364453 274.551948,47.66 275.312,47.66 C275.706505,47.66 275.989159,47.6721491 276.2394,47.4934721 C276.593843,47.2323037 276.868836,46.4865603 277.142117,45.276 L277.142117,45.276 Z M191.638118,27.7722678 L196.474734,28.7272684 L196.059095,29.42 L199.287856,29.42 L199.9888,29.237145 L203.02278,31.1705635 C202.62831,31.8829819 202.075257,32.7481635 201.452179,33.6263454 L201.215415,33.956 L206.908,33.956 L206.908,43.572 L201.916,43.572 L201.916,46.84 L204.022171,47.276 C204.664545,46.5063945 204.692621,45.8622508 204.732369,44.8287834 C204.75028,44.3631052 204.764482,43.9764232 204.721586,43.6174943 C204.996881,43.9562706 205.279502,44.2543826 205.536216,44.4511968 C206.211554,44.9689561 207.61044,45.477849 208.509756,45.6801951 C208.704415,48.1745349 208.340863,49.4152632 207.71541,50.1823279 C207.086145,50.9540677 206.194195,51.3033119 204.857354,51.3439528 L204.584,51.348 L201.752,51.348 C199.979811,51.348 198.90199,51.0267855 198.237401,50.3662001 C197.58534,49.718067 197.30198,48.7121456 197.2709,47.1812382 L197.268,46.888 L197.268,45.2648429 C195.67364,47.9270256 192.885978,50.1565856 187.826614,51.6164021 C186.885715,50.4878605 186.09515,49.2675723 185.372102,48.5671201 C185.16036,48.361995 184.903876,48.1524975 184.626211,47.9508608 C184.940588,47.8836256 185.264041,47.8078987 185.596961,47.7233751 C189.353355,46.7696792 191.516257,45.4066294 192.789887,43.7505528 L192.922976,43.572 L187.572,43.572 L187.572,38.2350594 C186.699451,37.641661 185.68444,36.5512213 184.954104,36.0421991 C184.769067,35.9132342 184.542691,35.7800424 184.294316,35.6427452 C184.518068,35.5059854 184.740956,35.3637709 184.96265,35.2159749 C188.196632,33.0599866 190.431937,30.212642 191.638118,27.7722678 Z M194.675649,38.028 L192.076,38.028 L192.076,39.5 L194.489777,39.5 L194.560712,39.0157451 C194.604744,38.690253 194.642524,38.3599681 194.675649,38.028 L194.675649,38.028 Z M202.188,38.028 L199.365592,38.028 L199.274932,38.7673546 L199.274932,38.7673546 L199.172421,39.5 L202.188,39.5 L202.188,38.028 Z M196.399262,33.228 L193.497027,33.228 L193.202411,33.5919996 L193.202411,33.5919996 L192.901475,33.956 L195.848753,33.956 L196.125147,33.5987234 L196.125147,33.5987234 L196.399262,33.228 Z M268.096959,27.8936447 L272.673055,28.8275418 C272.552532,29.0334655 272.429668,29.2380042 272.305133,29.4391773 L272.076213,29.8025573 L272.076213,29.8025573 L271.841042,30.164 L279.397041,30.164 L280.07321,29.9795903 L282.844493,31.7347363 C281.660023,33.6632484 279.973679,35.2578299 277.939336,36.5475625 C279.664029,36.7732249 281.533717,36.905798 283.491034,36.9803624 C283.915564,36.996535 284.336191,37.0096729 284.752268,37.0195061 C284.399453,37.2889077 284.07697,37.5652037 283.837136,37.8215786 C283.171917,38.5326748 282.396122,39.8883967 282.006338,40.7367501 C277.867328,40.7882386 274.660852,40.2653641 271.92113,39.3044589 C268.957538,40.2686497 265.694861,40.9077492 262.385176,41.2887201 C261.61824,40.1050192 261.073743,38.7811023 260.571979,38.0512644 C260.420292,37.8306292 260.219312,37.5869059 259.993926,37.3403367 C260.310089,37.3191263 260.626665,37.295507 260.943319,37.2696577 C261.495798,37.2245574 262.046944,37.1727968 262.59484,37.1137275 L263.17,37.047 L263.140154,36.9731126 L263.075591,36.8288985 C262.714544,36.0616743 261.813219,34.8193942 261.203818,34.2777047 C261.024762,34.1185437 260.782685,33.9414452 260.510017,33.7637108 C260.785129,33.6652086 261.063604,33.5580193 261.3453,33.4417949 C264.82522,32.0060238 266.984249,29.9392695 268.096959,27.8936447 Z M265.854829,35.8996529 C265.336945,36.2262086 264.784773,36.5333741 264.198092,36.836442 L263.871,37.002 L263.984,36.945 L264.226862,36.9139447 C264.766341,36.8396092 265.300653,36.7573164 265.82788,36.6664177 L266.613168,36.523534 C266.354457,36.3230508 266.101198,36.115081 265.854829,35.8996529 Z M274.393816,34.0495206 L269.64867,34.0636431 L269.976328,34.2648482 C270.534925,34.593066 271.155811,34.8859049 271.83572,35.1469853 C272.750975,34.813893 273.606576,34.4510832 274.393816,34.0495206 L274.393816,34.0495206 Z" id="免费服务" stroke="url(#linearGradient-4)" fill="#FFFFFF" fill-rule="nonzero"></path>
            </g>
        </g>
    </g>
</svg>