<?xml version="1.0" encoding="UTF-8"?>
<svg width="12px" height="12px" viewBox="0 0 12 12" version="1.1" xmlns="http://www.w3.org/2000/svg" xmlns:xlink="http://www.w3.org/1999/xlink">
    <title>项目</title>
    <g id="Elara-Web" stroke="none" stroke-width="1" fill="none" fill-rule="evenodd">
        <g id="中文/英文备份" transform="translate(-263.000000, -183.000000)" fill="#000000" fill-rule="nonzero">
            <g id="编组" transform="translate(240.000000, 114.000000)">
                <g id="项目" transform="translate(23.000000, 69.000000)">
                    <path d="M7.19199219,0.728567708 L7.19199219,0.728567708 L7.19199219,4.3163151 C7.19199219,4.32148437 7.18891927,4.31841146 7.19408854,4.31841146 L10.7818359,4.31841146 C10.7870052,4.31841146 10.7839453,4.32148437 10.7839453,4.3163151 L10.7839453,0.728567708 C10.7839453,0.723398437 10.7870182,0.726458333 10.7818359,0.726458333 L7.19408854,0.726458333 C7.18891927,0.726458333 7.19199219,0.723385417 7.19199219,0.728567708 L7.19199219,0.728567708 L7.19199219,0.728567708 Z M6.47360677,0.728567708 C6.47360677,0.330638021 6.78817708,0.00807291667 7.19410156,0.00807291667 L10.781849,0.00807291667 C11.1797786,0.00807291667 11.5023437,0.322643229 11.5023437,0.728567708 L11.5023437,4.3163151 C11.5023437,4.71424479 11.1877734,5.0368099 10.781849,5.0368099 L7.19410156,5.0368099 C6.79617187,5.0368099 6.47360677,4.72223958 6.47360677,4.3163151 L6.47360677,0.728567708 Z M0.00807291667,0.728567708 C0.00807291667,0.330638021 0.322643229,0.00807291667 0.728567708,0.00807291667 L4.3163151,0.00807291667 C4.71424479,0.00807291667 5.0368099,0.322643229 5.0368099,0.728567708 L5.0368099,4.3163151 C5.0368099,4.71424479 4.72223958,5.0368099 4.3163151,5.0368099 L0.728567708,5.0368099 C0.330638021,5.0368099 0.00807291667,4.72223958 0.00807291667,4.3163151 L0.00807291667,0.728567708 Z M0.00807291667,7.19410156 C0.00807291667,6.79617187 0.322643229,6.47360677 0.728567708,6.47360677 L4.3163151,6.47360677 C4.71424479,6.47360677 5.0368099,6.78817708 5.0368099,7.19410156 L5.0368099,10.781849 C5.0368099,11.1797786 4.72223958,11.5023437 4.3163151,11.5023437 L0.728567708,11.5023437 C0.330638021,11.5023437 0.00807291667,11.1877734 0.00807291667,10.781849 L0.00807291667,7.19410156 L0.00807291667,7.19410156 Z M6.47360677,7.19410156 C6.47360677,6.79617187 6.78817708,6.47360677 7.19410156,6.47360677 L10.781849,6.47360677 C11.1797786,6.47360677 11.5023437,6.78817708 11.5023437,7.19410156 L11.5023437,10.781849 C11.5023437,11.1797786 11.1877734,11.5023437 10.781849,11.5023437 L7.19410156,11.5023437 C6.79617187,11.5023437 6.47360677,11.1877734 6.47360677,10.781849 L6.47360677,7.19410156 L6.47360677,7.19410156 Z" id="形状"></path>
                </g>
            </g>
        </g>
    </g>
</svg>