<?xml version="1.0" encoding="UTF-8"?>
<svg width="12px" height="12px" viewBox="0 0 12 12" version="1.1" xmlns="http://www.w3.org/2000/svg" xmlns:xlink="http://www.w3.org/1999/xlink">
    <title>操作</title>
    <g id="Elara-Web" stroke="none" stroke-width="1" fill="none" fill-rule="evenodd">
        <g id="中文/英文备份" transform="translate(-1109.000000, -183.000000)" fill="#333333" fill-rule="nonzero">
            <g id="编组" transform="translate(240.000000, 114.000000)">
                <g id="操作" transform="translate(869.000000, 69.000000)">
                    <path d="M11.475651,5.28958333 C11.475651,4.92838542 11.2046875,4.6125 10.9338542,4.6125 L9.5796875,4.47708333 C9.53450521,4.34166667 9.48945313,4.20611979 9.39908854,4.02552083 L10.2570312,2.94179688 C10.4376302,2.71601563 10.3924479,2.30963542 10.1667969,2.03867187 L9.48971354,1.36158854 C9.26393229,1.13580729 8.81263021,1.04557292 8.58658854,1.27135417 L7.59231771,2.08333333 C7.45690104,1.99296875 7.27630208,1.94791667 7.14075521,1.85755208 L7.00520833,0.548307292 C6.96015625,0.232291667 6.64401042,0.00651041667 6.328125,0.00651041667 L5.33463542,0.00651041667 C4.9734375,0.00651041667 4.65755208,0.232291667 4.65755208,0.548307292 L4.52200521,1.76744792 C4.25104167,1.8578125 3.98007812,1.94817708 3.75377604,2.08359375 L2.71523437,1.31536458 C2.44427083,1.22513021 2.08320312,1.2703125 1.81223958,1.54114583 L1.17994792,2.26367188 C0.954296875,2.53463542 0.909114583,2.94075521 1.13489583,3.16679688 L1.94765625,4.06992188 C1.85742187,4.25052083 1.81223958,4.43111979 1.76705729,4.61171875 L0.502734375,4.79231771 C0.186979167,4.83802083 -0.0390625,5.15403646 0.00638020833,5.51536458 L0.0520833333,6.46354167 C0.0520833333,6.82486979 0.323046875,7.140625 0.594010417,7.140625 L1.85833333,7.23098958 C1.90338542,7.41158854 1.99375,7.54700521 2.08411458,7.72773438 L1.27122396,8.76627604 C1.090625,9.03723958 1.13580729,9.3984375 1.40677083,9.66927083 L2.17447917,10.3016927 C2.4453125,10.527474 2.8515625,10.5726562 3.07760417,10.3920573 L4.07096354,9.53411458 C4.20638021,9.57929688 4.38710937,9.66953125 4.52252604,9.71471354 L4.703125,11.0688802 C4.74830729,11.3848958 5.06432292,11.6106771 5.38020833,11.6106771 L6.37356771,11.5654948 C6.73489583,11.5654948 7.05065104,11.2946615 7.05065104,10.9785156 L7.14101562,9.62434896 C7.27643229,9.57916667 7.41197917,9.53398438 7.54739583,9.44361979 L8.67630208,10.3015625 C8.76653646,10.3919271 8.90208333,10.4371094 9.0375,10.4371094 C9.21809896,10.4371094 9.44388021,10.3467448 9.57929688,10.2113281 L10.2563802,9.53424479 C10.4821615,9.26328125 10.5273438,8.90208333 10.3467448,8.63111979 L9.44375,7.59244792 C9.48893229,7.45703125 9.57916667,7.32148438 9.62434896,7.18606771 L11.0242187,7.00520833 C11.3402344,6.96002604 11.5660156,6.64388021 11.5660156,6.28268229 L11.475651,5.28932292 L11.475651,5.28958333 Z M5.74101562,7.59244792 C5.24427083,7.59244792 4.79270833,7.41184896 4.47669271,7.05065104 C4.16067708,6.68945313 3.93489583,6.23789063 3.93489583,5.78632813 C3.93489583,4.79296875 4.74765625,3.98007813 5.74101563,3.98007813 C6.23776042,3.98007813 6.68932292,4.16080729 7.00533854,4.52200521 C7.36666667,4.88320313 7.54726563,5.28958333 7.54726563,5.78632813 C7.54726563,6.7796875 6.734375,7.59244792 5.74101563,7.59244792 L5.74101562,7.59244792 Z" id="形状"></path>
                </g>
            </g>
        </g>
    </g>
</svg>