<svg xmlns="http://www.w3.org/2000/svg" width="12" height="12" viewBox="0 0 12 12">
  <path fill="#14B071" d="M5.8148407,-2.06279438e-13 C5.91279913,-2.06279438e-13 5.99221013,0.0794109951 5.99221013,0.177369422 L5.99221013,0.177369422 L5.99221013,1.02107261 C5.99221013,1.11903103 5.91279913,1.19844203 5.8148407,1.19844203 L5.8148407,1.19844203 L1.37581144,1.19844203 C1.27785302,1.19844203 1.19844202,1.27785302 1.19844202,1.37581144 L1.19844202,1.37581144 L1.19844202,10.6086088 C1.19844202,10.7065672 1.27785301,10.7859782 1.37581144,10.7859782 L1.37581144,10.7859782 L10.6086088,10.7859782 C10.7065672,10.7859782 10.7859782,10.7065672 10.7859782,10.6086088 L10.7859782,10.6086088 L10.7859782,6.16957955 C10.7859782,6.07190652 10.8656746,5.99221012 10.9633476,5.99221012 L10.9633476,5.99221012 L11.8070508,5.99221012 C11.9050093,5.99221012 11.9844203,6.07162112 11.9844203,6.16957955 L11.9844203,6.16957955 L11.9844203,11.8070508 C11.9844203,11.9050093 11.9050093,11.9844202 11.8070508,11.9844202 L11.8070508,11.9844202 L0.17736941,11.9844202 C0.0794109879,11.9844202 1.22124533e-12,11.9050093 1.22124533e-12,11.8070508 L1.22124533e-12,11.8070508 L1.22124533e-12,0.177369422 C1.22124533e-12,0.0794109997 0.0794109879,-2.06279438e-13 0.17736941,-2.06279438e-13 L0.17736941,-2.06279438e-13 Z M11.7375412,-3.33733041e-13 C11.8354996,-3.33733041e-13 11.9149106,0.0794109951 11.9149106,0.177369422 L11.9149106,0.177369422 L11.9149106,4.21432138 C11.9149106,4.31227981 11.8354996,4.3916908 11.7375412,4.3916908 L11.7375412,4.3916908 L10.893838,4.3916908 C10.8467967,4.3916908 10.8016821,4.37300372 10.7684189,4.3397405 C10.7351557,4.30647728 10.7164686,4.26136267 10.7164686,4.21432138 L10.7164686,4.21432138 L10.7164686,2.49635474 C10.7164686,2.33875962 10.5253171,2.25966244 10.413862,2.37111755 L10.413862,2.37111755 L6.50634175,6.27863776 C6.4732109,6.31201081 6.42813022,6.3307801 6.38110455,6.3307801 C6.33407889,6.3307801 6.2889982,6.31201081 6.25586736,6.27863776 L6.25586736,6.27863776 L5.65904324,5.68181364 C5.59014546,5.61230225 5.59014546,5.50025142 5.65904324,5.43074004 L5.65904324,5.43074004 L9.58813542,1.50104863 C9.70018975,1.38959353 9.62109258,1.19844203 9.46289823,1.19844203 L9.46289823,1.19844203 L7.64366324,1.19844203 C7.54570481,1.19844203 7.46629382,1.11903103 7.46629382,1.02107261 L7.46629382,1.02107261 L7.46629382,0.177369422 C7.46629382,0.0794109951 7.54570481,-3.33733041e-13 7.64366324,-3.33733041e-13 L7.64366324,-3.33733041e-13 Z"/>
</svg>
