<?xml version="1.0" encoding="UTF-8"?>
<svg width="80px" height="77px" viewBox="0 0 80 77" version="1.1" xmlns="http://www.w3.org/2000/svg" xmlns:xlink="http://www.w3.org/1999/xlink">
    <title>请求</title>
    <defs>
        <linearGradient x1="100%" y1="50%" x2="0%" y2="50%" id="linearGradient-1">
            <stop stop-color="#00ACEA" offset="0%"></stop>
            <stop stop-color="#06FF80" offset="100%"></stop>
        </linearGradient>
        <linearGradient x1="100%" y1="50%" x2="0%" y2="50%" id="linearGradient-2">
            <stop stop-color="#00A3FF" offset="0%"></stop>
            <stop stop-color="#00DD60" offset="100%"></stop>
        </linearGradient>
    </defs>
    <g id="Elara-Web" stroke="none" stroke-width="1" fill="none" fill-rule="evenodd">
        <g id="Elara切图" transform="translate(-898.000000, -71.000000)" fill-rule="nonzero">
            <g id="请求" transform="translate(898.000000, 71.000000)">
                <path d="M75.4172585,29.3323864 L75.4172585,4.00390625 C75.4172585,1.70454545 73.5351562,0.0266335227 71.4399858,0.0266335227 L42.96875,0.0266335227 C40.6693892,0.0266335227 38.9914773,1.9087358 38.9914773,4.00390625 L38.9914773,29.3323864 C38.9914773,31.6317472 40.8735795,33.3096591 42.96875,33.3096591 L71.2269176,33.3096591 C73.5351562,33.5227273 75.4172585,31.6317472 75.4172585,29.3323864 Z M67.2496449,23.2599432 C67.2496449,24.3075284 66.4151278,25.3551136 65.1544744,25.3551136 L49.0411932,25.3551136 C47.993608,25.3551136 46.9460227,24.5205966 46.9460227,23.2599432 L46.9460227,10.0763494 C46.9460227,9.0287642 47.7805398,7.98117898 49.0411932,7.98117898 L65.1633523,7.98117898 C66.2109375,7.98117898 67.2585227,8.81569602 67.2585227,10.0763494 L67.2585227,23.2599432 L67.2496449,23.2599432 Z M34.8100142,42.3117898 L6.33877841,42.3117898 C4.03941761,42.3117898 2.36150568,44.193892 2.36150568,46.2890625 L2.36150568,71.6175426 C2.36150568,73.9169034 4.24360795,75.5948153 6.33877841,75.5948153 L34.8100142,75.5948153 C37.109375,75.5948153 38.7872869,73.7127131 38.7872869,71.6175426 L38.7872869,46.4932528 C38.7872869,44.193892 36.8963068,42.3117898 34.8100142,42.3117898 Z M30.6196733,65.7581676 C30.6196733,66.8057528 29.7851563,67.8533381 28.5245028,67.8533381 L12.4112216,67.8533381 C11.3636364,67.8533381 10.3160511,67.018821 10.3160511,65.7581676 L10.3160511,52.565696 C10.3160511,51.5181108 11.1505682,50.4705256 12.4112216,50.4705256 L28.5333807,50.4705256 C29.5809659,50.4705256 30.6285511,51.3050426 30.6285511,52.565696 L30.6285511,65.7581676 L30.6196733,65.7581676 Z" id="形状" fill="url(#linearGradient-1)"></path>
                <path d="M11.1505682,34.987571 L22.2478693,22.0081676 L15.7581676,22.0081676 C15.7581676,14.6839489 21.4133523,8.82457386 28.5245028,8.82457386 L31.4541903,8.82457386 L31.4541903,0.0355113636 L28.5245028,0.0355113636 C16.8057528,0.0355113636 7.38636364,9.87215909 7.38636364,22.0170455 L0.0621448864,22.0170455 L11.1505682,34.987571 Z M79.6075994,53.8263494 L68.5102983,40.846946 L57.4129972,53.8263494 L63.9026989,53.8263494 C63.9026989,61.1505682 58.2475142,67.0099432 51.1363636,67.0099432 L48.2066761,67.0099432 L48.2066761,76.0120739 L51.1363636,76.0120739 C62.8551136,76.0120739 72.2745028,66.1754261 72.2745028,54.0305398 L79.5987216,54.0305398 L79.5987216,53.8263494 L79.6075994,53.8263494 Z" id="形状" fill="url(#linearGradient-2)"></path>
            </g>
        </g>
    </g>
</svg>