<?xml version="1.0" encoding="UTF-8"?>
<svg width="456px" height="80px" viewBox="0 0 456 80" version="1.1" xmlns="http://www.w3.org/2000/svg" xmlns:xlink="http://www.w3.org/1999/xlink">
    <title>编组 19</title>
    <defs>
        <linearGradient x1="100%" y1="50%" x2="0%" y2="50%" id="linearGradient-1">
            <stop stop-color="#00BCFC" offset="0%"></stop>
            <stop stop-color="#39CA9F" offset="100%"></stop>
        </linearGradient>
        <linearGradient x1="100%" y1="50%" x2="0%" y2="50%" id="linearGradient-2">
            <stop stop-color="#00A3FF" offset="0%"></stop>
            <stop stop-color="#00DD60" offset="100%"></stop>
        </linearGradient>
        <linearGradient x1="103.6448%" y1="50%" x2="0%" y2="48.5509873%" id="linearGradient-3">
            <stop stop-color="#0079BE" offset="0%"></stop>
            <stop stop-color="#002044" offset="100%"></stop>
        </linearGradient>
        <linearGradient x1="50%" y1="0%" x2="50%" y2="100%" id="linearGradient-4">
            <stop stop-color="#FFFFFF" offset="0%"></stop>
            <stop stop-color="#FFFFFF" offset="100%"></stop>
        </linearGradient>
        <linearGradient x1="100%" y1="50%" x2="0%" y2="50%" id="linearGradient-5">
            <stop stop-color="#00A3FF" stop-opacity="0.538151988" offset="0%"></stop>
            <stop stop-color="#00DD60" stop-opacity="0.594707462" offset="100%"></stop>
        </linearGradient>
    </defs>
    <g id="Elara-Web" stroke="none" stroke-width="1" fill="none" fill-rule="evenodd">
        <g id="Elara切图" transform="translate(-185.000000, -271.000000)">
            <g id="编组-4" transform="translate(185.000000, 272.000000)">
                <g id="编组-6">
                    <g id="编组-3" transform="translate(0.000000, 34.000000)" fill="url(#linearGradient-1)">
                        <circle id="椭圆形" cx="5.25" cy="5.25" r="5.25"></circle>
                        <circle id="椭圆形备份-3" fill-opacity="0.9" cx="26.75" cy="5.25" r="5.25"></circle>
                        <circle id="椭圆形备份-5" fill-opacity="0.7" cx="48.25" cy="5.25" r="5.25"></circle>
                        <circle id="椭圆形备份-92" fill-opacity="0.5" cx="69.75" cy="5.25" r="5.25"></circle>
                        <circle id="椭圆形备份-93" fill-opacity="0.3" cx="91.25" cy="5.25" r="5.25"></circle>
                        <circle id="椭圆形备份-94" opacity="0.1" cx="112.75" cy="5.25" r="5.25"></circle>
                    </g>
                    <g id="编组-3备份" transform="translate(397.000000, 39.500000) scale(-1, 1) translate(-397.000000, -39.500000) translate(338.000000, 34.000000)" fill="url(#linearGradient-1)">
                        <circle id="椭圆形" cx="5.25" cy="5.25" r="5.25"></circle>
                        <circle id="椭圆形备份-3" fill-opacity="0.9" cx="26.75" cy="5.25" r="5.25"></circle>
                        <circle id="椭圆形备份-5" fill-opacity="0.7" cx="48.25" cy="5.25" r="5.25"></circle>
                        <circle id="椭圆形备份-92" fill-opacity="0.5" cx="69.75" cy="5.25" r="5.25"></circle>
                        <circle id="椭圆形备份-93" fill-opacity="0.3" cx="91.25" cy="5.25" r="5.25"></circle>
                        <circle id="椭圆形备份-94" opacity="0.1" cx="112.75" cy="5.25" r="5.25"></circle>
                    </g>
                    <g id="编组-5" transform="translate(128.000000, 0.000000)">
                        <polygon id="路径-13" stroke="url(#linearGradient-2)" stroke-width="0.5" points="35.254805 4.4556495 157.497989 4.4556495 162.440813 0 194.264352 0 200 4.4556495 200 70.8953841 194.264352 75.3510336 173.640934 75.3510336 124.477258 75.3510336 118.741611 70.8953841 109.280918 70.8953841 103.54527 75.3510336 38.6647541 75.3510336 35.254805 78 9.14559678 78 0 70.8953841 0 7.37509175 6.85880543 0 31.6125886 0"></polygon>
                        <polygon id="路径-13" fill="url(#linearGradient-3)" opacity="0.5" points="33.4794614 8.88441239 160.090514 8.88441239 164.390186 5 189.010665 5 194 8.88441239 194 66.8062323 189.010665 70.6906447 124.56655 70.6906447 119.577215 66.8062323 107.62323 66.8062323 102.633895 70.6906447 36.4457137 70.6906447 33.4794614 73 13.9555872 73 6 66.8062323 6 11.4295672 11.9663493 5 30.3111641 5"></polygon>
                    </g>
                </g>
                <path d="M271.745169,26.98 C271.737114,27.1508321 271.729703,27.3232249 271.723703,27.4972311 L271.709781,28.0013828 L271.709781,28.0013828 L271.700242,28.4969243 L272.444212,28.9960143 L276.144378,28.9679828 C276.033756,30.9598467 275.953196,32.6863342 275.925454,34.0152973 L275.921,34.21 L276.394971,34.6103069 C276.907661,35.0441212 277.75527,35.4384184 278.4198,35.6607655 L278.659405,35.7358269 C278.862306,37.8049479 278.540988,38.7826952 278.038667,39.3935171 C277.473612,40.0806239 276.678064,40.364 275.52,40.364 C274.526017,40.364 273.80416,40.0281629 273.267928,39.4288446 C272.969322,39.0951083 272.729214,38.6702007 272.539037,38.1596617 L272.448071,37.897282 L271.019894,40.0395462 C270.874029,39.890661 270.734119,39.7549884 270.601518,39.6356471 C270.213574,39.2864977 269.680052,38.8898143 269.082167,38.4710752 C268.857435,38.7255432 268.61488,38.9703073 268.350979,39.2053276 L268.319,39.231 L268.278747,39.6024101 C268.263248,39.7429694 268.247943,39.8808725 268.232088,40.016883 L268.182128,40.42 L276.713927,40.42 C276.704254,40.7117534 276.691271,40.9469869 276.691271,40.9469877 C276.691271,40.9469891 276.641758,41.8440948 276.5686,42.3020493 C276.214501,46.6370249 275.669776,48.6533311 274.817553,49.5055534 C273.987164,50.3359425 273.083945,50.5979038 271.846943,50.7058354 C270.942298,50.8028401 269.455595,50.804493 267.920135,50.7557482 C267.371063,49.4088916 266.950038,48.1931193 266.397315,47.3971979 C266.267872,47.2107996 266.114329,47.0231261 265.944767,46.8402453 L265.832,46.724 L265.745842,46.826996 C264.291778,48.5003689 261.957392,49.837954 258.072494,50.7715554 L257.678811,50.8635664 C256.801433,49.6799657 256.033527,48.3933906 255.378864,47.6935786 C255.180276,47.4812943 254.928508,47.2550172 254.651251,47.0330323 C254.971679,46.9832802 255.304873,46.9258781 255.651507,46.8606295 C258.638667,46.2983404 260.484241,45.5560844 261.634921,44.5946506 L261.781106,44.468 L256.348,44.468 L256.348,40.42 L257.236,40.42 L257.138489,40.2025876 C256.737258,39.2917877 256.450127,38.4592365 256.174996,37.8306869 L256.083591,37.6288985 L255.992,37.443 L255.905256,37.4247187 L255.87,37.211 L255.833153,37.1410011 L255.687343,36.8847276 L255.818,36.889 L255.258174,33.4497839 C255.96029,33.4094959 256.772899,33.3333295 257.672367,33.2450761 L258.12923,33.2000524 L258.400372,33.1732948 L258.400372,33.1732948 L258.676,33.1462081 L255.748,32.948 L255.748,28.924 L258.676,28.924 L258.676,27.004 L262.844,27.004 L262.844,28.924 L265.292,28.924 L265.292,28.996 L267.474655,28.996 C267.476591,28.9114946 267.478325,28.8261656 267.479966,28.7400129 L267.484722,28.4790842 C267.488614,28.2608603 267.492603,28.0376389 267.498285,27.8094197 L267.508278,27.4633426 L271.745169,26.98 Z M271.808228,44.468 L267.194742,44.468 C266.895189,45.1835805 266.516326,45.8579893 266.025115,46.4878645 L265.992,46.529 L266.003408,46.5307301 C266.143669,46.5461773 266.284979,46.5609757 266.42642,46.574895 L266.850222,46.6137858 C268.249614,46.7323785 269.743883,46.756 270.408,46.756 C270.747155,46.756 270.98,46.748 271.188,46.592 C271.483474,46.3703942 271.64836,45.6539265 271.808228,44.468 Z M265.168,36.414 L262.844,36.7255 C262.844,37.9864238 262.759231,38.6151173 262.544846,39.1007659 C262.319033,39.6122996 261.958455,39.9870861 261.386985,40.2654949 C261.320935,40.297673 261.253662,40.3280252 261.185116,40.3566518 L261.021,40.419 L263.572849,40.42 C263.610605,40.153222 263.641528,39.8828532 263.6727,39.6020014 L263.720529,39.172 L264.846179,39.172 C264.513536,38.7280628 264.133321,38.3074335 263.81719,38.0344115 C263.636776,37.8785992 263.405761,37.7091352 263.150193,37.5431702 C263.40052,37.4516627 263.656514,37.3407259 263.920393,37.2087864 C264.36537,36.9862981 264.749116,36.7459126 265.084045,36.483652 L265.168,36.414 Z M271.925739,32.852 L271.373128,32.852 L271.294469,33.3513103 C271.210564,33.8426352 271.110535,34.3108198 270.990914,34.7632045 C271.35454,34.9879346 271.701749,35.2072775 272.021472,35.4174372 C271.959507,34.6440782 271.93246,33.7838163 271.925739,32.852 L271.925739,32.852 Z M235.151076,26.951222 L239.406179,28.2867653 C239.004164,29.4346543 238.523405,30.6227124 237.978611,31.7995163 L237.702,32.38 L241.129237,32.38 C241.160043,31.092815 241.16355,29.7601776 241.163949,28.3820888 L241.164043,27.3400001 L245.643336,27.3399991 C245.647914,29.0673168 245.628828,30.7473173 245.586087,32.3800008 L245.586087,32.3800008 L248.399893,32.38 C247.658311,31.3951136 246.684411,30.2801539 245.970334,29.5420777 L245.970334,29.5420777 L249.204644,27.2364307 C250.415398,28.4234144 252.365278,30.4888911 252.881511,31.5249445 L252.881511,31.5249445 L251.73684,32.38 L253.54,32.38 L253.54,36.668 L245.365166,36.668 C244.856663,42.6040354 243.326324,47.4921962 238.789449,50.7808307 C238.634352,50.8932552 238.478572,51.0017589 238.322475,51.105805 C238.237752,50.9349439 238.151603,50.7753211 238.066073,50.6312694 C237.793439,50.1720976 237.384908,49.6316764 236.932,49.1352948 L236.932,49.1352948 L236.932,50.756 L232.62,50.756 L232.62,40.22488 C232.361899,40.5032233 232.164872,40.7068648 231.959253,40.9109214 C231.8712,40.6021577 231.786547,40.3314876 231.713723,40.1298222 C231.410895,39.2912218 230.503067,37.403989 229.943975,36.5653501 C232.091673,33.7755161 234.076025,30.3453402 235.151076,26.951222 L235.151076,26.951222 Z M236.932,46.1802613 C239.614144,43.7822194 240.570587,40.5504199 240.927966,36.668 L240.927966,36.668 L236.932,36.667 Z M190.388,27.796 L190.388,46.608 C190.388,48.3381875 190.092214,49.3927823 189.114764,50.0443644 C188.206037,50.6674918 187.047021,50.78 185.376,50.78 C185.027391,49.9661598 184.747729,49.0861167 184.489022,48.3392475 L184.471,48.289 L184.445347,48.3908407 C184.276741,49.0042492 184.084495,49.5883675 183.865866,50.1315448 L183.696906,50.5310692 C183.602931,50.7425135 183.500638,50.9554832 183.390706,51.1692063 C183.218868,50.9857104 183.056751,50.8270641 182.918404,50.7108524 C182.35074,50.234015 181.010292,49.4863197 180.261128,49.2138967 C180.111424,49.1594587 179.931433,49.1043999 179.733694,49.0505729 C179.819406,48.8810296 179.899834,48.7115163 179.974541,48.5421799 C181.330614,45.4684147 181.459144,40.9632764 181.467501,37.5436723 L181.468,37.104 L181.468,27.796 L190.388,27.796 Z M186.11073,42.908 L185.356993,42.908 C185.26803,43.9375928 185.142834,44.9733721 184.972155,45.9760165 L184.888,46.439 L185.08924,46.445566 L185.376821,46.4494456 L186.11073,42.908 Z M186.172,37.4454642 L185.587718,37.5339918 L185.586397,37.886762 C185.584987,38.1250196 185.582337,38.3694322 185.577356,38.62 L185.577356,38.62 L186.172,38.62 L186.172,37.4454642 Z M186.172,32.012 L185.588,32.012 L185.588,33.148 L186.172,33.148 L186.172,32.012 Z M202.892,27.796 L202.892,32.952 C202.892,33.8130664 202.780994,34.4707678 202.512378,34.9766615 C202.268996,35.4350309 201.901676,35.7856481 201.352341,36.0381363 L201.137695,36.1282383 L200.987,36.183 L201.129939,36.1585925 L203.71499,36.9701785 C203.264554,40.2746968 202.399589,43.0217401 201.152491,45.2620298 C202.00688,46.0201499 202.985126,46.6615824 204.037554,47.1362066 C204.299748,47.2544511 204.566655,47.3623909 204.837177,47.4600787 C204.58036,47.633322 204.347394,47.8069727 204.159465,47.9698445 C203.474475,48.5635025 202.562694,49.7290681 202.106122,50.5280695 C201.731711,50.8776328 201.582344,50.8000755 201.433858,50.719646 C200.391089,50.1548124 199.443185,49.4761382 198.589962,48.6839251 C197.804774,49.4713873 196.926015,50.1490862 195.953248,50.7327465 C195.803123,50.8228215 195.652075,50.909867 195.500171,50.9937241 C195.133158,50.3318236 194.903747,49.9716152 194.667282,49.6389655 L194.588,49.5287269 L194.588,50.78 L190.3,50.78 L190.3,27.796 L202.892,27.796 Z M194.588,42.8900378 L194.588,46.6037736 L194.867963,46.3848508 C195.236282,46.0850374 195.584743,45.7533687 195.913384,45.3875729 C195.422904,44.6039237 194.983861,43.7685872 194.588,42.8900378 L194.588,42.8900378 Z M198.724631,40.412 L197.671077,40.412 L197.862439,40.8236331 C197.993787,41.0956415 198.132579,41.3627203 198.2782,41.624256 C198.443146,41.231922 198.592638,40.8271248 198.724631,40.412 L198.724631,40.412 Z M198.380402,32.012 L194.588,32.012 L194.588,36.268 L196.423,36.268 L196.416737,36.2543972 C195.928704,35.2399266 195.561529,34.32336 195.2359,33.636042 L195.128786,33.4156068 C195.00411,33.1662533 194.85236,32.8902809 194.684319,32.6101257 C195.005185,32.6441909 195.32497,32.6737235 195.610012,32.6931582 C196.35117,32.7436917 197.334323,32.7584693 197.959861,32.7540951 L198.154306,32.7519505 L198.380402,32.012 Z M214.217683,38.4402262 L218.843694,38.8078563 C218.821938,38.9858357 218.796514,39.1661972 218.764606,39.3496706 C218.730504,39.5457536 218.690631,39.7359904 218.647923,39.9223806 L218.647923,39.9223806 L227.132492,40.3502157 C227.116751,40.6366496 227.098449,40.8633508 227.098449,40.8633513 C227.098449,40.8633523 227.023393,41.7930532 226.92471,42.2559641 C226.368713,46.439266 225.653419,48.4561118 224.651081,49.3349625 C223.77631,50.151157 222.829527,50.3872815 221.453395,50.4665997 C220.480045,50.5396009 218.825353,50.5405312 217.146281,50.4675281 C216.625039,49.1867259 216.206935,48.03043 215.661174,47.2881952 C215.565027,47.1574343 215.455431,47.0266238 215.335975,46.8982956 L215.267,46.828 L215.050869,47.0542741 C213.45979,48.6615286 211.388057,49.802256 208.754784,50.6164304 L208.355571,50.7361249 C207.422918,49.7649086 206.415771,48.3708775 205.798447,47.7535534 C205.606249,47.5613555 205.338762,47.3313709 205.040145,47.095405 C205.368681,47.0443852 205.705061,46.982711 206.049568,46.9106047 C208.516534,46.3942631 210.387136,45.5550499 211.725,44.276 L211.725,44.276 L207.188,44.276 L207.188,40.324 L213.881103,40.324 C214.028796,39.73162 214.131987,39.0950977 214.217683,38.4402262 L214.217683,38.4402262 Z M222.142117,44.276 L217.087108,44.276 C216.691381,45.0140714 216.241729,45.6864197 215.734683,46.2990465 L215.609,46.445 L215.655126,46.450597 L215.655126,46.450597 L216.107947,46.4939351 C217.723063,46.6364453 219.551948,46.66 220.312,46.66 C220.706505,46.66 220.989159,46.6721491 221.2394,46.4934721 C221.593843,46.2323037 221.868836,45.4865603 222.142117,44.276 L222.142117,44.276 Z M244.332,36.868 L248.739947,36.868 L248.740879,45.7272281 L249.691044,46.0678434 C249.929895,45.3139845 249.973378,44.4066683 250.020226,42.8489692 C250.035464,42.3423177 250.046922,41.9043683 250.0532,41.5261869 C250.312428,41.9148629 250.587781,42.2635588 250.845396,42.4843717 C251.473673,43.0228948 252.869765,43.5493483 253.698455,43.7733183 C253.915468,46.5227723 253.603389,47.9599487 253.052094,48.849008 C252.433035,49.8473497 251.531809,50.252 250.16,50.252 L250.16,50.252 L248.168,50.252 C246.6293,50.252 245.704923,49.9024962 245.129879,49.1826565 C244.560223,48.4695623 244.332,47.3305453 244.332,45.576 L244.332,45.576 L244.332,36.868 Z M213.096959,26.8936447 L217.673055,27.8275418 C217.552532,28.0334655 217.429668,28.2380042 217.305133,28.4391773 L217.076213,28.8025573 L217.076213,28.8025573 L216.841042,29.164 L224.397041,29.164 L225.07321,28.9795903 L227.844493,30.7347363 C226.660023,32.6632484 224.973679,34.2578299 222.939336,35.5475625 C224.664029,35.7732249 226.533717,35.905798 228.491034,35.9803624 C228.915564,35.996535 229.336191,36.0096729 229.752268,36.0195061 C229.399453,36.2889077 229.07697,36.5652037 228.837136,36.8215786 C228.171917,37.5326748 227.396122,38.8883967 227.006338,39.7367501 C222.867328,39.7882386 219.660852,39.2653641 216.92113,38.3044589 C213.957538,39.2686497 210.694861,39.9077492 207.385176,40.2887201 C206.61824,39.1050192 206.073743,37.7811023 205.571979,37.0512644 C205.420292,36.8306292 205.219312,36.5869059 204.993926,36.3403367 C205.310089,36.3191263 205.626665,36.295507 205.943319,36.2696577 C206.495798,36.2245574 207.046944,36.1727968 207.59484,36.1137275 L208.17,36.047 L208.140154,35.9731126 L208.075591,35.8288985 C207.714544,35.0616743 206.813219,33.8193942 206.203818,33.2777047 C206.024762,33.1185437 205.782685,32.9414452 205.510017,32.7637108 C205.785129,32.6652086 206.063604,32.5580193 206.3453,32.4417949 C209.82522,31.0060238 211.984249,28.9392695 213.096959,26.8936447 Z M210.854829,34.8996529 C210.336945,35.2262086 209.784773,35.5333741 209.198092,35.836442 L208.871,36.002 L208.984,35.945 L209.226862,35.9139447 C209.766341,35.8396092 210.300653,35.7573164 210.82788,35.6664177 L211.613168,35.523534 C211.354457,35.3230508 211.101198,35.115081 210.854829,34.8996529 Z M219.393816,33.0495206 L214.64867,33.0636431 L214.976328,33.2648482 C215.534925,33.593066 216.155811,33.8859049 216.83572,34.1469853 C217.750975,33.813893 218.606576,33.4510832 219.393816,33.0495206 L219.393816,33.0495206 Z" id="服务优势" stroke="url(#linearGradient-5)" fill="url(#linearGradient-4)" fill-rule="nonzero"></path>
            </g>
        </g>
    </g>
</svg>