<?xml version="1.0" encoding="UTF-8"?>
<svg width="14px" height="14px" viewBox="0 0 14 14" version="1.1" xmlns="http://www.w3.org/2000/svg" xmlns:xlink="http://www.w3.org/1999/xlink">
    <title>退出账户</title>
    <g id="页面-1" stroke="none" stroke-width="1" fill="none" fill-rule="evenodd">
        <g id="控制台空状态" transform="translate(-1098.000000, -199.000000)" fill="#39CA9F" fill-rule="nonzero">
            <g id="编组-9" transform="translate(1078.000000, 44.000000)">
                <g id="编组-7" transform="translate(20.000000, 153.000000)">
                    <path d="M0,15.1923662 C0,15.6386482 0.383782021,16 0.85742237,16 L7.14257763,16 C7.61621798,16 8,15.6386482 8,15.1923662 C8,14.7460842 7.61621798,14.3847324 7.14257763,14.3847324 L1.71386644,14.3847324 L1.71386644,3.61526755 L7.14257763,3.61526755 C7.61621798,3.61526755 8,3.25395199 8,2.80763378 C8,2.36182283 7.61621798,2 7.14257763,2 L0.85742237,2 C0.383782021,2 0,2.36182283 0,2.80763378 L0,8.99902171 L0,15.1923662 Z M13.7210901,8.44187885 C13.8925301,8.57971437 14,8.77830921 14,8.99954582 C14,9.22172443 13.8925301,9.41937727 13.7210901,9.55721279 L13.7210901,9.55721279 L10.9087359,11.8068217 L10.9087359,11.8068217 C10.7586318,11.9265573 10.5608511,12 10.3438041,12 C9.87828945,12 9.5,11.6635696 9.5,11.249222 C9.5,11.0279518 9.6085235,10.8293906 9.77988828,10.6924634 L9.77988828,10.6924634 L10.9573909,9.74941545 L5.84380409,9.74941545 L5.84380409,9.74941545 C5.37727345,9.74941545 5,9.4139271 5,8.99954582 C5,8.58516454 5.37727345,8.24964254 5.84380409,8.24964254 L5.84380409,8.24964254 L10.9574285,8.24964254 L9.77992591,7.3075366 L9.77992591,7.3075366 C9.6085235,7.17060944 9.50003763,6.97113988 9.50003763,6.74986963 C9.50003763,6.33548836 9.87832708,6 10.3438417,6 C10.5608887,6 10.7586318,6.07253439 10.9087735,6.19223631 L10.9087735,6.19223631 L13.7210901,8.44187885 L13.7210901,8.44187885 Z" id="退出账户"></path>
                </g>
            </g>
        </g>
    </g>
</svg>