<?xml version="1.0" encoding="UTF-8"?>
<svg width="80px" height="80px" viewBox="0 0 80 80" version="1.1" xmlns="http://www.w3.org/2000/svg" xmlns:xlink="http://www.w3.org/1999/xlink">
    <title>直接客户支持</title>
    <g id="页面-1" stroke="none" stroke-width="1" fill="none" fill-rule="evenodd">
        <g id="Linkweb3-首页" transform="translate(-1013.000000, -1927.000000)">
            <g id="编组-11" transform="translate(100.000000, 1867.000000)">
                <g id="直接客户支持" transform="translate(913.000000, 60.000000)">
                    <path d="M76,24 C78.209139,24 80,25.790861 80,28 L80,28 L80,77.3096504 C80,77.7800196 79.8342157,78.2353394 79.5317822,78.595591 C78.8215768,79.4415709 77.5600393,79.551638 76.7140594,78.8414326 L76.7140594,78.8414326 L68.9463801,72.3204179 C66.7848704,70.5058171 64.0529519,69.5111111 61.2307364,69.5111111 L61.2307364,69.5111111 L32.8,69.5111111 C30.590861,69.5111111 28.8,67.7202501 28.8,65.5111111 L28.8,65.5111111 L28.8,45.511 L39.2,45.5111111 C45.7254567,45.5111111 51.0343928,40.3025667 51.1962001,33.8160859 L51.2,33.5111111 L51.2,24 Z M47.2,0 C49.409139,0 51.2,1.790861 51.2,4 L51.2,24 L40.8,24 C34.172583,24 28.8,29.372583 28.8,36 L28.8,45.511 L18.7692636,45.5111111 C15.9470481,45.5111111 13.2151296,46.5058171 11.0536199,48.3204179 L3.28594062,54.8414326 C2.43996067,55.551638 1.17842319,55.4415709 0.468217794,54.595591 C0.165784337,54.2353394 0,53.7800196 0,53.3096504 L0,4 C0,1.790861 1.790861,0 4,0 L47.2,0 Z" id="形状结合" fill="#BABABA"></path>
                    <path d="M51.2,24 L51.2,33.5111111 C51.2,40.1385281 45.827417,45.5111111 39.2,45.5111111 L28.8,45.511 L28.8,36 C28.8,29.4745433 34.0085444,24.1656072 40.4950252,24.0037999 L40.8,24 L51.2,24 Z" id="形状结合" fill="#39CA9F"></path>
                </g>
            </g>
        </g>
    </g>
</svg>