<?xml version="1.0" encoding="UTF-8"?>
<svg width="12px" height="12px" viewBox="0 0 12 12" version="1.1" xmlns="http://www.w3.org/2000/svg" xmlns:xlink="http://www.w3.org/1999/xlink">
    <title>时间</title>
    <g id="Elara-Web" stroke="none" stroke-width="1" fill="none" fill-rule="evenodd">
        <g id="中文/英文备份" transform="translate(-595.000000, -183.000000)" fill="#000000" fill-rule="nonzero">
            <g id="编组" transform="translate(240.000000, 114.000000)">
                <g id="时间" transform="translate(355.000000, 69.000000)">
                    <path d="M5.79145833,0.0034375 C2.59145833,0.0034375 0.0114583333,2.5834375 0.0114583333,5.7834375 C0.0114583333,8.9834375 2.62479167,11.5567708 5.79145833,11.5567708 C8.99145833,11.5567708 11.5714583,8.97677083 11.5714583,5.77677083 C11.5714583,2.57677083 8.96479167,0.0034375 5.79145833,0.0034375 Z M9.558125,7.53010417 C9.47145833,7.71010417 9.318125,7.79677083 9.14479167,7.79677083 C9.08479167,7.79677083 9.02479167,7.79677083 8.96479167,7.77010417 L5.558125,6.2234375 C5.41145833,6.1634375 5.29145833,5.9834375 5.29145833,5.81010417 L5.29145833,2.61010417 C5.29145833,2.37010417 5.498125,2.1634375 5.738125,2.1634375 C5.978125,2.1634375 6.18479167,2.37010417 6.18479167,2.61010417 L6.18479167,5.5434375 L9.32479167,6.9634375 C9.558125,7.05010417 9.64479167,7.29010417 9.558125,7.53010417 Z" id="形状"></path>
                </g>
            </g>
        </g>
    </g>
</svg>