<?xml version="1.0" encoding="UTF-8"?>
<svg width="32px" height="32px" viewBox="0 0 32 32" version="1.1" xmlns="http://www.w3.org/2000/svg" xmlns:xlink="http://www.w3.org/1999/xlink">
    <title>youtube</title>
    <g id="页面-1" stroke="none" stroke-width="1" fill="none" fill-rule="evenodd" opacity="0.699999988">
        <g id="Elara中文" transform="translate(-1040.000000, -2383.000000)">
            <g id="底部" transform="translate(0.000000, 2176.000000)">
                <g id="编组备份-3" transform="translate(800.000000, 207.000000)">
                    <g id="youtube" transform="translate(240.000000, 0.000000)">
                        <rect id="矩形" x="0" y="0" width="32" height="31.9425494"></rect>
                        <path d="M31.3205594,8.2372226 C30.9434807,6.88852401 29.8876837,5.83462253 28.5365594,5.45822081 C26.043226,4.79140121 16.0085594,4.79140121 16.0085594,4.79140121 C16.0085594,4.79140121 5.99922603,4.77811068 3.48055937,5.45822081 C2.12943506,5.83462253 1.07363807,6.88852401 0.696559371,8.2372226 C0.223920163,10.7853204 -0.00909323143,13.3719379 0.000271380994,15.9633267 C-0.00726845364,18.5449372 0.225737302,21.1216673 0.696559371,23.6601502 C1.07363807,25.0088488 2.12943506,26.0627503 3.48055937,26.439152 C5.97122603,27.1072836 16.0085594,27.1072836 16.0085594,27.1072836 C16.0085594,27.1072836 26.0165594,27.1072836 28.5365594,26.439152 C29.8876837,26.0627503 30.9434807,25.0088488 31.3205594,23.6601502 C31.781545,21.1207478 32.00473,18.5440252 31.9872261,15.9633267 C32.0065546,13.3728533 31.7833623,10.7862433 31.3205594,8.2372226 L31.3205594,8.2372226 Z M12.8058927,20.7427307 L12.8058927,11.1692824 L21.1578927,15.9633267 L12.8058927,20.7427307 Z" id="形状" fill="#2A292B" fill-rule="nonzero"></path>
                    </g>
                </g>
            </g>
        </g>
    </g>
</svg>