<?xml version="1.0" encoding="UTF-8"?>
<svg width="100px" height="100px" viewBox="0 0 100 100" version="1.1" xmlns="http://www.w3.org/2000/svg" xmlns:xlink="http://www.w3.org/1999/xlink">
    <title>手机</title>
    <g id="手机" stroke="none" stroke-width="1" fill="none" fill-rule="evenodd">
        <g id="elara" transform="translate(1.000000, 5.000000)" fill-rule="nonzero">
            <path d="M73.21888,65.02608 L38.99504,84.78512 C36.16032,86.42256 32.50016,85.44144 30.86384,82.60672 L1.81552,32.29296 C0.17808,29.45712 1.1592,25.79808 3.99392,24.16176 L38.21664,4.40272 C41.05248,2.76528 44.71152,3.7464 46.34784,6.58112 L75.39616,56.89488 C77.0336,59.73072 76.0536,63.38976 73.21888,65.02608 Z" id="路径" fill="#00FDFF"></path>
            <path d="M36.0304,86.51776 C33.64704,86.51776 31.32752,85.2824 30.05296,83.07488 L1.00464,32.76112 C0.08736,31.17296 -0.15456,29.31712 0.32368,27.5352 C0.8008,25.75328 1.93872,24.26704 3.52688,23.34976 L37.7496,3.59072 C41.03904,1.6912 45.26144,2.8224 47.16096,6.11184 L76.20928,56.4256 C77.12656,58.01376 77.36848,59.8696 76.89024,61.65152 C76.41312,63.43344 75.2752,64.91968 73.68704,65.83696 L39.4632,85.596 C38.38128,86.22096 37.19856,86.51776 36.0304,86.51776 Z M41.18576,4.54272 C40.33568,4.54272 39.4744,4.75888 38.68592,5.2136 L4.46208,24.97264 C2.0664,26.35584 1.2432,29.42912 2.6264,31.8248 L31.67472,82.13856 C33.05792,84.53424 36.1312,85.35744 38.52688,83.97424 L72.7496,64.2152 C73.90432,63.5488 74.732,62.46576 75.0792,61.16768 C75.42752,59.86848 75.25168,58.51776 74.58528,57.36304 L45.53696,7.04928 C44.6096,5.44208 42.91952,4.54272 41.18576,4.54272 Z" id="形状" fill="#000072"></path>
            <path d="M16.57712,43.8088 C16.25344,43.8088 15.93872,43.6408 15.76512,43.34064 C15.5064,42.89264 15.65984,42.32032 16.10784,42.0616 L45.32416,25.19328 C45.77216,24.93456 46.34448,25.088 46.6032,25.536 C46.86192,25.984 46.70848,26.55632 46.26048,26.81504 L17.04416,43.68336 C16.89744,43.76848 16.73616,43.8088 16.57712,43.8088 Z" id="路径" fill="#000072"></path>
            <path d="M22.66544,54.35472 C22.34176,54.35472 22.02704,54.18672 21.85344,53.88656 C21.59472,53.43856 21.74816,52.86512 22.19616,52.60752 L51.41248,35.7392 C51.86048,35.48048 52.43392,35.63392 52.69152,36.08192 C52.95024,36.52992 52.7968,37.10224 52.3488,37.36096 L23.13248,54.22816 C22.98576,54.3144 22.82448,54.35472 22.66544,54.35472 Z" id="路径" fill="#000072"></path>
            <path d="M28.75376,64.89952 C28.43008,64.89952 28.11536,64.73152 27.94176,64.43136 C27.68304,63.98336 27.83648,63.40992 28.28448,63.15232 L57.5008,46.284 C57.9488,46.02528 58.52224,46.17872 58.77984,46.62672 C59.03856,47.07472 58.88512,47.64816 58.43712,47.90576 L29.2208,64.77408 C29.07408,64.8592 28.9128,64.89952 28.75376,64.89952 Z" id="路径" fill="#000072"></path>
            <path d="M95.91008,65.1056 L55.68528,88.3288 C52.84944,89.96624 49.1904,88.98512 47.55408,86.1504 L16.39344,32.1776 C14.756,29.34288 15.73712,25.68272 18.57184,24.0464 L58.79552,0.8232 C61.63136,-0.81424 65.2904,0.16688 66.92672,3.0016 L98.08848,56.9744 C99.72592,59.81024 98.7448,63.46928 95.91008,65.1056 Z" id="路径" stroke="#000072" stroke-width="1.8733008" fill="#FFFFFF"></path>
            <circle id="椭圆形" fill="#FF1E97" cx="87.36" cy="59.14832" r="3.7464"></circle>
            <path d="M79.83136,38.9928 C78.12224,36.80992 75.7288,35.23184 73.08,34.53856 C71.78864,31.46528 69.63264,28.85344 66.83712,26.97744 C64.00016,25.07344 60.7096,24.06768 57.32272,24.06768 L57.1536,24.0688 C53.77008,24.1024 50.4896,25.14512 47.66608,27.08384 C44.884,28.99344 42.75264,31.62992 41.496,34.7144 C38.94576,35.51744 36.75392,37.08096 35.15008,39.24144 C33.516,41.44224 32.6536,44.04848 32.6536,46.78016 C32.6536,53.7544 38.3264,59.42944 45.29952,59.42944 L64.62512,59.42944 L69.88576,59.42832 C76.85888,59.42832 82.531681,53.7544 82.531681,46.78016 C82.5328,43.98464 81.57408,41.21936 79.83136,38.9928 Z M76.79056,53.6256 C75.09712,55.35824 72.84704,56.31136 70.4536,56.31136 L44.72944,56.31136 C40.16432,56.30576 36.33728,52.79904 35.82768,48.15664 C35.32928,43.61504 38.21216,39.35232 42.53648,38.23232 C43.37872,38.16176 44.09888,37.58832 44.37888,36.76288 C46.20112,31.09344 51.34416,27.24512 57.17376,27.18688 L57.3104,27.18576 C63.05152,27.18576 68.20128,30.90304 70.12992,36.43584 C70.15232,36.52992 70.18144,36.624 70.21504,36.7136 C70.49616,37.4472 71.13792,37.968 71.88384,38.07104 C76.2496,38.79568 79.41808,42.60704 79.4169603,47.13408 C79.4169603,49.58688 78.484,51.89184 76.79056,53.6256 Z" id="形状" fill="#000072"></path>
            <path d="M66.09792,42.4424 L66.09792,42.4424 C66.07776,40.572 64.54112,39.05664 62.66512,39.05664 C62.65952,39.05664 62.6528,39.05664 62.6472,39.05664 L61.04224,39.0712 L61.03216,38.07776 C61.012,36.21072 59.4776,34.69312 57.61168,34.69312 L50.66768,34.7592 C48.78496,34.77936 47.26624,36.3272 47.2817997,38.21104 L47.348,45.12256 C47.36816,46.9896 48.90256,48.50832 50.7696,48.50832 C50.7696,48.50832 50.7696,48.50832 50.77072,48.50832 L52.4048,48.49376 L52.41488,49.48832 C52.43504,51.35424 53.96944,52.87296 55.83648,52.87296 L62.78048,52.80688 C64.6632,52.78672 66.18192,51.24 66.1663603,49.35728 L66.09792,42.4424 Z M57.71248,48.44112 C59.5952,48.42096 61.11392,46.87312 61.09824,44.98928 L61.0792,43.01472 C61.07584,42.71792 60.95824,42.44016 60.74768,42.23408 C60.53936,42.02912 60.26272,41.916 59.96032,41.916 C59.3488,41.9216 58.856,42.42448 58.86048,43.036 L58.87952,45.01056 C58.88512,45.67136 58.352,46.21456 57.6912,46.2224 L50.7808,46.28848 L50.76848,46.28848 C50.11328,46.28848 49.57344,45.75536 49.56672,45.10016 L49.5005963,38.18864 C49.49504,37.52784 50.02816,36.98464 50.68896,36.9768 L57.60048,36.91072 L57.6128,36.91072 C58.268,36.91072 58.80672,37.44384 58.81344,38.09904 L58.82352,39.09248 L55.73344,39.1216 C53.85072,39.14176 52.332,40.6896 52.34768,42.57232 L52.36672,44.52224 C52.37232,45.12816 52.87072,45.62096 53.48784,45.62096 C54.09936,45.61424 54.59104,45.11248 54.58544,44.50096 L54.56752,42.55104 C54.56192,41.89024 55.09504,41.34704 55.75584,41.34032 L62.66624,41.27424 L62.67856,41.27424 C63.33376,41.27424 63.8736,41.80736 63.88032,42.46256 L63.9464437,49.37296 C63.952,50.03376 63.41888,50.57696 62.75808,50.5848 L55.84656,50.65088 L55.83424,50.65088 C55.17904,50.65088 54.64032,50.11776 54.6336,49.46368 L54.62352,48.47024 L57.71248,48.44112 Z" id="形状" fill="#000072"></path>
        </g>
    </g>
</svg>