<?xml version="1.0" encoding="UTF-8"?>
<svg width="14px" height="14px" viewBox="0 0 14 14" version="1.1" xmlns="http://www.w3.org/2000/svg" xmlns:xlink="http://www.w3.org/1999/xlink">
    <title>编组 7</title>
    <g id="页面-1" stroke="none" stroke-width="1" fill="none" fill-rule="evenodd">
        <g id="Project_Requests" transform="translate(-1095.000000, -89.000000)" fill="#FFFFFF">
            <g id="编组-4备份" transform="translate(1085.000000, 80.000000)">
                <g id="编组-7" transform="translate(10.000000, 9.000000)">
                    <path d="M7,0 C10.8659932,0 14,3.13400675 14,7 C14,10.8659932 10.8659932,14 7,14 C3.13400675,14 0,10.8659932 0,7 C0,3.13400675 3.13400675,0 7,0 Z M8,3 L6,3 L6,6 L3,6 L3,8 L6,8 L6,11 L8,11 L8,8 L11,8 L11,6 L8,6 L8,3 Z" id="形状结合"></path>
                </g>
            </g>
        </g>
    </g>
</svg>