<?xml version="1.0" encoding="UTF-8"?>
<svg width="16px" height="16px" viewBox="0 0 16 16" version="1.1" xmlns="http://www.w3.org/2000/svg" xmlns:xlink="http://www.w3.org/1999/xlink">
    <title>selected 2</title>
    <g id="页面-1" stroke="none" stroke-width="1" fill="none" fill-rule="evenodd">
        <g id="Dashboard_create-project" transform="translate(-872.000000, -577.000000)">
            <g id="编组-3备份" transform="translate(674.000000, 187.000000)">
                <g id="编组-4" transform="translate(30.000000, 214.000000)">
                    <g id="编组" transform="translate(168.000000, 176.000000)">
                        <rect id="矩形" x="0" y="0" width="16" height="16"></rect>
                        <g id="check_black_24dp" transform="translate(1.600000, 2.864447)" fill="#14B071" fill-rule="nonzero">
                            <path d="M12.4871066,0.31278985 C12.9036615,0.72844593 12.90439,1.40308616 12.4887339,1.81964097 C12.4881787,1.82019738 12.4876229,1.82075317 12.4870665,1.82130835 L5.5996656,8.69311759 L5.5996656,8.69311759 L4.18195147,10.2049057 L4.1350258,10.155476 L4.08542249,10.2049057 L0.312579681,6.44020299 C-0.103557529,6.02496362 -0.104285368,5.35099973 0.310954006,4.93486252 C0.312380881,4.93343256 0.313811823,4.93200667 0.315246816,4.93058485 C0.735930122,4.51376536 1.4142725,4.51496786 1.83347537,4.93327623 L4.08521392,7.18021 L4.08521392,7.18021 L10.9749011,0.312403831 C11.3929177,-0.10428523 12.0693028,-0.10411257 12.4871066,0.31278985 Z" id="形状"></path>
                        </g>
                    </g>
                </g>
            </g>
        </g>
    </g>
</svg>