<?xml version="1.0" encoding="UTF-8"?>
<svg width="60px" height="60px" viewBox="0 0 60 60" version="1.1" xmlns="http://www.w3.org/2000/svg" xmlns:xlink="http://www.w3.org/1999/xlink">
    <title>稳定高可用</title>
    <defs>
        <linearGradient x1="100%" y1="50%" x2="0%" y2="50%" id="linearGradient-1">
            <stop stop-color="#00A3FF" offset="0%"></stop>
            <stop stop-color="#00DD60" offset="100%"></stop>
        </linearGradient>
    </defs>
    <g id="Elara-Web" stroke="none" stroke-width="1" fill="none" fill-rule="evenodd">
        <g id="Elara切图" transform="translate(-351.000000, -187.000000)" fill="url(#linearGradient-1)" fill-rule="nonzero">
            <path d="M352.547822,247 C351.692983,247 351,246.307017 351,245.452178 C351,245.211886 351.055946,244.974895 351.163408,244.759971 L379.615417,187.855954 C379.997712,187.091363 380.927447,186.781452 381.692037,187.163747 C381.991583,187.31352 382.234471,187.556408 382.384244,187.855954 L410.836253,244.759971 C411.218548,245.524562 410.908637,246.454297 410.144046,246.836592 C409.929123,246.944054 409.692131,247 409.451839,247 L352.547822,247 Z M367.251,219.504 L355.051371,243.904356 L379.451,243.904 L367.251,219.504 Z M394.747,219.504 L382.547,243.904 L406.947516,243.904356 L394.747,219.504 Z M391.469297,219.139207 L370.52959,219.139207 L380.99983,240.078915 L391.469297,219.139207 Z M380.99983,192.008211 L368.982,216.043 L393.016,216.043 L380.99983,192.008211 Z" id="稳定高可用"></path>
        </g>
    </g>
</svg>