<?xml version="1.0" encoding="UTF-8"?>
<svg width="600px" height="320px" viewBox="0 0 600 320" version="1.1" xmlns="http://www.w3.org/2000/svg" xmlns:xlink="http://www.w3.org/1999/xlink">
    <title>编组 2</title>
    <g id="页面-1" stroke="none" stroke-width="1" fill="none" fill-rule="evenodd">
        <g id="Elara中文" transform="translate(-980.000000, 0.000000)">
            <g id="编组-3" transform="translate(980.000000, 0.000000)">
                <line x1="317.081989" y1="282.676924" x2="409.51419" y2="314.327891" id="路径-5" stroke="#C5C7C4"></line>
                <line x1="592.072988" y1="283.072688" x2="516.066018" y2="271.70716" id="路径-5" stroke="#C5C7C4"></line>
                <line x1="409.51419" y1="314.327891" x2="395.30728" y2="245.424376" id="路径-5" stroke="#C5C7C4"></line>
                <line x1="409.51419" y1="314.327891" x2="516.066018" y2="271.70716" id="路径-5" stroke="#C5C7C4"></line>
                <line x1="229.086429" y1="313.617546" x2="317.169273" y2="282.362343" id="路径-5" stroke="#C5C7C4"></line>
                <line x1="227.665738" y1="312.9072" x2="226.955393" y2="245.424376" id="路径-5" stroke="#C5C7C4"></line>
                <line x1="148.817386" y1="282.362343" x2="163.024296" y2="219.851937" id="路径-5" stroke="#C5C7C4"></line>
                <line x1="148.817386" y1="283.072688" x2="226.955393" y2="242.582994" id="路径-5" stroke="#C5C7C4"></line>
                <line x1="224.824356" y1="312.9072" x2="317.169273" y2="213.458828" id="路径-5" stroke="#C5C7C4"></line>
                <line x1="136.741512" y1="115.431146" x2="99.5" y2="81.5" id="路径-5" stroke="#C5C7C4"></line>
                <line x1="57.1828141" y1="152.369113" x2="99.5" y2="81.5" id="路径-5" stroke="#C5C7C4"></line>
                <line x1="57.1828141" y1="152.369113" x2="15.9827741" y2="106.907" id="路径-5" stroke="#C5C7C4"></line>
                <line x1="57.1828141" y1="152.369113" x2="87.0173258" y2="212.038137" id="路径-5" stroke="#C5C7C4"></line>
                <line x1="136.741512" y1="116.851837" x2="57.1828141" y2="152.369113" id="路径-5" stroke="#C5C7C4"></line>
                <line x1="136.741512" y1="115.431146" x2="163.024296" y2="217.010555" id="路径-5" stroke="#C5C7C4"></line>
                <line x1="349.845167" y1="137.451857" x2="163.024296" y2="217.720901" id="路径-5" stroke="#C5C7C4"></line>
                <line x1="163.024296" y1="217.720901" x2="300.120981" y2="92.7000899" id="路径-5" stroke="#C5C7C4"></line>
                <line x1="163.024296" y1="219.851937" x2="317.169273" y2="211.327791" id="路径-5" stroke="#C5C7C4"></line>
                <line x1="136.741512" y1="116.851837" x2="300.120981" y2="93.4104354" id="路径-5" stroke="#C5C7C4"></line>
                <line x1="209.5" y1="81.5" x2="136.741512" y2="115.431146" id="路径-5" stroke="#C5C7C4"></line>
                <line x1="209.5" y1="80.5" x2="300.120981" y2="92.7000899" id="路径-5" stroke="#C5C7C4"></line>
                <line x1="472.734941" y1="72.8104154" x2="407.383154" y2="3.90690034" id="路径-5" stroke="#C5C7C4"></line>
                <line x1="472.734941" y1="72.8104154" x2="516.776363" y2="39.4241762" id="路径-5" stroke="#C5C7C4"></line>
                <line x1="300.120981" y1="92.7000899" x2="407.383154" y2="3.90690034" id="路径-5" stroke="#C5C7C4"></line>
                <line x1="407.383154" y1="5.32759137" x2="448.583194" y2="119.69322" id="路径-5" stroke="#C5C7C4"></line>
                <line x1="474.155632" y1="72.8104154" x2="528.852237" y2="138.872548" id="路径-5" stroke="#C5C7C4"></line>
                <line x1="474.155632" y1="72.8104154" x2="448.583194" y2="116.851837" id="路径-5" stroke="#C5C7C4"></line>
                <line x1="300.120981" y1="92.7000899" x2="448.583194" y2="119.69322" id="路径-5" stroke="#C5C7C4"></line>
                <line x1="300.120981" y1="92.7000899" x2="308.645127" y2="31.6103755" id="路径-5" stroke="#C5C7C4"></line>
                <line x1="6.03793689" y1="302.962363" x2="67.8379968" y2="277.389924" id="路径-5" stroke="#C5C7C4"></line>
                <line x1="69.9690334" y1="277.389924" x2="148.817386" y2="283.072688" id="路径-5" stroke="#C5C7C4"></line>
                <line x1="69.9690334" y1="275.969233" x2="163.024296" y2="219.141592" id="路径-5" stroke="#C5C7C4"></line>
                <line x1="163.024296" y1="217.720901" x2="86.3069803" y2="209.9071" id="路径-5" stroke="#C5C7C4"></line>
                <line x1="136.741512" y1="116.851837" x2="87.0173258" y2="209.9071" id="路径-5" stroke="#C5C7C4"></line>
                <line x1="86.3069803" y1="210.617446" x2="4.61724586" y2="198.541572" id="路径-5" stroke="#C5C7C4"></line>
                <line x1="86.3069803" y1="211.327791" x2="69.9690334" y2="275.969233" id="路径-5" stroke="#C5C7C4"></line>
                <line x1="226.955393" y1="241.872648" x2="317.169273" y2="212.038137" id="路径-5" stroke="#C5C7C4"></line>
                <line x1="317.169273" y1="280.941652" x2="317.169273" y2="212.038137" id="路径-5" stroke="#C5C7C4"></line>
                <line x1="395.30728" y1="244.71403" x2="317.169273" y2="212.038137" id="路径-5" stroke="#C5C7C4"></line>
                <line x1="349.845167" y1="140.29324" x2="317.169273" y2="212.038137" id="路径-5" stroke="#C5C7C4"></line>
                <line x1="448.583194" y1="119.69322" x2="395.30728" y2="246.845067" id="路径-5" stroke="#C5C7C4"></line>
                <line x1="448.583194" y1="119.69322" x2="318.589964" y2="212.038137" id="路径-5" stroke="#C5C7C4"></line>
                <line x1="528.852237" y1="138.872548" x2="507.541872" y2="228.376084" id="路径-5" stroke="#C5C7C4"></line>
                <line x1="528.852237" y1="138.872548" x2="395.30728" y2="246.845067" id="路径-5" stroke="#C5C7C4"></line>
                <polygon id="路径-3" fill="#C5C7C4" fill-rule="nonzero" points="448.739504 119.018322 448.85309 119.657771 350.135359 137.193158 350.021773 136.553709"></polygon>
                <polygon id="路径-3" fill="#C5C7C4" fill-rule="nonzero" points="300.281573 93.7626023 350.289897 136.62688 349.867235 137.119986 299.858911 94.2557081"></polygon>
                <polygon id="路径-3" fill="#C5C7C4" fill-rule="nonzero" points="163.15081 217.752614 227.447227 242.432047 227.214495 243.038374 162.918078 218.358942"></polygon>
                <polygon id="路径-3" fill="#C5C7C4" fill-rule="nonzero" points="507.565035 229.677662 516.657458 271.892481 516.022559 272.029229 506.930136 229.814409"></polygon>
                <polygon id="路径-3" fill="#C5C7C4" fill-rule="nonzero" points="507.202964 229.424387 507.292207 230.067685 394.935842 245.654695 394.846599 245.011397"></polygon>
                <polygon id="路径-3" fill="#C5C7C4" fill-rule="nonzero" points="448.878058 119.023779 528.761485 139.806459 528.597964 140.434995 448.714537 119.652315"></polygon>
                <polygon id="路径-3" fill="#C5C7C4" fill-rule="nonzero" points="528.869966 139.857559 582.775043 178.825085 582.39456 179.35142 528.489483 140.383895"></polygon>
                <polygon id="路径-3" fill="#C5C7C4" fill-rule="nonzero" points="585.674119 108.013536 585.990071 108.58096 528.837701 140.404439 528.521748 139.837015"></polygon>
                <polygon id="路径-3" fill="#C5C7C4" fill-rule="nonzero" points="394.95425 247.612327 516.403037 271.642301 516.276979 272.279409 394.828191 248.249435"></polygon>
                <polygon id="路径-3" fill="#C5C7C4" fill-rule="nonzero" points="394.757963 245.036918 395.024478 245.629174 317.089427 280.699946 316.822912 280.107691"></polygon>
                <circle id="椭圆形" fill="#00D595" cx="227.330861" cy="242.735211" r="3.55172758"></circle>
                <circle id="椭圆形备份-3" fill="#00D595" cx="148.482509" cy="283.224905" r="4.97241862"></circle>
                <circle id="椭圆形备份-19" fill="#00D595" cx="228.751552" cy="313.769762" r="6.1698582"></circle>
                <circle id="椭圆形备份-14" fill="#00D595" cx="409.301087" cy="314.500404" r="4.2620731"></circle>
                <circle id="椭圆形备份" fill="#C5C7C4" cx="163.034444" cy="218.055778" r="6.39310965"></circle>
                <circle id="椭圆形备份-2" fill="#00D595" cx="316.793805" cy="212.312127" r="4.97241862"></circle>
                <circle id="椭圆形备份-15" fill="#C5C7C4" cx="516.340008" cy="271.960855" r="5.68276413"></circle>
                <circle id="椭圆形备份-5" fill="#00D595" cx="448.796297" cy="119.338047" r="4.2620731"></circle>
                <circle id="椭圆形备份-23" fill="#C5C7C4" cx="407.596257" cy="4.2620731" r="4.2620731"></circle>
                <circle id="椭圆形备份-32" fill="#C5C7C4" cx="210.120204" cy="80.3242061" r="4.2620731"></circle>
                <circle id="椭圆形备份-6" fill="#C5C7C4" cx="350.078566" cy="138.111464" r="3.55172758"></circle>
                <circle id="椭圆形备份-16" fill="#00D595" cx="300.070242" cy="94.0091552" r="4.97241862"></circle>
                <circle id="椭圆形备份-27" fill="#C5C7C4" cx="308.594388" cy="31.4987498" r="4.2620731"></circle>
                <circle id="椭圆形备份-25" fill="#00D595" cx="86.8245177" cy="210.140499" r="4.2620731"></circle>
                <circle id="椭圆形备份-31" fill="#00D595" cx="69.7762253" cy="276.202632" r="3.55172758"></circle>
                <circle id="椭圆形备份-26" fill="#00D595" cx="4.42443779" cy="198.774971" r="4.2620731"></circle>
                <circle id="椭圆形备份-22" fill="#C5C7C4" cx="99.3486639" cy="81.0506851" r="4.2620731"></circle>
                <circle id="椭圆形备份-30" fill="#00D595" cx="15.7899661" cy="107.140399" r="4.2620731"></circle>
                <circle id="椭圆形备份-28" fill="#00D595" cx="136.548704" cy="117.085237" r="4.2620731"></circle>
                <circle id="椭圆形备份-29" fill="#00D595" cx="56.990006" cy="152.602513" r="4.97241862"></circle>
                <circle id="椭圆形备份-7" fill="#C5C7C4" cx="474.125189" cy="73.226475" r="4.97241862"></circle>
                <circle id="椭圆形备份-8" fill="#C5C7C4" cx="528.679725" cy="140.120727" r="6.81931696"></circle>
                <circle id="椭圆形备份-9" fill="#C5C7C4" cx="585.832095" cy="107.647789" r="4.2620731"></circle>
                <circle id="椭圆形备份-12" fill="#00D595" cx="516.92858" cy="39.4546195" r="4.97241862"></circle>
                <circle id="椭圆形备份-10" fill="#00D595" cx="507.247586" cy="230.395494" r="4.97241862"></circle>
                <circle id="椭圆形备份-11" fill="#00D595" cx="582.584801" cy="179.088253" r="5.68276413"></circle>
                <circle id="椭圆形" fill="#C5C7C4" cx="394.89122" cy="245.333046" r="8.11823447"></circle>
                <circle id="椭圆形备份-20" fill="#C5C7C4" cx="316.753214" cy="280.850322" r="4.97241862"></circle>
                <circle id="椭圆形备份-18" fill="#00D595" cx="592.367274" cy="282.981358" r="7.10345516"></circle>
                <circle id="椭圆形" fill="#C5C7C4" cx="6.04808468" cy="302.911624" r="4.97241862"></circle>
            </g>
        </g>
    </g>
</svg>