<?xml version="1.0" encoding="UTF-8"?>
<svg width="796px" height="427px" viewBox="0 0 796 427" version="1.1" xmlns="http://www.w3.org/2000/svg" xmlns:xlink="http://www.w3.org/1999/xlink">
    <title>编组 2备份 2</title>
    <g id="页面-1" stroke="none" stroke-width="1" fill="none" fill-rule="evenodd" opacity="0.5">
        <g id="02" transform="translate(-1040.000000, -166.000000)">
            <g id="编组-3" transform="translate(1040.000000, 166.000000)">
                <line x1="423.106279" y1="377.197021" x2="546.445498" y2="419.43128" id="路径-5" stroke="#C5C7C4"></line>
                <line x1="790.047393" y1="377.725118" x2="688.625592" y2="362.559242" id="路径-5" stroke="#C5C7C4"></line>
                <line x1="546.445498" y1="419.43128" x2="527.488152" y2="327.488152" id="路径-5" stroke="#C5C7C4"></line>
                <line x1="546.445498" y1="419.43128" x2="688.625592" y2="362.559242" id="路径-5" stroke="#C5C7C4"></line>
                <line x1="305.687204" y1="418.483412" x2="423.222749" y2="376.777251" id="路径-5" stroke="#C5C7C4"></line>
                <line x1="303.791469" y1="417.535545" x2="302.843602" y2="327.488152" id="路径-5" stroke="#C5C7C4"></line>
                <line x1="198.578199" y1="376.777251" x2="217.535545" y2="293.364929" id="路径-5" stroke="#C5C7C4"></line>
                <line x1="198.578199" y1="377.725118" x2="302.843602" y2="323.696682" id="路径-5" stroke="#C5C7C4"></line>
                <line x1="300" y1="417.535545" x2="423.222749" y2="284.834123" id="路径-5" stroke="#C5C7C4"></line>
                <line x1="182.464455" y1="154.028436" x2="127.488152" y2="64.92891" id="路径-5" stroke="#C5C7C4"></line>
                <line x1="76.3033175" y1="203.317536" x2="127.488152" y2="64.92891" id="路径-5" stroke="#C5C7C4"></line>
                <line x1="76.3033175" y1="203.317536" x2="21.3270142" y2="142.654028" id="路径-5" stroke="#C5C7C4"></line>
                <line x1="76.3033175" y1="203.317536" x2="116.113744" y2="282.938389" id="路径-5" stroke="#C5C7C4"></line>
                <line x1="182.464455" y1="155.924171" x2="76.3033175" y2="203.317536" id="路径-5" stroke="#C5C7C4"></line>
                <line x1="182.464455" y1="154.028436" x2="217.535545" y2="289.57346" id="路径-5" stroke="#C5C7C4"></line>
                <line x1="466.824645" y1="183.412322" x2="217.535545" y2="290.521327" id="路径-5" stroke="#C5C7C4"></line>
                <line x1="217.535545" y1="290.521327" x2="400.473934" y2="123.696682" id="路径-5" stroke="#C5C7C4"></line>
                <line x1="217.535545" y1="293.364929" x2="423.222749" y2="281.990521" id="路径-5" stroke="#C5C7C4"></line>
                <line x1="182.464455" y1="155.924171" x2="400.473934" y2="124.64455" id="路径-5" stroke="#C5C7C4"></line>
                <line x1="280.094787" y1="93.3649289" x2="182.464455" y2="154.028436" id="路径-5" stroke="#C5C7C4"></line>
                <line x1="280.094787" y1="93.3649289" x2="400.473934" y2="123.696682" id="路径-5" stroke="#C5C7C4"></line>
                <line x1="630.805687" y1="97.1563981" x2="543.601896" y2="5.21327014" id="路径-5" stroke="#C5C7C4"></line>
                <line x1="630.805687" y1="97.1563981" x2="689.57346" y2="52.6066351" id="路径-5" stroke="#C5C7C4"></line>
                <line x1="400.473934" y1="123.696682" x2="543.601896" y2="5.21327014" id="路径-5" stroke="#C5C7C4"></line>
                <line x1="543.601896" y1="7.10900474" x2="598.578199" y2="159.71564" id="路径-5" stroke="#C5C7C4"></line>
                <line x1="632.701422" y1="97.1563981" x2="705.687204" y2="185.308057" id="路径-5" stroke="#C5C7C4"></line>
                <line x1="632.701422" y1="97.1563981" x2="598.578199" y2="155.924171" id="路径-5" stroke="#C5C7C4"></line>
                <line x1="400.473934" y1="123.696682" x2="598.578199" y2="159.71564" id="路径-5" stroke="#C5C7C4"></line>
                <line x1="400.473934" y1="123.696682" x2="411.848341" y2="42.1800948" id="路径-5" stroke="#C5C7C4"></line>
                <line x1="276.303318" y1="12.7962085" x2="280.094787" y2="93.3649289" id="路径-5" stroke="#C5C7C4"></line>
                <line x1="8.05687204" y1="404.265403" x2="90.521327" y2="370.14218" id="路径-5" stroke="#C5C7C4"></line>
                <line x1="93.3649289" y1="370.14218" x2="198.578199" y2="377.725118" id="路径-5" stroke="#C5C7C4"></line>
                <line x1="93.3649289" y1="368.246445" x2="217.535545" y2="292.417062" id="路径-5" stroke="#C5C7C4"></line>
                <line x1="217.535545" y1="290.521327" x2="115.165877" y2="280.094787" id="路径-5" stroke="#C5C7C4"></line>
                <line x1="182.464455" y1="155.924171" x2="116.113744" y2="280.094787" id="路径-5" stroke="#C5C7C4"></line>
                <line x1="115.165877" y1="281.042654" x2="6.16113744" y2="264.92891" id="路径-5" stroke="#C5C7C4"></line>
                <line x1="115.165877" y1="281.990521" x2="93.3649289" y2="368.246445" id="路径-5" stroke="#C5C7C4"></line>
                <line x1="302.843602" y1="322.748815" x2="423.222749" y2="282.938389" id="路径-5" stroke="#C5C7C4"></line>
                <line x1="423.222749" y1="374.881517" x2="423.222749" y2="282.938389" id="路径-5" stroke="#C5C7C4"></line>
                <line x1="527.488152" y1="326.540284" x2="423.222749" y2="282.938389" id="路径-5" stroke="#C5C7C4"></line>
                <line x1="466.824645" y1="187.203791" x2="423.222749" y2="282.938389" id="路径-5" stroke="#C5C7C4"></line>
                <line x1="598.578199" y1="159.71564" x2="527.488152" y2="329.383886" id="路径-5" stroke="#C5C7C4"></line>
                <line x1="598.578199" y1="159.71564" x2="425.118483" y2="282.938389" id="路径-5" stroke="#C5C7C4"></line>
                <line x1="705.687204" y1="185.308057" x2="677.251185" y2="304.739336" id="路径-5" stroke="#C5C7C4"></line>
                <line x1="705.687204" y1="185.308057" x2="527.488152" y2="329.383886" id="路径-5" stroke="#C5C7C4"></line>
                <polygon id="路径-3" fill="#C5C7C4" fill-rule="nonzero" points="598.786776 158.815074 598.938343 159.668338 467.21187 183.06712 467.060303 182.213855"></polygon>
                <polygon id="路径-3" fill="#C5C7C4" fill-rule="nonzero" points="400.688224 125.114472 467.418082 182.311493 466.854092 182.969482 400.124234 125.772461"></polygon>
                <polygon id="路径-3" fill="#C5C7C4" fill-rule="nonzero" points="217.704362 290.563645 303.499893 323.495263 303.189342 324.304331 217.39381 291.372713"></polygon>
                <polygon id="路径-3" fill="#C5C7C4" fill-rule="nonzero" points="677.282094 306.47613 689.414795 362.80653 688.567602 362.989002 676.4349 306.658602"></polygon>
                <polygon id="路径-3" fill="#C5C7C4" fill-rule="nonzero" points="676.798955 306.138166 676.918039 306.996567 526.992514 327.795483 526.87343 326.937083"></polygon>
                <polygon id="路径-3" fill="#C5C7C4" fill-rule="nonzero" points="598.971659 158.822355 705.566107 186.554244 705.347908 187.392946 598.75346 159.661057"></polygon>
                <polygon id="路径-3" fill="#C5C7C4" fill-rule="nonzero" points="705.710861 186.622431 777.640448 238.619722 777.132741 239.322051 705.203154 187.32476"></polygon>
                <polygon id="路径-3" fill="#C5C7C4" fill-rule="nonzero" points="781.508903 144.130561 781.930502 144.887719 705.667807 187.352174 705.246208 186.595016"></polygon>
                <polygon id="路径-3" fill="#C5C7C4" fill-rule="nonzero" points="527.017077 330.407699 689.075303 362.472696 688.907094 363.322836 526.848867 331.257839"></polygon>
                <polygon id="路径-3" fill="#C5C7C4" fill-rule="nonzero" points="526.755157 326.971138 527.110788 327.761428 423.116204 374.558991 422.760573 373.7687"></polygon>
                <circle id="椭圆形" fill="#00D595" cx="303.344617" cy="323.899797" r="4.73933649"></circle>
                <circle id="椭圆形备份-3" fill="#00D595" cx="198.131347" cy="377.928233" r="6.63507109"></circle>
                <circle id="椭圆形备份-19" fill="#00D595" cx="305.240352" cy="418.686527" r="8.23290454"></circle>
                <circle id="椭圆形备份-14" fill="#00D595" cx="546.161137" cy="419.661476" r="5.68720379"></circle>
                <circle id="椭圆形备份" fill="#C5C7C4" cx="217.549086" cy="290.968179" r="8.53080569"></circle>
                <circle id="椭圆形备份-2" fill="#00D595" cx="422.721733" cy="283.303995" r="6.63507109"></circle>
                <circle id="椭圆形备份-15" fill="#C5C7C4" cx="688.991198" cy="362.897766" r="7.58293839"></circle>
                <circle id="椭圆形备份-5" fill="#00D595" cx="598.862559" cy="159.241706" r="5.68720379"></circle>
                <circle id="椭圆形备份-23" fill="#C5C7C4" cx="543.886256" cy="5.68720379" r="5.68720379"></circle>
                <circle id="椭圆形备份-24" fill="#C5C7C4" cx="276.587678" cy="13.2701422" r="5.68720379"></circle>
                <circle id="椭圆形备份-32" fill="#C5C7C4" cx="280.379147" cy="93.8388626" r="5.68720379"></circle>
                <circle id="椭圆形备份-6" fill="#C5C7C4" cx="467.136087" cy="184.292485" r="4.73933649"></circle>
                <circle id="椭圆形备份-16" fill="#00D595" cx="400.406229" cy="125.443466" r="6.63507109"></circle>
                <circle id="椭圆形备份-27" fill="#C5C7C4" cx="411.780636" cy="42.0311442" r="5.68720379"></circle>
                <circle id="椭圆形备份-25" fill="#00D595" cx="115.856466" cy="280.406229" r="5.68720379"></circle>
                <circle id="椭圆形备份-31" fill="#00D595" cx="93.1076506" cy="368.557888" r="4.73933649"></circle>
                <circle id="椭圆形备份-26" fill="#00D595" cx="5.90385917" cy="265.240352" r="5.68720379"></circle>
                <circle id="椭圆形备份-22" fill="#C5C7C4" cx="127.230873" cy="61.4488829" r="5.68720379"></circle>
                <circle id="椭圆形备份-30" fill="#00D595" cx="21.069736" cy="142.965471" r="5.68720379"></circle>
                <circle id="椭圆形备份-28" fill="#00D595" cx="182.207177" cy="156.235613" r="5.68720379"></circle>
                <circle id="椭圆形备份-29" fill="#00D595" cx="76.0460393" cy="203.628978" r="6.63507109"></circle>
                <circle id="椭圆形备份-7" fill="#C5C7C4" cx="632.660799" cy="97.7115775" r="6.63507109"></circle>
                <circle id="椭圆形备份-8" fill="#C5C7C4" cx="705.457007" cy="186.973595" r="9.09952607"></circle>
                <circle id="椭圆形备份-9" fill="#C5C7C4" cx="781.719702" cy="143.642519" r="5.68720379"></circle>
                <circle id="椭圆形备份-12" fill="#00D595" cx="689.776574" cy="52.647258" r="6.63507109"></circle>
                <circle id="椭圆形备份-10" fill="#00D595" cx="676.858497" cy="307.433988" r="6.63507109"></circle>
                <circle id="椭圆形备份-11" fill="#00D595" cx="777.386594" cy="238.970887" r="7.58293839"></circle>
                <circle id="椭圆形" fill="#C5C7C4" cx="526.932972" cy="327.366283" r="10.8327691"></circle>
                <circle id="椭圆形备份-20" fill="#C5C7C4" cx="422.667569" cy="374.759648" r="6.63507109"></circle>
                <circle id="椭圆形备份-18" fill="#00D595" cx="790.440081" cy="377.60325" r="5"></circle>
                <circle id="椭圆形" fill="#C5C7C4" cx="8.070413" cy="404.197698" r="6.63507109"></circle>
            </g>
        </g>
    </g>
</svg>