<?xml version="1.0" encoding="UTF-8"?>
<svg width="24px" height="24px" viewBox="0 0 24 24" version="1.1" xmlns="http://www.w3.org/2000/svg" xmlns:xlink="http://www.w3.org/1999/xlink">
    <title>ChainX</title>
    <g id="页面-1" stroke="none" stroke-width="1" fill="none" fill-rule="evenodd">
        <g id="Project_Requests" transform="translate(-76.000000, -600.000000)" fill-rule="nonzero">
            <g id="ChainX" transform="translate(76.000000, 600.000000)">
                <rect id="矩形" fill="#FFFFFF" x="0" y="0" width="24" height="24" rx="12"></rect>
                <g id="编组" transform="translate(3.500000, 3.500000)">
                    <path d="M9.81354005,4.85685235 L7.13894155,2.18225385 C7.08669182,2.13182689 7.00389446,2.13182689 6.95164473,2.18225385 L5.89154476,3.24235382 C5.84297926,3.29534143 5.84297926,3.37666301 5.89154476,3.42965064 L8.53430281,6.08364649 C9.18614965,6.73598794 9.18614965,7.79311787 8.53430281,8.44545931 C7.89317468,9.06176658 6.87751665,9.05428629 6.24553574,8.42860261 L2.39471324,4.56841525 C1.76462184,3.93563229 1.75629803,2.91513323 2.37598355,2.27215632 C2.68869797,1.95877003 3.11323319,1.78265486 3.55595348,1.78265486 C3.99867379,1.78265486 4.42320901,1.95877003 4.73592341,2.27215632 L5.11988188,2.65611479 C5.17213161,2.70654175 5.25492897,2.70654175 5.3071787,2.65611479 L6.36915164,1.59601482 C6.41771714,1.54302721 6.41771714,1.46170561 6.36915164,1.408718 L5.95335272,0.998537979 C5.31406833,0.359188359 4.44697348,9.96601587e-16 3.5428427,9.96601587e-16 C2.63871194,9.96601587e-16 1.77161709,0.359188359 1.13233271,0.998537979 L1.13233271,0.998537979 C-0.197201345,2.33128299 -0.197201345,4.48868592 1.13233271,5.82143094 L4.98877411,9.67974532 C5.6280585,10.3190949 6.49515335,10.6782833 7.39928411,10.6782833 C8.30341489,10.6782833 9.17050974,10.3190949 9.80979411,9.67974532 L9.80979411,9.67974532 C11.1424274,8.34888899 11.1441044,6.18977718 9.81354005,4.85685235 Z" id="路径" fill="#EA754B"></path>
                    <path d="M15.9962079,0.998537979 C15.3572433,0.359302258 14.4904585,0.000160573175 13.5866344,0.000160573175 C12.6828102,0.000160573175 11.8160255,0.359302258 11.1770609,0.998537979 L8.5755081,3.60945556 L9.82290489,4.85685235 L9.82290489,4.85685235 L12.4300765,2.24780773 C13.0744362,1.64036667 14.0850307,1.6554704 14.7109498,2.28189627 C15.3368688,2.90832215 15.3511546,3.91892854 14.7431922,4.56279636 L14.3330122,4.97297637 C14.2825852,5.0252261 14.2825852,5.10802347 14.3330122,5.16027318 L15.3931121,6.22224613 C15.4460998,6.27081163 15.5274214,6.27081163 15.580409,6.22224613 L15.990589,5.81019313 C17.3162695,4.4811457 17.3187808,2.33067798 15.9962079,0.998537979 L15.9962079,0.998537979 Z" id="路径" fill="#34C69A"></path>
                    <path d="M13.754265,5.75025816 C13.7012774,5.70169266 13.6199558,5.70169266 13.5669682,5.75025816 L10.8867508,8.42860261 C10.2483346,9.06638998 9.21392427,9.06638998 8.5755081,8.42860261 L8.5755081,8.42860261 C7.94596181,7.79044213 7.94596181,6.76488524 8.5755081,6.12672476 L7.31312758,4.86996313 C6.30330322,5.887121 6.03623536,7.42668861 6.64447796,8.72453157 C7.20735882,9.91815834 8.40956977,10.6787557 9.72925649,10.6761775 C10.6313407,10.676265 11.4964759,10.3178133 12.1341476,9.67974532 L14.814365,7.00514681 C14.8629305,6.95215921 14.8629305,6.8708376 14.814365,6.81785 L13.754265,5.75025816 Z" id="路径" fill="#34C69A"></path>
                    <path d="M15.9962079,11.050758 L13.3871633,8.42860261 L12.1341476,9.68536423 L14.7431922,12.2962818 C15.372482,12.9295466 15.3783147,13.9502528 14.756303,14.5906678 C14.4436642,14.9034805 14.0195306,15.0792315 13.5772695,15.0792315 C13.1350085,15.0792315 12.7108749,14.9034805 12.3982361,14.5906678 L12.0124046,14.2048363 C11.959417,14.1562709 11.8780955,14.1562709 11.8251078,14.2048363 L10.7650079,15.2649363 C10.7145809,15.3171861 10.7145809,15.3999834 10.7650079,15.4522331 L11.1396015,15.8268268 C12.4828911,17.1754894 14.6628542,17.1872007 16.0205565,15.8530483 C17.3337467,14.5171379 17.3253893,12.3726467 16.0018268,11.0470121 L15.9962079,11.050758 Z" id="路径" fill="#F6C94A"></path>
                    <path d="M11.2463607,13.6204703 C11.2967876,13.5682206 11.2967876,13.4854232 11.2463607,13.4331735 L8.5755081,10.7529561 C8.26668014,10.4469501 8.09294319,10.0302196 8.09294319,9.59546176 C8.09294319,9.16070393 8.26668014,8.7439734 8.5755081,8.43796745 L8.5755081,8.43796745 C9.21283481,7.806392 10.2400593,7.806392 10.8773859,8.43796745 L12.1341476,7.17745988 C11.1175195,6.16661027 9.57726856,5.89942389 8.27957914,6.50881025 C7.27492547,6.9818829 6.56347478,7.91443409 6.37264061,9.00837605 C6.18180643,10.102318 6.53548339,11.2206769 7.32061945,12.0059718 L9.993345,14.6805703 C10.0455947,14.7309972 10.1283921,14.7309972 10.1806418,14.6805703 L11.2463607,13.6204703 Z" id="路径" fill="#F6C94A"></path>
                    <path d="M10.6114245,8.43796745 C10.5763437,8.33653957 10.5357011,8.23712159 10.4896816,8.14016551 C10.1518472,7.4214305 9.5744125,6.8426714 8.85645333,6.50319136 C8.76280491,6.45824012 8.66915652,6.41890778 8.56801623,6.38332138 C7.32913948,5.93569555 5.94321054,6.24278822 5.00937676,7.17184098 L6.25302761,8.42860261 C6.3690112,8.31470631 6.50085977,8.21818559 6.64447796,8.14203848 C7.27729863,7.80941848 8.05271103,7.92538924 8.56052437,8.42860261 L8.56052437,8.42860261 C9.0659023,8.93890789 9.17911728,9.71925538 8.83959663,10.3521409 C8.76611726,10.4904416 8.67201557,10.6167526 8.56052437,10.7267345 L9.81541302,11.9816232 C10.7403241,11.0518719 11.0498437,9.67396355 10.6114245,8.43796745 L10.6114245,8.43796745 Z M3.56906426,11.110693 L5.00001192,9.67974532 L3.74699624,8.42860261 L2.31604858,9.85955027 C2.26748308,9.91253787 2.26748308,9.99385948 2.31604858,10.0468471 L3.37614855,11.10882 C3.42939535,11.1614414 3.51480583,11.1622706 3.56906426,11.110693 Z" id="形状" fill="#46AEE2"></path>
                    <path d="M4.70408296,14.6093975 C4.06378208,15.2471123 3.02774569,15.2450159 2.39003085,14.604715 C1.75231603,13.9644142 1.75441241,12.9283777 2.39471324,12.2906629 L2.80114733,11.8823559 C2.85157429,11.8301061 2.85157429,11.7473088 2.80114733,11.695059 L1.74104736,10.6330861 C1.68805975,10.5845206 1.60673815,10.5845206 1.55375054,10.6330861 L1.14544349,11.0413932 C0.19935976,11.8815425 -0.20354032,13.1765978 0.0989460041,14.4051854 C0.401432329,15.6337729 1.35953391,16.5937407 2.5875305,16.8986171 C3.81552711,17.2034936 5.11136399,16.8031143 5.95335272,15.8586672 L8.5755081,13.2477496 L7.31312758,11.9872421 L4.70408296,14.6093975 Z" id="路径" fill="#46AEE2"></path>
                </g>
            </g>
        </g>
    </g>
</svg>