<svg xmlns="http://www.w3.org/2000/svg" width="12" height="12" viewBox="0 0 12 12">
  <defs>
    <filter id="copy-a">
      <feColorMatrix in="SourceGraphic" values="0 0 0 0 0.317647 0 0 0 0 0.741176 0 0 0 0 0.611765 0 0 0 1.000000 0"/>
    </filter>
  </defs>
  <g fill="none" fill-rule="evenodd" filter="url(#copy-a)" transform="translate(-857 -108)">
    <path fill="#000" fill-rule="nonzero" d="M9.4806625,10.2855 L8.6068625,10.2855 C8.6068625,11.2285 7.83246251,12 6.8860625,12 L1.7222625,12 C0.7757625,12 0.0014625,11.2285 0.0014625,10.2855 L0.0014625,8.567 C0.0014625,8.5563 0.00196250391,8.5458 0.00286250391,8.5353 L0.00286250391,3.4289 C0.00286250391,2.486 0.7772625,1.7144 1.7236625,1.7144 L2.5960625,1.7144 C2.5960625,0.771500004 3.3704625,0 4.3169625,0 L8.6068625,0 L11.2014625,2.5717 L11.2014625,8.5711 C11.2014625,9.514 10.4270625,10.2855 9.4806625,10.2855 Z M2.5872625,8.6999 L2.5872625,2.9307 L1.8750625,2.9307 C1.4316625,2.9307 1.0689625,3.2921 1.0689625,3.7338 L1.0689625,10.0874 C1.0689625,10.5291 1.4316625,10.8905 1.8750625,10.8905 L6.7065625,10.8905 C7.1499625,10.8905 7.41136249,10.7479 7.4125625,10.3061 L4.1995625,10.3061 C3.3127625,10.3061 2.58726251,9.5832 2.5872625,8.6999 Z M10.1955625,3.4837 L9.3529625,3.4837 C8.4431625,3.4837 7.6988625,2.7421 7.6988625,1.8357 L7.6988625,1.0155 L4.4048625,1.0155 C3.9499625,1.0155 3.5777625,1.3863 3.5777625,1.8396 L3.5777625,8.4446 C3.5777625,8.89780001 3.9499625,9.2686 4.4048625,9.2686 L9.3685625,9.2686 C9.8234625,9.2686 10.1955625,8.8978 10.1955625,8.4446 L10.1955625,3.4837 Z M8.6874625,7.6976 L5.0644625,7.6897 C4.8721625,7.68829999 4.7148625,7.4995 4.7148625,7.2691 C4.7148625,7.0387 4.87216249,6.8526 5.0644625,6.85389323 L8.6874625,6.8618 C8.8797625,6.86320001 9.0370625,7.052 9.0370625,7.2824 C9.0370625,7.5128 8.87976251,7.7004 8.6874625,7.6976 Z M8.6874625,5.9832 L5.0644625,5.9886 C4.8721625,5.9873 4.7148625,5.7984 4.7148625,5.568 C4.7148625,5.3376 4.87216249,5.1514 5.0644625,5.15279216 L8.6874625,5.1608 C8.8797625,5.1621 9.0370625,5.351 9.0370625,5.5813 C9.0370625,5.8117 8.87976251,5.98459999 8.6874625,5.9832 Z" transform="translate(857 108)"/>
  </g>
</svg>
