<?xml version="1.0" encoding="UTF-8"?>
<svg width="80px" height="80px" viewBox="0 0 80 80" version="1.1" xmlns="http://www.w3.org/2000/svg" xmlns:xlink="http://www.w3.org/1999/xlink">
    <title>编组 11</title>
    <defs>
        <linearGradient x1="100%" y1="0%" x2="0%" y2="100%" id="linearGradient-1">
            <stop stop-color="#1AB174" offset="0%"></stop>
            <stop stop-color="#118A68" offset="100%"></stop>
        </linearGradient>
    </defs>
    <g id="页面-1" stroke="none" stroke-width="1" fill="none" fill-rule="evenodd">
        <g id="Elara中文" transform="translate(-320.000000, -780.000000)">
            <g id="编组-11" transform="translate(320.000000, 780.000000)">
                <path d="M33.8353109,0 L46.1646891,0 C64.3900859,3.75747629e-15 79.1646891,14.7746033 79.1646891,33 C79.1646891,33.2749463 79.161253,33.5498819 79.1543814,33.8247423 L78.8043814,47.8247423 C78.3569185,65.7232586 63.7187978,80 45.8146891,80 L34.1853109,80 C16.2812022,80 1.64308147,65.7232586 1.19561856,47.8247423 L0.845618558,33.8247423 C0.390125958,15.6050383 14.7908646,0.465800268 33.0105686,0.0103076685 C33.285429,0.00343615783 33.5603646,7.15593418e-15 33.8353109,0 Z" id="矩形" fill="url(#linearGradient-1)"></path>
                <path d="M40,68 C55.463973,68 68,55.463973 68,40 C68,24.536027 55.463973,12 40,12 C24.536027,12 12,24.536027 12,40 C12,55.463973 24.536027,68 40,68 Z" id="椭圆形" stroke="" stroke-linecap="round" stroke-dasharray="4,7"></path>
                <polyline id="路径-7" stroke="#FFFFFF" stroke-width="2" stroke-linecap="round" stroke-linejoin="round" points="29 42.4760226 36.5073403 50 52 33"></polyline>
            </g>
        </g>
    </g>
</svg>