<?xml version="1.0" encoding="UTF-8"?>
<svg width="16px" height="16px" viewBox="0 0 16 16" version="1.1" xmlns="http://www.w3.org/2000/svg" xmlns:xlink="http://www.w3.org/1999/xlink">
    <title>watch_later_black_24dp</title>
    <g id="页面-1" stroke="none" stroke-width="1" fill="none" fill-rule="evenodd">
        <g id="Project_Settings" transform="translate(-502.000000, -134.000000)">
            <g id="编组-21" transform="translate(492.000000, 130.000000)">
                <g id="watch_later_black_24dp" transform="translate(10.000000, 4.000000)">
                    <rect id="矩形" x="0" y="0" width="16" height="16"></rect>
                    <path d="M8,2 C4.7,2 2,4.7 2,8 C2,11.3 4.7,14 8,14 C11.3,14 14,11.3 14,8 C14,4.7 11.3,2 8,2 Z M9.96947248,10.5976185 L7.22310237,8.90806238 C7.02116339,8.78689899 6.9,8.57149742 6.9,8.33590194 L6.9,5.17892257 C6.9067313,4.9029393 7.13559548,4.67407513 7.41157875,4.67407513 C7.68756202,4.67407513 7.85073809,4.86558 7.91642619,5.17892257 L8.40742051,7.8949202 L10.5012451,9.72928089 C10.7465031,9.94537095 10.8243475,10.1937405 10.6762589,10.4360673 C10.5281703,10.6716628 10.2117993,10.7457071 9.96947248,10.5976185 Z" id="形状" fill="#14B071" fill-rule="nonzero"></path>
                </g>
            </g>
        </g>
    </g>
</svg>