<?xml version="1.0" encoding="UTF-8"?>
<svg width="60px" height="60px" viewBox="0 0 60 60" version="1.1" xmlns="http://www.w3.org/2000/svg" xmlns:xlink="http://www.w3.org/1999/xlink">
    <title>客户服务</title>
    <defs>
        <linearGradient x1="100%" y1="50%" x2="0%" y2="50%" id="linearGradient-1">
            <stop stop-color="#00A3FF" offset="0%"></stop>
            <stop stop-color="#00DD60" offset="100%"></stop>
        </linearGradient>
    </defs>
    <g id="Elara-Web" stroke="none" stroke-width="1" fill="none" fill-rule="evenodd">
        <g id="Elara切图" transform="translate(-605.000000, -187.000000)" fill="url(#linearGradient-1)" fill-rule="nonzero">
            <path d="M636.06066,187.43934 L654.914,206.293 L663.515009,206.293914 C664.269373,206.293914 664.893756,205.731958 665,205 C664.661032,215.808074 658.717553,225.188953 650.007154,230.277168 L650.006655,245.484389 C650.006578,246.321418 649.334595,247 648.505672,247 L621.488864,247 C620.6976,247 620.049345,246.381741 619.992047,245.597519 L619.987948,245.484389 L619.988129,230.277605 C611.324821,225.217234 605.398416,215.910562 605,205.175968 C605.441135,205.881597 605.895026,206.252712 606.361674,206.289311 L606.479526,206.293914 L615.085,206.293 L633.93934,187.43934 C634.525126,186.853553 635.474874,186.853553 636.06066,187.43934 Z M608.492138,209.324379 L608.528847,209.511208 C610.045836,216.996407 614.622871,223.510235 621.151785,227.452158 L621.491222,227.653749 L622.990017,228.529218 L622.989658,243.968225 L647.004598,243.968225 L647.005344,228.528794 L648.503986,227.653356 C655.269797,223.70108 659.999394,217.016092 661.502369,209.325013 L654.479,209.325 L636.06066,227.744426 C635.474874,228.330213 634.525126,228.330213 633.93934,227.744426 L615.519,209.324 L608.492138,209.324379 Z M619.762,209.324 L635.000287,224.56196 L650.236,209.325 L619.762,209.324 Z M635.000287,190.620835 L619.327,206.293 L650.672,206.293 L635.000287,190.620835 Z" id="客户服务"></path>
        </g>
    </g>
</svg>