<?xml version="1.0" encoding="UTF-8"?>
<svg width="24px" height="24px" viewBox="0 0 24 24" version="1.1" xmlns="http://www.w3.org/2000/svg" xmlns:xlink="http://www.w3.org/1999/xlink">
    <title>Darwinia</title>
    <defs>
        <linearGradient x1="100%" y1="100.00054%" x2="0%" y2="-0.000539732143%" id="linearGradient-1">
            <stop stop-color="#FE3876" offset="0%"></stop>
            <stop stop-color="#7C30DD" offset="71.445%"></stop>
            <stop stop-color="#3A30DD" offset="100%"></stop>
        </linearGradient>
    </defs>
    <g id="页面-1" stroke="none" stroke-width="1" fill="none" fill-rule="evenodd">
        <g id="Project_Requests" transform="translate(-76.000000, -292.000000)" fill-rule="nonzero">
            <g id="Darwinia" transform="translate(76.000000, 292.000000)">
                <rect id="矩形" fill="url(#linearGradient-1)" x="0" y="0" width="24" height="24" rx="12"></rect>
                <path d="M7.02127661,7.875 C7.55005988,7.875 7.97872339,8.30366355 7.97872339,8.83244681 C7.97872339,9.23968042 7.72448077,9.58753249 7.36606451,9.725934 L7.36575,14.577 L7.68381675,14.5771276 C8.2153047,14.5771276 8.71257491,14.490873 9.16602574,14.3249296 L9.16585039,10.4918915 C8.80743413,10.3534899 8.55319148,10.0056379 8.55319148,9.59840426 C8.55319148,9.069621 8.98185502,8.64095745 9.51063829,8.64095745 C10.0394216,8.64095745 10.4680851,9.069621 10.4680851,9.59840426 C10.4680851,10.0056379 10.2138424,10.3534899 9.85542622,10.4918915 L9.85551619,13.990676 C10.3956267,13.6570039 10.8481175,13.1870209 11.190003,12.5964451 C10.980568,12.3879046 10.8510638,12.0997675 10.8510638,11.781383 C10.8510638,11.1468431 11.3654601,10.6324468 12,10.6324468 C12.0414832,10.6324468 12.082453,10.6346453 12.1227991,10.6389321 C13.0967153,9.23003475 14.9247342,8.30008204 16.6682712,8.25937166 L16.787234,8.25797873 L20.6170213,8.25797873 C20.8285346,8.25797873 21,8.42944414 21,8.64095745 C21,8.83736265 20.8521548,8.9992368 20.6616847,9.02135959 L20.6170213,9.02393617 L20.004,9.023625 L20.0043624,14.0666192 C20.3441628,14.1978323 20.59033,14.5173036 20.6149847,14.897154 L20.6170213,14.9601064 C20.6170213,15.4888896 20.1883577,15.9175532 19.6595745,15.9175532 C19.1307912,15.9175532 18.7021277,15.4888896 18.7021277,14.9601064 C18.7021277,14.5528728 18.9563703,14.2050207 19.3147866,14.0666192 L19.31475,9.023625 L17.323125,9.023625 L17.3235113,14.0666192 C17.6633118,14.1978323 17.9094789,14.5173036 17.9341336,14.897154 L17.9361702,14.9601064 C17.9361702,15.4888896 17.5075067,15.9175532 16.9787234,15.9175532 C16.4499401,15.9175532 16.0212766,15.4888896 16.0212766,14.9601064 C16.0212766,14.5528728 16.2755192,14.2050207 16.6339355,14.0666192 L16.6340304,9.02664825 C16.0416986,9.04751734 15.4371984,9.18811972 14.8723167,9.42403946 L14.8724475,13.3006617 C15.2308638,13.4390633 15.4851064,13.7869153 15.4851064,14.1941489 C15.4851064,14.7229322 15.0564429,15.1515957 14.5276596,15.1515957 C13.9988763,15.1515957 13.5702127,14.7229322 13.5702127,14.1941489 C13.5702127,13.7869153 13.8244554,13.4390633 14.1828717,13.3006617 L14.182791,9.77147018 C13.6450641,10.0926651 13.1724843,10.5039914 12.8215759,10.9787996 C13.0242225,11.1856308 13.1489362,11.4689427 13.1489362,11.781383 C13.1489362,12.4159229 12.6345399,12.9303192 12,12.9303192 C11.9609494,12.9303192 11.9223539,12.9283709 11.8843052,12.9245664 C11.040198,14.4244579 9.58148284,15.3019404 7.80998809,15.3416745 L7.68381675,15.3430851 L3.38297873,15.3430851 C3.17146542,15.3430851 3,15.1716197 3,14.9601064 C3,14.7637012 3.14784518,14.6018271 3.33831531,14.5797042 L3.38297873,14.5771276 L3.995625,14.577 L3.9956376,9.725934 C3.65583716,9.59472094 3.40967,9.27524963 3.38501528,8.89539919 L3.38297873,8.83244681 C3.38297873,8.30366355 3.81164227,7.875 4.34042554,7.875 C4.8692088,7.875 5.29787235,8.30366355 5.29787235,8.83244681 C5.29787235,9.23968042 5.0436297,9.58753249 4.68521344,9.725934 L4.684875,14.577 L6.6765,14.577 L6.67648867,9.725934 C6.33668824,9.59472094 6.09052106,9.27524963 6.06586635,8.89539919 L6.0638298,8.83244681 C6.0638298,8.30366355 6.49249331,7.875 7.02127661,7.875 Z" id="路径" fill="#FFFFFF"></path>
            </g>
        </g>
    </g>
</svg>