<?xml version="1.0" encoding="UTF-8"?>
<svg width="24px" height="24px" viewBox="0 0 24 24" version="1.1" xmlns="http://www.w3.org/2000/svg" xmlns:xlink="http://www.w3.org/1999/xlink">
    <title>Dock</title>
    <g id="页面-1" stroke="none" stroke-width="1" fill="none" fill-rule="evenodd">
        <g id="Project_Requests" transform="translate(-76.000000, -336.000000)">
            <g id="Dock" transform="translate(76.000000, 336.000000)">
                <circle id="椭圆形" fill="#20212E" cx="12" cy="12" r="12"></circle>
                <path d="M15.6263867,5 C15.343849,5 15.1178189,5.09464144 14.9295761,5.26416403 C14.7409865,5.45310024 14.6466918,5.67947702 14.6466918,5.98108162 L14.6466918,12.7547048 L14.6279715,12.7547048 C14.6279715,12.7737718 14.6279715,12.7928387 14.6466918,12.811559 L14.6466918,13.3211668 C14.6466918,14.603853 14.6089045,15.4341323 13.4974742,16.4904418 C13.3657389,16.6038035 13.2149366,16.6980983 13.0641343,16.792393 C12.5368463,17.1130646 11.971771,17.2638669 11.3311212,17.2638669 C10.6908181,17.2638669 10.1066759,17.1130646 9.59810816,16.792393 C9.07047345,16.4717215 8.67492076,16.0376882 8.37366284,15.4906399 C8.07205824,14.9435915 7.92160261,14.3209687 7.92160261,13.6414917 C7.92160261,12.9623613 8.07205824,12.3397385 8.37366284,11.7926902 C8.67526743,11.2456418 9.08954041,10.8116086 9.59810816,10.510004 C10.0688887,10.226773 10.5778031,10.075624 11.1241581,10.0381834 L10.4457211,10.7173138 C10.0879556,11.0757726 10.0879556,11.6793284 10.4457211,12.0568542 C10.8038332,12.415313 11.4066957,12.415313 11.7831815,12.0568542 L14.0063887,9.83052694 C14.3641541,9.47206815 14.3641541,8.86816561 14.0063887,8.49098653 L11.7644612,6.26465927 C11.4066957,5.90620048 10.8038332,5.90620048 10.4270008,6.26465927 C10.0688887,6.62311807 10.0688887,7.22667393 10.4270008,7.60419968 L11.1428784,8.32111727 L10.9355685,8.32111727 C10.0123811,8.32111727 9.18348851,8.54749406 8.43017036,9.01931458 C7.67650555,9.49078843 7.09270998,10.1134113 6.65937005,10.9433439 C6.20730983,11.7361826 6,12.6416898 6,13.6414917 C6,14.6416403 6.22603011,15.5471474 6.69681062,16.3774267 C7.16828447,17.1886391 7.7895206,17.8299822 8.61841323,18.301456 C9.42858558,18.7736232 10.332706,19 11.3120543,19 C12.2920959,19 13.1962163,18.7736232 13.9873217,18.3018027 C14.7974941,17.8303288 15.4190769,17.1886391 15.890204,16.3774267 C16.3609845,15.5662143 16.5870147,14.6603605 16.5870147,13.6414917 L16.5870147,5.98108162 C16.5870147,5.67947702 16.4927199,5.45310024 16.323544,5.26416403 C16.1536747,5.09429477 15.9089243,5 15.6263867,5 Z" id="路径" fill="#FFFFFF"></path>
            </g>
        </g>
    </g>
</svg>