<?xml version="1.0" encoding="UTF-8"?>
<svg width="60px" height="60px" viewBox="0 0 60 60" version="1.1" xmlns="http://www.w3.org/2000/svg" xmlns:xlink="http://www.w3.org/1999/xlink">
    <title>简单易用</title>
    <defs>
        <linearGradient x1="100%" y1="100%" x2="0%" y2="0%" id="linearGradient-1">
            <stop stop-color="#00A3FF" offset="0%"></stop>
            <stop stop-color="#00DD60" offset="100%"></stop>
        </linearGradient>
    </defs>
    <g id="Elara-Web" stroke="none" stroke-width="1" fill="none" fill-rule="evenodd">
        <g id="Elara切图" transform="translate(-264.000000, -187.000000)" fill="url(#linearGradient-1)" fill-rule="nonzero">
            <g id="简单易用" transform="translate(264.000000, 187.000000)">
                <path d="M28.5,0 C28.9142136,0 29.2892136,0.167893219 29.5606602,0.439339828 L29.5606602,0.439339828 L59.5606602,30.4393398 C59.8321068,30.7107864 60,31.0857864 60,31.5 L60,58.5 C60,59.3284271 59.3284271,60 58.5,60 L31.5,60 C31.0857864,60 30.7107864,59.8321068 30.4393398,59.5606602 L30.4393398,59.5606602 L0.439339828,29.5606602 C0.167893219,29.2892136 0,28.9142136 0,28.5 L0,1.5 C0,0.671572875 0.671572875,0 1.5,0 L28.5,0 Z M57,33 L33,33 L33,57 L57,57 L57,33 Z M30,5.121 L30,28.5 C30,29.3284271 29.3284271,30 28.5,30 L5.121,30 L30,54.879 L30,31.5 C30,30.6715729 30.6715729,30 31.5,30 L54.879,30 L30,5.121 Z M27,3 L3,3 L3,27 L27,27 L27,3 Z"></path>
            </g>
        </g>
    </g>
</svg>