<?xml version="1.0" encoding="UTF-8"?>
<svg width="24px" height="24px" viewBox="0 0 24 24" version="1.1" xmlns="http://www.w3.org/2000/svg" xmlns:xlink="http://www.w3.org/1999/xlink">
    <title>Edgeware.ce8e73fb</title>
    <g id="页面-1" stroke="none" stroke-width="1" fill="none" fill-rule="evenodd">
        <g id="Project_Requests_No-data" transform="translate(-76.000000, -380.000000)" fill-rule="nonzero">
            <g id="Edgeware.ce8e73fb" transform="translate(76.000000, 380.000000)">
                <circle id="circle1" fill="#111111" cx="12" cy="12" r="12"></circle>
                <path d="M8.0390625,8.8359375 L8.0383842,11.2709375 L10.1478658,10.0534557 L10.6634908,10.9465443 L8.5543842,12.1629375 L10.6634908,13.3815807 L10.1478658,14.2746693 L8.0383842,13.0559375 L8.0390625,15.4921875 L7.0078125,15.4921875 L7.0073842,13.0569375 L4.8990092,14.2746693 L4.3833842,13.3815807 L6.4923842,12.1639375 L4.3833842,10.9465443 L4.8990092,10.0534557 L7.0073842,11.2699375 L7.0078125,8.8359375 L8.0390625,8.8359375 Z M16.8779146,12.5847057 L19.8007503,14.2722057 L19.2851253,15.1652943 L16.3622896,13.4777943 L16.8779146,12.5847057 Z M15.7939604,12.5847057 L16.3095854,13.4777943 L13.3867497,15.1652943 L12.8711247,14.2722057 L15.7939604,12.5847057 Z M16.8515625,9.1640625 L16.8515625,12.5390625 L15.8203125,12.5390625 L15.8203125,9.1640625 L16.8515625,9.1640625 Z" id="形状结合" fill="#FFFFFF"></path>
            </g>
        </g>
    </g>
</svg>