<?xml version="1.0" encoding="UTF-8"?>
<svg width="20px" height="20px" viewBox="0 0 20 20" version="1.1" xmlns="http://www.w3.org/2000/svg" xmlns:xlink="http://www.w3.org/1999/xlink">
    <title>border_color_black_24dp备份</title>
    <g id="页面-1" stroke="none" stroke-width="1" fill="none" fill-rule="evenodd">
        <g id="Project_Settings" transform="translate(-1188.000000, -440.000000)">
            <g id="border_color_black_24dp备份" transform="translate(1188.000000, 440.000000)">
                <rect id="矩形" x="0" y="0" width="20" height="20"></rect>
                <path d="M15.7560883,17.6645833 L4.12104685,17.6645833 C3.32113775,17.6645833 2.66666667,17.0101123 2.66666667,16.2102031 L2.66666667,16.2102031 C2.66666667,15.410294 3.32113775,14.755823 4.12104685,14.755823 L15.7560883,14.755823 C16.5559974,14.755823 17.2104685,15.410294 17.2104685,16.2102031 L17.2104685,16.2102031 C17.2104685,17.0101123 16.5559974,17.6645833 15.7560883,17.6645833 Z M10.7093891,3.9861377 L13.4363519,6.71310055 L7.05889482,13.0905577 C6.92800061,13.2287238 6.73893118,13.3014428 6.54986176,13.3014428 L4.84823694,13.3014428 C4.44828239,13.3014428 4.12104685,12.9742072 4.12104685,12.5742527 L4.12104685,10.8726279 C4.12104685,10.6762865 4.20103776,10.494489 4.33193198,10.3563229 L10.7093891,3.9861377 Z M14.2144453,5.93500715 L11.4874825,3.2080443 L12.8182404,1.87728644 C13.1018445,1.5936823 13.5599742,1.5936823 13.8435784,1.87728644 L15.5452032,3.57891125 C15.8288073,3.86251539 15.8288073,4.32064514 15.5452032,4.60424928 L14.2144453,5.93500715 Z" id="形状" fill="#14B071" fill-rule="nonzero"></path>
            </g>
        </g>
    </g>
</svg>