<?xml version="1.0" encoding="UTF-8"?>
<svg width="24px" height="24px" viewBox="0 0 24 24" version="1.1" xmlns="http://www.w3.org/2000/svg" xmlns:xlink="http://www.w3.org/1999/xlink">
    <title>Element</title>
    <g id="页面-1" stroke="none" stroke-width="1" fill="none" fill-rule="evenodd" opacity="0.900000036">
        <g id="Linkweb3-首页" transform="translate(-863.000000, -2629.000000)" fill="#DFDFDF">
            <g id="contact" transform="translate(321.000000, 2629.000000)">
                <g id="编组-13" transform="translate(542.000000, 0.000000)">
                    <g id="logo-ele-secondary">
                        <path d="M12,0 C18.6274071,0 24,5.37259286 24,12 C24,18.6274071 18.6274071,24 12,24 C5.37259286,24 0,18.6274071 0,12 C0,5.37259286 5.37259286,0 12,0 Z M8.25105,12.46425 C7.76567143,12.46425 7.37217857,12.8569071 7.37217857,13.3413 C7.37217857,16.6242857 10.0391143,19.2856929 13.3289357,19.2856929 C13.8143143,19.2856929 14.2078071,18.8930357 14.2078071,18.4086429 C14.2078071,17.9242714 13.8143143,17.5315929 13.3289357,17.5315929 C11.0098929,17.5315929 9.12992143,15.6555429 9.12992143,13.3413 C9.12992143,12.8569071 8.73642857,12.46425 8.25105,12.46425 Z M18.4068429,9.78165 C17.9214429,9.78165 17.5279714,10.1743071 17.5279714,10.6587 C17.5279714,12.9729214 15.648,14.8489929 13.3289357,14.8489929 C12.8435571,14.8489929 12.4500643,15.24165 12.4500643,15.7260429 C12.4500643,16.2104143 12.8435571,16.6030929 13.3289357,16.6030929 C16.6187786,16.6030929 19.2856929,13.9416857 19.2856929,10.6587 C19.2856929,10.1743071 18.8922214,9.78165 18.4068429,9.78165 Z M10.6710643,7.39690714 C7.38122143,7.39690714 4.71430714,10.0583143 4.71430714,13.3413 C4.71430714,13.8256929 5.10777857,14.21835 5.59315714,14.21835 C6.07855714,14.21835 6.47202857,13.8256929 6.47202857,13.3413 C6.47202857,11.0270786 8.352,9.15100714 10.6710643,9.15100714 C11.1564429,9.15100714 11.5499357,8.75835 11.5499357,8.27395714 C11.5499357,7.78958571 11.1564429,7.39690714 10.6710643,7.39690714 Z M10.6849071,4.71430714 C10.1995071,4.71430714 9.80603571,5.10696429 9.80603571,5.59135714 C9.80603571,6.07572857 10.1995071,6.46840714 10.6849071,6.46840714 C13.00395,6.46840714 14.8839214,8.34445714 14.8839214,10.6587 C14.8839214,11.1430714 15.2773929,11.53575 15.7627929,11.53575 C16.2481714,11.53575 16.6416643,11.1430714 16.6416643,10.6587 C16.6416643,7.37569286 13.9747286,4.71430714 10.6849071,4.71430714 Z" id="Element"></path>
                    </g>
                </g>
            </g>
        </g>
    </g>
</svg>