<?xml version="1.0" encoding="UTF-8"?>
<svg width="24px" height="24px" viewBox="0 0 24 24" version="1.1" xmlns="http://www.w3.org/2000/svg" xmlns:xlink="http://www.w3.org/1999/xlink">
    <title>Email</title>
    <g id="页面-1" stroke="none" stroke-width="1" fill="none" fill-rule="evenodd" opacity="0.900000036">
        <g id="Linkweb3-首页" transform="translate(-321.000000, -2629.000000)" fill="#DFDFDF" fill-rule="nonzero">
            <g id="contact" transform="translate(321.000000, 2629.000000)">
                <g id="编组-16">
                    <g id="youxiang-">
                        <path d="M12,24 C18.632,24 24,18.624 24,12 C24,5.376 18.624,0 12,0 C5.46400001,0 0.151999992,5.21599999 0,11.712 L0,12.288 C0.151999992,18.784 5.46400001,24 12,24 Z M6.89599999,6.99199999 L17.12,6.99199999 C17.808,6.99199999 18.376,7.536 18.4,8.22400001 L12.016,11.728 L5.63200001,8.232 C5.64,7.54399999 6.20800001,6.984 6.89599999,6.99199999 Z M5.63200001,9.576 L11.864,12.912 C11.96,12.96 12.072,12.96 12.168,12.912 L18.4,9.56800001 L18.4,15.768 C18.392,16.464 17.824,17.024 17.12,17.024 L6.90400001,17.024 C6.20800001,17.032 5.63200001,16.472 5.62399999,15.768 L5.63200001,9.576 Z" id="Email"></path>
                    </g>
                </g>
            </g>
        </g>
    </g>
</svg>