<?xml version="1.0" encoding="UTF-8"?>
<svg width="24px" height="24px" viewBox="0 0 24 24" version="1.1" xmlns="http://www.w3.org/2000/svg" xmlns:xlink="http://www.w3.org/1999/xlink">
    <title>Github</title>
    <g id="页面-1" stroke="none" stroke-width="1" fill="none" fill-rule="evenodd" opacity="0.900000036">
        <g id="Linkweb3-首页" transform="translate(-447.000000, -2629.000000)" fill="#DFDFDF" fill-rule="nonzero">
            <g id="contact" transform="translate(321.000000, 2629.000000)">
                <g id="编组-15" transform="translate(126.000000, 0.000000)">
                    <g id="github">
                        <path d="M0.949171875,7.35623438 C1.58167969,5.87210156 2.43328125,4.5946875 3.504,3.52396875 C4.57392188,2.45404688 5.85135938,1.60244531 7.33626563,0.969140625 C8.81012349,0.339077028 10.3971236,0.016630154 12,0.0214522595 C13.6250391,0.0214522595 15.1796016,0.337429687 16.6637344,0.970710937 C18.1486406,1.60324219 19.4260781,2.45484375 20.496,3.5255625 C21.5667187,4.59548438 22.4183438,5.87292188 23.0508281,7.35782813 C23.681226,8.83107768 24.0042117,10.4175181 24.0000806,12.0199688 C24.0000806,14.6289844 23.2381875,16.9763438 21.7145859,19.0627969 C20.1917344,21.1484766 18.2345859,22.5977578 15.8438672,23.4098906 C15.7184531,23.4098906 15.6247734,23.3866875 15.5628516,23.3402109 C15.5001328,23.2937578 15.4645078,23.2465313 15.4567734,23.1993047 C15.4475935,23.129511 15.4437152,23.059122 15.4451719,22.9887422 C15.4326112,22.9671301 15.4247003,22.9431339 15.4219453,22.9182891 L15.4219453,19.8950859 C15.4219453,18.9428203 15.0859453,18.1299141 14.4139453,17.4579141 C16.2108281,17.1451406 17.5548281,16.4777813 18.4451719,15.4543125 C19.3354922,14.4308203 19.7814141,13.192125 19.7814141,11.7389531 C19.7814141,10.3794609 19.344,9.19959375 18.4683984,8.200125 C18.7811719,7.19985938 18.7262109,6.14540625 18.3050391,5.03599219 C17.8668281,5.00500781 17.3907188,5.07935156 16.8751172,5.25895313 C16.3594922,5.43855469 15.9770391,5.60655469 15.7262109,5.76215625 C15.4769063,5.91855469 15.2500547,6.06721875 15.0472266,6.20810156 C14.1406641,5.95804688 13.1287734,5.83263281 12.0123984,5.83263281 C10.8944297,5.83263281 9.89109375,5.95804688 9,6.20810156 C8.82813281,6.08271094 8.62839844,5.94644531 8.40234375,5.79778125 C8.17546875,5.64914063 7.78141406,5.46953906 7.21858594,5.25895313 C6.65650781,5.04759375 6.14866406,4.95778125 5.69496094,4.98953906 C5.25754688,6.11444531 5.21109375,7.18436719 5.55482813,8.20010156 C4.69549219,9.20036719 4.2658125,10.3794609 4.2658125,11.7389297 C4.2658125,13.1921016 4.70322656,14.4269531 5.57807813,15.4419141 C6.45290625,16.4576719 7.79690625,17.1296484 9.60928125,17.4579141 C9.1453118,17.9032565 8.81999248,18.4732429 8.67250781,19.0992188 C7.344,19.4266875 6.4141875,19.1921016 5.88309375,18.3946875 C4.89832031,16.9577813 4.01573438,16.4421797 3.23458594,16.8486328 C3.12466406,16.9577813 3.14090625,17.0708203 3.28103906,17.1885 C3.42194531,17.3054063 3.63250781,17.4617813 3.91432031,17.6568984 C4.19533594,17.8527656 4.40594531,18.0672188 4.54682813,18.3017813 C4.56232031,18.3327656 4.60565625,18.4465547 4.67613281,18.6416719 C4.74344017,18.8300928 4.8136438,19.0174666 4.88671875,19.2037266 C4.95639844,19.3833281 5.08954688,19.5830859 5.28541406,19.8013828 C5.48050781,20.0205 5.70735938,20.2039922 5.96517188,20.3526328 C6.22298438,20.5005 6.57832031,20.6104453 7.03122656,20.6808984 C7.48413281,20.7505547 7.99973438,20.7544453 8.57805469,20.6925 L8.57805469,23.0475938 C8.57805469,23.0708203 8.5741875,23.1095391 8.56645313,23.1652734 C8.55871875,23.2194609 8.54322656,23.2581797 8.52,23.2814063 C8.49677344,23.3054063 8.46503906,23.3286328 8.42554688,23.3526328 C8.37902706,23.377692 8.32660389,23.3897249 8.2738125,23.3874609 C8.21109375,23.3874609 8.13290625,23.3797266 8.03922656,23.3642578 C5.664,22.5358594 3.73082813,21.0865547 2.23821094,19.0163672 C0.746296875,16.9461797 0,14.6150859 0,12.0215625 C0,10.3949531 0.316640625,8.84036719 0.949171875,7.35623438 Z" id="Github"></path>
                    </g>
                </g>
            </g>
        </g>
    </g>
</svg>