<svg xmlns="http://www.w3.org/2000/svg" width="32" height="32" viewBox="0 0 32 32">
  <g fill="none" fill-rule="evenodd">
    <rect width="32" height="32"/>
    <path fill="#FFF" fill-rule="nonzero" d="M31.9993654,15.9993503 C32.0299455,19.384281 30.9545697,22.6866477 28.9366853,25.4045208 C26.9931291,28.1196582 24.2351886,30.1450833 21.0628549,31.1870436 C20.7802925,31.2658428 20.4772093,31.2111194 20.2400453,31.0384807 C20.0686689,30.8756052 19.9768591,30.6460806 19.9886313,30.4099456 L19.9886313,26.0216279 C20.0810057,24.923185 19.683697,23.8399961 18.9029798,23.0617991 C19.6194346,22.9915621 20.3298367,22.8693424 21.0285712,22.6961059 C21.7144028,22.5121366 22.3718765,22.2353056 22.9827439,21.8732964 C23.6228206,21.5241814 24.1924562,21.0591727 24.6626468,20.5019471 C25.1790624,19.8495123 25.5668644,19.1049325 25.8054378,18.3077882 C26.1086667,17.2883009 26.2550942,16.2286283 26.2396984,15.1651128 C26.2753726,13.5737759 25.6796172,12.0330291 24.5826514,10.8796463 C25.098205,9.49792384 25.0406095,7.9675273 24.4226606,6.62846353 C23.8526252,6.52452687 23.264305,6.60457044 22.7427578,6.85702175 C22.0741042,7.09744946 21.4309843,7.40369699 20.8228688,7.7712546 L20.0343429,8.26265476 C17.417986,7.53124414 14.6511624,7.53124414 12.0348055,8.26265476 C11.8062473,8.10266401 11.5205495,7.93124535 11.1548564,7.70268714 C10.5856001,7.37087005 9.98920836,7.08796629 9.37210229,6.85702175 C8.81878014,6.57605617 8.19114303,6.47611396 7.57792031,6.57132398 C6.96175206,7.92351746 6.90830799,9.46517345 7.42935747,10.8567905 C6.34770224,12.0281579 5.75842296,13.5709238 5.78373834,15.1651128 C5.76744376,16.2211813 5.91391461,17.2734588 6.21799894,18.2849324 C6.46597103,19.0782295 6.85291432,19.8211606 7.36079001,20.4790913 C7.82056372,21.0527943 8.39208746,21.5271201 9.04069288,21.8732964 C9.65957791,22.2191395 10.3149946,22.4951044 10.9948656,22.6961059 C11.6972978,22.8701292 12.4115567,22.9923553 13.1318849,23.0617991 C12.5337422,23.6250828 12.1670347,24.391094 12.1033729,25.2102463 C11.802735,25.3533708 11.4834207,25.453397 11.1548564,25.507372 C10.778106,25.578226 10.3954126,25.6126684 10.0120653,25.6102231 C9.48705365,25.6135782 8.97464733,25.4494481 8.54929272,25.1416788 C8.07567234,24.7984069 7.68514287,24.3532033 7.40650165,23.838897 C7.1543153,23.4081171 6.81110194,23.0376026 6.40084551,22.7532455 C6.09511447,22.5184929 5.74536733,22.3475054 5.37233355,22.2504174 L4.96092877,22.2504174 C4.75487695,22.2384878 4.54859997,22.2696239 4.35524951,22.3418407 C4.2409704,22.4104082 4.20668667,22.4904035 4.25239831,22.5818268 C4.306498,22.6838869 4.37164701,22.7796943 4.44667279,22.8675246 C4.52944721,22.9637392 4.62129438,23.0517594 4.72094265,23.1303665 L4.86950549,23.2217898 C5.22817763,23.414713 5.54023549,23.6838629 5.78373834,24.0103157 C6.03879444,24.3358044 6.25724067,24.6883843 6.43512925,25.0616834 L6.64083164,25.5416557 C6.80297275,26.0571517 7.12272628,26.5088036 7.55506449,26.8330096 C7.96628414,27.1310706 8.43858953,27.3340448 8.93784168,27.4272609 C9.41139598,27.5263722 9.89394379,27.5761589 10.3777584,27.5758238 C10.7603004,27.5828315 11.1427144,27.5560625 11.5205495,27.4958284 L12.0005217,27.415833 L12.0005217,30.4099456 C12.0049239,30.6493876 11.9047878,30.8788662 11.7262519,31.0384807 C11.4842521,31.2099555 11.1783328,31.2644343 10.8920144,31.1870436 C7.72951098,30.1317293 4.98682824,28.0937359 3.0638956,25.370237 C1.0356203,22.6708218 -0.0413609993,19.3755805 0.00121554177,15.9993503 C-0.0154734392,13.1880969 0.726767218,10.4244349 2.14966275,7.99981281 C3.54711473,5.5654475 5.56638769,3.54617453 8.00075301,2.14872255 C10.4253751,0.725827026 13.1890371,-0.0164136319 16.0002905,7.10542736e-15 C18.8115438,-0.0164136319 21.5752059,0.725827026 23.9998279,2.14872255 C26.4341933,3.54617453 28.4534662,5.5654475 29.8509182,7.99981281 C31.2748679,10.4239934 32.0171879,13.1879509 31.9993654,15.9993503 Z"/>
  </g>
</svg>
