<?xml version="1.0" encoding="UTF-8"?>
<svg width="88px" height="86px" viewBox="0 0 88 86" version="1.1" xmlns="http://www.w3.org/2000/svg" xmlns:xlink="http://www.w3.org/1999/xlink">
    <title>Logo GitHub</title>
    <defs>
        <filter id="filter-1">
            <feColorMatrix in="SourceGraphic" type="matrix" values="0 0 0 0 0.427451 0 0 0 0 0.831373 0 0 0 0 0.000000 0 0 0 1.000000 0"></feColorMatrix>
        </filter>
    </defs>
    <g id="Elara-Web" stroke="none" stroke-width="1" fill="none" fill-rule="evenodd">
        <g id="登录中文/英文" transform="translate(-596.000000, -266.000000)">
            <g id="Logo-GitHub" transform="translate(440.000000, 100.000000)" filter="url(#filter-1)">
                <g transform="translate(156.000000, 166.000000)">
                    <path d="M87.5976563,43.8476562 C87.6812785,53.1038614 84.7406279,62.1342924 79.2226563,69.5664062 C73.9079373,76.9910394 66.3662577,82.5296314 57.6914063,85.3789062 C56.9187299,85.5943853 56.0899389,85.4447425 55.4414063,84.9726562 C54.9727717,84.5272677 54.7217147,83.8996252 54.7539063,83.2539062 L54.7539063,71.2539062 C55.006507,68.2501777 53.9200532,65.2881617 51.7851563,63.1601562 C53.7443257,62.968091 55.6869437,62.6338772 57.5976563,62.1601562 C59.4730854,61.6570861 61.270969,60.9000824 62.9414063,59.9101562 C64.6917173,58.9554897 66.2494047,57.6839082 67.5351563,56.1601562 C68.9473119,54.3760517 70.0077692,52.3399737 70.6601563,50.1601562 C71.4893456,47.3723343 71.8897564,44.4746246 71.8476563,41.5664063 C71.9452085,37.2148427 70.3160956,33.0016197 67.3164063,29.8476563 C68.7262047,26.0692904 68.5687078,21.8843704 66.8789063,18.2226563 C65.3201256,17.938438 63.7113444,18.1573198 62.2851563,18.8476563 C60.4567008,19.5051138 58.6980684,20.3425578 57.0351563,21.3476563 L54.8789063,22.6914063 C47.7243916,20.6913397 40.1584209,20.6913397 33.0039063,22.6914063 C32.3789063,22.2539063 31.5976563,21.7851563 30.5976563,21.1601563 C29.0410061,20.2527914 27.4101532,19.4791818 25.7226563,18.8476563 C24.2095785,18.0793466 22.4932841,17.8060513 20.8164063,18.0664063 C19.1314738,21.7640241 18.9853292,25.9797334 20.4101563,29.7851562 C17.4523342,32.9882991 15.8409305,37.2070435 15.9101562,41.5664062 C15.8655982,44.4542606 16.2661276,47.3317481 17.0976562,50.0976562 C17.7757441,52.2669534 18.8338534,54.2985232 20.2226562,56.0976562 C21.4799227,57.6664661 23.0427733,58.9635258 24.8164062,59.9101562 C26.5087679,60.8558756 28.3010266,61.6105109 30.1601563,62.1601562 C32.0809803,62.6360286 34.0341451,62.97026 36.0039063,63.1601562 C34.3682652,64.7004742 33.3654914,66.7951573 33.1914062,69.0351562 C32.3693018,69.426535 31.4961262,69.7000599 30.5976562,69.8476562 C29.5674199,70.0414089 28.5209321,70.1355928 27.4726562,70.1289062 C26.0369946,70.1380808 24.6358025,69.6892615 23.4726563,68.8476562 C22.1775256,67.9089678 21.1096099,66.6915438 20.3476563,65.2851562 C19.6580443,64.1071742 18.719516,63.0939903 17.5976563,62.3164062 C16.7616246,61.6744674 15.8052295,61.2068965 14.7851563,60.9414062 L13.6601563,60.9414062 C13.0967007,60.9087843 12.5326295,60.9939271 12.0039063,61.1914062 C11.6914063,61.3789062 11.5976563,61.5976562 11.7226563,61.8476562 C11.8705936,62.1267429 12.0487458,62.3887313 12.2539063,62.6289062 C12.4802556,62.8920083 12.7314148,63.1327025 13.0039063,63.3476562 L13.4101563,63.5976562 C14.3909571,64.125211 15.2442896,64.8612103 15.9101563,65.7539062 C16.6076156,66.6439661 17.2049641,67.6081075 17.6914063,68.6289062 L18.2539063,69.9414062 C18.6972865,71.3510472 19.5716631,72.5861041 20.7539063,73.4726562 C21.8784,74.2877139 23.1699347,74.8427537 24.5351563,75.0976562 C25.8301061,75.3686794 27.1496491,75.5048227 28.4726563,75.5039062 C29.5187299,75.5230691 30.5644538,75.4498685 31.5976563,75.2851562 L32.9101563,75.0664062 L32.9101563,83.2539062 C32.922194,83.9086684 32.6483685,84.5361851 32.1601563,84.9726562 C31.4983997,85.4415598 30.6618533,85.5905338 29.8789063,85.3789062 C21.2309359,82.4931146 13.7309792,76.9201541 8.47265625,69.4726562 C2.92627031,62.091016 -0.018770711,53.0800695 0.09765625,43.8476562 C0.052019679,36.1601909 2.08170133,28.6028656 5.97265625,21.9726562 C9.79403494,15.3158037 15.3158037,9.79403494 21.9726563,5.97265625 C28.6028656,2.08170133 36.1601909,0.052019679 43.8476563,0.0969032988 C51.5351216,0.052019679 59.0924469,2.08170133 65.7226563,5.97265625 C72.3795088,9.79403494 77.9012776,15.3158037 81.7226563,21.9726563 C85.6164939,28.6016582 87.6463925,36.1597916 87.5976563,43.8476562 Z" id="路径" fill="#E6E6E6" fill-rule="nonzero"></path>
                </g>
            </g>
        </g>
    </g>
</svg>