<?xml version="1.0" encoding="UTF-8"?>
<svg width="32px" height="32px" viewBox="0 0 32 32" version="1.1" xmlns="http://www.w3.org/2000/svg" xmlns:xlink="http://www.w3.org/1999/xlink">
    <title>github</title>
    <g id="页面-1" stroke="none" stroke-width="1" fill="none" fill-rule="evenodd" opacity="0.699999988">
        <g id="Elara中文" transform="translate(-1136.000000, -2383.000000)" fill="#2A292B" fill-rule="nonzero">
            <g id="底部" transform="translate(0.000000, 2176.000000)">
                <g id="编组备份-3" transform="translate(800.000000, 207.000000)">
                    <g id="github" transform="translate(336.000000, 0.000000)">
                        <path d="M1.2655625,9.79070332 C2.10890625,7.81541225 3.244375,6.11525135 4.672,4.69018941 C6.0985625,3.26618806 7.8018125,2.13275785 9.7816875,1.28986759 C11.7468313,0.45129103 13.8628314,0.0221337298 16,0.0285516608 C18.1667188,0.0285516608 20.2394688,0.449098519 22.2183125,1.29195759 C24.1981875,2.13381845 25.9014375,3.26724865 27.328,4.69231059 C28.755625,6.11631194 29.891125,7.81650404 30.7344375,9.79282451 C31.574968,11.7536306 32.0056155,13.865087 32.0001074,15.9978519 C32.0001074,19.470294 30.98425,22.5944874 28.9527813,25.3714304 C26.9223125,28.147344 24.3127813,30.0762498 21.1251562,31.1571495 C20.9579375,31.1571495 20.8330313,31.1262675 20.7504688,31.06441 C20.6668438,31.0025837 20.6193437,30.939728 20.6090313,30.8768723 C20.5967914,30.7839811 20.5916203,30.6902976 20.5935625,30.5966263 C20.5768149,30.5678619 20.566267,30.5359245 20.5625938,30.5028575 L20.5625938,26.4791569 C20.5625938,25.2117489 20.1145938,24.1298198 19.2185938,23.2354284 C21.6144375,22.8191459 23.4064375,21.9309309 24.5935625,20.5687558 C25.7806563,19.2065496 26.3752188,17.557921 26.3752188,15.6238371 C26.3752188,13.8144351 25.792,12.2441032 24.6245313,10.9138707 C25.0415625,9.58257765 24.9682813,8.17916427 24.4067188,6.70260121 C23.8224375,6.66136288 23.187625,6.76030992 22.5001563,6.99934874 C21.8126563,7.23838757 21.3027188,7.46198541 20.9682813,7.66908169 C20.635875,7.87723855 20.3334063,8.07510144 20.0629688,8.26260794 C18.8542188,7.92980027 17.5050313,7.76288173 16.0165313,7.76288173 C14.5259063,7.76288173 13.188125,7.92980027 12,8.26260794 C11.7708438,8.0957206 11.5045313,7.91435929 11.203125,7.71649641 C10.900625,7.51866472 10.3752188,7.2796259 9.62478125,6.99934874 C8.87534375,6.71804219 8.19821875,6.59850718 7.59328125,6.64077491 C7.0100625,8.13795714 6.948125,9.56195848 7.4064375,10.9138395 C6.26065625,12.2451326 5.68775,13.8144351 5.68775,15.6238059 C5.68775,17.5578898 6.27096875,19.2014026 7.4374375,20.5522543 C8.603875,21.9041665 10.395875,22.7985267 12.812375,23.2354284 C12.1937491,23.8281523 11.75999,24.5867697 11.5633438,25.4199057 C9.792,25.8557469 8.55225,25.5435272 7.844125,24.4822172 C6.53109375,22.5697819 5.3543125,21.8835474 4.31278125,22.4245119 C4.16621875,22.5697819 4.187875,22.72023 4.37471875,22.8768546 C4.56259375,23.0324497 4.84334375,23.2405754 5.21909375,23.5002646 C5.59378125,23.760952 5.87459375,24.0463761 6.0624375,24.3585646 C6.08309375,24.399803 6.140875,24.5512493 6.23484375,24.8109385 C6.32458689,25.0617154 6.41819173,25.3110985 6.515625,25.5589993 C6.60853125,25.7980382 6.7860625,26.0639037 7.04721875,26.3544437 C7.30734375,26.6460754 7.6098125,26.8902924 7.9535625,27.0881241 C8.2973125,27.2849264 8.77109375,27.431257 9.37496875,27.5250258 C9.97884375,27.6177341 10.6663125,27.6229123 11.4374063,27.5404668 L11.4374063,30.6749542 C11.4374063,30.7058674 11.43225,30.7573997 11.4219375,30.8315788 C11.411625,30.9036991 11.3909688,30.9552314 11.36,30.9861445 C11.3290313,31.0180871 11.2867188,31.0490002 11.2340625,31.0809428 C11.1720361,31.114295 11.1021385,31.1303101 11.03175,31.1272969 C10.948125,31.1272969 10.843875,31.1170029 10.7189688,31.0964149 C7.552,29.9938667 4.9744375,28.0649298 2.98428125,25.3096353 C0.9950625,22.5543409 0,19.451796 0,15.9999731 C0,13.8350543 0.4221875,11.7659944 1.2655625,9.79070332 Z" id="路径"></path>
                    </g>
                </g>
            </g>
        </g>
    </g>
</svg>