<?xml version="1.0" encoding="UTF-8"?>
<svg width="24px" height="24px" viewBox="0 0 24 24" version="1.1" xmlns="http://www.w3.org/2000/svg" xmlns:xlink="http://www.w3.org/1999/xlink">
    <title>Jupiter</title>
    <g id="页面-1" stroke="none" stroke-width="1" fill="none" fill-rule="evenodd">
        <g id="Project_Requests" transform="translate(-76.000000, -788.000000)">
            <g id="Jupiter" transform="translate(76.000000, 788.000000)">
                <rect id="矩形" x="0" y="0" width="24" height="24"></rect>
                <circle id="椭圆形" fill="#FF3043" cx="12" cy="12" r="12"></circle>
                <g id="编组-23" transform="translate(1.800000, 5.500000)" fill="#FFFFFF">
                    <path d="M10.2,0 C13.8110926,0 16.7384615,2.92736894 16.7384615,6.53846154 C16.7384615,10.1495541 13.8110926,13.0769231 10.2,13.0769231 C6.58890741,13.0769231 3.66153846,10.1495541 3.66153846,6.53846154 C3.66153846,2.92736894 6.58890741,0 10.2,0 Z M10.2,1.56923077 C7.45556963,1.56923077 5.23076923,3.79403117 5.23076923,6.53846154 C5.23076923,9.28289191 7.45556963,11.5076923 10.2,11.5076923 C12.9444304,11.5076923 15.1692308,9.28289191 15.1692308,6.53846154 C15.1692308,3.79403117 12.9444304,1.56923077 10.2,1.56923077 Z" id="形状结合"></path>
                    <path d="M11.7692308,8.10769231 C12.4914493,8.10769231 13.0769231,8.57607134 13.0769231,9.15384615 C13.0769231,9.73162097 12.4914493,10.2 11.7692308,10.2 C11.0470123,10.2 10.4615385,9.73162097 10.4615385,9.15384615 C10.4615385,8.57607134 11.0470123,8.10769231 11.7692308,8.10769231 Z M1.30769231,6.01538462 L1.30769231,7.32307692 L0,7.32307692 L0,6.01538462 L1.30769231,6.01538462 Z M20.4,6.01538462 L20.4,7.32307692 L19.0923077,7.32307692 L19.0923077,6.01538462 L20.4,6.01538462 Z" id="形状结合"></path>
                    <rect id="矩形" x="2.09230769" y="6.01538462" width="16.2153846" height="1.30769231"></rect>
                </g>
            </g>
        </g>
    </g>
</svg>