<?xml version="1.0" encoding="UTF-8"?>
<svg width="24px" height="24px" viewBox="0 0 24 24" version="1.1" xmlns="http://www.w3.org/2000/svg" xmlns:xlink="http://www.w3.org/1999/xlink">
    <title>Karura</title>
    <defs>
        <linearGradient x1="138.562955%" y1="130.620109%" x2="57.6447057%" y2="-43.2055015%" id="linearGradient-1">
            <stop stop-color="#E40C5B" offset="0%"></stop>
            <stop stop-color="#FF4C3B" offset="100%"></stop>
        </linearGradient>
        <linearGradient x1="139.902141%" y1="130.620001%" x2="58.7416535%" y2="-43.7273461%" id="linearGradient-2">
            <stop stop-color="#E40C5B" offset="0%"></stop>
            <stop stop-color="#FF4C3B" offset="100%"></stop>
        </linearGradient>
    </defs>
    <g id="页面-1" stroke="none" stroke-width="1" fill="none" fill-rule="evenodd">
        <g id="Project_Requests" transform="translate(-76.000000, -1152.000000)" fill-rule="nonzero">
            <g id="Karura" transform="translate(76.000000, 1152.000000)">
                <circle id="椭圆形" fill="#1B1B1B" cx="12" cy="12" r="12"></circle>
                <path d="M15.6511579,5.43157895 L11.3815958,9.30989053 C10.9395411,9.71213053 10.3643116,9.93453474 9.76712842,9.93727579 L8.49449684,9.94002947 L8.49037895,5.43157895 L6.18947368,5.43157895 L6.18947368,18.3157895 L7.44425684,18.3157895 C8.14578947,18.3157895 8.80063579,17.9437895 9.14384842,17.3328 C9.14660211,17.3287579 9.14796632,17.3245895 9.15072,17.3218105 C9.37860632,16.9126737 9.49255579,16.1041263 9.47058947,15.5522526 C9.42116211,14.2906105 9.21798316,13.9624421 9.21798316,13.9624421 C9.17542737,14.8273263 8.27209263,14.8740632 8.27209263,14.8740632 C8.91458526,14.2604211 8.56450105,13.7963368 8.56450105,13.7963368 C7.42640842,14.6064 7.14223579,13.7413895 7.12026947,13.6632 C7.15596632,13.6933895 7.47995368,13.9638316 8.09498526,13.1209263 C8.74572632,12.2298947 9.61336421,10.7445095 10.1652505,10.3628589 C10.7185137,9.97983158 11.2429389,10.0114105 11.2429389,10.0114105 C11.2429389,10.0114105 11.5449726,9.60229895 12.3439579,9.26184 C13.1429053,8.92410947 13.6549895,9.41970947 13.6549895,9.41970947 C12.8382316,10.0786863 11.7289263,11.1604926 11.6671453,12.7104 C11.6177305,13.9652211 14.3221895,16.1178947 13.8472421,19.2973895 C14.1314526,18.5752421 14.2453895,17.8517053 14.1478737,16.9566316 C14.0696842,16.2344842 13.6042105,14.7257684 13.6042105,14.7257684 L16.2016421,18.3144 L19.0736842,18.3144 L13.4600842,10.6031116 L19.0736842,5.43157895 L15.6511579,5.43157895 Z" id="路径" fill="url(#linearGradient-1)"></path>
                <path d="M10.4192211,10.9792674 C10.2380084,11.2799242 10.2380084,11.3719074 10.2380084,11.3719074 C10.2380084,11.3719074 10.8722653,11.2648168 11.0438813,10.5111284 C11.0452421,10.5111284 10.6388842,10.6154653 10.4192211,10.9792674 Z" id="路径" fill="url(#linearGradient-2)"></path>
            </g>
        </g>
    </g>
</svg>