<?xml version="1.0" encoding="UTF-8"?>
<svg width="24px" height="24px" viewBox="0 0 24 24" version="1.1" xmlns="http://www.w3.org/2000/svg" xmlns:xlink="http://www.w3.org/1999/xlink">
    <title>Kulupu</title>
    <g id="页面-1" stroke="none" stroke-width="1" fill="none" fill-rule="evenodd">
        <g id="Project_Requests" transform="translate(-76.000000, -424.000000)" fill-rule="nonzero">
            <g id="Kulupu" transform="translate(76.000000, 424.000000)">
                <path d="M24,12 C24,15.1825975 22.7357181,18.2348447 20.4852814,20.4852814 C18.2348447,22.7357181 15.1825975,24 12,24 C8.81740156,24 5.76515464,22.7357177 3.51471819,20.485281 C1.26428174,18.2348444 0,15.1825973 0,12 C0,5.37258284 5.37258284,0 12,0 C15.1825973,0 18.2348444,1.26428174 20.485281,3.51471819 C22.7357177,5.76515464 24,8.81740156 24,12 Z" id="path845" fill="#231F20"></path>
                <g id="g1834" transform="translate(4.812551, 5.907167)" fill="#FFFFFF">
                    <path d="M13.3885761,0.0379772881 L7.99769171,1.80191542 C7.19733346,2.06379853 6.53360228,2.63257636 6.15221684,3.38337676 L3.67913966,8.25191825 C3.50310034,8.59847179 3.22889791,8.88550695 2.89075263,9.07720193 L0.561295006,10.3977767 C0.21438979,10.5944388 2.66453526e-15,10.9624193 2.66453526e-15,11.3611915 L2.66453526e-15,11.3611915 C2.66453526e-15,11.6647207 0.166776876,11.9437019 0.434133526,12.0874043 C0.701490176,12.2311068 1.02618272,12.2162868 1.27933693,12.0488266 L4.09378344,10.1870713 C4.40521014,9.98106289 4.65730971,9.69714909 4.82503309,9.36354013 L7.19080918,4.65789252 C7.58179011,3.88021175 8.27242107,3.29513258 9.10378581,3.0372835 L13.7500265,1.59624461 C14.1216167,1.48099598 14.3748967,1.13725804 14.3748967,0.74820593 C14.374125,0.507659618 14.2581131,0.282055387 14.0629078,0.141492173 C13.8677025,0.000928958488 13.6169548,-0.0375626624 13.3885761,0.0379772881 Z M0,3.43625591 C0.0556956611,3.82443478 0.415526784,4.09396586 0.803705727,4.03827076 L1.85498132,4.03827076 C2.19652528,4.03827169 2.52283272,4.17965398 2.75640948,4.42884101 L3.97178574,5.72544342 L4.70943216,4.35459851 L3.62908843,3.06316903 C3.40077829,2.79024812 3.06325169,2.63254619 2.7074268,2.63254619 L0.803705727,2.63254619 C0.590549063,2.63254619 0.386122838,2.71722281 0.23539869,2.86794771 C0.0846745418,3.0186726 0,3.22309925 0,3.43625591 L0,3.43625591 Z M6.95882361,6.99077494 L6.25588957,8.39649878 L8.22546114,10.7859716 C8.64767588,11.2981996 9.27674025,11.5949005 9.94054958,11.5949005 L13.763377,11.5949005 C13.9255615,11.5949005 14.0811037,11.5304749 14.195786,11.4157937 C14.3104682,11.3011124 14.3748967,11.1455708 14.3748967,10.9833863 C14.3712768,10.797019 14.293771,10.6197229 14.1594296,10.4905012 C14.0250882,10.3612795 13.8449159,10.2907175 13.6585486,10.2943379 L10.5042005,10.2943379 C9.95166677,10.294339 9.4287108,10.044704 9.08125559,9.61508975 L6.95882361,6.99077494 Z" id="path1130-2"></path>
                </g>
            </g>
        </g>
    </g>
</svg>