<?xml version="1.0" encoding="UTF-8"?>
<svg width="40px" height="40px" viewBox="0 0 40 40" version="1.1" xmlns="http://www.w3.org/2000/svg" xmlns:xlink="http://www.w3.org/1999/xlink">
    <title>Kusama</title>
    <g id="页面-1" stroke="none" stroke-width="1" fill="none" fill-rule="evenodd">
        <g id="控制台" transform="translate(-50.000000, -178.000000)" fill="#232323">
            <g id="编组-11" transform="translate(0.000000, 68.000000)">
                <g id="编组-10" transform="translate(50.000000, 110.000000)">
                    <path d="M20,0 C31.045695,0 40,8.954305 40,20 C40,31.045695 31.045695,40 20,40 C8.954305,40 0,31.045695 0,20 C0,8.954305 8.954305,0 20,0 Z M28.2019696,11.9334277 C27.5771362,12.3616213 26.3274694,13.4626904 25.8276026,13.890884 C25.3277359,14.3190776 24.0780691,14.5637596 22.0161188,15.7871698 C19.9541686,17.01058 11.9563009,22.0265618 11.9563009,22.0265618 L14.0182512,22.0265618 L4.70823338,26.7366911 L5.6454835,26.7366911 L4.33333333,27.7154193 C5.08313343,27.8989308 5.83293352,27.7765898 6.52025027,27.4095667 L6.52025027,27.7154193 C6.52025027,27.7154193 17.5798016,23.4334836 19.7042352,24.5345528 L18.3920851,24.9015758 C18.5170517,24.9015758 20.579002,25.0239168 20.579002,25.0239168 C20.7039687,25.880304 21.2038354,26.6755206 21.9536355,27.1037142 C23.2033023,27.8989308 23.2657857,28.3882949 23.2657857,28.3882949 C23.2657857,28.3882949 22.6409523,28.6329769 22.6409523,29 C23.8281357,28.6329769 25.0778026,28.6329769 26.2025027,29 C26.2025027,29 26.1400194,28.6329769 25.2652526,28.3882949 C24.3904858,28.0212718 23.6406857,27.4707372 23.0783356,26.6755206 C22.5784689,26.002645 22.3910189,25.1462579 22.7034356,24.3510412 C23.0158523,23.5558246 24.0780691,23.127631 26.264986,22.0265618 C28.826803,20.7419811 29.4516364,19.763253 29.7640531,18.9680363 C30.0764698,18.1728197 30.7013032,16.7047275 30.9512366,15.9706814 C31.20117,15.2978057 31.6385534,14.7472711 32.2009034,14.2579071 C32.8882202,13.890884 33.6380203,13.5850315 34.325337,13.3403494 C34.4503037,13.4015199 33.0756702,12.3004507 32.6382868,11.9945982 C32.0759368,11.5052341 31.4511033,11.1382111 30.7013032,11.01587 C29.7640531,10.893529 28.826803,11.5052341 28.2019696,11.9334277 Z" id="Kusama"></path>
                </g>
            </g>
        </g>
    </g>
</svg>