<?xml version="1.0" encoding="UTF-8"?>
<svg width="24px" height="24px" viewBox="0 0 24 24" version="1.1" xmlns="http://www.w3.org/2000/svg" xmlns:xlink="http://www.w3.org/1999/xlink">
    <title>编组 9</title>
    <g id="页面-1" stroke="none" stroke-width="1" fill="none" fill-rule="evenodd">
        <g id="Project_Requests" transform="translate(-76.000000, -248.000000)">
            <g id="编组-9" transform="translate(76.000000, 248.000000)">
                <path d="M12,0 C18.627417,0 24,5.372583 24,12 C24,18.627417 18.627417,24 12,24 C5.372583,24 0,18.627417 0,12 C0,5.372583 5.372583,0 12,0 Z" id="Kusama" fill="#000000" fill-rule="nonzero"></path>
                <path d="M16.9211818,7.16005662 C16.5462817,7.41697278 15.7964816,8.07761424 15.4965616,8.3345304 C15.1966415,8.59144656 14.4468415,8.73825576 13.2096713,9.47230188 C11.9725012,10.206348 7.17378054,13.2159371 7.17378054,13.2159371 L8.41095072,13.2159371 L2.82494003,16.0420147 L3.3872901,16.0420147 L2.6,16.6292516 C3.04988006,16.7393585 3.49976011,16.6659539 3.91215016,16.44574 L3.91215016,16.6292516 C3.91215016,16.6292516 10.547881,14.0600902 11.8225411,14.7207317 L11.0352511,14.9409455 C11.110231,14.9409455 12.3474012,15.0143501 12.3474012,15.0143501 C12.4223812,15.5281824 12.7223012,16.0053124 13.1721813,16.2622285 C13.9219814,16.7393585 13.9594714,17.0329769 13.9594714,17.0329769 C13.9594714,17.0329769 13.5845714,17.1797861 13.5845714,17.4 C14.2968814,17.1797861 15.0466816,17.1797861 15.7215016,17.4 C15.7215016,17.4 15.6840116,17.1797861 15.1591516,17.0329769 C14.6342915,16.8127631 14.1844114,16.4824423 13.8470014,16.0053124 C13.5470813,15.601587 13.4346113,15.0877547 13.6220614,14.6106247 C13.8095114,14.1334948 14.4468415,13.8765786 15.7589916,13.2159371 C17.2960818,12.4451887 17.6709818,11.8579518 17.8584319,11.3808218 C18.0458819,10.9036918 18.4207819,10.0228365 18.570742,9.58240884 C18.720702,9.17868342 18.983132,8.84836266 19.320542,8.55474426 C19.7329321,8.3345304 20.1828122,8.1510189 20.5952022,8.00420964 C20.6701822,8.04091194 19.8454021,7.38027042 19.5829721,7.19675892 C19.2455621,6.90314046 18.870662,6.68292666 18.4207819,6.609522 C17.8584319,6.5361174 17.2960818,6.90314046 16.9211818,7.16005662 Z" id="Kusama-path" fill="#FFFFFF"></path>
            </g>
        </g>
    </g>
</svg>