<?xml version="1.0" encoding="UTF-8"?>
<svg width="16px" height="16px" viewBox="0 0 16 16" version="1.1" xmlns="http://www.w3.org/2000/svg" xmlns:xlink="http://www.w3.org/1999/xlink">
    <title>语言</title>
    <g id="页面-1" stroke="none" stroke-width="1" fill="none" fill-rule="evenodd">
        <g id="Dashboard_No-data" transform="translate(-1132.000000, -22.000000)" fill="#14B071" fill-rule="nonzero">
            <g id="语言" transform="translate(1132.000000, 22.000000)">
                <path d="M8,0 C12.418278,0 16,3.581722 16,8 C16,12.418278 12.418278,16 8,16 C3.581722,16 0,12.418278 0,8 C0,3.581722 3.581722,0 8,0 Z M2.043,6.398 C1.969,6.472 1.969,6.472 2.043,6.544 C1.846,6.863 1.423,6.902 1.12,6.71 C0.770995544,8.57346095 1.19254691,10.4987976 2.28829883,12.04593 C3.38405076,13.5930623 5.06033564,14.6297377 6.934,14.919 L6.928,14.914 L6.808,14.854 C7.033,14.782 7.331,14.782 7.553,14.782 C7.479,14.344 7.479,13.981 7.479,13.542 C7.479,13.542 5.767,12.304 5.767,11.574 C5.767,10.844 5.99,10.481 5.767,10.481 C5.394,10.481 4.947,10.773 4.873,10.481 C4.724,10.043 4.426,9.679 3.979,9.534 C2.954,9.534 2.807,8.43 2.789,7.292 L2.788,6.982 C2.788,6.616 2.341,6.616 2.043,6.398 L2.043,6.398 Z M8.423,1.013 L8.509,1.036 C9.643,1.382 9.676,2.526 8.745,2.386 C8.745,2.749 8.745,3.186 8.671,3.624 C8.596,4.354 7.702,4.136 7.479,4.5 C7.257,4.865 7.926,5.229 8.671,5.083 C8.894,5.083 8.671,4.863 8.821,4.791 C9.118,4.719 9.49,4.719 9.788,4.791 C9.48461433,5.44668912 9.13611123,6.08054375 8.745,6.688 C8.595,6.906 8.745,7.344 8.745,7.635 C8.745,9.824 7.702,7.125 7.553,7.198 C7.404,7.344 6.735,7.052 6.437,7.052 C6.139,7.052 6.287,7.635 5.99,7.635 C5.394,7.635 5.543,7.489 5.543,7.707 C5.543,7.999 5.616,8.583 5.616,9.458 C5.616,9.75 6.212,9.386 6.584,9.386 C7.031,9.386 7.329,9.75 7.627,9.896 C8.147,10.116 8.669,10.845 9.041,10.916 C9.413,10.991 9.115,11.573 9.561,11.5 C9.784,11.428 10.082,11.574 10.231,11.792 C10.455,12.084 10.306,12.45 10.008,12.668 C9.562,13.105 9.413,13.615 9.19,14.636 C9.312,14.596 9.456,14.698 9.575,14.821 C11.8509887,14.2942739 13.7150209,12.6683548 14.546,10.485 C13.98,11.086 13.326,11.132 13.52,10.623 C13.296,10.186 12.998,9.82 12.626,9.456 C11.955,8.873 11.359,7.778 13.445,6.246 C13.122,5.424 13.922,4.656 14.43,5.232 C13.3852082,2.80429364 11.0621317,1.17202875 8.424,1.012 L8.423,1.013 Z" id="形状"></path>
            </g>
        </g>
    </g>
</svg>