<?xml version="1.0" encoding="UTF-8"?>
<svg width="104px" height="40px" viewBox="0 0 104 40" version="1.1" xmlns="http://www.w3.org/2000/svg" xmlns:xlink="http://www.w3.org/1999/xlink">
    <title>编组 4</title>
    <g id="页面-1" stroke="none" stroke-width="1" fill="none" fill-rule="evenodd">
        <g id="Elara中文" transform="translate(-50.000000, -30.000000)">
            <g id="编组-4" transform="translate(50.000000, 30.000000)">
                <rect id="矩形" x="0" y="0" width="104" height="40"></rect>
                <path d="M58.09,28 L58.09,25.558 L49.928,25.558 L49.928,21.862 L56.11,21.862 L56.11,19.53 L49.928,19.53 L49.928,15.922 L57.782,15.922 L57.782,13.48 L46.892,13.48 L46.892,28 L58.09,28 Z M63.5556787,28.22 C63.9223454,28.22 64.2926787,28.1796667 64.6666787,28.099 C65.0406787,28.0183333 65.3523454,27.9046667 65.6016787,27.758 L65.6016787,27.758 L65.8656787,25.778 C65.6163454,25.8513333 65.411012,25.9063333 65.2496787,25.943 C65.0883454,25.9796667 64.883012,25.998 64.6336787,25.998 C64.223012,25.998 63.9296787,25.8953333 63.7536787,25.69 C63.5776787,25.4846667 63.4896787,25.1253333 63.4896787,24.612 L63.4896787,24.612 L63.4896787,12.182 L60.4756787,12.182 L60.4756787,24.942 C60.4756787,26.086 60.7213454,26.9183333 61.2126787,27.439 C61.704012,27.9596667 62.485012,28.22 63.5556787,28.22 Z M70.7122825,28.22 C71.3136158,28.22 71.8966158,28.1173333 72.4612825,27.912 C73.0259491,27.7066667 73.5062825,27.4096667 73.9022825,27.021 C74.0012825,26.9238333 74.0906575,26.8213958 74.1704075,26.7136875 L74.222,26.638 L74.2798743,26.800551 C74.3038199,26.8593673 74.33016,26.9163129 74.3588947,26.9713878 L74.4522825,27.131 C74.6869491,27.4903333 75.0096158,27.758 75.4202825,27.934 C75.8309491,28.11 76.2929491,28.198 76.8062825,28.198 C77.3782825,28.198 77.8549491,28.1026667 78.2362825,27.912 L78.2362825,27.912 L78.4122825,26.042 C78.1922825,26.1153333 77.9576158,26.152 77.7082825,26.152 C77.1802825,26.152 76.9162825,25.8733333 76.9162825,25.316 L76.9162825,25.316 L76.9162825,20.85 C76.9162825,19.9406667 76.7146158,19.1853333 76.3112825,18.584 C75.9079491,17.9826667 75.3469491,17.5316667 74.6282825,17.231 C73.9096158,16.9303333 73.0662825,16.78 72.0982825,16.78 C70.6756158,16.78 69.5426158,17.0733333 68.6992825,17.66 C67.8559491,18.2466667 67.3096158,19.024 67.0602825,19.992 L67.0602825,19.992 L69.6342825,20.784 C69.8249491,20.1386667 70.1256158,19.6766667 70.5362825,19.398 C70.9469491,19.1193333 71.4236158,18.98 71.9662825,18.98 C72.5529491,18.98 73.0259491,19.156 73.3852825,19.508 C73.7446158,19.86 73.9242825,20.3513333 73.9242825,20.982 L73.9242825,20.982 L73.924,21.405 L70.1402825,22.17 C69.2558825,22.3416 68.5556225,22.64685 68.0395025,23.08575 L67.8742825,23.237 C67.3462825,23.7576667 67.0822825,24.4286667 67.0822825,25.25 C67.0822825,25.8953333 67.2289491,26.438 67.5222825,26.878 C67.8156158,27.318 68.2336158,27.6516667 68.7762825,27.879 C69.3189491,28.1063333 69.9642825,28.22 70.7122825,28.22 Z M71.4822825,26.086 C71.1009491,26.086 70.7746158,25.9906667 70.5032825,25.8 C70.2319491,25.6093333 70.0962825,25.3306667 70.0962825,24.964 C70.0962825,24.5826667 70.2246158,24.3076667 70.4812825,24.139 C70.7379491,23.9703333 71.1156158,23.8346667 71.6142825,23.732 L71.6142825,23.732 L73.924,23.27 L73.9242825,23.952 C73.9242825,24.2688 73.8820425,24.5480533 73.7975625,24.78976 L73.7262825,24.964 C73.5942825,25.2426667 73.4109491,25.4626667 73.1762825,25.624 C72.9416158,25.7853333 72.6776158,25.9026667 72.3842825,25.976 C72.0909491,26.0493333 71.7902825,26.086 71.4822825,26.086 Z M83.2962825,28 L83.2962825,22.302 C83.2962825,21.642 83.4282825,21.0956667 83.6922825,20.663 C83.9562825,20.2303333 84.2936158,19.9076667 84.7042825,19.695 C85.1149491,19.4823333 85.5402825,19.376 85.9802825,19.376 C86.3176158,19.376 86.5926158,19.3906667 86.8052825,19.42 C87.0179491,19.4493333 87.1976158,19.4933333 87.3442825,19.552 L87.3442825,19.552 L87.6962825,17.022 C87.5642825,16.9486667 87.3956158,16.89 87.1902825,16.846 C86.9849491,16.802 86.7576158,16.78 86.5082825,16.78 C85.6576158,16.78 84.9499491,16.9853333 84.3852825,17.396 C83.8206158,17.8066667 83.3916158,18.3933333 83.0982825,19.156 L83.0982825,19.156 L82.9002825,17 L80.2822825,17 L80.2822825,28 L83.2962825,28 Z M92.4192463,28.22 C93.0205797,28.22 93.6035797,28.1173333 94.1682463,27.912 C94.732913,27.7066667 95.2132463,27.4096667 95.6092463,27.021 C95.7082463,26.9238333 95.7976213,26.8213958 95.8773713,26.7136875 L95.929,26.638 L95.9868382,26.800551 C96.0107838,26.8593673 96.0371239,26.9163129 96.0658586,26.9713878 L96.1592463,27.131 C96.393913,27.4903333 96.7165797,27.758 97.1272463,27.934 C97.537913,28.11 97.999913,28.198 98.5132463,28.198 C99.0852463,28.198 99.561913,28.1026667 99.9432463,27.912 L99.9432463,27.912 L100.119246,26.042 C99.8992463,26.1153333 99.6645797,26.152 99.4152463,26.152 C98.8872463,26.152 98.6232463,25.8733333 98.6232463,25.316 L98.6232463,25.316 L98.6232463,20.85 C98.6232463,19.9406667 98.4215797,19.1853333 98.0182463,18.584 C97.614913,17.9826667 97.053913,17.5316667 96.3352463,17.231 C95.6165797,16.9303333 94.7732463,16.78 93.8052463,16.78 C92.3825797,16.78 91.2495797,17.0733333 90.4062463,17.66 C89.562913,18.2466667 89.0165797,19.024 88.7672463,19.992 L88.7672463,19.992 L91.3412463,20.784 C91.531913,20.1386667 91.8325797,19.6766667 92.2432463,19.398 C92.653913,19.1193333 93.1305797,18.98 93.6732463,18.98 C94.259913,18.98 94.732913,19.156 95.0922463,19.508 C95.4515797,19.86 95.6312463,20.3513333 95.6312463,20.982 L95.6312463,20.982 L95.631,21.405 L91.8472463,22.17 C90.9628463,22.3416 90.2625863,22.64685 89.7464663,23.08575 L89.5812463,23.237 C89.0532463,23.7576667 88.7892463,24.4286667 88.7892463,25.25 C88.7892463,25.8953333 88.935913,26.438 89.2292463,26.878 C89.5225797,27.318 89.9405797,27.6516667 90.4832463,27.879 C91.025913,28.1063333 91.6712463,28.22 92.4192463,28.22 Z M93.1892463,26.086 C92.807913,26.086 92.4815797,25.9906667 92.2102463,25.8 C91.938913,25.6093333 91.8032463,25.3306667 91.8032463,24.964 C91.8032463,24.5826667 91.9315797,24.3076667 92.1882463,24.139 C92.444913,23.9703333 92.8225797,23.8346667 93.3212463,23.732 L93.3212463,23.732 L95.631,23.27 L95.6312463,23.952 C95.6312463,24.2688 95.5890063,24.5480533 95.5045263,24.78976 L95.4332463,24.964 C95.3012463,25.2426667 95.117913,25.4626667 94.8832463,25.624 C94.6485797,25.7853333 94.3845797,25.9026667 94.0912463,25.976 C93.797913,26.0493333 93.4972463,26.086 93.1892463,26.086 Z" id="Elara" fill="#2A292B" fill-rule="nonzero"></path>
                <g id="Elara" transform="translate(0.000000, 1.000000)">
                    <rect id="矩形" x="0" y="0" width="38" height="38"></rect>
                    <g id="资源-8" transform="translate(0.475000, 1.900000)" fill-rule="nonzero">
                        <path d="M2.38728846,9.04209468 L13.5464195,2.59936739 C15.000429,1.75989457 16.8596639,2.25807503 17.6991367,3.71208461 L27.5687731,20.8067963 C28.4082459,22.2608058 27.9100654,24.1200407 26.4560558,24.9595135 L15.2969248,31.4022408 C13.8429153,32.2417136 11.9836804,31.7435331 11.1442076,30.2895236 L1.27457123,13.1948119 C0.43509841,11.7408023 0.933278889,9.8815675 2.38728846,9.04209468 Z" id="矩形" fill="#00D595"></path>
                        <path d="M13.3089195,2.18800533 L2.14978846,8.63073262 C0.468589891,9.60137306 -0.107431284,11.7511133 0.863209163,13.4323119 L10.7328455,30.5270236 C11.703486,32.2082221 13.8532263,32.7842433 15.5344248,31.8136029 L26.6935558,25.3708756 C28.3747544,24.4002351 28.9507756,22.2504948 27.9801351,20.5692963 L18.1104988,3.47458461 C17.1398583,1.79338604 14.990118,1.21736488 13.3089195,2.18800533 Z M2.62478846,9.45345675 L13.7839195,3.01072946 C15.0107401,2.30242427 16.5794694,2.72276403 17.2877746,3.94958461 L27.157411,21.0442963 C27.8657162,22.2711168 27.4453764,23.8398462 26.2185558,24.5481514 L15.0594248,30.9908787 C13.8326043,31.6991839 12.2638749,31.2788441 11.5555697,30.0520236 L1.6859333,12.9573119 C0.977628107,11.7304913 1.39796788,10.1617619 2.62478846,9.45345675 Z" id="形状" fill="#000072"></path>
                        <path d="M16.8367227,9.71901638 C17.0639537,9.58792156 17.3544342,9.66585535 17.485529,9.89308637 C17.6072599,10.1040866 17.548757,10.3696234 17.3578445,10.5114425 L17.3114591,10.5418927 L6.53327728,16.7600745 C6.30604626,16.8911693 6.01556578,16.8132355 5.88447096,16.5860045 C5.76274006,16.3750043 5.821243,16.1094675 6.01215552,15.9676484 L6.05854095,15.9371982 L16.8367227,9.71901638 Z" id="路径" fill="#000072"></path>
                        <path d="M19.0821773,13.6226527 C19.3094083,13.4915579 19.5998888,13.5694917 19.7309836,13.7967227 C19.8527145,14.007723 19.7942116,14.2732597 19.6032991,14.4150789 L19.5569136,14.445529 L8.77873181,20.6637109 C8.55150079,20.7948057 8.26102031,20.7168719 8.12992549,20.4896409 C8.00819459,20.2786406 8.06669754,20.0131039 8.25761005,19.8712847 L8.30399548,19.8408346 L19.0821773,13.6226527 Z" id="路径" fill="#000072"></path>
                        <path d="M21.3266445,17.4923149 C21.55356,17.3606748 21.8442268,17.4379108 21.975867,17.6648263 C22.0981042,17.8755336 22.0402391,18.1412101 21.8496677,18.2834873 L21.8033555,18.3140488 L11.0251737,24.5667761 C10.7982581,24.6984162 10.5075913,24.6211802 10.3759512,24.3942646 C10.253714,24.1835573 10.3115791,23.9178808 10.5021505,23.7756037 L10.5484627,23.7450422 L21.3266445,17.4923149 Z" id="路径" fill="#000072"></path>
                        <path d="M7.76933604,8.97581626 L21.1423429,1.25490717 C22.5963524,0.415434355 24.4555873,0.91361481 25.2950601,2.36762439 L35.9436965,20.8116036 C36.7831693,22.2656132 36.2849888,24.124848 34.8309792,24.9643209 L21.4579724,32.6852299 C20.0039628,33.5247028 18.144728,33.0265223 17.3052552,31.5725127 L6.6566188,13.1285335 C5.81714598,11.6745239 6.31532646,9.81528908 7.76933604,8.97581626 Z" id="矩形" fill="#FFFFFF"></path>
                        <path d="M20.9048429,0.843545108 L7.53183604,8.5644542 C5.85063747,9.53509465 5.27461629,11.6848349 6.24525674,13.3660335 L16.8938931,31.8100127 C17.8645336,33.4912113 20.0142738,34.0672325 21.6954724,33.096592 L35.0684792,25.3756829 C36.7496778,24.4050425 37.325699,22.2553022 36.3550585,20.5741036 L25.7064221,2.13012439 C24.7357817,0.448925816 22.5860414,-0.127095341 20.9048429,0.843545108 Z M8.00683604,9.38717833 L21.3798429,1.66626924 C22.6066634,0.957964047 24.1753928,1.37830381 24.883698,2.60512439 L35.5323344,21.0491036 C36.2406396,22.2759242 35.8202998,23.8446536 34.5934792,24.5529588 L21.2204724,32.2738679 C19.9936518,32.9821731 18.4249224,32.5618333 17.7166172,31.3350127 L7.06798087,12.8910335 C6.35967568,11.6642129 6.78001546,10.0954835 8.00683604,9.38717833 Z" id="形状" fill="#000072"></path>
                        <circle id="椭圆形" fill="#FF1E97" cx="32.4122727" cy="22.3595455" r="1.38181818"></circle>
                        <path d="M27.0577273,13.3777273 C26.1030242,11.0529945 23.8363085,9.53729909 21.3231818,9.54314781 L21.2540909,9.54314781 C18.7395443,9.57210985 16.4899566,11.1127366 15.5540909,13.4468182 C13.4056661,14.1176564 12.0680382,16.2556798 12.404442,18.4811203 C12.7408458,20.7065608 14.6506485,22.3536935 16.9013636,22.3595455 L25.9522727,22.3595455 C28.2520077,22.3552229 30.1886269,20.6390976 30.469552,18.3565812 C30.7504771,16.0740649 29.2877813,13.9395623 27.0577273,13.3777273 L27.0577273,13.3777273 Z M28.5777273,20.3904545 C27.9443496,21.0477929 27.0723613,21.4215022 26.1595455,21.4268182 L16.6940909,21.4268182 C14.9335697,21.4163221 13.4686553,20.0709926 13.3086364,18.3177273 C13.0967106,16.5993005 14.1896503,14.9894299 15.865,14.5522727 C16.1398813,14.523059 16.370892,14.332815 16.4522727,14.0686364 C17.1268828,11.9724088 19.0526877,10.5315189 21.2540909,10.4759091 L21.3231818,10.4759091 C23.5168878,10.4809339 25.4628995,11.8848424 26.1595455,13.965 C26.1563368,14.002824 26.1688296,14.0403023 26.1940909,14.0686364 C26.2791022,14.2903877 26.477269,14.4489211 26.7122727,14.4831818 C28.3879893,14.7720764 29.6042659,16.23747 29.5795455,17.9377273 C29.5887164,18.8566983 29.2276492,19.7406904 28.5777273,20.3904545 L28.5777273,20.3904545 Z" id="形状" stroke="#000072" stroke-width="0.6" fill="#000072"></path>
                        <path d="M24.4668182,16.2104545 C24.4668182,15.561771 23.9409563,15.0359091 23.2922727,15.0359091 L22.6013636,15.0359091 L22.6013636,14.5868182 C22.5826746,13.9516643 22.0622469,13.4465433 21.4268182,13.446818 L18.8704545,13.446818 C18.2162207,13.4655182 17.6956419,14.0014081 17.6959089,14.6559091 L17.6959089,17.1777273 C17.6959089,17.8264108 18.221771,18.3522727 18.8704545,18.3522727 L19.5613636,18.3522727 L19.5613636,18.8013636 C19.5613636,19.4500472 20.0872256,19.9759091 20.7359091,19.9759091 L23.2922727,19.9759091 C23.9409563,19.9759091 24.4668182,19.4500472 24.4668182,18.8013636 L24.4668182,16.2104545 Z M20.7704545,19.3195455 C20.4842706,19.3195455 20.2522727,19.0875475 20.2522727,18.8013636 L20.2522727,18.3522727 L21.4613636,18.3522727 C21.7789513,18.3524101 22.0830585,18.2239329 22.304349,17.9961339 C22.5256395,17.7683347 22.6452499,17.4606321 22.6359091,17.1431818 L22.6359091,16.4177273 C22.6388505,16.3257565 22.6009008,16.2372072 22.5322727,16.1759091 L22.2904545,16.1068182 L22.2904545,16.1068182 C22.1187442,16.1068182 21.9795455,16.2460169 21.9795455,16.4177273 L21.9795455,17.1431818 C21.9801168,17.4354474 21.7530584,17.677643 21.4613636,17.6959091 L18.905,17.6959091 C18.6188161,17.6959091 18.3868156,17.4639112 18.3868156,17.1777273 L18.3868156,14.6213636 C18.3862104,14.3481451 18.5978431,14.1213957 18.8704545,14.1031818 L21.4268182,14.1031818 C21.7130021,14.1031818 21.945,14.3351797 21.945,14.6213636 L21.945,15.0704545 L20.7359091,15.0704545 C20.0872256,15.0704545 19.5613636,15.5963164 19.5613636,16.245 L19.5613636,16.9704545 C19.5613636,17.1421649 19.7005624,17.2813636 19.8722727,17.2813636 L19.8722727,17.2813636 C20.0439831,17.2813636 20.1831818,17.1421649 20.1831818,16.9704545 L20.1831818,16.245 C20.1831818,15.9588161 20.4151797,15.7268182 20.7013636,15.7268182 L23.2577273,15.7268182 C23.5499928,15.7262468 23.7921885,15.9533052 23.8104545,16.245 L23.8104545,18.8013636 C23.8104545,19.0875475 23.5784566,19.3195455 23.2922727,19.3195455 L20.7704545,19.3195455 Z" id="形状" stroke="#000072" stroke-width="0.5" fill="#000072"></path>
                    </g>
                </g>
            </g>
        </g>
    </g>
</svg>