<?xml version="1.0" encoding="UTF-8"?>
<svg width="104px" height="40px" viewBox="0 0 104 40" version="1.1" xmlns="http://www.w3.org/2000/svg" xmlns:xlink="http://www.w3.org/1999/xlink">
    <title>logo 2</title>
    <g id="页面-1" stroke="none" stroke-width="1" fill="none" fill-rule="evenodd">
        <g id="Dashboard" transform="translate(-20.000000, -10.000000)">
            <g id="编组" transform="translate(20.000000, 10.000000)">
                <rect id="矩形" x="0" y="0" width="104" height="40"></rect>
                <path d="M58.09,28 L58.09,25.558 L49.928,25.558 L49.928,21.862 L56.11,21.862 L56.11,19.53 L49.928,19.53 L49.928,15.922 L57.782,15.922 L57.782,13.48 L46.892,13.48 L46.892,28 L58.09,28 Z M63.5556787,28.22 C63.9223454,28.22 64.2926787,28.1796667 64.6666787,28.099 C65.0406787,28.0183333 65.3523454,27.9046667 65.6016787,27.758 L65.6016787,27.758 L65.8656787,25.778 C65.6163454,25.8513333 65.411012,25.9063333 65.2496787,25.943 C65.0883454,25.9796667 64.883012,25.998 64.6336787,25.998 C64.223012,25.998 63.9296787,25.8953333 63.7536787,25.69 C63.5776787,25.4846667 63.4896787,25.1253333 63.4896787,24.612 L63.4896787,24.612 L63.4896787,12.182 L60.4756787,12.182 L60.4756787,24.942 C60.4756787,26.086 60.7213454,26.9183333 61.2126787,27.439 C61.704012,27.9596667 62.485012,28.22 63.5556787,28.22 Z M70.7122825,28.22 C71.3136158,28.22 71.8966158,28.1173333 72.4612825,27.912 C73.0259491,27.7066667 73.5062825,27.4096667 73.9022825,27.021 C74.0012825,26.9238333 74.0906575,26.8213958 74.1704075,26.7136875 L74.222,26.638 L74.2798743,26.800551 C74.3038199,26.8593673 74.33016,26.9163129 74.3588947,26.9713878 L74.4522825,27.131 C74.6869491,27.4903333 75.0096158,27.758 75.4202825,27.934 C75.8309491,28.11 76.2929491,28.198 76.8062825,28.198 C77.3782825,28.198 77.8549491,28.1026667 78.2362825,27.912 L78.2362825,27.912 L78.4122825,26.042 C78.1922825,26.1153333 77.9576158,26.152 77.7082825,26.152 C77.1802825,26.152 76.9162825,25.8733333 76.9162825,25.316 L76.9162825,25.316 L76.9162825,20.85 C76.9162825,19.9406667 76.7146158,19.1853333 76.3112825,18.584 C75.9079491,17.9826667 75.3469491,17.5316667 74.6282825,17.231 C73.9096158,16.9303333 73.0662825,16.78 72.0982825,16.78 C70.6756158,16.78 69.5426158,17.0733333 68.6992825,17.66 C67.8559491,18.2466667 67.3096158,19.024 67.0602825,19.992 L67.0602825,19.992 L69.6342825,20.784 C69.8249491,20.1386667 70.1256158,19.6766667 70.5362825,19.398 C70.9469491,19.1193333 71.4236158,18.98 71.9662825,18.98 C72.5529491,18.98 73.0259491,19.156 73.3852825,19.508 C73.7446158,19.86 73.9242825,20.3513333 73.9242825,20.982 L73.9242825,20.982 L73.924,21.405 L70.1402825,22.17 C69.2558825,22.3416 68.5556225,22.64685 68.0395025,23.08575 L67.8742825,23.237 C67.3462825,23.7576667 67.0822825,24.4286667 67.0822825,25.25 C67.0822825,25.8953333 67.2289491,26.438 67.5222825,26.878 C67.8156158,27.318 68.2336158,27.6516667 68.7762825,27.879 C69.3189491,28.1063333 69.9642825,28.22 70.7122825,28.22 Z M71.4822825,26.086 C71.1009491,26.086 70.7746158,25.9906667 70.5032825,25.8 C70.2319491,25.6093333 70.0962825,25.3306667 70.0962825,24.964 C70.0962825,24.5826667 70.2246158,24.3076667 70.4812825,24.139 C70.7379491,23.9703333 71.1156158,23.8346667 71.6142825,23.732 L71.6142825,23.732 L73.924,23.27 L73.9242825,23.952 C73.9242825,24.2688 73.8820425,24.5480533 73.7975625,24.78976 L73.7262825,24.964 C73.5942825,25.2426667 73.4109491,25.4626667 73.1762825,25.624 C72.9416158,25.7853333 72.6776158,25.9026667 72.3842825,25.976 C72.0909491,26.0493333 71.7902825,26.086 71.4822825,26.086 Z M83.2962825,28 L83.2962825,22.302 C83.2962825,21.642 83.4282825,21.0956667 83.6922825,20.663 C83.9562825,20.2303333 84.2936158,19.9076667 84.7042825,19.695 C85.1149491,19.4823333 85.5402825,19.376 85.9802825,19.376 C86.3176158,19.376 86.5926158,19.3906667 86.8052825,19.42 C87.0179491,19.4493333 87.1976158,19.4933333 87.3442825,19.552 L87.3442825,19.552 L87.6962825,17.022 C87.5642825,16.9486667 87.3956158,16.89 87.1902825,16.846 C86.9849491,16.802 86.7576158,16.78 86.5082825,16.78 C85.6576158,16.78 84.9499491,16.9853333 84.3852825,17.396 C83.8206158,17.8066667 83.3916158,18.3933333 83.0982825,19.156 L83.0982825,19.156 L82.9002825,17 L80.2822825,17 L80.2822825,28 L83.2962825,28 Z M92.4192463,28.22 C93.0205797,28.22 93.6035797,28.1173333 94.1682463,27.912 C94.732913,27.7066667 95.2132463,27.4096667 95.6092463,27.021 C95.7082463,26.9238333 95.7976213,26.8213958 95.8773713,26.7136875 L95.929,26.638 L95.9868382,26.800551 C96.0107838,26.8593673 96.0371239,26.9163129 96.0658586,26.9713878 L96.1592463,27.131 C96.393913,27.4903333 96.7165797,27.758 97.1272463,27.934 C97.537913,28.11 97.999913,28.198 98.5132463,28.198 C99.0852463,28.198 99.561913,28.1026667 99.9432463,27.912 L99.9432463,27.912 L100.119246,26.042 C99.8992463,26.1153333 99.6645797,26.152 99.4152463,26.152 C98.8872463,26.152 98.6232463,25.8733333 98.6232463,25.316 L98.6232463,25.316 L98.6232463,20.85 C98.6232463,19.9406667 98.4215797,19.1853333 98.0182463,18.584 C97.614913,17.9826667 97.053913,17.5316667 96.3352463,17.231 C95.6165797,16.9303333 94.7732463,16.78 93.8052463,16.78 C92.3825797,16.78 91.2495797,17.0733333 90.4062463,17.66 C89.562913,18.2466667 89.0165797,19.024 88.7672463,19.992 L88.7672463,19.992 L91.3412463,20.784 C91.531913,20.1386667 91.8325797,19.6766667 92.2432463,19.398 C92.653913,19.1193333 93.1305797,18.98 93.6732463,18.98 C94.259913,18.98 94.732913,19.156 95.0922463,19.508 C95.4515797,19.86 95.6312463,20.3513333 95.6312463,20.982 L95.6312463,20.982 L95.631,21.405 L91.8472463,22.17 C90.9628463,22.3416 90.2625863,22.64685 89.7464663,23.08575 L89.5812463,23.237 C89.0532463,23.7576667 88.7892463,24.4286667 88.7892463,25.25 C88.7892463,25.8953333 88.935913,26.438 89.2292463,26.878 C89.5225797,27.318 89.9405797,27.6516667 90.4832463,27.879 C91.025913,28.1063333 91.6712463,28.22 92.4192463,28.22 Z M93.1892463,26.086 C92.807913,26.086 92.4815797,25.9906667 92.2102463,25.8 C91.938913,25.6093333 91.8032463,25.3306667 91.8032463,24.964 C91.8032463,24.5826667 91.9315797,24.3076667 92.1882463,24.139 C92.444913,23.9703333 92.8225797,23.8346667 93.3212463,23.732 L93.3212463,23.732 L95.631,23.27 L95.6312463,23.952 C95.6312463,24.2688 95.5890063,24.5480533 95.5045263,24.78976 L95.4332463,24.964 C95.3012463,25.2426667 95.117913,25.4626667 94.8832463,25.624 C94.6485797,25.7853333 94.3845797,25.9026667 94.0912463,25.976 C93.797913,26.0493333 93.4972463,26.086 93.1892463,26.086 Z" id="Elara" fill="#3F3F3F" fill-rule="nonzero"></path>
                <g id="Elara">
                    <rect id="矩形" x="0" y="0" width="40" height="40"></rect>
                    <g id="编组-24" transform="translate(3.000000, 7.500000)" fill="#14B071" fill-rule="nonzero">
                        <g id="编组-23">
                            <path d="M17,0 C22.0674374,0 26.3693524,3.27759074 27.9014625,7.8284896 L27.9735744,8.05041503 L28.0043644,8.15147796 C28.0505161,8.30527726 28.1677251,8.42755324 28.3194346,8.48016895 L28.5104608,8.54881042 C31.7188415,9.76371566 34,12.8654613 34,16.5 L34,17 C34,21.6944204 30.1944204,25.5 25.5,25.5 L8.5,25.5 C3.80557963,25.5 0,21.6944204 0,17 L0,16.5 C0,12.9217706 2.21102278,9.85995326 5.3413847,8.60623158 L5.55486722,8.52424042 L5.68089118,8.47963836 C5.83263168,8.42703509 5.94987,8.3047476 5.99603205,8.15092515 L6.04222671,8.00081134 C7.52227714,3.36077112 11.8686635,0 17,0 Z M17,3 C13.2226126,3 9.933936,5.48649937 8.86226463,9.03503694 L8.81291531,9.20481198 L8.60935719,9.93331288 C8.46418244,10.4528694 8.0669693,10.8642911 7.55283373,11.027629 L6.83193381,11.2566547 C4.616263,11.9605605 3.06568113,13.9992112 3.00203521,16.349564 L3,16.5 L3,17 C3,19.9893508 5.38488179,22.4216826 8.35579626,22.4981463 L8.5,22.5 L25.5,22.5 C28.4893508,22.5 30.9216826,20.1151182 30.9981463,17.1442037 L31,17 L31,16.5 C31,14.1368923 29.4956497,12.0637724 27.3091741,11.303927 L27.1686934,11.2572196 L26.4477238,11.0282486 C25.9335427,10.8649509 25.5362756,10.4535303 25.3910708,9.93394971 L25.187469,9.2054093 C24.1704143,5.56612303 20.8373958,3 17,3 Z M18,7.5 C19.3807119,7.5 20.5,8.61928813 20.5,10 L20.5,10.5 L21,10.5 C22.3807119,10.5 23.5,11.6192881 23.5,13 L23.5,17.5 C23.5,18.8807119 22.3807119,20 21,20 L16.5,20 C15.1192881,20 14,18.8807119 14,17.5 L14,17 L13.5,17 C12.1192881,17 11,15.8807119 11,14.5 L11,10 C11,8.61928813 12.1192881,7.5 13.5,7.5 L18,7.5 Z M18.5,9.5 L13,9.5 L13,15 L18.5,15 L18.5,13 L20.5,13 L20.5,14.5 C20.5,15.8807119 19.3807119,17 18,17 L16,17 L16,18 L21.5,18 L21.5,12.5 L16,12.5 L16,14.5 L14,14.5 L14,13 C14,11.6192881 15.1192881,10.5 16.5,10.5 L18.5,10.5 L18.5,9.5 Z M30,1.5 C31.3807119,1.5 32.5,2.61928813 32.5,4 C32.5,5.38071187 31.3807119,6.5 30,6.5 C28.6192881,6.5 27.5,5.38071187 27.5,4 C27.5,2.61928813 28.6192881,1.5 30,1.5 Z" id="形状结合"></path>
                        </g>
                    </g>
                </g>
            </g>
        </g>
    </g>
</svg>