<?xml version="1.0" encoding="UTF-8"?>
<svg width="146px" height="56px" viewBox="0 0 146 56" version="1.1" xmlns="http://www.w3.org/2000/svg" xmlns:xlink="http://www.w3.org/1999/xlink">
    <title>-mockplus-</title>
    <g id="页面-1" stroke="none" stroke-width="1" fill="none" fill-rule="evenodd">
        <g id="Elara中文" transform="translate(-50.000000, -2498.000000)">
            <g id="-mockplus-" transform="translate(0.000000, 2176.000000)">
                <g id="logo" transform="translate(50.000000, 322.000000)">
                    <rect id="矩形" x="0" y="0" width="145.6" height="56"></rect>
                    <path d="M81.326,39.2 L81.326,35.7812 L69.8992,35.7812 L69.8992,30.6068 L78.554,30.6068 L78.554,27.342 L69.8992,27.342 L69.8992,22.2908 L80.8948,22.2908 L80.8948,18.872 L65.6488,18.872 L65.6488,39.2 L81.326,39.2 Z M88.9779502,39.508 C89.4912835,39.508 90.0097502,39.4515333 90.5333502,39.3386 C91.0569502,39.2256667 91.4932835,39.0665333 91.8423502,38.8612 L91.8423502,38.8612 L92.2119502,36.0892 C91.8628835,36.1918667 91.5754169,36.2688667 91.3495502,36.3202 C91.1236835,36.3715333 90.8362169,36.3972 90.4871502,36.3972 C89.9122169,36.3972 89.5015502,36.2534667 89.2551502,35.966 C89.0087502,35.6785333 88.8855502,35.1754667 88.8855502,34.4568 L88.8855502,34.4568 L88.8855502,17.0548 L84.6659502,17.0548 L84.6659502,34.9188 C84.6659502,36.5204 85.0098835,37.6856667 85.6977502,38.4146 C86.3856169,39.1435333 87.4790169,39.508 88.9779502,39.508 Z M98.9971955,39.508 C99.8390621,39.508 100.655262,39.3642667 101.445795,39.0768 C102.236329,38.7893333 102.908795,38.3735333 103.463195,37.8294 C103.601795,37.6933667 103.72692,37.5499542 103.83857,37.3991625 L103.9108,37.2932 L103.991824,37.5207714 C104.025348,37.6031143 104.062224,37.6828381 104.102453,37.7599429 L104.233195,37.9834 C104.561729,38.4864667 105.013462,38.8612 105.588395,39.1076 C106.163329,39.354 106.810129,39.4772 107.528795,39.4772 C108.329595,39.4772 108.996929,39.3437333 109.530795,39.0768 L109.530795,39.0768 L109.777195,36.4588 C109.469195,36.5614667 109.140662,36.6128 108.791595,36.6128 C108.052395,36.6128 107.682795,36.2226667 107.682795,35.4424 L107.682795,35.4424 L107.682795,29.19 C107.682795,27.9169333 107.400462,26.8594667 106.835795,26.0176 C106.271129,25.1757333 105.485729,24.5443333 104.479595,24.1234 C103.473462,23.7024667 102.292795,23.492 100.937595,23.492 C98.9458621,23.492 97.3596621,23.9026667 96.1789955,24.724 C94.9983288,25.5453333 94.2334621,26.6336 93.8843955,27.9888 L93.8843955,27.9888 L97.4879955,29.0976 C97.7549288,28.1941333 98.1758621,27.5473333 98.7507955,27.1572 C99.3257288,26.7670667 99.9930621,26.572 100.752795,26.572 C101.574129,26.572 102.236329,26.8184 102.739395,27.3112 C103.242462,27.804 103.493995,28.4918667 103.493995,29.3748 L103.493995,29.3748 L103.4936,29.967 L98.1963955,31.038 C96.9582355,31.27824 95.9778715,31.70559 95.2553035,32.32005 L95.0239955,32.5318 C94.2847955,33.2607333 93.9151955,34.2001333 93.9151955,35.35 C93.9151955,36.2534667 94.1205288,37.0132 94.5311955,37.6292 C94.9418621,38.2452 95.5270621,38.7123333 96.2867955,39.0306 C97.0465288,39.3488667 97.9499955,39.508 98.9971955,39.508 Z M100.075195,36.5204 C99.5413288,36.5204 99.0844621,36.3869333 98.7045955,36.12 C98.3247288,35.8530667 98.1347955,35.4629333 98.1347955,34.9496 C98.1347955,34.4157333 98.3144621,34.0307333 98.6737955,33.7946 C99.0331288,33.5584667 99.5618621,33.3685333 100.259995,33.2248 L100.259995,33.2248 L103.4936,32.578 L103.493995,33.5328 C103.493995,33.97632 103.434859,34.3672747 103.316587,34.705664 L103.216795,34.9496 C103.031995,35.3397333 102.775329,35.6477333 102.446795,35.8736 C102.118262,36.0994667 101.748662,36.2637333 101.337995,36.3664 C100.927329,36.4690667 100.506395,36.5204 100.075195,36.5204 Z M116.614795,39.2 L116.614795,31.2228 C116.614795,30.2988 116.799595,29.5339333 117.169195,28.9282 C117.538795,28.3224667 118.011062,27.8707333 118.585995,27.573 C119.160929,27.2752667 119.756395,27.1264 120.372395,27.1264 C120.844662,27.1264 121.229662,27.1469333 121.527395,27.188 C121.825129,27.2290667 122.076662,27.2906667 122.281995,27.3728 L122.281995,27.3728 L122.774795,23.8308 C122.589995,23.7281333 122.353862,23.646 122.066395,23.5844 C121.778929,23.5228 121.460662,23.492 121.111595,23.492 C119.920662,23.492 118.929929,23.7794667 118.139395,24.3544 C117.348862,24.9293333 116.748262,25.7506667 116.337595,26.8184 L116.337595,26.8184 L116.060395,23.8 L112.395195,23.8 L112.395195,39.2 L116.614795,39.2 Z M129.386945,39.508 C130.228812,39.508 131.045012,39.3642667 131.835545,39.0768 C132.626078,38.7893333 133.298545,38.3735333 133.852945,37.8294 C133.991545,37.6933667 134.11667,37.5499542 134.22832,37.3991625 L134.3006,37.2932 L134.381573,37.5207714 C134.415097,37.6031143 134.451973,37.6828381 134.492202,37.7599429 L134.622945,37.9834 C134.951478,38.4864667 135.403212,38.8612 135.978145,39.1076 C136.553078,39.354 137.199878,39.4772 137.918545,39.4772 C138.719345,39.4772 139.386678,39.3437333 139.920545,39.0768 L139.920545,39.0768 L140.166945,36.4588 C139.858945,36.5614667 139.530412,36.6128 139.181345,36.6128 C138.442145,36.6128 138.072545,36.2226667 138.072545,35.4424 L138.072545,35.4424 L138.072545,29.19 C138.072545,27.9169333 137.790212,26.8594667 137.225545,26.0176 C136.660878,25.1757333 135.875478,24.5443333 134.869345,24.1234 C133.863212,23.7024667 132.682545,23.492 131.327345,23.492 C129.335612,23.492 127.749412,23.9026667 126.568745,24.724 C125.388078,25.5453333 124.623212,26.6336 124.274145,27.9888 L124.274145,27.9888 L127.877745,29.0976 C128.144678,28.1941333 128.565612,27.5473333 129.140545,27.1572 C129.715478,26.7670667 130.382812,26.572 131.142545,26.572 C131.963878,26.572 132.626078,26.8184 133.129145,27.3112 C133.632212,27.804 133.883745,28.4918667 133.883745,29.3748 L133.883745,29.3748 L133.8834,29.967 L128.586145,31.038 C127.347985,31.27824 126.367621,31.70559 125.645053,32.32005 L125.413745,32.5318 C124.674545,33.2607333 124.304945,34.2001333 124.304945,35.35 C124.304945,36.2534667 124.510278,37.0132 124.920945,37.6292 C125.331612,38.2452 125.916812,38.7123333 126.676545,39.0306 C127.436278,39.3488667 128.339745,39.508 129.386945,39.508 Z M130.464945,36.5204 C129.931078,36.5204 129.474212,36.3869333 129.094345,36.12 C128.714478,35.8530667 128.524545,35.4629333 128.524545,34.9496 C128.524545,34.4157333 128.704212,34.0307333 129.063545,33.7946 C129.422878,33.5584667 129.951612,33.3685333 130.649745,33.2248 L130.649745,33.2248 L133.8834,32.578 L133.883745,33.5328 C133.883745,33.97632 133.824609,34.3672747 133.706337,34.705664 L133.606545,34.9496 C133.421745,35.3397333 133.165078,35.6477333 132.836545,35.8736 C132.508012,36.0994667 132.138412,36.2637333 131.727745,36.3664 C131.317078,36.4690667 130.896145,36.5204 130.464945,36.5204 Z" id="Elara" fill="#3F3F3F" fill-rule="nonzero"></path>
                    <g id="Elara">
                        <rect id="矩形" x="0" y="0" width="56" height="56"></rect>
                        <g id="编组-24" transform="translate(4.200000, 10.500000)" fill="#14B071" fill-rule="nonzero">
                            <g id="编组-23">
                                <path d="M23.8,0 C30.8944123,0 36.9170934,4.58862703 39.0620475,10.9598854 L39.1630041,11.270581 L39.2061101,11.4120691 C39.2707226,11.6273882 39.4348151,11.7985745 39.6472085,11.8722365 L39.9146452,11.9683346 C44.4063781,13.6692019 47.6,18.0116458 47.6,23.1 L47.6,23.8 C47.6,30.3721885 42.2721885,35.7 35.7,35.7 L11.9,35.7 C5.32781148,35.7 0,30.3721885 0,23.8 L0,23.1 C0,18.0904789 3.09543189,13.8039346 7.47793858,12.0487242 L7.77681411,11.9339366 L7.95324766,11.8714937 C8.16568436,11.7978491 8.329818,11.6266466 8.39444488,11.4112952 L8.4591174,11.2011359 C10.531188,4.70507957 16.6161289,0 23.8,0 Z M23.8,4.2 C18.5116577,4.2 13.9075104,7.68109911 12.4071705,12.6490517 L12.3380814,12.8867368 L12.0531001,13.906638 C11.8498554,14.6340171 11.293757,15.2100076 10.5739672,15.4386806 L9.56470733,15.7593166 C6.46276821,16.7447847 4.29195358,19.5988957 4.20284929,22.8893896 L4.2,23.1 L4.2,23.8 C4.2,27.9850911 7.5388345,31.3903556 11.6981148,31.4974048 L11.9,31.5 L35.7,31.5 C39.8850911,31.5 43.2903556,28.1611655 43.3974048,24.0018852 L43.4,23.8 L43.4,23.1 C43.4,19.7916492 41.2939096,16.8892813 38.2328438,15.8254978 L38.0361707,15.7601075 L37.0268134,15.439548 C36.3069597,15.2109313 35.7507858,14.6349424 35.5474991,13.9075296 L35.2624565,12.887573 C33.8385801,7.79257225 29.1723542,4.2 23.8,4.2 Z M25.2,10.5 C27.1329966,10.5 28.7,12.0670034 28.7,14 L28.7,14.7 L29.4,14.7 C31.3329966,14.7 32.9,16.2670034 32.9,18.2 L32.9,24.5 C32.9,26.4329966 31.3329966,28 29.4,28 L23.1,28 C21.1670034,28 19.6,26.4329966 19.6,24.5 L19.6,23.8 L18.9,23.8 C16.9670034,23.8 15.4,22.2329966 15.4,20.3 L15.4,14 C15.4,12.0670034 16.9670034,10.5 18.9,10.5 L25.2,10.5 Z M25.9,13.3 L18.2,13.3 L18.2,21 L25.9,21 L25.9,18.2 L28.7,18.2 L28.7,20.3 C28.7,22.2329966 27.1329966,23.8 25.2,23.8 L22.4,23.8 L22.4,25.2 L30.1,25.2 L30.1,17.5 L22.4,17.5 L22.4,20.3 L19.6,20.3 L19.6,18.2 C19.6,16.2670034 21.1670034,14.7 23.1,14.7 L25.9,14.7 L25.9,13.3 Z M42,2.1 C43.9329966,2.1 45.5,3.66700338 45.5,5.6 C45.5,7.53299662 43.9329966,9.1 42,9.1 C40.0670034,9.1 38.5,7.53299662 38.5,5.6 C38.5,3.66700338 40.0670034,2.1 42,2.1 Z" id="形状结合"></path>
                            </g>
                        </g>
                    </g>
                </g>
            </g>
        </g>
    </g>
</svg>