<?xml version="1.0" encoding="UTF-8"?>
<svg width="38px" height="38px" viewBox="0 0 38 38" version="1.1" xmlns="http://www.w3.org/2000/svg" xmlns:xlink="http://www.w3.org/1999/xlink">
    <title>Elara</title>
    <g id="页面-1" stroke="none" stroke-width="1" fill="none" fill-rule="evenodd">
        <g id="ElaraEN" transform="translate(-30.000000, -21.000000)">
            <g id="-mockplus-" transform="translate(30.000000, 20.000000)">
                <g id="Elara" transform="translate(0.000000, 1.000000)">
                    <rect id="矩形" x="0" y="0" width="38" height="38"></rect>
                    <g id="资源-8" transform="translate(3.000000, 7.000000)" fill="#14B071">
                        <path d="M15.8192042,3.00009713e-05 C20.171009,-0.010067628 24.1098678,2.52956797 25.9077063,6.4634573 L25.9789061,6.62657682 L26.0966194,6.66019267 C29.7015765,7.74340527 32.1112609,11.120593 31.9960406,14.8514325 L31.97506,15.2385633 L31.9372967,15.6151588 C31.4418262,19.6408572 28.11468,22.697877 24.0986428,22.8866238 L23.7201865,22.8958577 L8.27299579,22.8958577 C4.17933509,22.8852123 0.705735052,19.8893634 0.0938748853,15.841673 C-0.498864656,11.9204728 1.76584437,8.14848714 5.4605699,6.80727957 L5.59241932,6.76139454 L5.6751219,6.57055475 C7.32098913,2.89914629 10.8197787,0.412124633 14.8038181,0.0461301418 L15.2484166,0.0142401803 L15.696592,3.00009713e-05 L15.8192042,3.00009713e-05 Z M15.715417,2.61563453 C12.1761045,2.7050413 9.07988615,5.02163633 7.99720614,8.38573536 C7.79802213,9.03232751 7.23261035,9.49796071 6.63497877,9.55574315 C4.02419296,10.2369883 2.32100756,12.7457344 2.65299288,15.4397799 C2.89289239,18.0682654 5.01662852,20.1078268 7.61836341,20.2698834 L7.92060489,20.2801854 L24.070927,20.2801854 C25.4906552,20.2719173 26.8468831,19.6906768 27.8386942,18.6614743 C28.8505288,17.6498853 29.4126584,16.2736371 29.3984092,14.8303801 C29.4353915,12.2867635 27.6900811,10.0804531 25.251645,9.51155691 L24.9433092,9.44906714 C24.4238868,9.37334152 23.9768376,9.05345906 23.7354431,8.59604501 L23.6835918,8.48330691 L23.6613961,8.45217921 C23.6276753,8.39381313 23.6020729,8.33127134 23.5851767,8.26631733 L23.5658396,8.15906177 L23.460933,7.86691512 C22.2905528,4.8374268 19.4391957,2.78037629 16.1951995,2.62520738 L15.715417,2.61563453 Z M16.7934502,6.74720783 C18.0312896,6.74667298 19.0582804,7.67275436 19.2072233,8.88818843 L19.2246976,9.11931758 L19.2237853,9.4577489 L19.9771324,9.45907689 C21.1618139,9.45907689 22.148577,10.3064657 22.3643596,11.4281812 L22.3970666,11.6560121 L22.4081953,11.8901397 L22.4081953,16.3116644 C22.4081953,17.5753246 21.4440551,18.6137978 20.21126,18.7315986 L19.9771324,18.7427273 L15.6145615,18.7427273 C14.3509013,18.7427273 13.3124281,17.7785871 13.1946273,16.545792 L13.1834986,16.3116644 L13.1825863,15.9716632 L12.4310636,15.9719051 C11.2463822,15.9719051 10.2596188,15.1245162 10.0438361,14.0028008 L10.0111291,13.7749699 L10.0000002,13.5408423 L10.0000002,9.23739899 C9.99948292,7.96879923 10.9491205,6.91657626 12.1841281,6.76506772 L12.4188738,6.74738219 L16.7934502,6.74720783 Z M18.9234319,11.490254 L18.9643593,11.5129937 C19.1333919,11.6639726 19.2419754,11.8686477 19.2741225,12.0824731 L19.2836512,12.2438617 L19.2834667,13.4693404 C19.3028002,14.1263959 19.0552318,14.7632759 18.5972067,15.2347723 C18.1964349,15.6473316 17.6644248,15.9024972 17.0974417,15.9596518 L16.8525884,15.9719051 L15.2150914,15.9716632 L15.2158485,16.3116644 C15.2158485,16.5283178 15.3663904,16.7098102 15.5685763,16.7572437 L15.6735151,16.769331 L19.9771324,16.769331 C20.1937858,16.769331 20.3752782,16.6187891 20.4227117,16.4166032 L20.434799,16.3116644 L20.4356331,11.9757575 C20.4185602,11.7031177 20.1921861,11.490892 19.9181788,11.4914268 L18.9234319,11.490254 Z M17.7049528,11.490254 L15.5556078,11.4914268 C15.3389544,11.4914268 15.157462,11.6419687 15.1100285,11.8441546 L15.0979412,11.9490934 L15.0979412,13.1871203 C15.0979412,13.5043155 14.9436586,13.7854762 14.6954974,13.9590481 L14.6280371,13.9971809 L16.8259243,13.999343 C17.0596155,13.9847091 17.2489209,13.8163028 17.2979022,13.5959327 L17.3102549,13.4818886 L17.3102549,12.2438617 C17.3102549,11.9795324 17.4173956,11.740227 17.6052694,11.569056 L17.7049528,11.490254 Z M12.4595051,8.7196556 C12.2531265,8.73344433 12.0863154,8.88255124 12.0432041,9.07743134 L12.0323463,9.17827127 L12.0323463,13.5408423 C12.0323463,13.7574944 12.1828904,13.9389878 12.3850778,13.9864215 L12.4900173,13.9985089 L13.634823,13.9971809 C13.4016599,13.8507793 13.2439548,13.6186543 13.1975906,13.3513167 L13.1834986,13.1871203 L13.1834986,11.9490934 C13.1834986,10.6854332 14.1476388,9.64696001 15.3804339,9.52915922 L15.6145615,9.5180305 L17.2510096,9.51747827 L17.2513013,9.17827127 C17.2513013,8.96161785 17.1007593,8.78012545 16.8985734,8.73269197 L16.7936347,8.72060467 L12.4595051,8.7196556 Z" id="形状结合" fill-rule="nonzero"></path>
                        <circle id="椭圆形" cx="29" cy="3" r="3"></circle>
                    </g>
                </g>
            </g>
        </g>
    </g>
</svg>