<?xml version="1.0" encoding="UTF-8"?>
<svg width="24px" height="24px" viewBox="0 0 24 24" version="1.1" xmlns="http://www.w3.org/2000/svg" xmlns:xlink="http://www.w3.org/1999/xlink">
    <title>Mandala</title>
    <defs>
        <linearGradient x1="27.5324675%" y1="23.6757554%" x2="55.5380334%" y2="101.284926%" id="linearGradient-1">
            <stop stop-color="#FF9373" offset="39%"></stop>
            <stop stop-color="#FE8F73" offset="51%"></stop>
            <stop stop-color="#FB8373" offset="62%"></stop>
            <stop stop-color="#F77073" offset="73%"></stop>
            <stop stop-color="#F15472" offset="83%"></stop>
            <stop stop-color="#E93172" offset="94%"></stop>
            <stop stop-color="#E41A72" offset="100%"></stop>
        </linearGradient>
        <linearGradient x1="100.02885%" y1="49.9879295%" x2="8.647674%" y2="49.9879295%" id="linearGradient-2">
            <stop stop-color="#FF9373" offset="9%"></stop>
            <stop stop-color="#FD8A73" offset="15%"></stop>
            <stop stop-color="#F04E72" offset="55%"></stop>
            <stop stop-color="#E72872" offset="85%"></stop>
            <stop stop-color="#E41A72" offset="100%"></stop>
        </linearGradient>
        <linearGradient x1="89.1975677%" y1="49.9959778%" x2="28.4010969%" y2="49.9959778%" id="linearGradient-3">
            <stop stop-color="#FF9373" offset="0%"></stop>
            <stop stop-color="#E41A72" offset="100%"></stop>
        </linearGradient>
    </defs>
    <g id="页面-1" stroke="none" stroke-width="1" fill="none" fill-rule="evenodd">
        <g id="Project_Requests" transform="translate(-76.000000, -876.000000)" fill-rule="nonzero">
            <g id="Mandala" transform="translate(76.000000, 876.000000)">
                <circle id="Oval" fill="#FFFFFF" cx="12" cy="12" r="12"></circle>
                <g id="logo.98c8c4e9" transform="translate(2.500000, 3.400000)">
                    <path d="M12.7312314,11.8487038 C11.8595705,11.5945114 10.9556865,11.4679158 10.0477316,11.4728598 C8.55780951,11.4693275 7.08977313,11.8313815 5.77234675,12.5272752 L6.62537132,11.0829058 L7.38219011,9.80016204 L9.42560087,6.31623008 L11.3497165,9.52308938 L8.18133945,4.23305429 L4.7705239,10.0477316 L1.35970834,15.9483527 L3.82642451,15.9483527 C5.36916976,14.5803809 7.35356927,13.814768 9.41533891,13.7920605 C11.6755334,13.7830813 13.7189441,14.6040373 15.1876857,15.9457872 L12.7312314,11.8487038 Z" id="Path" fill="url(#linearGradient-1)"></path>
                    <path d="M8.24162841,0.00897920605 L4.12017283,6.99351877 L0,13.9819066 L0.679854172,14.9234405 L1.35970834,15.9496354 L4.7705239,10.0490143 L8.18133945,4.23305429 L11.3433027,9.52565489 C10.8921239,9.46593432 10.4374229,9.43679231 9.98231164,9.43842831 C9.10357275,9.44070823 8.22909552,9.56064147 7.38219011,9.79503107 L6.62537132,11.0777748 L5.77234675,12.5272752 C7.08823902,11.8321961 8.55441373,11.4701668 10.0426006,11.4728598 C10.9505556,11.4679158 11.8544395,11.5945114 12.7261005,11.8487038 L15.1774237,15.9457872 L17.7852417,15.9457872 L8.24162841,0.00897920605 Z" id="Path" fill="url(#linearGradient-2)"></path>
                    <polygon id="Path" fill="url(#linearGradient-3)" points="8.24162841 0.00897920605 17.7903727 15.9457872 19 13.9062247 10.6390764 0"></polygon>
                </g>
            </g>
        </g>
    </g>
</svg>