<?xml version="1.0" encoding="UTF-8"?>
<svg width="24px" height="24px" viewBox="0 0 24 24" version="1.1" xmlns="http://www.w3.org/2000/svg" xmlns:xlink="http://www.w3.org/1999/xlink">
    <title>Moonriver</title>
    <g id="页面-1" stroke="none" stroke-width="1" fill="none" fill-rule="evenodd">
        <g id="Project_Requests" transform="translate(-76.000000, -1196.000000)">
            <g id="Moonriver" transform="translate(76.000000, 1196.000000)">
                <circle id="椭圆形" fill="#0E132E" cx="12" cy="12" r="12"></circle>
                <rect id="矩形" fill="#53CBC8" x="5.568" y="13.056" width="1" height="3.84" rx="0.5"></rect>
                <rect id="矩形备份-12" fill="#53CBC8" x="7.232" y="12.16" width="1" height="4.992" rx="0.5"></rect>
                <rect id="矩形备份-14" fill="#53CBC8" x="10.56" y="12.8" width="1" height="3.776" rx="0.5"></rect>
                <rect id="矩形备份-15" fill="#53CBC8" x="12.224" y="13.76" width="1" height="1.664" rx="0.5"></rect>
                <rect id="矩形备份-16" fill="#53CBC8" x="13.888" y="14.4" width="1" height="5.056" rx="0.5"></rect>
                <rect id="矩形备份-17" fill="#53CBC8" x="15.552" y="14.592" width="1" height="4.352" rx="0.5"></rect>
                <rect id="矩形备份-18" fill="#53CBC8" x="17.216" y="14.144" width="1" height="2.432" rx="0.5"></rect>
                <rect id="矩形备份-13" fill="#53CBC8" x="8.896" y="12.096" width="1" height="8.96" rx="0.5"></rect>
                <path d="M12.2237218,10.0479514 C11.3380262,9.3657123 10.2283927,8.96 9.024,8.96 C7.58188115,8.96 6.27562093,9.54167991 5.32704151,10.4832175 C5.23324858,10.0329286 5.184,9.56621561 5.184,9.088 C5.184,5.32362715 8.23562715,2.272 12,2.272 C12.0752875,2.272 12.1502898,2.27322065 12.2249884,2.27564324 L12.3278797,2.27978328 C15.9400117,2.45084947 18.816,5.43356321 18.816,9.088 C18.816,9.61691528 18.7557554,10.1317597 18.6417537,10.6260455 C17.8243312,11.1512989 16.851749,11.456 15.808,11.456 C14.582286,11.456 13.4547159,11.0357959 12.5614872,10.3315853 C12.4676153,10.2456856 12.3705332,10.1632696 12.2705128,10.0844147 L12.2237218,10.0479514 Z" id="路径" fill="#F2B705"></path>
                <path d="M5.36289884,11.7339966 C7.4577028,10.0513291 10.4306309,10.0303351 12.5476455,11.6734626 L12.6115337,11.7237637 L12.9225219,11.9721261 C14.5289285,13.2550396 16.8132466,13.2414616 18.4042889,11.9395425 C18.5957749,11.7828532 18.8780268,11.8110615 19.0347161,12.0025475 C19.1914054,12.1940335 19.1631971,12.4762853 18.9717111,12.6329746 C17.072873,14.1867571 14.354915,14.2183376 12.4217229,12.7181827 L12.3633832,12.6722546 L12.0523949,12.4238921 C10.2773263,11.0062812 7.76381405,10.9956284 5.97790632,12.389864 L5.92401213,12.4325436 L5.58946215,12.7012735 C5.39656373,12.8562206 5.11457918,12.8254551 4.95963202,12.6325566 C4.80812813,12.4439449 4.83417479,12.1701623 5.01572942,12.0132422 L5.02834886,12.0027265 L5.36289884,11.7339966 Z" id="路径-10" fill="#53CBC8" fill-rule="nonzero"></path>
            </g>
        </g>
    </g>
</svg>