<?xml version="1.0" encoding="UTF-8"?>
<svg width="16px" height="16px" viewBox="0 0 16 16" version="1.1" xmlns="http://www.w3.org/2000/svg" xmlns:xlink="http://www.w3.org/1999/xlink">
    <title>编组 17</title>
    <g id="页面-1" stroke="none" stroke-width="1" fill="none" fill-rule="evenodd">
        <g id="Project_Settings" transform="translate(-787.000000, -134.000000)">
            <g id="编组-21" transform="translate(492.000000, 130.000000)">
                <g id="编组-20" transform="translate(10.000000, 4.000000)">
                    <g id="编组-17" transform="translate(285.000000, 0.000000)">
                        <rect id="矩形" x="0" y="0" width="16" height="16"></rect>
                        <path d="M5.5,10.5 L5.5,13.5 L2.5,13.5 L2.5,10.5 L5.5,10.5 Z M9.5,10.5 L9.5,13.5 L6.5,13.5 L6.5,10.5 L9.5,10.5 Z M13.5,10.5 L13.5,13.5 L10.5,13.5 L10.5,10.5 L13.5,10.5 Z M9.5,6.5 L9.5,9.5 L6.5,9.5 L6.5,6.5 L9.5,6.5 Z M13.5,6.5 L13.5,9.5 L10.5,9.5 L10.5,6.5 L13.5,6.5 Z M13.5,2.5 L13.5,5.5 L10.5,5.5 L10.5,2.5 L13.5,2.5 Z" id="形状结合" fill="#14B071"></path>
                    </g>
                </g>
            </g>
        </g>
    </g>
</svg>