<?xml version="1.0" encoding="UTF-8"?>
<svg width="24px" height="24px" viewBox="0 0 24 24" version="1.1" xmlns="http://www.w3.org/2000/svg" xmlns:xlink="http://www.w3.org/1999/xlink">
    <title>Nodle</title>
    <g id="页面-1" stroke="none" stroke-width="1" fill="none" fill-rule="evenodd">
        <g id="Project_Requests" transform="translate(-76.000000, -468.000000)" fill-rule="nonzero">
            <g id="Nodle" transform="translate(76.000000, 468.000000)">
                <circle id="椭圆形" fill="#FFFFFF" cx="12" cy="12" r="12"></circle>
                <g id="编组" transform="translate(3.289793, 4.824742)" fill="#000000">
                    <polygon id="路径" points="8.09165065 7.52164948 9.22979498 7.52164948 9.22979498 6.80412371 8.11639292 6.77938144"></polygon>
                    <path d="M16.0091764,1.60824742 C14.9700012,0.544329897 13.4359805,0 11.5555682,0 C10.3184548,0 9.600929,0.371134021 8.9823723,1.08865979 C8.3638156,1.83092784 8.21536199,2.79587629 8.21536199,3.46391753 L8.19061972,5.39381443 L9.25453725,5.4185567 L9.27927951,3.48865979 C9.27927951,2.99381443 9.45247539,2.52371134 9.72464034,2.15257732 C10.0215476,1.7814433 10.4174238,1.58350515 10.8627847,1.58350515 L10.8875269,1.58350515 C11.4071146,1.58350515 11.8029909,1.70721649 12.0504135,1.92989691 C12.3473208,2.15257732 12.4957744,2.52371134 12.4710321,2.99381443 C12.4710321,3.46391753 12.2730939,3.90927835 11.9267022,4.23092784 C11.5803104,4.57731959 11.1349496,4.75051546 10.6401043,4.7257732 L9.600929,4.70103093 L9.600929,5.36907216 L10.6401043,5.39381443 C10.6648465,5.39381443 10.6648465,5.39381443 10.6895888,5.39381443 C12.0256713,5.39381443 13.1143311,4.32989691 13.1390733,2.99381443 C13.1390733,2.67216495 13.0895888,2.35051546 12.9658775,2.05360825 L12.9163929,1.97938144 L12.9906197,2.07835052 C13.3370115,2.49896907 13.5102073,3.04329897 13.5102073,3.58762887 C13.4854651,4.82474227 12.4710321,5.83917526 11.1844342,5.83917526 C11.1596919,5.83917526 11.1596919,5.83917526 11.1349496,5.83917526 L9.20505271,5.81443299 L8.11639292,5.78969072 L5.12257848,5.74020619 C5.09783621,5.74020619 5.07309395,5.74020619 5.04835168,5.74020619 C4.00917642,5.74020619 3.0194857,6.13608247 2.25247539,6.85360825 C1.46072281,7.59587629 1.04010426,8.58556701 1.04010426,9.69896907 C1.04010426,10.3175258 1.13907333,10.9113402 1.43598054,11.4804124 L1.41123828,11.5051546 C0.916392916,10.8371134 0.668970235,10.0206186 0.693712503,9.15463918 C0.718454771,8.11546392 1.13907333,7.15051546 1.88134137,6.43298969 C2.62360941,5.71546392 3.58855786,5.31958763 4.62773312,5.3443299 L7.77000116,5.39381443 L7.77000116,4.7257732 L4.62773312,4.67628866 C4.60299085,4.67628866 4.57824859,4.67628866 4.55350632,4.67628866 C3.36587745,4.67628866 2.25247539,5.12164948 1.41123828,5.9628866 C0.520516627,6.80412371 0.0256712662,7.94226804 0.00092899812,9.15463918 C-0.0238132699,10.6639175 0.446289823,12 1.33701147,12.8907216 C2.30195993,13.8804124 3.7122692,14.3752577 5.51845477,14.3752577 C6.73082591,14.3752577 7.67103209,14.0041237 8.33907333,13.2618557 C8.83391869,12.6680412 9.13082591,11.8268041 9.15556817,10.9113402 L9.18031044,8.9814433 L8.11639292,8.95670103 L8.09165065,10.8865979 C8.09165065,11.3814433 7.91845477,11.8515464 7.64628982,12.2226804 C7.32464034,12.6185567 6.95350632,12.7917526 6.48340322,12.7917526 C5.9638156,12.7917526 5.56793931,12.6680412 5.32051663,12.4453608 C5.02360941,12.2226804 4.8751558,11.8515464 4.89989807,11.3814433 C4.92464034,10.4164948 5.71639292,9.64948454 6.68134137,9.64948454 L6.70608364,9.64948454 L7.72051663,9.64948454 L7.72051663,8.9814433 L6.68134137,8.95670103 C6.6565991,8.95670103 6.6565991,8.95670103 6.63185683,8.95670103 C5.29577436,8.95670103 4.20711457,10.0206186 4.1823723,11.356701 C4.1823723,11.6783505 4.23185683,12 4.35556817,12.2969072 L4.40505271,12.3958763 L4.33082591,12.2969072 C3.98443415,11.8762887 3.81123828,11.3319588 3.81123828,10.7876289 C3.83598054,9.55051546 4.85041353,8.53608247 6.13701147,8.53608247 C6.16175374,8.53608247 6.16175374,8.53608247 6.18649601,8.53608247 L8.11639292,8.56082474 L9.20505271,8.58556701 L12.1988671,8.63505155 C12.2236094,8.63505155 12.2483517,8.63505155 12.2730939,8.63505155 C14.4504135,8.63505155 16.2565991,6.85360825 16.3060836,4.67628866 C16.3060836,4.05773196 16.2071146,3.46391753 15.9102073,2.89484536 L15.9349496,2.87010309 C16.429795,3.53814433 16.6772177,4.35463918 16.6524754,5.22061856 C16.6277331,6.25979381 16.2071146,7.22474227 15.4648465,7.94226804 C14.7225785,8.65979381 13.7328878,9.0556701 12.7184548,9.03092784 L9.57618673,8.9814433 L9.57618673,9.64948454 L12.7184548,9.69896907 C12.743197,9.69896907 12.7679393,9.69896907 12.7926816,9.69896907 C13.9803104,9.69896907 15.1926816,9.22886598 16.1081455,8.41237113 C17.0978362,7.54639175 17.3947434,6.40824742 17.4194857,5.22061856 C17.4194857,3.83505155 16.9246403,2.52371134 16.0091764,1.60824742 Z M12.2483517,7.94226804 C12.2236094,7.94226804 12.1988671,7.94226804 12.1988671,7.94226804 L9.20505271,7.89278351 L8.11639292,7.86804124 L6.18649601,7.84329897 C6.16175374,7.84329897 6.16175374,7.84329897 6.13701147,7.84329897 C5.3452589,7.84329897 4.62773312,8.14020619 4.08340322,8.68453608 C3.51433106,9.22886598 3.19268158,9.99587629 3.16793931,10.7628866 C3.16793931,11.1835052 3.24216611,11.6041237 3.39061972,11.9752577 L3.44010426,12.0989691 L3.34113518,11.9752577 C2.9452589,11.4556701 2.74732075,10.8618557 2.74732075,10.1938144 C2.77206302,8.65979381 4.05866096,7.42268041 5.59268158,7.42268041 C5.61742384,7.42268041 5.61742384,7.42268041 5.64216611,7.42268041 L7.72051663,7.44742268 L7.72051663,6.77938144 L5.64216611,6.75463918 C5.61742384,6.75463918 5.59268158,6.75463918 5.59268158,6.75463918 C3.68752694,6.75463918 2.12876405,8.28865979 2.10402178,10.1938144 C2.10402178,10.7134021 2.20299085,11.2082474 2.42567127,11.7030928 L2.49989807,11.8515464 L2.400929,11.7030928 C1.95556817,11.1092784 1.73288776,10.3917526 1.75763003,9.64948454 C1.7823723,7.8185567 3.29165065,6.33402062 5.12257848,6.33402062 C5.14732075,6.33402062 5.17206302,6.33402062 5.17206302,6.33402062 L8.19061972,6.38350515 L9.25453725,6.40824742 L9.27927951,6.40824742 L11.1844342,6.43298969 C11.2091764,6.43298969 11.2091764,6.43298969 11.2339187,6.43298969 C12.0256713,6.43298969 12.743197,6.13608247 13.2875269,5.59175258 C13.8565991,5.04742268 14.1782486,4.28041237 14.2029909,3.51340206 C14.2029909,3.09278351 14.128764,2.67216495 13.9803104,2.30103093 L13.9060836,2.17731959 L14.0050527,2.30103093 C14.400929,2.82061856 14.5988671,3.41443299 14.5988671,4.08247423 C14.5988671,4.82474227 14.2772177,5.54226804 13.7328878,6.06185567 C13.2133001,6.5814433 12.5205166,6.87835052 11.7535063,6.87835052 C11.728764,6.87835052 11.728764,6.87835052 11.7040218,6.87835052 L9.62567127,6.85360825 L9.62567127,7.52164948 L11.7040218,7.54639175 C11.728764,7.54639175 11.7535063,7.54639175 11.7535063,7.54639175 C12.6689702,7.54639175 13.5349496,7.2 14.1782486,6.55670103 C14.8462898,5.91340206 15.2174238,5.04742268 15.2421661,4.10721649 C15.2421661,3.58762887 15.143197,3.09278351 14.9205166,2.59793814 L14.8462898,2.44948454 L14.9452589,2.59793814 C15.3906197,3.19175258 15.6133001,3.90927835 15.5885579,4.65154639 C15.5885579,6.45773196 14.0792795,7.94226804 12.2483517,7.94226804 Z" id="形状"></path>
                </g>
            </g>
        </g>
    </g>
</svg>