<?xml version="1.0" encoding="UTF-8"?>
<svg width="24px" height="24px" viewBox="0 0 24 24" version="1.1" xmlns="http://www.w3.org/2000/svg" xmlns:xlink="http://www.w3.org/1999/xlink">
    <title>Plasm</title>
    <defs>
        <path d="M11.3412867,0.317009315 C11.2500881,0.500310943 11.1796918,0.697179307 11.0883425,0.880179452 L11.0883425,0.880179452 C10.5179368,0.0432628024 9.53962465,-0.181643473 8.96349074,1.14141442 L8.96349074,1.14141442 C8.62552836,0.642007928 8.16817874,0.550809337 7.6616874,0.853498211 L7.6616874,0.853498211 L7.62641389,0.86043232 C7.3662341,1.0224794 7.09896948,1.14925298 6.8176859,1.29713036 L6.8176859,1.29713036 C6.82462,1.24075305 6.79643135,1.19161133 6.8035162,1.13508328 L6.8035162,1.13508328 C6.71201611,1.22688484 6.64192135,1.33225313 6.54333642,1.38878118 L6.54333642,1.38878118 C6.0859868,1.6632814 5.5724106,1.93069677 5.12229657,2.24062123 L5.12229657,2.24062123 C4.13750253,2.89529143 3.30058588,3.73989591 2.56918825,4.65489665 L2.56918825,4.65489665 C2.18947049,5.13350082 1.85889445,5.67526565 1.54263884,6.19607744 L1.54263884,6.19607744 C1.47917668,6.33686999 1.47239331,6.48444588 1.40893115,6.62538916 L1.40893115,6.62538916 C1.34577048,6.7661817 1.20512868,6.88571967 1.14166652,7.02651222 L1.14166652,7.02651222 C0.635627403,8.06105094 0.326607387,9.16583517 0.137125357,10.3199119 L0.137125357,10.3199119 C0.0878328958,10.62245 -0.0246202421,10.9741299 0.517144607,11.0302057 L0.517144607,11.0302057 C-0.1862151,11.6286493 -0.00291347023,12.3603484 0.102907043,13.070793 L0.102907043,13.070793 C0.187322267,12.9441702 0.250332202,12.8033776 0.320577727,12.6977079 L0.320577727,12.6977079 C0.567190776,12.8314155 0.799332642,12.9860763 1.0245404,13.1054635 L1.0245404,13.1054635 C0.869728908,13.3379069 0.7152189,13.5700488 0.560407408,13.8024921 L0.560407408,13.8024921 C0.426699723,13.6828034 0.292992038,13.5634161 0.0887373446,13.3662463 L0.0887373446,13.3662463 C0.242493645,13.9597155 0.389768063,14.5213782 0.530711338,15.0515359 L0.530711338,15.0515359 C0.600052415,14.9122508 0.663363834,14.781558 0.701501426,14.688852 L0.701501426,14.688852 C1.01097367,14.8647673 1.29949284,15.0263621 1.54595515,15.1599191 L1.54595515,15.1599191 C1.36325649,15.4344193 1.15221843,15.7509764 0.969369022,16.0256273 L0.969369022,16.0256273 C0.856614401,15.9201083 0.715821867,15.7652968 0.575180073,15.6104853 L0.575180073,15.6104853 C0.561161116,15.6314384 0.525887612,15.6385232 0.511868654,15.6597778 L0.511868654,15.6597778 C0.680849846,16.0465804 0.814708272,16.4406186 0.969670504,16.8486758 L0.969670504,16.8486758 C1.00494401,16.8415909 1.00494401,16.8415909 1.04006677,16.8345061 L1.04006677,16.8345061 C1.04021751,16.743006 1.07534028,16.6445718 1.11046304,16.5459869 L1.11046304,16.5459869 C1.49063303,17.073582 1.89160534,17.2491958 2.37729436,17.1153374 L2.37729436,17.1153374 C2.79243638,16.9956487 3.1225602,16.6367333 3.143664,16.1934026 L3.143664,16.1934026 C3.17140044,15.5109959 2.75610768,15.1734858 2.1018897,15.0118909 L2.1018897,15.0118909 C2.55215448,14.7936173 2.74178723,14.4627397 2.79801381,14.012475 L2.79801381,14.012475 C3.27661798,14.5751929 3.67774105,14.7509575 4.17021342,14.5607217 L4.17021342,14.5607217 C4.57827059,14.4059102 4.85940344,13.9836834 4.84508299,13.5474375 L4.84508299,13.5474375 C4.81674361,13.0409462 4.53515854,12.731474 3.81039354,12.4925487 L3.81039354,12.4925487 C4.21151658,12.3024637 4.41516833,11.9506331 4.47139488,11.5002176 L4.47139488,11.5002176 C4.8937725,12.0558507 5.31599936,12.2456342 5.79430204,12.076653 L5.79430204,12.076653 C6.223463,11.9357097 6.54710496,11.5418222 6.51168071,11.0914067 L6.51168071,11.0914067 C6.47655795,10.8241421 6.38490713,10.5496419 6.21592595,10.3456887 L6.21592595,10.3456887 C6.03292579,10.16299 5.75842558,10.0716407 5.53321782,9.95210269 L5.53321782,9.95210269 C5.89906737,9.76895182 6.10995468,9.45224397 6.1590964,8.96670569 L6.1590964,8.96670569 C6.54635125,9.52927286 6.94747429,9.70518816 7.42607846,9.53530253 L7.42607846,9.53530253 C7.86217355,9.42963276 8.18566475,9.03559454 8.20661782,8.59226388 L8.20661782,8.59226388 C8.23450499,7.9097065 7.81936296,7.57219634 7.17192835,7.44572424 L7.17192835,7.44572424 C7.62219313,7.22760135 7.81212737,6.89687456 7.86805247,6.44660977 L7.86805247,6.44660977 C8.36776044,7.02304517 8.76194939,7.16368696 9.25427104,6.97360196 L9.25427104,6.97360196 C9.64107365,6.80477152 9.90833827,6.40349772 9.89416858,5.96740263 L9.89416858,5.96740263 C9.86582919,5.46060981 9.56314031,5.13726936 8.85947913,4.91236307 L8.85947913,4.91236307 C9.25321585,4.68700458 9.46440465,4.37029675 9.52048047,3.92003197 L9.52048047,3.92003197 C9.96381115,4.48983472 10.3791039,4.64419399 10.8575573,4.47536354 L10.8575573,4.47536354 C11.2865676,4.33442027 11.6029739,3.9052593 11.5536814,3.47594758 L11.5536814,3.47594758 C11.5395117,3.22285266 11.4266064,2.93433349 11.2648608,2.76565377 L11.2648608,2.76565377 C11.0818606,2.58280439 10.8075112,2.49130429 10.6032565,2.38608675 L10.6032565,2.38608675 C10.7227944,2.25237907 10.8846908,2.1467093 10.9971439,1.97772811 L10.9971439,1.97772811 C11.1095971,1.80889766 11.1799933,1.61187856 11.2220502,1.36556699 L11.2220502,1.36556699 C11.6653809,1.93521901 12.214532,2.11806842 12.7208727,1.8152288 L12.7208727,1.8152288 C13.1358639,1.60419074 13.346902,1.10433202 13.2198269,0.654217987 L13.2198269,0.654217987 C13.0791851,0.224906276 12.9593457,-0.00723559064 12.2837224,0.000301482943 L12.2837224,0.000301482943 C12.157401,0.00723559064 12.0307782,0.0144711813 11.9181743,0.000301482943 L11.9181743,0.000301482943 C11.9103358,0 11.9024972,0 11.8948094,0 L11.8948094,0 C11.6647779,0 11.4569054,0.0991878882 11.3412867,0.317009315 M8.70361244,2.7671612 C8.84425423,2.55597238 9.01293394,2.30257598 9.1675947,2.07028337 L9.1675947,2.07028337 C9.45611387,2.23217971 9.74463304,2.39377458 9.99109535,2.52733151 L9.99109535,2.52733151 C9.82241566,2.78087868 9.61137759,3.09743575 9.42852818,3.37193598 L9.42852818,3.37193598 C9.21040526,3.19617143 8.94977326,2.9922182 8.70361244,2.7671612 M6.71955319,3.18320766 C6.84617604,2.99297193 6.97279887,2.80288693 7.11328993,2.59184887 L7.11328993,2.59184887 C7.30337493,2.7184717 7.52858268,2.83785894 7.75379044,2.95754768 L7.75379044,2.95754768 C7.59912969,3.18984028 7.45863863,3.40072761 7.30382714,3.63317096 L7.30382714,3.63317096 C7.11374215,3.50669886 6.91672304,3.34495325 6.71955319,3.18320766 M4.77091818,3.59201853 C4.85533342,3.46524494 4.95376759,3.31751832 5.03803207,3.19074473 L5.03803207,3.19074473 C5.17867386,3.25405615 5.326702,3.35249032 5.48844761,3.42966997 L5.48844761,3.42966997 C5.37599445,3.59865115 5.27756028,3.74652853 5.16510714,3.91520824 L5.16510714,3.91520824 C5.03124872,3.79567025 4.90462587,3.71140577 4.77091818,3.59201853 M7.01591092,5.30067311 C7.15670347,5.08963505 7.32538318,4.83623863 7.48004391,4.60394602 L7.48004391,4.60394602 C7.76856311,4.76554087 8.05708228,4.92728649 8.30339383,5.06099417 L8.30339383,5.06099417 C8.13486487,5.31423983 7.92367608,5.63109841 7.74082667,5.90544789 L7.74082667,5.90544789 C7.52270375,5.72953259 7.27609071,5.50462632 7.01591092,5.30067311 M5.05295549,5.73058778 C5.17957832,5.54050278 5.30620115,5.3504178 5.43267325,5.16048354 L5.43267325,5.16048354 C5.62275824,5.28695563 5.8268622,5.39247467 6.05222069,5.5118619 L6.05222069,5.5118619 C5.91127742,5.72320145 5.75676742,5.95549407 5.60210666,6.18748518 L5.60210666,6.18748518 C5.42604063,6.04006001 5.22902153,5.87831443 5.05295549,5.73058778 M3.12557504,6.15356836 C3.20999025,6.02679478 3.29440548,5.90032268 3.37851921,5.77369985 L3.37851921,5.77369985 C3.51946249,5.83670978 3.64608534,5.92112501 3.78687786,5.98428567 L3.78687786,5.98428567 C3.68829293,6.13216305 3.5758398,6.30114426 3.47740562,6.44887091 L3.47740562,6.44887091 C3.36495249,6.3435026 3.23802817,6.25893664 3.12557504,6.15356836 M5.32836016,7.83418502 C5.46900195,7.62299622 5.63768166,7.36959981 5.79249315,7.13745793 L5.79249315,7.13745793 C6.08086159,7.29920354 6.36953149,7.46109988 6.61584307,7.59435533 L6.61584307,7.59435533 C6.44716335,7.8479025 6.23612529,8.16461032 6.05327588,8.43911056 L6.05327588,8.43911056 C5.83500225,8.26319525 5.58853994,8.03798749 5.32836016,7.83418502 M3.36555546,8.26425044 C3.49217829,8.07416544 3.61865039,7.88408044 3.74527322,7.69399545 L3.74527322,7.69399545 C3.94952791,7.79951448 4.16041524,7.94015627 4.37868889,8.02442075 L4.37868889,8.02442075 C4.22387739,8.2568641 4.08338635,8.46805291 3.9287256,8.70019478 L3.9287256,8.70019478 C3.77376336,8.56663782 3.56272529,8.4258453 3.36555546,8.26425044 M1.3956659,8.65904235 C1.48008113,8.53226876 1.56449635,8.40564593 1.66277979,8.25791928 L1.66277979,8.25791928 C1.78940263,8.34218379 1.95144971,8.41951416 2.11319531,8.49684452 L2.11319531,8.49684452 C2.00074217,8.66582572 1.90215725,8.8137031 1.78985485,8.98238282 L1.78985485,8.98238282 C1.64182673,8.88409937 1.50811904,8.76441065 1.3956659,8.65904235 M3.64065864,10.3676969 C3.78145116,10.1568096 3.95013088,9.90341321 4.10479163,9.67112059 L4.10479163,9.67112059 C4.39316007,9.83271545 4.68182998,9.99431031 4.92814155,10.128018 L4.92814155,10.128018 C4.75961259,10.3812637 4.54842377,10.698273 4.36572512,10.9724717 L4.36572512,10.9724717 C4.1476022,10.7967072 3.8869702,10.592754 3.64065864,10.3676969 M1.65675013,10.7835927 C1.78322223,10.5936584 1.90969432,10.4037241 2.0364679,10.2136391 L2.0364679,10.2136391 C2.24750596,10.3542809 2.45145917,10.4596492 2.67696841,10.5791872 L2.67696841,10.5791872 C2.52215693,10.8113291 2.38151514,11.0226686 2.24072259,11.2338574 L2.24072259,11.2338574 C2.06495804,11.0862815 1.85361849,10.945489 1.65675013,10.7835927 M1.95295712,12.9015103 C2.10776862,12.6692177 2.27659906,12.4158213 2.41709011,12.2046325 L2.41709011,12.2046325 C2.70545856,12.3662274 2.99427921,12.5281237 3.25476046,12.6405768 L3.25476046,12.6405768 C3.08593001,12.8939732 2.8750427,13.2106811 2.6921933,13.4850306 L2.6921933,13.4850306 C2.47361816,13.309266 2.21328765,13.105162 1.95295712,12.9015103 M13.3110255,0.380019249 C13.2409307,0.851689315 13.4943272,1.2947185 13.9516768,1.47741716 L13.9516768,1.47741716 C14.3879226,1.64624761 14.8874798,1.49128538 15.1689142,1.06890778 L15.1689142,1.06890778 C15.1829331,1.04780397 15.2111218,1.00559636 15.239009,0.963388746 L15.239009,0.963388746 C15.4149242,0.562416431 15.3798015,0.477850465 14.9788292,0.393585982 L14.9788292,0.393585982 C14.5354985,0.281283587 14.0709133,0.246160823 13.6277334,0.133858427 L13.6277334,0.133858427 C13.5897465,0.127376544 13.5568849,0.124210973 13.528244,0.124210973 L13.528244,0.124210973 C13.3704177,0.124210973 13.3407216,0.219479583 13.3110255,0.380019249 M16.7590859,0.969719887 C16.3858501,0.843398534 16.0481892,0.70984159 15.6540002,0.569350537 L15.6540002,0.569350537 C15.8722739,1.01931383 16.2666136,1.15995562 16.7590859,0.969719887 M16.0979339,1.68770152 C15.8306692,2.08882457 15.9294049,2.67294778 16.316509,2.96116547 L16.316509,2.96116547 C16.7036131,3.24968464 17.2732651,3.17190205 17.5758032,2.76369415 L17.5758032,2.76369415 C17.8920588,2.33438243 17.7933232,1.75056071 17.3710963,1.46912638 L17.3710963,1.46912638 C17.2070896,1.35983881 17.0239387,1.30692856 16.8435012,1.30692856 L16.8435012,1.30692856 C16.559655,1.30692856 16.2827429,1.43807364 16.0979339,1.68770152 M13.9307237,2.10374798 C13.6566757,2.56109759 13.797619,3.17325872 14.2337141,3.4334385 L14.2337141,3.4334385 C14.6702614,3.69361827 15.2684035,3.57377881 15.5496871,3.15155195 L15.5496871,3.15155195 C15.8448389,2.70807054 15.7249994,2.10992838 15.2818195,1.81477658 L15.2818195,1.81477658 C15.1172098,1.71619165 14.9346619,1.66840661 14.7543751,1.66855664 L14.7543751,1.66855664 C14.4334465,1.66855664 14.120055,1.81975104 13.9307237,2.10374798 M19.3767116,2.53079856 C18.9544847,2.24966572 18.5535124,1.98240109 18.1312856,1.70111751 L18.1312856,1.70111751 C17.9975779,2.31312788 18.7579179,2.91096856 19.3767116,2.53079856 M11.7779848,2.49853988 C11.4685125,2.96297436 11.5955876,3.59623928 12.0601728,3.90556079 L12.0601728,3.90556079 C12.5246073,4.21488229 13.1929949,4.08102385 13.4812127,3.60257044 L13.4812127,3.60257044 C13.7906849,3.13798521 13.6497416,2.52597483 13.1851564,2.21665334 L13.1851564,2.21665334 C13.0131604,2.10208982 12.8181009,2.04737067 12.6250011,2.04737067 L12.6250011,2.04737067 C12.2962339,2.04737067 11.9728935,2.2059507 11.7779848,2.49853988 M18.7229458,3.4669031 C18.4837191,3.82566782 18.561351,4.3039705 18.9413702,4.55706543 L18.9413702,4.55706543 C19.3213895,4.81031111 19.8140126,4.71157543 20.0671075,4.33155619 L20.0671075,4.33155619 C20.3060328,3.97264074 20.2074478,3.48016836 19.8485324,3.24109237 L19.8485324,3.24109237 C19.7065339,3.14657747 19.5488583,3.10105356 19.3937454,3.10105356 L19.3937454,3.10105356 C19.1338671,3.10105356 18.8815259,3.22873157 18.7229458,3.4669031 M16.5700561,3.86169501 C16.3029422,4.26266734 16.4084613,4.79026248 16.8097351,5.05752712 L16.8097351,5.05752712 C17.203924,5.28951823 17.7175002,5.20510302 17.9847648,4.80397995 L17.9847648,4.80397995 C18.2518787,4.40285689 18.1460582,3.87526176 17.7449352,3.60799711 L17.7449352,3.60799711 C17.6005248,3.5228282 17.4401359,3.48031909 17.2815559,3.48031909 L17.2815559,3.48031909 C17.0075079,3.48031909 16.7393388,3.60739416 16.5700561,3.86169501 M14.3960626,4.24246798 C14.1149298,4.66484557 14.2276844,5.22756349 14.6499113,5.50884707 L14.6499113,5.50884707 C15.0721381,5.79013068 15.6350068,5.6772253 15.9019699,5.27610224 L15.9019699,5.27610224 C16.1834043,4.85387538 16.0917535,4.30532718 15.6835456,4.00263829 L15.6835456,4.00263829 C15.5227044,3.89546112 15.3384983,3.84345529 15.1565534,3.8436054 L15.1565534,3.8436054 C14.8604971,3.8436054 14.5703198,3.98093152 14.3960626,4.24246798 M12.2573426,4.61630682 C11.9621908,5.05948674 12.0680113,5.67873273 12.5111913,5.97403525 L12.5111913,5.97403525 C12.9545219,6.26933779 13.5877869,6.14256423 13.8618349,5.68521459 L13.8618349,5.68521459 C14.1432692,5.262837 14.023279,4.66484557 13.6150711,4.36245819 L13.6150711,4.36245819 C13.4468436,4.25030654 13.2532915,4.19603961 13.0616991,4.19603961 L13.0616991,4.19603961 C12.7484583,4.19603961 12.4404935,4.34120364 12.2573426,4.61630682 M10.0975188,5.06732531 C9.7880466,5.53191051 9.92914061,6.14392091 10.3937258,6.45324239 L10.3937258,6.45324239 C10.8510755,6.72744114 11.4701707,6.62162062 11.7654732,6.17828996 L11.7654732,6.17828996 C12.0747947,5.71385549 11.969125,5.09476026 11.5046905,4.78528802 L11.5046905,4.78528802 C11.3387241,4.66363965 11.1462272,4.60681012 10.9535797,4.60681012 L10.9535797,4.60681012 C10.6233051,4.60681012 10.2930305,4.77398241 10.0975188,5.06732531 M21.2282691,5.56266179 C21.1932971,5.8440961 21.3481086,6.06915313 21.5945709,6.20271008 L21.5945709,6.20271008 C21.8408824,6.33626701 22.1081471,6.30114426 22.312251,6.13201232 L22.312251,6.13201232 C22.3755624,6.0828706 22.4316383,5.90665381 22.3824966,5.84349315 L22.3824966,5.84349315 C22.2135154,5.54819061 22.0094114,5.25982217 21.7982226,4.93618024 L21.7982226,4.93618024 C21.4674958,5.02044472 21.2704767,5.22469941 21.2282691,5.56266179 M19.2232568,5.598689 C18.9843315,5.95745369 19.0547278,6.40063362 19.413794,6.63970961 L19.413794,6.63970961 C19.7516056,6.86476661 20.1946348,6.79406887 20.4196918,6.45640798 L20.4196918,6.45640798 C20.6587678,6.09749254 20.5883715,5.65431259 20.2294561,5.41538738 L20.2294561,5.41538738 C20.0910754,5.32313358 19.9431981,5.27896634 19.8008981,5.27896634 L19.8008981,5.27896634 C19.5741829,5.27896634 19.3614867,5.39096724 19.2232568,5.598689 M17.0352443,6.00041501 C16.7960176,6.35933046 16.8736495,6.83748241 17.239499,7.11198262 L17.239499,7.11198262 C17.60565,7.38618137 18.0981224,7.28759644 18.3513681,6.9075772 L18.3513681,6.9075772 C18.6043123,6.52755793 18.5057274,6.03493482 18.1469627,5.79585884 L18.1469627,5.79585884 C18.0055672,5.69003832 17.8454797,5.63984141 17.6876534,5.63984141 L17.6876534,5.63984141 C17.4363674,5.63984141 17.1906588,5.76706721 17.0352443,6.00041501 M14.8823546,6.39505619 C14.6152407,6.79632998 14.7350802,7.30282132 15.1360525,7.56993521 L15.1360525,7.56993521 C15.5370248,7.83719985 16.06462,7.73153007 16.3318846,7.33040703 L16.3318846,7.33040703 C16.5641772,6.93636883 16.4793098,6.42264187 16.0781867,6.15552798 L16.0781867,6.15552798 C15.9286512,6.05588789 15.7616296,6.00810284 15.5970199,6.00810284 L15.5970199,6.00810284 C15.3201078,6.00810284 15.0499791,6.14346867 14.8823546,6.39505619 M12.7226815,6.75487609 C12.441398,7.17710295 12.532898,7.72580191 12.941106,8.02834004 L12.941106,8.02834004 C13.3634835,8.30947287 13.9473053,8.21088796 14.2284381,7.78851035 L14.2284381,7.78851035 C14.5169573,7.40140625 14.4182216,6.81758453 13.9959948,6.5361502 L13.9959948,6.5361502 C13.831988,6.42701338 13.6488372,6.37410312 13.4685504,6.37410312 L13.4685504,6.37410312 C13.1847042,6.37410312 12.9076413,6.50524822 12.7226815,6.75487609 M10.5556222,7.17092255 C10.2603196,7.61440396 10.3801591,8.21224464 10.802386,8.49367895 L10.802386,8.49367895 C11.2457166,8.78883076 11.8649626,8.68316098 12.1602651,8.23983032 L12.1602651,8.23983032 C12.4416995,7.81745271 12.3355775,7.19820675 11.8923975,6.9029042 L11.8923975,6.9029042 C11.7392442,6.80085222 11.5583544,6.75261496 11.3765602,6.75261496 L11.3765602,6.75261496 C11.057139,6.75261496 10.7348538,6.90169828 10.5556222,7.17092255 M21.8270142,7.36341941 C21.6443155,7.63776889 21.7219474,8.02472223 21.9962969,8.20757164 L21.9962969,8.20757164 C22.2707971,8.39057178 22.6577505,8.31293994 22.8194961,8.02442075 L22.8194961,8.02442075 C23.0023455,7.75007127 22.9458174,7.37698613 22.6714679,7.19413672 L22.6714679,7.19413672 C22.5706219,7.12690604 22.454551,7.09494885 22.3389323,7.09494885 L22.3389323,7.09494885 C22.1401043,7.09494885 21.9427837,7.18976524 21.8270142,7.36341941 M8.42398701,7.57973342 C8.11466551,8.04431863 8.24158982,8.67728206 8.6849205,8.97273536 L8.6849205,8.97273536 C9.14950571,9.28205685 9.78246915,9.15528329 10.0919414,8.69069805 L10.0919414,8.69069805 C10.4223667,8.24028254 10.2743386,7.59314941 9.8099041,7.28367717 L9.8099041,7.28367717 C9.64167663,7.17167625 9.45430498,7.11876599 9.26889297,7.11876599 L9.26889297,7.11876599 C8.94193472,7.11876599 8.62145833,7.28337569 8.42398701,7.57973342 M19.674426,7.7585128 C19.4635387,8.0750699 19.5619729,8.47604221 19.8786807,8.68692952 L19.8786807,8.68692952 C20.1953885,8.89811833 20.5965116,8.79908119 20.8073989,8.48267482 L20.8073989,8.48267482 C21.0182862,8.165967 20.9197013,7.76484394 20.6028427,7.55365514 L20.6028427,7.55365514 C20.4890329,7.47783217 20.364219,7.44210646 20.2413647,7.44210646 L20.2413647,7.44210646 C20.0224881,7.44210646 19.8094904,7.55561479 19.674426,7.7585128 M17.5144515,8.11788047 C17.2753755,8.47694666 17.3602429,8.89917352 17.6835834,9.14503286 L17.6835834,9.14503286 C18.0426496,9.38410883 18.4859802,9.31341109 18.7250562,8.95464638 L18.7250562,8.95464638 C18.9639814,8.59573093 18.8794155,8.1736548 18.5557735,7.92749398 L18.5557735,7.92749398 C18.4154332,7.83388353 18.2619784,7.78775665 18.1130458,7.78775665 L18.1130458,7.78775665 C17.8812055,7.78775665 17.659917,7.89945608 17.5144515,8.11788047 M15.3617125,8.51282313 C15.1086176,8.89284237 15.1860987,9.37129581 15.5450141,9.61037177 L15.5450141,9.61037177 C15.9461372,9.87763641 16.4245906,9.80000455 16.6778363,9.41998531 L16.6778363,9.41998531 C16.9518843,9.05398501 16.8531486,8.56151263 16.4943839,8.32243664 L16.4943839,8.32243664 C16.3350502,8.21631464 16.1635064,8.16461032 15.998746,8.16461032 L15.998746,8.16461032 C15.7488166,8.16461032 15.5142629,8.28369608 15.3617125,8.51282313 M13.1878698,8.89374683 C12.9207559,9.29471913 13.0264256,9.82231429 13.4273979,10.0894282 L13.4273979,10.0894282 C13.828521,10.3566928 14.3422479,10.2719761 14.6093618,9.87085304 L14.6093618,9.87085304 C14.8766265,9.46988073 14.7708059,8.94228558 14.3696829,8.67502095 L14.3696829,8.67502095 C14.2284381,8.58095827 14.0666925,8.53633879 13.9052484,8.53633879 L13.9052484,8.53633879 C13.6324064,8.53633879 13.3600165,8.66371534 13.1878698,8.89374683 M11.0209611,9.3094918 C10.7536965,9.71076559 10.8736867,10.308757 11.274659,10.5760216 L11.274659,10.5760216 C11.6617631,10.8642393 12.2455848,10.7655037 12.5268684,10.3431261 L12.5268684,10.3431261 C12.8434255,9.91396509 12.7097178,9.33692675 12.2871895,9.05564317 L12.2871895,9.05564317 C12.1302676,8.95117932 11.9539,8.90113315 11.7797937,8.90113315 L11.7797937,8.90113315 C11.4855463,8.90113315 11.1976301,9.0441868 11.0209611,9.3094918 M8.88224109,9.68317991 C8.58678782,10.1266613 8.71371213,10.7597755 9.15010868,11.0199553 L9.15010868,11.0199553 C9.57218481,11.3012389 10.1701762,11.1813994 10.4728651,10.7730407 L10.4728651,10.7730407 C10.774951,10.3648328 10.6691305,9.74588835 10.2398188,9.42948201 L10.2398188,9.42948201 C10.0715913,9.31733036 9.87803924,9.26306343 9.68644684,9.26306343 L9.68644684,9.26306343 C9.37320606,9.26306343 9.06539199,9.40822746 8.88224109,9.68317991 M22.3485797,9.53696069 C22.1899997,9.76804736 22.2486381,10.0838508 22.4794233,10.2424308 L22.4794233,10.2424308 C22.71051,10.4010108 23.0266148,10.3423724 23.185044,10.1112857 L23.185044,10.1112857 C23.3436241,9.88034976 23.2848349,9.56439564 23.053899,9.40596635 L23.053899,9.40596635 C22.9661675,9.34566975 22.8660752,9.31672739 22.767038,9.31672739 L22.767038,9.31672739 C22.6055939,9.31672739 22.4467124,9.39375628 22.3485797,9.53696069 M20.1745862,9.88984646 C19.9707837,10.1503277 20.0481141,10.5372811 20.3088969,10.7412343 L20.3088969,10.7412343 C20.5833971,10.923933 20.9561807,10.8674049 21.1601339,10.6070744 L21.1601339,10.6070744 C21.3429834,10.3325742 21.2795212,9.92466774 21.005021,9.74196908 L21.005021,9.74196908 C20.898296,9.67081911 20.7766477,9.63584708 20.6571097,9.63584708 L20.6571097,9.63584708 C20.4692858,9.63584708 20.2864364,9.72222196 20.1745862,9.88984646 M6.7362855,10.1133961 C6.44113371,10.5567267 6.54680347,11.1756712 7.0324925,11.4991624 L7.0324925,11.4991624 C7.49707771,11.8084839 8.11602218,11.7028142 8.42534369,11.2383797 L8.42534369,11.2383797 C8.73481593,10.7739452 8.60789161,10.140831 8.14345714,9.83135877 L8.14345714,9.83135877 C7.97161185,9.71679526 7.7765524,9.66207611 7.58345257,9.66207611 L7.58345257,9.66207611 C7.25468542,9.66207611 6.93134495,9.82065613 6.7362855,10.1133961 M18.0008942,10.2707702 C17.7898561,10.587478 17.8531675,10.9953844 18.1700261,11.2064225 L18.1700261,11.2064225 C18.4867339,11.4173098 18.8947911,11.3539984 19.1058292,11.0372906 L19.1058292,11.0372906 C19.3167165,10.720432 19.2531036,10.3125256 18.9365465,10.1014875 L18.9365465,10.1014875 C18.8170085,10.021896 18.6825471,9.98436137 18.5507991,9.98436137 L18.5507991,9.98436137 C18.3334299,9.98436137 18.123447,10.0867148 18.0008942,10.2707702 M15.8480045,10.6657128 C15.6089285,11.0246283 15.6794755,11.4678082 16.038391,11.7068842 L16.038391,11.7068842 C16.3762026,11.9319412 16.8195333,11.8612434 17.0445903,11.5234318 L17.0445903,11.5234318 C17.2836663,11.1646671 17.2129685,10.7214872 16.8542038,10.4824112 L16.8542038,10.4824112 C16.7158231,10.3901574 16.5679458,10.3461409 16.4256458,10.3461409 L16.4256458,10.3461409 C16.1989306,10.3461409 15.9862344,10.4579911 15.8480045,10.6657128 M13.6601428,11.0674388 C13.4068971,11.4473073 13.5196517,11.9189774 13.8784164,12.1579026 L13.8784164,12.1579026 C14.2585864,12.4111483 14.7510588,12.3122619 15.004003,11.9323934 L15.004003,11.9323934 C15.2433804,11.573478 15.1657486,11.0948738 14.7857293,10.8419296 L14.7857293,10.8419296 C14.6437309,10.747264 14.4859046,10.70174 14.3307916,10.70174 L14.3307916,10.70174 C14.071064,10.70174 13.8185721,10.8294181 13.6601428,11.0674388 M11.5072531,11.4622308 C11.2401392,11.8635046 11.3456582,12.3910997 11.7467813,12.6583643 L11.7467813,12.6583643 C12.141121,12.8902047 12.6545464,12.8056387 12.9219618,12.4046664 L12.9219618,12.4046664 C13.1890757,12.0036941 13.0834059,11.4757975 12.6822828,11.2085329 L12.6822828,11.2085329 C12.5378725,11.1235147 12.3774836,11.0810056 12.2189036,11.0810056 L12.2189036,11.0810056 C11.9448556,11.0810056 11.6765358,11.2082314 11.5072531,11.4622308 M9.33325958,11.8433052 C9.07323052,12.279551 9.18598514,12.8422689 9.56600441,13.0953639 L9.56600441,13.0953639 C9.98823127,13.3766474 10.5509492,13.2638928 10.8322328,12.841666 L10.8322328,12.841666 C11.1346201,12.4333073 11.0009125,11.8564197 10.5785349,11.5751361 L10.5785349,11.5751361 C10.4326171,11.4779079 10.2652941,11.4310273 10.0978203,11.4310273 L10.0978203,11.4310273 C9.80523113,11.4310273 9.51234045,11.5745331 9.33325958,11.8433052 M22.8421073,11.697086 C22.7156352,11.887171 22.750758,12.1542849 22.940843,12.2810584 L22.940843,12.2810584 C23.151881,12.4213987 23.4192963,12.3864267 23.5599381,12.1753887 L23.5599381,12.1753887 C23.6864103,11.9853037 23.6298822,11.7037186 23.439948,11.5772465 L23.439948,11.5772465 C23.3596027,11.5237333 23.274283,11.497655 23.1913752,11.497655 L23.1913752,11.497655 C23.0567631,11.497655 22.9292359,11.5663931 22.8421073,11.697086 M7.20147368,12.2518146 C6.9201901,12.6740414 7.04018031,13.2721836 7.4483882,13.5744202 L7.4483882,13.5744202 C7.85644537,13.8769584 8.49694588,13.7850061 8.7920977,13.3418262 L8.7920977,13.3418262 C9.08740024,12.8984955 8.98142897,12.2792495 8.53809831,11.983947 L8.53809831,11.983947 C8.37725716,11.8654642 8.18792586,11.8090869 7.99934829,11.8090869 L7.99934829,11.8090869 C7.68490157,11.8090869 7.37301747,11.965858 7.20147368,12.2518146 M20.6611797,12.0427362 C20.4923492,12.2961326 20.5558114,12.6125389 20.788104,12.7673504 L20.788104,12.7673504 C21.0202459,12.9220112 21.3579068,12.872568 21.5127183,12.6404261 L21.5127183,12.6404261 C21.667379,12.4081335 21.6176343,12.0703218 21.3856432,11.9156611 L21.3856432,11.9156611 C21.2958013,11.8558167 21.1902822,11.8265729 21.0856677,11.8265729 L21.0856677,11.8265729 C20.9197013,11.8265729 20.7559961,11.9002855 20.6611797,12.0427362 M18.4520634,12.4307447 C18.2830822,12.6839904 18.3396103,13.0569248 18.6002423,13.2610287 L18.6002423,13.2610287 C18.8742903,13.4435767 19.2824982,13.3801145 19.4653476,13.1056143 L19.4653476,13.1056143 C19.66915,12.8452838 19.5919704,12.4583304 19.3173195,12.275481 L19.3173195,12.275481 C19.2111975,12.2047833 19.0904535,12.1698112 18.9695589,12.1698112 L18.9695589,12.1698112 C18.777665,12.1698112 18.5856204,12.2578442 18.4520634,12.4307447 M5.01346122,12.6538421 C4.71815868,13.0971728 4.84508299,13.7304377 5.30981896,14.0399099 L5.30981896,14.0399099 C5.77425343,14.3492314 6.4073676,14.2223071 6.68156635,13.7649575 L6.68156635,13.7649575 C6.99103859,13.300523 6.88521807,12.681277 6.42078359,12.3719555 L6.42078359,12.3719555 C6.25481725,12.2501564 6.06216963,12.1933269 5.86952204,12.1933269 L5.86952204,12.1933269 C5.53924747,12.1933269 5.20882216,12.3604992 5.01346122,12.6538421 M16.2993245,12.8255366 C16.0882864,13.1420937 16.1868713,13.543066 16.5035792,13.7539534 L16.5035792,13.7539534 C16.7991832,13.9508217 17.2212593,13.8664065 17.4321466,13.5496986 L17.4321466,13.5496986 C17.629015,13.2540946 17.5445998,12.8318678 17.2275904,12.6208297 L17.2275904,12.6208297 C17.1210162,12.5498305 16.9978604,12.5154614 16.8741017,12.5154614 L16.8741017,12.5154614 C16.6550743,12.5154614 16.4340873,12.6230908 16.2993245,12.8255366 M14.1604537,13.1992247 C13.9213777,13.5581402 13.9919247,14.0013201 14.3509909,14.2405468 L14.3509909,14.2405468 C14.6888026,14.4654531 15.1318318,14.3947553 15.3568888,14.0570944 L15.3568888,14.0570944 C15.5961155,13.6980283 15.5254177,13.2549991 15.1665023,13.0159231 L15.1665023,13.0159231 C15.0281216,12.9238201 14.8802442,12.8796528 14.7379443,12.8796528 L14.7379443,12.8796528 C14.5113799,12.8796528 14.2986837,12.9916537 14.1604537,13.1992247 M11.9864602,13.5798469 C11.7121107,13.9458472 11.7897426,14.4241499 12.1557429,14.6984994 L12.1557429,14.6984994 C12.5357621,14.9515943 13.0142156,14.8741132 13.2742446,14.5293675 L13.2742446,14.5293675 C13.5485941,14.1633672 13.4851319,13.6638099 13.1262165,13.4245832 L13.1262165,13.4245832 C12.9742691,13.3107734 12.7995597,13.2551498 12.6272622,13.2551498 L12.6272622,13.2551498 C12.3845684,13.2551498 12.1469999,13.3657941 11.9864602,13.5798469 M9.81955155,13.9958934 C9.5663059,14.3759127 9.65102259,14.8893381 10.0382774,15.1778573 L10.0382774,15.1778573 C10.4602028,15.4589901 10.9880994,15.3531696 11.2552133,14.9521973 L11.2552133,14.9521973 C11.5223272,14.5510742 11.4166575,14.0234791 11.0364875,13.7702334 L11.0364875,13.7702334 C10.8757971,13.663207 10.6998818,13.6122564 10.5289409,13.6122564 L10.5289409,13.6122564 C10.2505214,13.6122564 9.9850657,13.7473207 9.81955155,13.9958934 M23.3703054,13.8781643 C23.2299652,13.9977023 23.2653893,14.1736176 23.4340691,14.2860707 L23.4340691,14.2860707 C23.6030502,14.3985239 23.7788148,14.3632504 23.8772491,14.2156745 L23.8772491,14.2156745 C23.9265415,14.095835 23.8770982,13.9411743 23.8843337,13.7934476 L23.8843337,13.7934476 C23.8418247,13.7651082 23.7996171,13.7370703 23.7574096,13.7088816 L23.7574096,13.7088816 C23.6238527,13.7724946 23.4619563,13.7863628 23.3703054,13.8781643 M7.64570879,14.3766664 C7.36442521,14.799044 7.47717983,15.3616112 7.89955744,15.6428947 L7.89955744,15.6428947 C8.3217843,15.9241783 8.8845022,15.8114237 9.15161609,15.4101499 L9.15161609,15.4101499 C9.43289969,14.9880738 9.35541856,14.418271 8.9331917,14.1368367 L8.9331917,14.1368367 C8.77235055,14.0296595 8.58814447,13.9778044 8.40604878,13.9778044 L8.40604878,13.9778044 C8.11014327,13.9778044 7.81996594,14.1152807 7.64570879,14.3766664 M21.1473209,14.1954751 C21.0205473,14.3855601 21.0772261,14.6669944 21.2671604,14.7936173 L21.2671604,14.7936173 C21.4781984,14.9341083 21.738529,14.8637121 21.844048,14.6596081 L21.844048,14.6596081 C21.9565012,14.4906269 21.9212276,14.2233623 21.7312934,14.0967395 L21.7312934,14.0967395 C21.6630075,14.0394577 21.5788938,14.0129272 21.4941771,14.0129272 L21.4941771,14.0129272 C21.3603186,14.0129272 21.224802,14.0792535 21.1473209,14.1954751 M5.49296985,14.7714583 C5.19751655,15.214789 5.33845983,15.8269501 5.74666775,16.1291867 L5.74666775,16.1291867 C6.2041681,16.4033855 6.80215953,16.2838475 7.08344311,15.8614699 L7.08344311,15.8614699 C7.37889639,15.4181392 7.27292514,14.7988932 6.82959446,14.5037414 L6.82959446,14.5037414 C6.67237111,14.3989761 6.4880143,14.3478747 6.30305451,14.3478747 L6.30305451,14.3478747 C5.99132114,14.3478747 5.67823112,14.4931895 5.49296985,14.7714583 M18.9593085,14.5973519 C18.8047984,14.8294937 18.8892137,15.1602205 19.1213555,15.315032 L19.1213555,15.315032 C19.3536482,15.4696928 19.6842242,15.3852776 19.8388849,15.1529849 L19.8388849,15.1529849 C19.9936964,14.9205416 19.909432,14.5901163 19.6769886,14.4353048 L19.6769886,14.4353048 C19.5966434,14.3817916 19.5043896,14.3569192 19.4118344,14.3569192 L19.4118344,14.3569192 C19.2369742,14.3569192 19.060456,14.4455552 18.9593085,14.5973519 M16.785315,14.9781248 C16.6024655,15.2526251 16.6802482,15.6394277 16.9476635,15.7871543 L16.9476635,15.7871543 C17.222013,15.9700037 17.5949474,15.9134757 17.7777968,15.6391262 L17.7777968,15.6391262 C17.9815993,15.3787957 17.8828636,14.9778233 17.6086649,14.794974 L17.6086649,14.794974 C17.5185215,14.7349788 17.4116458,14.7061872 17.3031119,14.7061872 L17.3031119,14.7061872 C17.1060928,14.7061872 16.9031948,14.8013051 16.785315,14.9781248 M3.3399294,15.1660995 C3.03060792,15.6306847 3.15738148,16.2639496 3.62211744,16.5734218 L3.62211744,16.5734218 C4.08655191,16.8827433 4.71966608,16.755819 5.02913834,16.2913845 L5.02913834,16.2913845 C5.32444087,15.8480539 5.21862037,15.2289587 4.76820486,14.8985333 L4.76820486,14.8985333 C4.59244028,14.7814072 4.38939153,14.7247284 4.18830241,14.7247284 L4.18830241,14.7247284 C3.85787711,14.7247284 3.53227553,14.8775803 3.3399294,15.1660995 M14.6256419,15.3379447 C14.4147546,15.6545018 14.4779153,16.062559 14.7946231,16.2734463 L14.7946231,16.2734463 C15.1116324,16.4844844 15.5195388,16.4210222 15.7304261,16.1044651 L15.7304261,16.1044651 C15.9414642,15.7874558 15.8781528,15.3795494 15.5612942,15.1685113 L15.5612942,15.1685113 C15.441907,15.0889198 15.3075963,15.0513852 15.175999,15.051535 L15.175999,15.051535 C14.9584791,15.051535 14.7483454,15.1537387 14.6256419,15.3379447 M0.469510301,15.1743902 C0.504783805,15.1671546 0.518802763,15.1460508 0.554076267,15.1392675 L0.554076267,15.1392675 C0.546388451,15.1101744 0.538549895,15.0809305 0.530711338,15.0515359 L0.530711338,15.0515359 C0.510662723,15.0920854 0.490011143,15.1332378 0.469510301,15.1743902 M12.4727522,15.7327366 C12.2333747,16.0918028 12.339346,16.5278979 12.6771576,16.7529549 L12.6771576,16.7529549 C13.0011011,16.9988143 13.4581492,16.9073142 13.6972252,16.548248 L13.6972252,16.548248 C13.9011784,16.1965681 13.8167632,15.7743413 13.4928197,15.5281805 L13.4928197,15.5281805 C13.3699654,15.4348715 13.227967,15.3901013 13.0859685,15.3901013 L13.0859685,15.3901013 C12.8535252,15.3901013 12.6212325,15.50979 12.4727522,15.7327366 M10.2987587,16.1135096 C10.02456,16.4792084 10.1231449,16.9718315 10.5031641,17.2250772 L10.5031641,17.2250772 C10.8833341,17.4781721 11.3617876,17.4005403 11.6148825,17.020521 L11.6148825,17.020521 C11.8890812,16.6545207 11.7904963,16.1620484 11.4104771,15.9089534 L11.4104771,15.9089534 C11.2666697,15.8130819 11.1068837,15.7677087 10.9507156,15.7677087 L10.9507156,15.7677087 C10.6941536,15.7677087 10.4475405,15.8904122 10.2987587,16.1135096 M8.13200079,16.5292546 C7.8648869,16.9302269 7.97055667,17.4578221 8.37167973,17.7250867 L8.37167973,17.7250867 C8.76571793,17.9572285 9.27944486,17.8726626 9.5467095,17.4715395 L9.5467095,17.4715395 C9.81382339,17.0705672 9.70800288,16.5428213 9.30703054,16.2755567 L9.30703054,16.2755567 C9.16126356,16.1784792 9.00162833,16.132503 8.84455571,16.132503 L8.84455571,16.132503 C8.5693018,16.132503 8.30203716,16.2738985 8.13200079,16.5292546 M21.8160101,16.3221358 C21.746066,16.3329892 21.6654194,16.3438426 21.5772356,16.3411292 L21.5772356,16.3411292 C21.6550182,16.5453839 21.676122,16.7422523 21.7744054,16.7773751 L21.7744054,16.7773751 C21.8589714,16.8337524 22.0276511,16.7632053 22.1684437,16.7348659 L22.1684437,16.7348659 C22.140255,16.5942242 22.1615095,16.4253937 22.069708,16.3338936 L22.069708,16.3338936 C22.0486042,16.3108302 22.0174007,16.3028409 21.9774542,16.3028409 L21.9774542,16.3028409 C21.9334377,16.3028409 21.87902,16.3124884 21.8160101,16.3221358 M5.95815803,16.9101783 C5.69104414,17.3113013 5.78962907,17.8954245 6.21185593,18.1765574 L6.21185593,18.1765574 C6.61297897,18.4436713 7.18263099,18.3661902 7.46406533,17.9438125 L7.46406533,17.9438125 C7.76660346,17.5356046 7.64676398,16.9376132 7.22453712,16.6563297 L7.22453712,16.6563297 C7.0674645,16.5517151 6.89124774,16.5016689 6.71714132,16.5016689 L6.71714132,16.5016689 C6.42289399,16.5016689 6.13497777,16.6448733 5.95815803,16.9101783 M19.4597701,16.728987 C19.3331473,16.9189213 19.3896754,17.2005063 19.5797604,17.3269784 L19.5797604,17.3269784 C19.7906477,17.4676202 20.0509782,17.397224 20.1563465,17.1929693 L20.1563465,17.1929693 C20.2689504,17.0242896 20.2336769,16.757025 20.0437426,16.6304021 L20.0437426,16.6304021 C19.9754567,16.5731204 19.891343,16.5464391 19.8064755,16.5464391 L19.8064755,16.5464391 C19.6726171,16.5464391 19.5371005,16.6127654 19.4597701,16.728987 M3.81943803,17.2837156 C3.51689989,17.6919236 3.62256966,18.3110188 4.03092831,18.6135569 L4.03092831,18.6135569 C4.46008927,18.9299633 5.07933525,18.8241427 5.39589233,18.394831 L5.39589233,18.394831 C5.69812898,17.9866231 5.59215773,17.3675279 5.16299676,17.0511216 L5.16299676,17.0511216 C5.00547193,16.9345984 4.81659285,16.8786733 4.6259049,16.8786733 L4.6259049,16.8786733 C4.32216083,16.8786733 4.01359305,17.0202196 3.81943803,17.2837156 M17.2856259,17.1374964 C17.1270459,17.3687338 17.1855336,17.6843865 17.416771,17.8429665 L17.416771,17.8429665 C17.6477069,18.0013958 17.9636611,17.9429081 18.1220903,17.7119722 L18.1220903,17.7119722 C18.2806704,17.4808855 18.2220319,17.1652329 17.991096,17.0065021 L17.991096,17.0065021 C17.9033644,16.9462055 17.8034229,16.9174139 17.7043857,16.9174139 L17.7043857,16.9174139 C17.5429416,16.9174139 17.3840601,16.994292 17.2856259,17.1374964 M15.0766604,17.4977685 C14.9079807,17.7511649 14.950339,18.1450524 15.2248392,18.3280526 L15.2248392,18.3280526 C15.5204433,18.5247702 15.9072459,18.4471383 16.0900953,18.1726381 L16.0900953,18.1726381 C16.2729447,17.8981379 16.1954636,17.5113353 15.9208126,17.3283351 L15.9208126,17.3283351 C15.8299155,17.2678878 15.7218339,17.2389454 15.6108881,17.239095 L15.6108881,17.239095 C15.4132661,17.239095 15.2073532,17.330747 15.0766604,17.4977685 M1.61725587,17.706847 C1.61032176,17.8547243 1.55394445,18.0304889 1.59645354,18.1501776 L1.59645354,18.1501776 C1.77236884,18.4804522 1.97662353,18.7691221 2.20183129,19.0715095 L2.20183129,19.0715095 C2.29333137,19.1628588 2.47633151,19.2542082 2.6028036,19.2471233 L2.6028036,19.2471233 C3.06015322,19.2472741 3.44002173,18.8600192 3.51011652,18.3886506 L3.51011652,18.3886506 C3.58036206,17.917282 3.29169213,17.4810362 2.85559704,17.3123565 L2.85559704,17.3123565 C2.7463095,17.2701489 2.63355488,17.2504018 2.52095099,17.2504018 L2.52095099,17.2504018 C2.1840438,17.2504018 1.84909625,17.4272215 1.61725587,17.706847 M12.9240722,17.8925604 C12.7128834,18.2092683 12.7977508,18.6311937 13.1284776,18.8211279 L13.1284776,18.8211279 C13.4450347,19.0320152 13.846007,18.9334303 14.0568943,18.6167225 L14.0568943,18.6167225 C14.2679324,18.3000147 14.1693475,17.8990423 13.8524889,17.6880043 L13.8524889,17.6880043 C13.7386791,17.6120306 13.6138651,17.5763049 13.4908601,17.5763049 L13.4908601,17.5763049 C13.2721342,17.5763049 13.0591365,17.6898132 12.9240722,17.8925604 M10.7500787,18.2731827 C10.5250216,18.6111451 10.5957194,19.0541742 10.9332296,19.2792313 L10.9332296,19.2792313 C11.292145,19.5183072 11.7354757,19.4477602 11.9745516,19.0888448 L11.9745516,19.0888448 C12.1996087,18.7511839 12.1290616,18.3078532 11.79125,18.0829469 L11.79125,18.0829469 C11.650759,17.9893365 11.4973041,17.9432096 11.3483716,17.9432096 L11.3483716,17.9432096 C11.1165312,17.9432096 10.8955442,18.054909 10.7500787,18.2731827 M8.61120793,18.6470215 C8.35811298,19.0270408 8.43559411,19.5053434 8.79450956,19.7447209 L8.79450956,19.7447209 C9.1956326,20.0118348 9.67408604,19.9342029 9.92718096,19.5541837 L9.92718096,19.5541837 C10.2015304,19.1881834 10.1027948,18.695711 9.74387934,18.456635 L9.74387934,18.456635 C9.58454561,18.350513 9.41300182,18.298658 9.24824137,18.298658 L9.24824137,18.298658 C8.99831203,18.2988087 8.76375829,18.4178945 8.61120793,18.6470215 M6.45138411,19.0066907 C6.18411949,19.4079645 6.25466649,19.9426445 6.65594029,20.2099091 L6.65594029,20.2099091 C7.04289366,20.4982775 7.57048879,20.392457 7.84498903,20.0264567 L7.84498903,20.0264567 C8.11225365,19.6251829 8.04140516,19.0906537 7.64028209,18.823389 L7.64028209,18.823389 C7.48908842,18.722543 7.31332384,18.6730998 7.13921745,18.6730998 L7.13921745,18.6730998 C6.8758721,18.6730998 6.61644602,18.7863066 6.45138411,19.0066907 M19.9952039,18.9453389 C19.9178735,19.0155844 19.9953546,19.2196884 20.0025902,19.4376605 L20.0025902,19.4376605 C20.2277979,19.3743491 20.424817,19.3529438 20.4386853,19.2407922 L20.4386853,19.2407922 C20.4950626,19.1560755 20.4245156,18.9875465 20.3963269,18.8466032 L20.3963269,18.8466032 C20.2553836,18.8749426 20.0867039,18.8535373 19.9952039,18.9453389 M4.29171106,19.4577092 C4.00334262,19.844964 4.10192755,20.4287857 4.52430514,20.7100693 L4.52430514,20.7100693 C4.946532,20.9913529 5.50924992,20.8784475 5.79746761,20.4914942 L5.79746761,20.4914942 C6.07890194,20.0689658 5.98740187,19.5204176 5.57904322,19.2180302 L5.57904322,19.2180302 C5.41820207,19.110853 5.23399598,19.0588472 5.0519003,19.0588472 L5.0519003,19.0588472 C4.75599479,19.0588472 4.46581745,19.1963234 4.29171106,19.4577092 M17.7720686,19.2626497 C17.6454458,19.4527347 17.7018231,19.7340183 17.8919081,19.8606411 L17.8919081,19.8606411 C18.0818423,19.9871132 18.3492577,19.9519904 18.4687957,19.7266319 L18.4687957,19.7266319 C18.5812489,19.5576508 18.5459753,19.2905369 18.3561918,19.163914 L18.3561918,19.163914 C18.287906,19.1066323 18.2036415,19.0801018 18.1189248,19.0801018 L18.1189248,19.0801018 C17.9850663,19.0801018 17.8495498,19.1462773 17.7720686,19.2626497 M15.5842069,19.6645264 C15.4293954,19.8966683 15.4928576,20.2133762 15.7461033,20.3822066 L15.7461033,20.3822066 C15.9785466,20.5368674 16.3089719,20.4523014 16.4636327,20.2200088 L16.4636327,20.2200088 C16.6184442,19.9877162 16.5341797,19.6571401 16.3017363,19.5023286 L16.3017363,19.5023286 C16.2213911,19.4488154 16.1291373,19.4239431 16.0365821,19.4239431 L16.0365821,19.4239431 C15.861722,19.4239431 15.6852037,19.512579 15.5842069,19.6645264 M2.50452016,19.5781516 C2.90579395,20.0281149 3.32108671,20.4571251 3.74346432,20.9214088 L3.74346432,20.9214088 C3.97545545,20.3443705 3.89073873,19.9222944 3.53890815,19.6269918 L3.53890815,19.6269918 C3.37459994,19.500972 3.17908824,19.4350979 2.98282287,19.4350979 L2.98282287,19.4350979 C2.81791169,19.4350979 2.65239754,19.4816771 2.50452016,19.5781516 M13.4102134,20.0452994 C13.2415337,20.2986958 13.2837413,20.692734 13.5583923,20.8755834 L13.5583923,20.8755834 C13.8539963,21.072301 14.2407989,20.9948199 14.4236483,20.720169 L14.4236483,20.720169 C14.6064977,20.4458195 14.5290166,20.0588661 14.2545164,19.8761675 L14.2545164,19.8761675 C14.1536704,19.8089368 14.0375994,19.7768288 13.9219807,19.7768288 L13.9219807,19.7768288 C13.7231527,19.7768288 13.5258321,19.8716452 13.4102134,20.0452994 M11.2363706,20.4260724 C11.0254833,20.7427802 11.1239175,21.1439032 11.4406253,21.3549413 L11.4406253,21.3549413 C11.7362294,21.5516589 12.1584562,21.467093 12.3693436,21.1503851 L12.3693436,21.1503851 C12.5802309,20.8338281 12.4817967,20.4325542 12.1647874,20.2216669 L12.1647874,20.2216669 C12.0509776,20.145844 11.9261636,20.1099675 11.8031586,20.1099675 L11.8031586,20.1099675 C11.584282,20.1099675 11.371435,20.2234758 11.2363706,20.4260724 M9.07654684,20.7855908 C8.83747088,21.1445062 8.90816861,21.5878369 9.26663184,21.8267621 L9.26663184,21.8267621 C9.60459422,22.0519699 10.0479249,21.9814229 10.2729819,21.6436112 L10.2729819,21.6436112 C10.5119071,21.2843943 10.4413601,20.8415159 10.0824447,20.6022891 L10.0824447,20.6022891 C9.95145035,20.5151606 9.80462816,20.47235 9.6608208,20.47235 L9.6608208,20.47235 C9.43380413,20.47235 9.2141738,20.5789242 9.07654684,20.7855908 M6.90963819,21.201788 C6.67056222,21.5607034 6.7478926,22.0388554 7.12806259,22.292101 L7.12806259,22.292101 C7.50808184,22.5453467 8.00055421,22.4466111 8.25379989,22.0665918 L8.25379989,22.0665918 C8.49287586,21.7076763 8.39398947,21.215204 8.03522475,20.9762787 L8.03522475,20.9762787 C7.89322629,20.8816131 7.73555072,20.8360892 7.58043773,20.8360892 L7.58043773,20.8360892 C7.32055945,20.8362399 7.06806748,20.9637672 6.90963819,21.201788 M5.46719306,21.2162592 C5.12259804,21.2305796 4.86211679,21.3923252 4.70745604,21.7159671 L4.70745604,21.7159671 C5.12983363,21.9974015 5.53095669,22.2645154 5.93207975,22.53178 L5.93207975,22.53178 C5.97428737,22.5598179 6.05176848,22.5809217 6.11507989,22.62328 L6.11507989,22.62328 C6.3684763,22.3347609 6.38219378,22.0391568 6.26250505,21.7155055 L6.26250505,21.7155055 C6.13301812,21.4226242 5.83213815,21.2155055 5.50020544,21.2155055 L5.50020544,21.2155055 C5.48920131,21.2155055 5.47819718,21.2158069 5.46719306,21.2162592 M18.3076531,21.4785493 C18.2583606,21.598238 18.3078038,21.7530495 18.3008697,21.9007762 L18.3008697,21.9007762 C18.3430773,21.9289648 18.3851342,21.9571535 18.4416622,21.9642384 L18.4416622,21.9642384 C18.5610495,21.9220307 18.7160117,21.8725875 18.8072103,21.7810875 L18.8072103,21.7810875 C18.926899,21.6473798 18.8776066,21.4924175 18.7087761,21.3799644 L18.7087761,21.3799644 C18.6537555,21.3433342 18.5949663,21.3252452 18.5387397,21.3252452 L18.5387397,21.3252452 C18.4437726,21.3252452 18.3563426,21.3769496 18.3076531,21.4785493 M16.0845179,21.7961616 C15.957895,21.9860959 16.0071875,22.2324074 16.1832535,22.3801341 L16.1832535,22.3801341 C16.3591688,22.5275592 16.6615562,22.4853516 16.7883298,22.2952666 L16.7883298,22.2952666 C16.9359057,22.1196528 16.8793776,21.8380677 16.6894434,21.7115956 L16.6894434,21.7115956 C16.617389,21.6635091 16.5323708,21.6419531 16.4470511,21.6419531 L16.4470511,21.6419531 C16.3074645,21.6419531 16.1674257,21.7001393 16.0845179,21.7961616 M13.8968069,22.1980384 C13.7418447,22.430331 13.8262599,22.760907 14.0584017,22.9157185 L14.0584017,22.9157185 C14.2906943,23.0703793 14.6212704,22.9856626 14.7760819,22.7536714 L14.7760819,22.7536714 C14.9307426,22.5213788 14.8464782,22.1908028 14.6141855,22.0359913 L14.6141855,22.0359913 C14.5285644,21.9895629 14.4345017,21.9669517 14.341645,21.9669517 L14.341645,21.9669517 C14.1673878,21.9669517 13.9975022,22.0465432 13.8968069,22.1980384 M11.7225119,22.5786606 C11.5396625,22.8533116 11.6172943,23.2402649 11.8916438,23.4231142 L11.8916438,23.4231142 C12.1662948,23.6059638 12.5530974,23.5283318 12.7359468,23.2538316 L12.7359468,23.2538316 C12.9186455,22.9791807 12.8200606,22.5785098 12.5457111,22.3956604 L12.5457111,22.3956604 C12.4484828,22.3308416 12.339949,22.3003918 12.2320181,22.3003918 L12.2320181,22.3003918 C12.0351497,22.3003918 11.8406932,22.4015393 11.7225119,22.5786606 M9.54866913,22.959735 C9.33778182,23.2762921 9.43651748,23.6774151 9.75307457,23.8883025 L9.75307457,23.8883025 C10.0696317,24.0991898 10.4709055,24.0006049 10.6817928,23.683897 L10.6817928,23.683897 C10.8926801,23.3673399 10.7940952,22.9662169 10.4770859,22.7551788 L10.4770859,22.7551788 C10.3632761,22.6793559 10.2384621,22.6434794 10.1154571,22.6434794 L10.1154571,22.6434794 C9.8967312,22.6436302 9.68373349,22.7569877 9.54866913,22.959735 M7.44507191,23.3261875 C7.86051539,23.4808482 8.28967636,23.6142544 8.70481838,23.769066 L8.70481838,23.769066 C8.71853586,23.3819618 8.52151675,23.1288669 8.17692173,23.0515366 L8.17692173,23.0515366 C8.10275695,23.0251568 8.02904435,23.0123438 7.95789438,23.0123438 L7.95789438,23.0123438 C7.74534891,23.0123438 7.55571615,23.1258521 7.44507191,23.3261875" id="path-1"></path>
        <linearGradient x1="20.864%" y1="91.095%" x2="76.298%" y2="7.523%" id="linearGradient-3">
            <stop stop-color="#339CCC" offset="0%"></stop>
            <stop stop-color="#1C3B83" offset="100%"></stop>
        </linearGradient>
    </defs>
    <g id="页面-1" stroke="none" stroke-width="1" fill="none" fill-rule="evenodd">
        <g id="Project_Requests" transform="translate(-76.000000, -512.000000)">
            <g id="Plasm" transform="translate(76.000000, 512.000000)">
                <rect id="矩形" x="1.8189894e-12" y="0" width="24" height="24"></rect>
                <g id="Clipped">
                    <mask id="mask-2" fill="white">
                        <use xlink:href="#path-1"></use>
                    </mask>
                    <g id="plasm-c"></g>
                    <path d="M11.3412867,0.317009315 C11.2500881,0.500310943 11.1796918,0.697179307 11.0883425,0.880179452 L11.0883425,0.880179452 C10.5179368,0.0432628024 9.53962465,-0.181643473 8.96349074,1.14141442 L8.96349074,1.14141442 C8.62552836,0.642007928 8.16817874,0.550809337 7.6616874,0.853498211 L7.6616874,0.853498211 L7.62641389,0.86043232 C7.3662341,1.0224794 7.09896948,1.14925298 6.8176859,1.29713036 L6.8176859,1.29713036 C6.82462,1.24075305 6.79643135,1.19161133 6.8035162,1.13508328 L6.8035162,1.13508328 C6.71201611,1.22688484 6.64192135,1.33225313 6.54333642,1.38878118 L6.54333642,1.38878118 C6.0859868,1.6632814 5.5724106,1.93069677 5.12229657,2.24062123 L5.12229657,2.24062123 C4.13750253,2.89529143 3.30058588,3.73989591 2.56918825,4.65489665 L2.56918825,4.65489665 C2.18947049,5.13350082 1.85889445,5.67526565 1.54263884,6.19607744 L1.54263884,6.19607744 C1.47917668,6.33686999 1.47239331,6.48444588 1.40893115,6.62538916 L1.40893115,6.62538916 C1.34577048,6.7661817 1.20512868,6.88571967 1.14166652,7.02651222 L1.14166652,7.02651222 C0.635627403,8.06105094 0.326607387,9.16583517 0.137125357,10.3199119 L0.137125357,10.3199119 C0.0878328958,10.62245 -0.0246202421,10.9741299 0.517144607,11.0302057 L0.517144607,11.0302057 C-0.1862151,11.6286493 -0.00291347023,12.3603484 0.102907043,13.070793 L0.102907043,13.070793 C0.187322267,12.9441702 0.250332202,12.8033776 0.320577727,12.6977079 L0.320577727,12.6977079 C0.567190776,12.8314155 0.799332642,12.9860763 1.0245404,13.1054635 L1.0245404,13.1054635 C0.869728908,13.3379069 0.7152189,13.5700488 0.560407408,13.8024921 L0.560407408,13.8024921 C0.426699723,13.6828034 0.292992038,13.5634161 0.0887373446,13.3662463 L0.0887373446,13.3662463 C0.242493645,13.9597155 0.389768063,14.5213782 0.530711338,15.0515359 L0.530711338,15.0515359 C0.600052415,14.9122508 0.663363834,14.781558 0.701501426,14.688852 L0.701501426,14.688852 C1.01097367,14.8647673 1.29949284,15.0263621 1.54595515,15.1599191 L1.54595515,15.1599191 C1.36325649,15.4344193 1.15221843,15.7509764 0.969369022,16.0256273 L0.969369022,16.0256273 C0.856614401,15.9201083 0.715821867,15.7652968 0.575180073,15.6104853 L0.575180073,15.6104853 C0.561161116,15.6314384 0.525887612,15.6385232 0.511868654,15.6597778 L0.511868654,15.6597778 C0.680849846,16.0465804 0.814708272,16.4406186 0.969670504,16.8486758 L0.969670504,16.8486758 C1.00494401,16.8415909 1.00494401,16.8415909 1.04006677,16.8345061 L1.04006677,16.8345061 C1.04021751,16.743006 1.07534028,16.6445718 1.11046304,16.5459869 L1.11046304,16.5459869 C1.49063303,17.073582 1.89160534,17.2491958 2.37729436,17.1153374 L2.37729436,17.1153374 C2.79243638,16.9956487 3.1225602,16.6367333 3.143664,16.1934026 L3.143664,16.1934026 C3.17140044,15.5109959 2.75610768,15.1734858 2.1018897,15.0118909 L2.1018897,15.0118909 C2.55215448,14.7936173 2.74178723,14.4627397 2.79801381,14.012475 L2.79801381,14.012475 C3.27661798,14.5751929 3.67774105,14.7509575 4.17021342,14.5607217 L4.17021342,14.5607217 C4.57827059,14.4059102 4.85940344,13.9836834 4.84508299,13.5474375 L4.84508299,13.5474375 C4.81674361,13.0409462 4.53515854,12.731474 3.81039354,12.4925487 L3.81039354,12.4925487 C4.21151658,12.3024637 4.41516833,11.9506331 4.47139488,11.5002176 L4.47139488,11.5002176 C4.8937725,12.0558507 5.31599936,12.2456342 5.79430204,12.076653 L5.79430204,12.076653 C6.223463,11.9357097 6.54710496,11.5418222 6.51168071,11.0914067 L6.51168071,11.0914067 C6.47655795,10.8241421 6.38490713,10.5496419 6.21592595,10.3456887 L6.21592595,10.3456887 C6.03292579,10.16299 5.75842558,10.0716407 5.53321782,9.95210269 L5.53321782,9.95210269 C5.89906737,9.76895182 6.10995468,9.45224397 6.1590964,8.96670569 L6.1590964,8.96670569 C6.54635125,9.52927286 6.94747429,9.70518816 7.42607846,9.53530253 L7.42607846,9.53530253 C7.86217355,9.42963276 8.18566475,9.03559454 8.20661782,8.59226388 L8.20661782,8.59226388 C8.23450499,7.9097065 7.81936296,7.57219634 7.17192835,7.44572424 L7.17192835,7.44572424 C7.62219313,7.22760135 7.81212737,6.89687456 7.86805247,6.44660977 L7.86805247,6.44660977 C8.36776044,7.02304517 8.76194939,7.16368696 9.25427104,6.97360196 L9.25427104,6.97360196 C9.64107365,6.80477152 9.90833827,6.40349772 9.89416858,5.96740263 L9.89416858,5.96740263 C9.86582919,5.46060981 9.56314031,5.13726936 8.85947913,4.91236307 L8.85947913,4.91236307 C9.25321585,4.68700458 9.46440465,4.37029675 9.52048047,3.92003197 L9.52048047,3.92003197 C9.96381115,4.48983472 10.3791039,4.64419399 10.8575573,4.47536354 L10.8575573,4.47536354 C11.2865676,4.33442027 11.6029739,3.9052593 11.5536814,3.47594758 L11.5536814,3.47594758 C11.5395117,3.22285266 11.4266064,2.93433349 11.2648608,2.76565377 L11.2648608,2.76565377 C11.0818606,2.58280439 10.8075112,2.49130429 10.6032565,2.38608675 L10.6032565,2.38608675 C10.7227944,2.25237907 10.8846908,2.1467093 10.9971439,1.97772811 L10.9971439,1.97772811 C11.1095971,1.80889766 11.1799933,1.61187856 11.2220502,1.36556699 L11.2220502,1.36556699 C11.6653809,1.93521901 12.214532,2.11806842 12.7208727,1.8152288 L12.7208727,1.8152288 C13.1358639,1.60419074 13.346902,1.10433202 13.2198269,0.654217987 L13.2198269,0.654217987 C13.0791851,0.224906276 12.9593457,-0.00723559064 12.2837224,0.000301482943 L12.2837224,0.000301482943 C12.157401,0.00723559064 12.0307782,0.0144711813 11.9181743,0.000301482943 L11.9181743,0.000301482943 C11.9103358,0 11.9024972,0 11.8948094,0 L11.8948094,0 C11.6647779,0 11.4569054,0.0991878882 11.3412867,0.317009315 M8.70361244,2.7671612 C8.84425423,2.55597238 9.01293394,2.30257598 9.1675947,2.07028337 L9.1675947,2.07028337 C9.45611387,2.23217971 9.74463304,2.39377458 9.99109535,2.52733151 L9.99109535,2.52733151 C9.82241566,2.78087868 9.61137759,3.09743575 9.42852818,3.37193598 L9.42852818,3.37193598 C9.21040526,3.19617143 8.94977326,2.9922182 8.70361244,2.7671612 M6.71955319,3.18320766 C6.84617604,2.99297193 6.97279887,2.80288693 7.11328993,2.59184887 L7.11328993,2.59184887 C7.30337493,2.7184717 7.52858268,2.83785894 7.75379044,2.95754768 L7.75379044,2.95754768 C7.59912969,3.18984028 7.45863863,3.40072761 7.30382714,3.63317096 L7.30382714,3.63317096 C7.11374215,3.50669886 6.91672304,3.34495325 6.71955319,3.18320766 M4.77091818,3.59201853 C4.85533342,3.46524494 4.95376759,3.31751832 5.03803207,3.19074473 L5.03803207,3.19074473 C5.17867386,3.25405615 5.326702,3.35249032 5.48844761,3.42966997 L5.48844761,3.42966997 C5.37599445,3.59865115 5.27756028,3.74652853 5.16510714,3.91520824 L5.16510714,3.91520824 C5.03124872,3.79567025 4.90462587,3.71140577 4.77091818,3.59201853 M7.01591092,5.30067311 C7.15670347,5.08963505 7.32538318,4.83623863 7.48004391,4.60394602 L7.48004391,4.60394602 C7.76856311,4.76554087 8.05708228,4.92728649 8.30339383,5.06099417 L8.30339383,5.06099417 C8.13486487,5.31423983 7.92367608,5.63109841 7.74082667,5.90544789 L7.74082667,5.90544789 C7.52270375,5.72953259 7.27609071,5.50462632 7.01591092,5.30067311 M5.05295549,5.73058778 C5.17957832,5.54050278 5.30620115,5.3504178 5.43267325,5.16048354 L5.43267325,5.16048354 C5.62275824,5.28695563 5.8268622,5.39247467 6.05222069,5.5118619 L6.05222069,5.5118619 C5.91127742,5.72320145 5.75676742,5.95549407 5.60210666,6.18748518 L5.60210666,6.18748518 C5.42604063,6.04006001 5.22902153,5.87831443 5.05295549,5.73058778 M3.12557504,6.15356836 C3.20999025,6.02679478 3.29440548,5.90032268 3.37851921,5.77369985 L3.37851921,5.77369985 C3.51946249,5.83670978 3.64608534,5.92112501 3.78687786,5.98428567 L3.78687786,5.98428567 C3.68829293,6.13216305 3.5758398,6.30114426 3.47740562,6.44887091 L3.47740562,6.44887091 C3.36495249,6.3435026 3.23802817,6.25893664 3.12557504,6.15356836 M5.32836016,7.83418502 C5.46900195,7.62299622 5.63768166,7.36959981 5.79249315,7.13745793 L5.79249315,7.13745793 C6.08086159,7.29920354 6.36953149,7.46109988 6.61584307,7.59435533 L6.61584307,7.59435533 C6.44716335,7.8479025 6.23612529,8.16461032 6.05327588,8.43911056 L6.05327588,8.43911056 C5.83500225,8.26319525 5.58853994,8.03798749 5.32836016,7.83418502 M3.36555546,8.26425044 C3.49217829,8.07416544 3.61865039,7.88408044 3.74527322,7.69399545 L3.74527322,7.69399545 C3.94952791,7.79951448 4.16041524,7.94015627 4.37868889,8.02442075 L4.37868889,8.02442075 C4.22387739,8.2568641 4.08338635,8.46805291 3.9287256,8.70019478 L3.9287256,8.70019478 C3.77376336,8.56663782 3.56272529,8.4258453 3.36555546,8.26425044 M1.3956659,8.65904235 C1.48008113,8.53226876 1.56449635,8.40564593 1.66277979,8.25791928 L1.66277979,8.25791928 C1.78940263,8.34218379 1.95144971,8.41951416 2.11319531,8.49684452 L2.11319531,8.49684452 C2.00074217,8.66582572 1.90215725,8.8137031 1.78985485,8.98238282 L1.78985485,8.98238282 C1.64182673,8.88409937 1.50811904,8.76441065 1.3956659,8.65904235 M3.64065864,10.3676969 C3.78145116,10.1568096 3.95013088,9.90341321 4.10479163,9.67112059 L4.10479163,9.67112059 C4.39316007,9.83271545 4.68182998,9.99431031 4.92814155,10.128018 L4.92814155,10.128018 C4.75961259,10.3812637 4.54842377,10.698273 4.36572512,10.9724717 L4.36572512,10.9724717 C4.1476022,10.7967072 3.8869702,10.592754 3.64065864,10.3676969 M1.65675013,10.7835927 C1.78322223,10.5936584 1.90969432,10.4037241 2.0364679,10.2136391 L2.0364679,10.2136391 C2.24750596,10.3542809 2.45145917,10.4596492 2.67696841,10.5791872 L2.67696841,10.5791872 C2.52215693,10.8113291 2.38151514,11.0226686 2.24072259,11.2338574 L2.24072259,11.2338574 C2.06495804,11.0862815 1.85361849,10.945489 1.65675013,10.7835927 M1.95295712,12.9015103 C2.10776862,12.6692177 2.27659906,12.4158213 2.41709011,12.2046325 L2.41709011,12.2046325 C2.70545856,12.3662274 2.99427921,12.5281237 3.25476046,12.6405768 L3.25476046,12.6405768 C3.08593001,12.8939732 2.8750427,13.2106811 2.6921933,13.4850306 L2.6921933,13.4850306 C2.47361816,13.309266 2.21328765,13.105162 1.95295712,12.9015103 M13.3110255,0.380019249 C13.2409307,0.851689315 13.4943272,1.2947185 13.9516768,1.47741716 L13.9516768,1.47741716 C14.3879226,1.64624761 14.8874798,1.49128538 15.1689142,1.06890778 L15.1689142,1.06890778 C15.1829331,1.04780397 15.2111218,1.00559636 15.239009,0.963388746 L15.239009,0.963388746 C15.4149242,0.562416431 15.3798015,0.477850465 14.9788292,0.393585982 L14.9788292,0.393585982 C14.5354985,0.281283587 14.0709133,0.246160823 13.6277334,0.133858427 L13.6277334,0.133858427 C13.5897465,0.127376544 13.5568849,0.124210973 13.528244,0.124210973 L13.528244,0.124210973 C13.3704177,0.124210973 13.3407216,0.219479583 13.3110255,0.380019249 M16.7590859,0.969719887 C16.3858501,0.843398534 16.0481892,0.70984159 15.6540002,0.569350537 L15.6540002,0.569350537 C15.8722739,1.01931383 16.2666136,1.15995562 16.7590859,0.969719887 M16.0979339,1.68770152 C15.8306692,2.08882457 15.9294049,2.67294778 16.316509,2.96116547 L16.316509,2.96116547 C16.7036131,3.24968464 17.2732651,3.17190205 17.5758032,2.76369415 L17.5758032,2.76369415 C17.8920588,2.33438243 17.7933232,1.75056071 17.3710963,1.46912638 L17.3710963,1.46912638 C17.2070896,1.35983881 17.0239387,1.30692856 16.8435012,1.30692856 L16.8435012,1.30692856 C16.559655,1.30692856 16.2827429,1.43807364 16.0979339,1.68770152 M13.9307237,2.10374798 C13.6566757,2.56109759 13.797619,3.17325872 14.2337141,3.4334385 L14.2337141,3.4334385 C14.6702614,3.69361827 15.2684035,3.57377881 15.5496871,3.15155195 L15.5496871,3.15155195 C15.8448389,2.70807054 15.7249994,2.10992838 15.2818195,1.81477658 L15.2818195,1.81477658 C15.1172098,1.71619165 14.9346619,1.66840661 14.7543751,1.66855664 L14.7543751,1.66855664 C14.4334465,1.66855664 14.120055,1.81975104 13.9307237,2.10374798 M19.3767116,2.53079856 C18.9544847,2.24966572 18.5535124,1.98240109 18.1312856,1.70111751 L18.1312856,1.70111751 C17.9975779,2.31312788 18.7579179,2.91096856 19.3767116,2.53079856 M11.7779848,2.49853988 C11.4685125,2.96297436 11.5955876,3.59623928 12.0601728,3.90556079 L12.0601728,3.90556079 C12.5246073,4.21488229 13.1929949,4.08102385 13.4812127,3.60257044 L13.4812127,3.60257044 C13.7906849,3.13798521 13.6497416,2.52597483 13.1851564,2.21665334 L13.1851564,2.21665334 C13.0131604,2.10208982 12.8181009,2.04737067 12.6250011,2.04737067 L12.6250011,2.04737067 C12.2962339,2.04737067 11.9728935,2.2059507 11.7779848,2.49853988 M18.7229458,3.4669031 C18.4837191,3.82566782 18.561351,4.3039705 18.9413702,4.55706543 L18.9413702,4.55706543 C19.3213895,4.81031111 19.8140126,4.71157543 20.0671075,4.33155619 L20.0671075,4.33155619 C20.3060328,3.97264074 20.2074478,3.48016836 19.8485324,3.24109237 L19.8485324,3.24109237 C19.7065339,3.14657747 19.5488583,3.10105356 19.3937454,3.10105356 L19.3937454,3.10105356 C19.1338671,3.10105356 18.8815259,3.22873157 18.7229458,3.4669031 M16.5700561,3.86169501 C16.3029422,4.26266734 16.4084613,4.79026248 16.8097351,5.05752712 L16.8097351,5.05752712 C17.203924,5.28951823 17.7175002,5.20510302 17.9847648,4.80397995 L17.9847648,4.80397995 C18.2518787,4.40285689 18.1460582,3.87526176 17.7449352,3.60799711 L17.7449352,3.60799711 C17.6005248,3.5228282 17.4401359,3.48031909 17.2815559,3.48031909 L17.2815559,3.48031909 C17.0075079,3.48031909 16.7393388,3.60739416 16.5700561,3.86169501 M14.3960626,4.24246798 C14.1149298,4.66484557 14.2276844,5.22756349 14.6499113,5.50884707 L14.6499113,5.50884707 C15.0721381,5.79013068 15.6350068,5.6772253 15.9019699,5.27610224 L15.9019699,5.27610224 C16.1834043,4.85387538 16.0917535,4.30532718 15.6835456,4.00263829 L15.6835456,4.00263829 C15.5227044,3.89546112 15.3384983,3.84345529 15.1565534,3.8436054 L15.1565534,3.8436054 C14.8604971,3.8436054 14.5703198,3.98093152 14.3960626,4.24246798 M12.2573426,4.61630682 C11.9621908,5.05948674 12.0680113,5.67873273 12.5111913,5.97403525 L12.5111913,5.97403525 C12.9545219,6.26933779 13.5877869,6.14256423 13.8618349,5.68521459 L13.8618349,5.68521459 C14.1432692,5.262837 14.023279,4.66484557 13.6150711,4.36245819 L13.6150711,4.36245819 C13.4468436,4.25030654 13.2532915,4.19603961 13.0616991,4.19603961 L13.0616991,4.19603961 C12.7484583,4.19603961 12.4404935,4.34120364 12.2573426,4.61630682 M10.0975188,5.06732531 C9.7880466,5.53191051 9.92914061,6.14392091 10.3937258,6.45324239 L10.3937258,6.45324239 C10.8510755,6.72744114 11.4701707,6.62162062 11.7654732,6.17828996 L11.7654732,6.17828996 C12.0747947,5.71385549 11.969125,5.09476026 11.5046905,4.78528802 L11.5046905,4.78528802 C11.3387241,4.66363965 11.1462272,4.60681012 10.9535797,4.60681012 L10.9535797,4.60681012 C10.6233051,4.60681012 10.2930305,4.77398241 10.0975188,5.06732531 M21.2282691,5.56266179 C21.1932971,5.8440961 21.3481086,6.06915313 21.5945709,6.20271008 L21.5945709,6.20271008 C21.8408824,6.33626701 22.1081471,6.30114426 22.312251,6.13201232 L22.312251,6.13201232 C22.3755624,6.0828706 22.4316383,5.90665381 22.3824966,5.84349315 L22.3824966,5.84349315 C22.2135154,5.54819061 22.0094114,5.25982217 21.7982226,4.93618024 L21.7982226,4.93618024 C21.4674958,5.02044472 21.2704767,5.22469941 21.2282691,5.56266179 M19.2232568,5.598689 C18.9843315,5.95745369 19.0547278,6.40063362 19.413794,6.63970961 L19.413794,6.63970961 C19.7516056,6.86476661 20.1946348,6.79406887 20.4196918,6.45640798 L20.4196918,6.45640798 C20.6587678,6.09749254 20.5883715,5.65431259 20.2294561,5.41538738 L20.2294561,5.41538738 C20.0910754,5.32313358 19.9431981,5.27896634 19.8008981,5.27896634 L19.8008981,5.27896634 C19.5741829,5.27896634 19.3614867,5.39096724 19.2232568,5.598689 M17.0352443,6.00041501 C16.7960176,6.35933046 16.8736495,6.83748241 17.239499,7.11198262 L17.239499,7.11198262 C17.60565,7.38618137 18.0981224,7.28759644 18.3513681,6.9075772 L18.3513681,6.9075772 C18.6043123,6.52755793 18.5057274,6.03493482 18.1469627,5.79585884 L18.1469627,5.79585884 C18.0055672,5.69003832 17.8454797,5.63984141 17.6876534,5.63984141 L17.6876534,5.63984141 C17.4363674,5.63984141 17.1906588,5.76706721 17.0352443,6.00041501 M14.8823546,6.39505619 C14.6152407,6.79632998 14.7350802,7.30282132 15.1360525,7.56993521 L15.1360525,7.56993521 C15.5370248,7.83719985 16.06462,7.73153007 16.3318846,7.33040703 L16.3318846,7.33040703 C16.5641772,6.93636883 16.4793098,6.42264187 16.0781867,6.15552798 L16.0781867,6.15552798 C15.9286512,6.05588789 15.7616296,6.00810284 15.5970199,6.00810284 L15.5970199,6.00810284 C15.3201078,6.00810284 15.0499791,6.14346867 14.8823546,6.39505619 M12.7226815,6.75487609 C12.441398,7.17710295 12.532898,7.72580191 12.941106,8.02834004 L12.941106,8.02834004 C13.3634835,8.30947287 13.9473053,8.21088796 14.2284381,7.78851035 L14.2284381,7.78851035 C14.5169573,7.40140625 14.4182216,6.81758453 13.9959948,6.5361502 L13.9959948,6.5361502 C13.831988,6.42701338 13.6488372,6.37410312 13.4685504,6.37410312 L13.4685504,6.37410312 C13.1847042,6.37410312 12.9076413,6.50524822 12.7226815,6.75487609 M10.5556222,7.17092255 C10.2603196,7.61440396 10.3801591,8.21224464 10.802386,8.49367895 L10.802386,8.49367895 C11.2457166,8.78883076 11.8649626,8.68316098 12.1602651,8.23983032 L12.1602651,8.23983032 C12.4416995,7.81745271 12.3355775,7.19820675 11.8923975,6.9029042 L11.8923975,6.9029042 C11.7392442,6.80085222 11.5583544,6.75261496 11.3765602,6.75261496 L11.3765602,6.75261496 C11.057139,6.75261496 10.7348538,6.90169828 10.5556222,7.17092255 M21.8270142,7.36341941 C21.6443155,7.63776889 21.7219474,8.02472223 21.9962969,8.20757164 L21.9962969,8.20757164 C22.2707971,8.39057178 22.6577505,8.31293994 22.8194961,8.02442075 L22.8194961,8.02442075 C23.0023455,7.75007127 22.9458174,7.37698613 22.6714679,7.19413672 L22.6714679,7.19413672 C22.5706219,7.12690604 22.454551,7.09494885 22.3389323,7.09494885 L22.3389323,7.09494885 C22.1401043,7.09494885 21.9427837,7.18976524 21.8270142,7.36341941 M8.42398701,7.57973342 C8.11466551,8.04431863 8.24158982,8.67728206 8.6849205,8.97273536 L8.6849205,8.97273536 C9.14950571,9.28205685 9.78246915,9.15528329 10.0919414,8.69069805 L10.0919414,8.69069805 C10.4223667,8.24028254 10.2743386,7.59314941 9.8099041,7.28367717 L9.8099041,7.28367717 C9.64167663,7.17167625 9.45430498,7.11876599 9.26889297,7.11876599 L9.26889297,7.11876599 C8.94193472,7.11876599 8.62145833,7.28337569 8.42398701,7.57973342 M19.674426,7.7585128 C19.4635387,8.0750699 19.5619729,8.47604221 19.8786807,8.68692952 L19.8786807,8.68692952 C20.1953885,8.89811833 20.5965116,8.79908119 20.8073989,8.48267482 L20.8073989,8.48267482 C21.0182862,8.165967 20.9197013,7.76484394 20.6028427,7.55365514 L20.6028427,7.55365514 C20.4890329,7.47783217 20.364219,7.44210646 20.2413647,7.44210646 L20.2413647,7.44210646 C20.0224881,7.44210646 19.8094904,7.55561479 19.674426,7.7585128 M17.5144515,8.11788047 C17.2753755,8.47694666 17.3602429,8.89917352 17.6835834,9.14503286 L17.6835834,9.14503286 C18.0426496,9.38410883 18.4859802,9.31341109 18.7250562,8.95464638 L18.7250562,8.95464638 C18.9639814,8.59573093 18.8794155,8.1736548 18.5557735,7.92749398 L18.5557735,7.92749398 C18.4154332,7.83388353 18.2619784,7.78775665 18.1130458,7.78775665 L18.1130458,7.78775665 C17.8812055,7.78775665 17.659917,7.89945608 17.5144515,8.11788047 M15.3617125,8.51282313 C15.1086176,8.89284237 15.1860987,9.37129581 15.5450141,9.61037177 L15.5450141,9.61037177 C15.9461372,9.87763641 16.4245906,9.80000455 16.6778363,9.41998531 L16.6778363,9.41998531 C16.9518843,9.05398501 16.8531486,8.56151263 16.4943839,8.32243664 L16.4943839,8.32243664 C16.3350502,8.21631464 16.1635064,8.16461032 15.998746,8.16461032 L15.998746,8.16461032 C15.7488166,8.16461032 15.5142629,8.28369608 15.3617125,8.51282313 M13.1878698,8.89374683 C12.9207559,9.29471913 13.0264256,9.82231429 13.4273979,10.0894282 L13.4273979,10.0894282 C13.828521,10.3566928 14.3422479,10.2719761 14.6093618,9.87085304 L14.6093618,9.87085304 C14.8766265,9.46988073 14.7708059,8.94228558 14.3696829,8.67502095 L14.3696829,8.67502095 C14.2284381,8.58095827 14.0666925,8.53633879 13.9052484,8.53633879 L13.9052484,8.53633879 C13.6324064,8.53633879 13.3600165,8.66371534 13.1878698,8.89374683 M11.0209611,9.3094918 C10.7536965,9.71076559 10.8736867,10.308757 11.274659,10.5760216 L11.274659,10.5760216 C11.6617631,10.8642393 12.2455848,10.7655037 12.5268684,10.3431261 L12.5268684,10.3431261 C12.8434255,9.91396509 12.7097178,9.33692675 12.2871895,9.05564317 L12.2871895,9.05564317 C12.1302676,8.95117932 11.9539,8.90113315 11.7797937,8.90113315 L11.7797937,8.90113315 C11.4855463,8.90113315 11.1976301,9.0441868 11.0209611,9.3094918 M8.88224109,9.68317991 C8.58678782,10.1266613 8.71371213,10.7597755 9.15010868,11.0199553 L9.15010868,11.0199553 C9.57218481,11.3012389 10.1701762,11.1813994 10.4728651,10.7730407 L10.4728651,10.7730407 C10.774951,10.3648328 10.6691305,9.74588835 10.2398188,9.42948201 L10.2398188,9.42948201 C10.0715913,9.31733036 9.87803924,9.26306343 9.68644684,9.26306343 L9.68644684,9.26306343 C9.37320606,9.26306343 9.06539199,9.40822746 8.88224109,9.68317991 M22.3485797,9.53696069 C22.1899997,9.76804736 22.2486381,10.0838508 22.4794233,10.2424308 L22.4794233,10.2424308 C22.71051,10.4010108 23.0266148,10.3423724 23.185044,10.1112857 L23.185044,10.1112857 C23.3436241,9.88034976 23.2848349,9.56439564 23.053899,9.40596635 L23.053899,9.40596635 C22.9661675,9.34566975 22.8660752,9.31672739 22.767038,9.31672739 L22.767038,9.31672739 C22.6055939,9.31672739 22.4467124,9.39375628 22.3485797,9.53696069 M20.1745862,9.88984646 C19.9707837,10.1503277 20.0481141,10.5372811 20.3088969,10.7412343 L20.3088969,10.7412343 C20.5833971,10.923933 20.9561807,10.8674049 21.1601339,10.6070744 L21.1601339,10.6070744 C21.3429834,10.3325742 21.2795212,9.92466774 21.005021,9.74196908 L21.005021,9.74196908 C20.898296,9.67081911 20.7766477,9.63584708 20.6571097,9.63584708 L20.6571097,9.63584708 C20.4692858,9.63584708 20.2864364,9.72222196 20.1745862,9.88984646 M6.7362855,10.1133961 C6.44113371,10.5567267 6.54680347,11.1756712 7.0324925,11.4991624 L7.0324925,11.4991624 C7.49707771,11.8084839 8.11602218,11.7028142 8.42534369,11.2383797 L8.42534369,11.2383797 C8.73481593,10.7739452 8.60789161,10.140831 8.14345714,9.83135877 L8.14345714,9.83135877 C7.97161185,9.71679526 7.7765524,9.66207611 7.58345257,9.66207611 L7.58345257,9.66207611 C7.25468542,9.66207611 6.93134495,9.82065613 6.7362855,10.1133961 M18.0008942,10.2707702 C17.7898561,10.587478 17.8531675,10.9953844 18.1700261,11.2064225 L18.1700261,11.2064225 C18.4867339,11.4173098 18.8947911,11.3539984 19.1058292,11.0372906 L19.1058292,11.0372906 C19.3167165,10.720432 19.2531036,10.3125256 18.9365465,10.1014875 L18.9365465,10.1014875 C18.8170085,10.021896 18.6825471,9.98436137 18.5507991,9.98436137 L18.5507991,9.98436137 C18.3334299,9.98436137 18.123447,10.0867148 18.0008942,10.2707702 M15.8480045,10.6657128 C15.6089285,11.0246283 15.6794755,11.4678082 16.038391,11.7068842 L16.038391,11.7068842 C16.3762026,11.9319412 16.8195333,11.8612434 17.0445903,11.5234318 L17.0445903,11.5234318 C17.2836663,11.1646671 17.2129685,10.7214872 16.8542038,10.4824112 L16.8542038,10.4824112 C16.7158231,10.3901574 16.5679458,10.3461409 16.4256458,10.3461409 L16.4256458,10.3461409 C16.1989306,10.3461409 15.9862344,10.4579911 15.8480045,10.6657128 M13.6601428,11.0674388 C13.4068971,11.4473073 13.5196517,11.9189774 13.8784164,12.1579026 L13.8784164,12.1579026 C14.2585864,12.4111483 14.7510588,12.3122619 15.004003,11.9323934 L15.004003,11.9323934 C15.2433804,11.573478 15.1657486,11.0948738 14.7857293,10.8419296 L14.7857293,10.8419296 C14.6437309,10.747264 14.4859046,10.70174 14.3307916,10.70174 L14.3307916,10.70174 C14.071064,10.70174 13.8185721,10.8294181 13.6601428,11.0674388 M11.5072531,11.4622308 C11.2401392,11.8635046 11.3456582,12.3910997 11.7467813,12.6583643 L11.7467813,12.6583643 C12.141121,12.8902047 12.6545464,12.8056387 12.9219618,12.4046664 L12.9219618,12.4046664 C13.1890757,12.0036941 13.0834059,11.4757975 12.6822828,11.2085329 L12.6822828,11.2085329 C12.5378725,11.1235147 12.3774836,11.0810056 12.2189036,11.0810056 L12.2189036,11.0810056 C11.9448556,11.0810056 11.6765358,11.2082314 11.5072531,11.4622308 M9.33325958,11.8433052 C9.07323052,12.279551 9.18598514,12.8422689 9.56600441,13.0953639 L9.56600441,13.0953639 C9.98823127,13.3766474 10.5509492,13.2638928 10.8322328,12.841666 L10.8322328,12.841666 C11.1346201,12.4333073 11.0009125,11.8564197 10.5785349,11.5751361 L10.5785349,11.5751361 C10.4326171,11.4779079 10.2652941,11.4310273 10.0978203,11.4310273 L10.0978203,11.4310273 C9.80523113,11.4310273 9.51234045,11.5745331 9.33325958,11.8433052 M22.8421073,11.697086 C22.7156352,11.887171 22.750758,12.1542849 22.940843,12.2810584 L22.940843,12.2810584 C23.151881,12.4213987 23.4192963,12.3864267 23.5599381,12.1753887 L23.5599381,12.1753887 C23.6864103,11.9853037 23.6298822,11.7037186 23.439948,11.5772465 L23.439948,11.5772465 C23.3596027,11.5237333 23.274283,11.497655 23.1913752,11.497655 L23.1913752,11.497655 C23.0567631,11.497655 22.9292359,11.5663931 22.8421073,11.697086 M7.20147368,12.2518146 C6.9201901,12.6740414 7.04018031,13.2721836 7.4483882,13.5744202 L7.4483882,13.5744202 C7.85644537,13.8769584 8.49694588,13.7850061 8.7920977,13.3418262 L8.7920977,13.3418262 C9.08740024,12.8984955 8.98142897,12.2792495 8.53809831,11.983947 L8.53809831,11.983947 C8.37725716,11.8654642 8.18792586,11.8090869 7.99934829,11.8090869 L7.99934829,11.8090869 C7.68490157,11.8090869 7.37301747,11.965858 7.20147368,12.2518146 M20.6611797,12.0427362 C20.4923492,12.2961326 20.5558114,12.6125389 20.788104,12.7673504 L20.788104,12.7673504 C21.0202459,12.9220112 21.3579068,12.872568 21.5127183,12.6404261 L21.5127183,12.6404261 C21.667379,12.4081335 21.6176343,12.0703218 21.3856432,11.9156611 L21.3856432,11.9156611 C21.2958013,11.8558167 21.1902822,11.8265729 21.0856677,11.8265729 L21.0856677,11.8265729 C20.9197013,11.8265729 20.7559961,11.9002855 20.6611797,12.0427362 M18.4520634,12.4307447 C18.2830822,12.6839904 18.3396103,13.0569248 18.6002423,13.2610287 L18.6002423,13.2610287 C18.8742903,13.4435767 19.2824982,13.3801145 19.4653476,13.1056143 L19.4653476,13.1056143 C19.66915,12.8452838 19.5919704,12.4583304 19.3173195,12.275481 L19.3173195,12.275481 C19.2111975,12.2047833 19.0904535,12.1698112 18.9695589,12.1698112 L18.9695589,12.1698112 C18.777665,12.1698112 18.5856204,12.2578442 18.4520634,12.4307447 M5.01346122,12.6538421 C4.71815868,13.0971728 4.84508299,13.7304377 5.30981896,14.0399099 L5.30981896,14.0399099 C5.77425343,14.3492314 6.4073676,14.2223071 6.68156635,13.7649575 L6.68156635,13.7649575 C6.99103859,13.300523 6.88521807,12.681277 6.42078359,12.3719555 L6.42078359,12.3719555 C6.25481725,12.2501564 6.06216963,12.1933269 5.86952204,12.1933269 L5.86952204,12.1933269 C5.53924747,12.1933269 5.20882216,12.3604992 5.01346122,12.6538421 M16.2993245,12.8255366 C16.0882864,13.1420937 16.1868713,13.543066 16.5035792,13.7539534 L16.5035792,13.7539534 C16.7991832,13.9508217 17.2212593,13.8664065 17.4321466,13.5496986 L17.4321466,13.5496986 C17.629015,13.2540946 17.5445998,12.8318678 17.2275904,12.6208297 L17.2275904,12.6208297 C17.1210162,12.5498305 16.9978604,12.5154614 16.8741017,12.5154614 L16.8741017,12.5154614 C16.6550743,12.5154614 16.4340873,12.6230908 16.2993245,12.8255366 M14.1604537,13.1992247 C13.9213777,13.5581402 13.9919247,14.0013201 14.3509909,14.2405468 L14.3509909,14.2405468 C14.6888026,14.4654531 15.1318318,14.3947553 15.3568888,14.0570944 L15.3568888,14.0570944 C15.5961155,13.6980283 15.5254177,13.2549991 15.1665023,13.0159231 L15.1665023,13.0159231 C15.0281216,12.9238201 14.8802442,12.8796528 14.7379443,12.8796528 L14.7379443,12.8796528 C14.5113799,12.8796528 14.2986837,12.9916537 14.1604537,13.1992247 M11.9864602,13.5798469 C11.7121107,13.9458472 11.7897426,14.4241499 12.1557429,14.6984994 L12.1557429,14.6984994 C12.5357621,14.9515943 13.0142156,14.8741132 13.2742446,14.5293675 L13.2742446,14.5293675 C13.5485941,14.1633672 13.4851319,13.6638099 13.1262165,13.4245832 L13.1262165,13.4245832 C12.9742691,13.3107734 12.7995597,13.2551498 12.6272622,13.2551498 L12.6272622,13.2551498 C12.3845684,13.2551498 12.1469999,13.3657941 11.9864602,13.5798469 M9.81955155,13.9958934 C9.5663059,14.3759127 9.65102259,14.8893381 10.0382774,15.1778573 L10.0382774,15.1778573 C10.4602028,15.4589901 10.9880994,15.3531696 11.2552133,14.9521973 L11.2552133,14.9521973 C11.5223272,14.5510742 11.4166575,14.0234791 11.0364875,13.7702334 L11.0364875,13.7702334 C10.8757971,13.663207 10.6998818,13.6122564 10.5289409,13.6122564 L10.5289409,13.6122564 C10.2505214,13.6122564 9.9850657,13.7473207 9.81955155,13.9958934 M23.3703054,13.8781643 C23.2299652,13.9977023 23.2653893,14.1736176 23.4340691,14.2860707 L23.4340691,14.2860707 C23.6030502,14.3985239 23.7788148,14.3632504 23.8772491,14.2156745 L23.8772491,14.2156745 C23.9265415,14.095835 23.8770982,13.9411743 23.8843337,13.7934476 L23.8843337,13.7934476 C23.8418247,13.7651082 23.7996171,13.7370703 23.7574096,13.7088816 L23.7574096,13.7088816 C23.6238527,13.7724946 23.4619563,13.7863628 23.3703054,13.8781643 M7.64570879,14.3766664 C7.36442521,14.799044 7.47717983,15.3616112 7.89955744,15.6428947 L7.89955744,15.6428947 C8.3217843,15.9241783 8.8845022,15.8114237 9.15161609,15.4101499 L9.15161609,15.4101499 C9.43289969,14.9880738 9.35541856,14.418271 8.9331917,14.1368367 L8.9331917,14.1368367 C8.77235055,14.0296595 8.58814447,13.9778044 8.40604878,13.9778044 L8.40604878,13.9778044 C8.11014327,13.9778044 7.81996594,14.1152807 7.64570879,14.3766664 M21.1473209,14.1954751 C21.0205473,14.3855601 21.0772261,14.6669944 21.2671604,14.7936173 L21.2671604,14.7936173 C21.4781984,14.9341083 21.738529,14.8637121 21.844048,14.6596081 L21.844048,14.6596081 C21.9565012,14.4906269 21.9212276,14.2233623 21.7312934,14.0967395 L21.7312934,14.0967395 C21.6630075,14.0394577 21.5788938,14.0129272 21.4941771,14.0129272 L21.4941771,14.0129272 C21.3603186,14.0129272 21.224802,14.0792535 21.1473209,14.1954751 M5.49296985,14.7714583 C5.19751655,15.214789 5.33845983,15.8269501 5.74666775,16.1291867 L5.74666775,16.1291867 C6.2041681,16.4033855 6.80215953,16.2838475 7.08344311,15.8614699 L7.08344311,15.8614699 C7.37889639,15.4181392 7.27292514,14.7988932 6.82959446,14.5037414 L6.82959446,14.5037414 C6.67237111,14.3989761 6.4880143,14.3478747 6.30305451,14.3478747 L6.30305451,14.3478747 C5.99132114,14.3478747 5.67823112,14.4931895 5.49296985,14.7714583 M18.9593085,14.5973519 C18.8047984,14.8294937 18.8892137,15.1602205 19.1213555,15.315032 L19.1213555,15.315032 C19.3536482,15.4696928 19.6842242,15.3852776 19.8388849,15.1529849 L19.8388849,15.1529849 C19.9936964,14.9205416 19.909432,14.5901163 19.6769886,14.4353048 L19.6769886,14.4353048 C19.5966434,14.3817916 19.5043896,14.3569192 19.4118344,14.3569192 L19.4118344,14.3569192 C19.2369742,14.3569192 19.060456,14.4455552 18.9593085,14.5973519 M16.785315,14.9781248 C16.6024655,15.2526251 16.6802482,15.6394277 16.9476635,15.7871543 L16.9476635,15.7871543 C17.222013,15.9700037 17.5949474,15.9134757 17.7777968,15.6391262 L17.7777968,15.6391262 C17.9815993,15.3787957 17.8828636,14.9778233 17.6086649,14.794974 L17.6086649,14.794974 C17.5185215,14.7349788 17.4116458,14.7061872 17.3031119,14.7061872 L17.3031119,14.7061872 C17.1060928,14.7061872 16.9031948,14.8013051 16.785315,14.9781248 M3.3399294,15.1660995 C3.03060792,15.6306847 3.15738148,16.2639496 3.62211744,16.5734218 L3.62211744,16.5734218 C4.08655191,16.8827433 4.71966608,16.755819 5.02913834,16.2913845 L5.02913834,16.2913845 C5.32444087,15.8480539 5.21862037,15.2289587 4.76820486,14.8985333 L4.76820486,14.8985333 C4.59244028,14.7814072 4.38939153,14.7247284 4.18830241,14.7247284 L4.18830241,14.7247284 C3.85787711,14.7247284 3.53227553,14.8775803 3.3399294,15.1660995 M14.6256419,15.3379447 C14.4147546,15.6545018 14.4779153,16.062559 14.7946231,16.2734463 L14.7946231,16.2734463 C15.1116324,16.4844844 15.5195388,16.4210222 15.7304261,16.1044651 L15.7304261,16.1044651 C15.9414642,15.7874558 15.8781528,15.3795494 15.5612942,15.1685113 L15.5612942,15.1685113 C15.441907,15.0889198 15.3075963,15.0513852 15.175999,15.051535 L15.175999,15.051535 C14.9584791,15.051535 14.7483454,15.1537387 14.6256419,15.3379447 M0.469510301,15.1743902 C0.504783805,15.1671546 0.518802763,15.1460508 0.554076267,15.1392675 L0.554076267,15.1392675 C0.546388451,15.1101744 0.538549895,15.0809305 0.530711338,15.0515359 L0.530711338,15.0515359 C0.510662723,15.0920854 0.490011143,15.1332378 0.469510301,15.1743902 M12.4727522,15.7327366 C12.2333747,16.0918028 12.339346,16.5278979 12.6771576,16.7529549 L12.6771576,16.7529549 C13.0011011,16.9988143 13.4581492,16.9073142 13.6972252,16.548248 L13.6972252,16.548248 C13.9011784,16.1965681 13.8167632,15.7743413 13.4928197,15.5281805 L13.4928197,15.5281805 C13.3699654,15.4348715 13.227967,15.3901013 13.0859685,15.3901013 L13.0859685,15.3901013 C12.8535252,15.3901013 12.6212325,15.50979 12.4727522,15.7327366 M10.2987587,16.1135096 C10.02456,16.4792084 10.1231449,16.9718315 10.5031641,17.2250772 L10.5031641,17.2250772 C10.8833341,17.4781721 11.3617876,17.4005403 11.6148825,17.020521 L11.6148825,17.020521 C11.8890812,16.6545207 11.7904963,16.1620484 11.4104771,15.9089534 L11.4104771,15.9089534 C11.2666697,15.8130819 11.1068837,15.7677087 10.9507156,15.7677087 L10.9507156,15.7677087 C10.6941536,15.7677087 10.4475405,15.8904122 10.2987587,16.1135096 M8.13200079,16.5292546 C7.8648869,16.9302269 7.97055667,17.4578221 8.37167973,17.7250867 L8.37167973,17.7250867 C8.76571793,17.9572285 9.27944486,17.8726626 9.5467095,17.4715395 L9.5467095,17.4715395 C9.81382339,17.0705672 9.70800288,16.5428213 9.30703054,16.2755567 L9.30703054,16.2755567 C9.16126356,16.1784792 9.00162833,16.132503 8.84455571,16.132503 L8.84455571,16.132503 C8.5693018,16.132503 8.30203716,16.2738985 8.13200079,16.5292546 M21.8160101,16.3221358 C21.746066,16.3329892 21.6654194,16.3438426 21.5772356,16.3411292 L21.5772356,16.3411292 C21.6550182,16.5453839 21.676122,16.7422523 21.7744054,16.7773751 L21.7744054,16.7773751 C21.8589714,16.8337524 22.0276511,16.7632053 22.1684437,16.7348659 L22.1684437,16.7348659 C22.140255,16.5942242 22.1615095,16.4253937 22.069708,16.3338936 L22.069708,16.3338936 C22.0486042,16.3108302 22.0174007,16.3028409 21.9774542,16.3028409 L21.9774542,16.3028409 C21.9334377,16.3028409 21.87902,16.3124884 21.8160101,16.3221358 M5.95815803,16.9101783 C5.69104414,17.3113013 5.78962907,17.8954245 6.21185593,18.1765574 L6.21185593,18.1765574 C6.61297897,18.4436713 7.18263099,18.3661902 7.46406533,17.9438125 L7.46406533,17.9438125 C7.76660346,17.5356046 7.64676398,16.9376132 7.22453712,16.6563297 L7.22453712,16.6563297 C7.0674645,16.5517151 6.89124774,16.5016689 6.71714132,16.5016689 L6.71714132,16.5016689 C6.42289399,16.5016689 6.13497777,16.6448733 5.95815803,16.9101783 M19.4597701,16.728987 C19.3331473,16.9189213 19.3896754,17.2005063 19.5797604,17.3269784 L19.5797604,17.3269784 C19.7906477,17.4676202 20.0509782,17.397224 20.1563465,17.1929693 L20.1563465,17.1929693 C20.2689504,17.0242896 20.2336769,16.757025 20.0437426,16.6304021 L20.0437426,16.6304021 C19.9754567,16.5731204 19.891343,16.5464391 19.8064755,16.5464391 L19.8064755,16.5464391 C19.6726171,16.5464391 19.5371005,16.6127654 19.4597701,16.728987 M3.81943803,17.2837156 C3.51689989,17.6919236 3.62256966,18.3110188 4.03092831,18.6135569 L4.03092831,18.6135569 C4.46008927,18.9299633 5.07933525,18.8241427 5.39589233,18.394831 L5.39589233,18.394831 C5.69812898,17.9866231 5.59215773,17.3675279 5.16299676,17.0511216 L5.16299676,17.0511216 C5.00547193,16.9345984 4.81659285,16.8786733 4.6259049,16.8786733 L4.6259049,16.8786733 C4.32216083,16.8786733 4.01359305,17.0202196 3.81943803,17.2837156 M17.2856259,17.1374964 C17.1270459,17.3687338 17.1855336,17.6843865 17.416771,17.8429665 L17.416771,17.8429665 C17.6477069,18.0013958 17.9636611,17.9429081 18.1220903,17.7119722 L18.1220903,17.7119722 C18.2806704,17.4808855 18.2220319,17.1652329 17.991096,17.0065021 L17.991096,17.0065021 C17.9033644,16.9462055 17.8034229,16.9174139 17.7043857,16.9174139 L17.7043857,16.9174139 C17.5429416,16.9174139 17.3840601,16.994292 17.2856259,17.1374964 M15.0766604,17.4977685 C14.9079807,17.7511649 14.950339,18.1450524 15.2248392,18.3280526 L15.2248392,18.3280526 C15.5204433,18.5247702 15.9072459,18.4471383 16.0900953,18.1726381 L16.0900953,18.1726381 C16.2729447,17.8981379 16.1954636,17.5113353 15.9208126,17.3283351 L15.9208126,17.3283351 C15.8299155,17.2678878 15.7218339,17.2389454 15.6108881,17.239095 L15.6108881,17.239095 C15.4132661,17.239095 15.2073532,17.330747 15.0766604,17.4977685 M1.61725587,17.706847 C1.61032176,17.8547243 1.55394445,18.0304889 1.59645354,18.1501776 L1.59645354,18.1501776 C1.77236884,18.4804522 1.97662353,18.7691221 2.20183129,19.0715095 L2.20183129,19.0715095 C2.29333137,19.1628588 2.47633151,19.2542082 2.6028036,19.2471233 L2.6028036,19.2471233 C3.06015322,19.2472741 3.44002173,18.8600192 3.51011652,18.3886506 L3.51011652,18.3886506 C3.58036206,17.917282 3.29169213,17.4810362 2.85559704,17.3123565 L2.85559704,17.3123565 C2.7463095,17.2701489 2.63355488,17.2504018 2.52095099,17.2504018 L2.52095099,17.2504018 C2.1840438,17.2504018 1.84909625,17.4272215 1.61725587,17.706847 M12.9240722,17.8925604 C12.7128834,18.2092683 12.7977508,18.6311937 13.1284776,18.8211279 L13.1284776,18.8211279 C13.4450347,19.0320152 13.846007,18.9334303 14.0568943,18.6167225 L14.0568943,18.6167225 C14.2679324,18.3000147 14.1693475,17.8990423 13.8524889,17.6880043 L13.8524889,17.6880043 C13.7386791,17.6120306 13.6138651,17.5763049 13.4908601,17.5763049 L13.4908601,17.5763049 C13.2721342,17.5763049 13.0591365,17.6898132 12.9240722,17.8925604 M10.7500787,18.2731827 C10.5250216,18.6111451 10.5957194,19.0541742 10.9332296,19.2792313 L10.9332296,19.2792313 C11.292145,19.5183072 11.7354757,19.4477602 11.9745516,19.0888448 L11.9745516,19.0888448 C12.1996087,18.7511839 12.1290616,18.3078532 11.79125,18.0829469 L11.79125,18.0829469 C11.650759,17.9893365 11.4973041,17.9432096 11.3483716,17.9432096 L11.3483716,17.9432096 C11.1165312,17.9432096 10.8955442,18.054909 10.7500787,18.2731827 M8.61120793,18.6470215 C8.35811298,19.0270408 8.43559411,19.5053434 8.79450956,19.7447209 L8.79450956,19.7447209 C9.1956326,20.0118348 9.67408604,19.9342029 9.92718096,19.5541837 L9.92718096,19.5541837 C10.2015304,19.1881834 10.1027948,18.695711 9.74387934,18.456635 L9.74387934,18.456635 C9.58454561,18.350513 9.41300182,18.298658 9.24824137,18.298658 L9.24824137,18.298658 C8.99831203,18.2988087 8.76375829,18.4178945 8.61120793,18.6470215 M6.45138411,19.0066907 C6.18411949,19.4079645 6.25466649,19.9426445 6.65594029,20.2099091 L6.65594029,20.2099091 C7.04289366,20.4982775 7.57048879,20.392457 7.84498903,20.0264567 L7.84498903,20.0264567 C8.11225365,19.6251829 8.04140516,19.0906537 7.64028209,18.823389 L7.64028209,18.823389 C7.48908842,18.722543 7.31332384,18.6730998 7.13921745,18.6730998 L7.13921745,18.6730998 C6.8758721,18.6730998 6.61644602,18.7863066 6.45138411,19.0066907 M19.9952039,18.9453389 C19.9178735,19.0155844 19.9953546,19.2196884 20.0025902,19.4376605 L20.0025902,19.4376605 C20.2277979,19.3743491 20.424817,19.3529438 20.4386853,19.2407922 L20.4386853,19.2407922 C20.4950626,19.1560755 20.4245156,18.9875465 20.3963269,18.8466032 L20.3963269,18.8466032 C20.2553836,18.8749426 20.0867039,18.8535373 19.9952039,18.9453389 M4.29171106,19.4577092 C4.00334262,19.844964 4.10192755,20.4287857 4.52430514,20.7100693 L4.52430514,20.7100693 C4.946532,20.9913529 5.50924992,20.8784475 5.79746761,20.4914942 L5.79746761,20.4914942 C6.07890194,20.0689658 5.98740187,19.5204176 5.57904322,19.2180302 L5.57904322,19.2180302 C5.41820207,19.110853 5.23399598,19.0588472 5.0519003,19.0588472 L5.0519003,19.0588472 C4.75599479,19.0588472 4.46581745,19.1963234 4.29171106,19.4577092 M17.7720686,19.2626497 C17.6454458,19.4527347 17.7018231,19.7340183 17.8919081,19.8606411 L17.8919081,19.8606411 C18.0818423,19.9871132 18.3492577,19.9519904 18.4687957,19.7266319 L18.4687957,19.7266319 C18.5812489,19.5576508 18.5459753,19.2905369 18.3561918,19.163914 L18.3561918,19.163914 C18.287906,19.1066323 18.2036415,19.0801018 18.1189248,19.0801018 L18.1189248,19.0801018 C17.9850663,19.0801018 17.8495498,19.1462773 17.7720686,19.2626497 M15.5842069,19.6645264 C15.4293954,19.8966683 15.4928576,20.2133762 15.7461033,20.3822066 L15.7461033,20.3822066 C15.9785466,20.5368674 16.3089719,20.4523014 16.4636327,20.2200088 L16.4636327,20.2200088 C16.6184442,19.9877162 16.5341797,19.6571401 16.3017363,19.5023286 L16.3017363,19.5023286 C16.2213911,19.4488154 16.1291373,19.4239431 16.0365821,19.4239431 L16.0365821,19.4239431 C15.861722,19.4239431 15.6852037,19.512579 15.5842069,19.6645264 M2.50452016,19.5781516 C2.90579395,20.0281149 3.32108671,20.4571251 3.74346432,20.9214088 L3.74346432,20.9214088 C3.97545545,20.3443705 3.89073873,19.9222944 3.53890815,19.6269918 L3.53890815,19.6269918 C3.37459994,19.500972 3.17908824,19.4350979 2.98282287,19.4350979 L2.98282287,19.4350979 C2.81791169,19.4350979 2.65239754,19.4816771 2.50452016,19.5781516 M13.4102134,20.0452994 C13.2415337,20.2986958 13.2837413,20.692734 13.5583923,20.8755834 L13.5583923,20.8755834 C13.8539963,21.072301 14.2407989,20.9948199 14.4236483,20.720169 L14.4236483,20.720169 C14.6064977,20.4458195 14.5290166,20.0588661 14.2545164,19.8761675 L14.2545164,19.8761675 C14.1536704,19.8089368 14.0375994,19.7768288 13.9219807,19.7768288 L13.9219807,19.7768288 C13.7231527,19.7768288 13.5258321,19.8716452 13.4102134,20.0452994 M11.2363706,20.4260724 C11.0254833,20.7427802 11.1239175,21.1439032 11.4406253,21.3549413 L11.4406253,21.3549413 C11.7362294,21.5516589 12.1584562,21.467093 12.3693436,21.1503851 L12.3693436,21.1503851 C12.5802309,20.8338281 12.4817967,20.4325542 12.1647874,20.2216669 L12.1647874,20.2216669 C12.0509776,20.145844 11.9261636,20.1099675 11.8031586,20.1099675 L11.8031586,20.1099675 C11.584282,20.1099675 11.371435,20.2234758 11.2363706,20.4260724 M9.07654684,20.7855908 C8.83747088,21.1445062 8.90816861,21.5878369 9.26663184,21.8267621 L9.26663184,21.8267621 C9.60459422,22.0519699 10.0479249,21.9814229 10.2729819,21.6436112 L10.2729819,21.6436112 C10.5119071,21.2843943 10.4413601,20.8415159 10.0824447,20.6022891 L10.0824447,20.6022891 C9.95145035,20.5151606 9.80462816,20.47235 9.6608208,20.47235 L9.6608208,20.47235 C9.43380413,20.47235 9.2141738,20.5789242 9.07654684,20.7855908 M6.90963819,21.201788 C6.67056222,21.5607034 6.7478926,22.0388554 7.12806259,22.292101 L7.12806259,22.292101 C7.50808184,22.5453467 8.00055421,22.4466111 8.25379989,22.0665918 L8.25379989,22.0665918 C8.49287586,21.7076763 8.39398947,21.215204 8.03522475,20.9762787 L8.03522475,20.9762787 C7.89322629,20.8816131 7.73555072,20.8360892 7.58043773,20.8360892 L7.58043773,20.8360892 C7.32055945,20.8362399 7.06806748,20.9637672 6.90963819,21.201788 M5.46719306,21.2162592 C5.12259804,21.2305796 4.86211679,21.3923252 4.70745604,21.7159671 L4.70745604,21.7159671 C5.12983363,21.9974015 5.53095669,22.2645154 5.93207975,22.53178 L5.93207975,22.53178 C5.97428737,22.5598179 6.05176848,22.5809217 6.11507989,22.62328 L6.11507989,22.62328 C6.3684763,22.3347609 6.38219378,22.0391568 6.26250505,21.7155055 L6.26250505,21.7155055 C6.13301812,21.4226242 5.83213815,21.2155055 5.50020544,21.2155055 L5.50020544,21.2155055 C5.48920131,21.2155055 5.47819718,21.2158069 5.46719306,21.2162592 M18.3076531,21.4785493 C18.2583606,21.598238 18.3078038,21.7530495 18.3008697,21.9007762 L18.3008697,21.9007762 C18.3430773,21.9289648 18.3851342,21.9571535 18.4416622,21.9642384 L18.4416622,21.9642384 C18.5610495,21.9220307 18.7160117,21.8725875 18.8072103,21.7810875 L18.8072103,21.7810875 C18.926899,21.6473798 18.8776066,21.4924175 18.7087761,21.3799644 L18.7087761,21.3799644 C18.6537555,21.3433342 18.5949663,21.3252452 18.5387397,21.3252452 L18.5387397,21.3252452 C18.4437726,21.3252452 18.3563426,21.3769496 18.3076531,21.4785493 M16.0845179,21.7961616 C15.957895,21.9860959 16.0071875,22.2324074 16.1832535,22.3801341 L16.1832535,22.3801341 C16.3591688,22.5275592 16.6615562,22.4853516 16.7883298,22.2952666 L16.7883298,22.2952666 C16.9359057,22.1196528 16.8793776,21.8380677 16.6894434,21.7115956 L16.6894434,21.7115956 C16.617389,21.6635091 16.5323708,21.6419531 16.4470511,21.6419531 L16.4470511,21.6419531 C16.3074645,21.6419531 16.1674257,21.7001393 16.0845179,21.7961616 M13.8968069,22.1980384 C13.7418447,22.430331 13.8262599,22.760907 14.0584017,22.9157185 L14.0584017,22.9157185 C14.2906943,23.0703793 14.6212704,22.9856626 14.7760819,22.7536714 L14.7760819,22.7536714 C14.9307426,22.5213788 14.8464782,22.1908028 14.6141855,22.0359913 L14.6141855,22.0359913 C14.5285644,21.9895629 14.4345017,21.9669517 14.341645,21.9669517 L14.341645,21.9669517 C14.1673878,21.9669517 13.9975022,22.0465432 13.8968069,22.1980384 M11.7225119,22.5786606 C11.5396625,22.8533116 11.6172943,23.2402649 11.8916438,23.4231142 L11.8916438,23.4231142 C12.1662948,23.6059638 12.5530974,23.5283318 12.7359468,23.2538316 L12.7359468,23.2538316 C12.9186455,22.9791807 12.8200606,22.5785098 12.5457111,22.3956604 L12.5457111,22.3956604 C12.4484828,22.3308416 12.339949,22.3003918 12.2320181,22.3003918 L12.2320181,22.3003918 C12.0351497,22.3003918 11.8406932,22.4015393 11.7225119,22.5786606 M9.54866913,22.959735 C9.33778182,23.2762921 9.43651748,23.6774151 9.75307457,23.8883025 L9.75307457,23.8883025 C10.0696317,24.0991898 10.4709055,24.0006049 10.6817928,23.683897 L10.6817928,23.683897 C10.8926801,23.3673399 10.7940952,22.9662169 10.4770859,22.7551788 L10.4770859,22.7551788 C10.3632761,22.6793559 10.2384621,22.6434794 10.1154571,22.6434794 L10.1154571,22.6434794 C9.8967312,22.6436302 9.68373349,22.7569877 9.54866913,22.959735 M7.44507191,23.3261875 C7.86051539,23.4808482 8.28967636,23.6142544 8.70481838,23.769066 L8.70481838,23.769066 C8.71853586,23.3819618 8.52151675,23.1288669 8.17692173,23.0515366 L8.17692173,23.0515366 C8.10275695,23.0251568 8.02904435,23.0123438 7.95789438,23.0123438 L7.95789438,23.0123438 C7.74534891,23.0123438 7.55571615,23.1258521 7.44507191,23.3261875" id="形状" fill="url(#linearGradient-3)" fill-rule="nonzero" mask="url(#mask-2)"></path>
                </g>
            </g>
        </g>
    </g>
</svg>