<?xml version="1.0" encoding="UTF-8"?>
<svg width="24px" height="24px" viewBox="0 0 24 24" version="1.1" xmlns="http://www.w3.org/2000/svg" xmlns:xlink="http://www.w3.org/1999/xlink">
    <title>编组 11</title>
    <g id="页面-1" stroke="none" stroke-width="1" fill="none" fill-rule="evenodd">
        <g id="Project_Requests" transform="translate(-76.000000, -204.000000)">
            <g id="编组-11" transform="translate(76.000000, 204.000000)">
                <circle id="椭圆形" fill="#FFFFFF" cx="12" cy="12" r="12"></circle>
                <path d="M12.3358468,3 C8.57432262,3 5.5,6.05623837 5.5,9.83584676 C5.5,10.5953853 5.62658975,11.3368396 5.86168501,12.0602096 C6.02444327,12.5484844 6.56697079,12.8197481 7.07332981,12.6569899 C7.56160458,12.4942316 7.83286834,11.9517041 7.67011008,11.4453451 C7.47118333,10.8847333 7.38076207,10.287953 7.39884632,9.69117276 C7.47118333,7.14129341 9.5327879,5.04352033 12.0826673,4.91693057 C14.9218946,4.77225657 17.2728472,7.0327879 17.2728472,9.83584676 C17.2728472,12.4580631 15.2112426,14.6100889 12.6251948,14.7547629 C12.6251948,14.7547629 11.6667295,14.8090157 11.196539,14.8813527 C10.9614437,14.9175212 10.7806012,14.9536897 10.6540114,14.971774 C10.5997587,14.9898582 10.5455059,14.9356055 10.5635902,14.8813527 L10.7263484,14.0856457 L11.6124767,9.99860502 C11.7209822,9.492246 11.3954657,8.98588698 10.8891067,8.87738147 C10.3827477,8.76887597 9.87638867,9.09439248 9.76788316,9.6007515 C9.76788316,9.6007515 7.63394158,19.5470894 7.61585733,19.6555949 C7.50735183,20.1619539 7.83286834,20.6683129 8.33922736,20.7768184 C8.84558638,20.8853239 9.3519454,20.5598074 9.4604509,20.0534484 C9.47853515,19.9449429 9.76788316,18.6247926 9.76788316,18.6247926 C9.98489417,17.6120746 10.8167697,16.8706203 11.7933192,16.7440305 C12.0103302,16.707862 12.86029,16.6536093 12.86029,16.6536093 C16.3867189,16.3823455 19.1716935,13.4346126 19.1716935,9.83584676 C19.1716935,6.05623837 16.0973709,3 12.3358468,3 Z" id="路径" fill="#000000" fill-rule="nonzero"></path>
                <path d="M12.8241215,18.7332981 C12.209257,18.6067083 11.5943925,18.9864776 11.4678027,19.6194264 C11.341213,20.2342909 11.7209822,20.8491554 12.353931,20.9757452 C12.9687955,21.1023349 13.5836601,20.7225657 13.7102498,20.0896169 C13.8368396,19.4566681 13.4570703,18.8598879 12.8241215,18.7332981 Z" id="路径" fill="#E6007A" fill-rule="nonzero"></path>
            </g>
        </g>
    </g>
</svg>