<?xml version="1.0" encoding="UTF-8"?>
<svg width="13px" height="13px" viewBox="0 0 13 13" version="1.1" xmlns="http://www.w3.org/2000/svg" xmlns:xlink="http://www.w3.org/1999/xlink">
    <title>退出</title>
    <g id="Elara-Web" stroke="none" stroke-width="1" fill="none" fill-rule="evenodd">
        <g id="中文/英文备份" transform="translate(-1267.000000, -270.000000)" fill="#FF3043" fill-rule="nonzero">
            <g id="编组-4" transform="translate(1225.000000, 95.000000)">
                <g id="编组-6" transform="translate(42.000000, 171.000000)">
                    <g id="退出" transform="translate(0.000000, 4.000000)">
                        <path d="M0.117829688,6.62212969 L2.21471719,9.24349219 C2.35400891,9.41706788 2.58768129,9.48383304 2.79764917,9.41004824 C3.00761704,9.33626343 3.14815472,9.13799712 3.14824219,8.91544219 L3.14824219,7.34302969 L7.34201719,7.34302969 C7.90837595,7.3254274 8.35838183,6.86121817 8.35838183,6.29458594 C8.35838183,5.72795371 7.90837595,5.26374447 7.34201719,5.24614219 L3.14824219,5.24614219 L3.14824219,3.67372969 C3.14815472,3.45117476 3.00761704,3.25290844 2.79764917,3.17912364 C2.58768129,3.10533883 2.35400891,3.172104 2.21471719,3.34567969 L0.117829688,5.96704219 C-0.035688979,6.15842205 -0.035688979,6.43074982 0.117829688,6.62212969 L0.117829688,6.62212969 Z M5.24512969,2.10030469 L9.44801719,2.10030469 C9.72514254,2.10137674 9.99049146,2.21249357 10.1856892,2.4092103 C10.3808868,2.60592704 10.4899434,2.87212935 10.4888672,3.14925469 L10.4888672,9.44902969 C10.4860775,10.0257178 10.0166077,10.4911092 9.43991719,10.4888672 L5.24614219,10.4888672 C4.67978343,10.5064695 4.22977755,10.9706787 4.22977755,11.5373109 C4.22977755,12.1039432 4.67978343,12.5681524 5.24614219,12.5857547 L10.4908922,12.5857547 C11.6489712,12.5857547 12.5877797,11.6469462 12.5877797,10.4888672 L12.5877797,2.10030469 C12.5877797,0.942225699 11.6489712,0.0034171875 10.4908922,0.0034171875 L5.24816719,0.0034171875 C4.68180843,0.0210194701 4.23180255,0.485228708 4.23180255,1.05186094 C4.23180255,1.61849317 4.68180843,2.0827024 5.24816719,2.10030469 L5.24512969,2.10030469 Z" id="形状"></path>
                    </g>
                </g>
            </g>
        </g>
    </g>
</svg>