<?xml version="1.0" encoding="UTF-8"?>
<svg width="16px" height="16px" viewBox="0 0 16 16" version="1.1" xmlns="http://www.w3.org/2000/svg" xmlns:xlink="http://www.w3.org/1999/xlink">
    <title>replay_circle_filled_black_24dp</title>
    <g id="页面-1" stroke="none" stroke-width="1" fill="none" fill-rule="evenodd">
        <g id="Project_Requests" transform="translate(-1148.000000, -182.000000)" fill="#14B071" fill-rule="nonzero">
            <g id="编组-2" transform="translate(1138.000000, 174.000000)">
                <g id="replay_circle_filled_black_24dp" transform="translate(10.000000, 8.000000)">
                    <path d="M8,0 C3.584,0 0,3.584 0,8 C0,12.416 3.584,16 8,16 C12.416,16 16,12.416 16,8 C16,3.584 12.416,0 8,0 Z M12.8,8 C12.8,10.648 10.648,12.8 8,12.8 C5.352,12.8 3.2,10.648 3.2,8 L4.8,8 C4.8,9.768 6.232,11.2 8,11.2 C9.768,11.2 11.2,9.768 11.2,8 C11.2,6.232 9.768,4.8 8,4.8 L8,7.2 L4.8,4 L8,0.8 L8,3.2 C10.648,3.2 12.8,5.352 12.8,8 Z" id="形状"></path>
                </g>
            </g>
        </g>
    </g>
</svg>