<svg xmlns="http://www.w3.org/2000/svg" width="15" height="15" viewBox="0 0 15 15">
  <path fill="#333" d="M225.5,32 C221.356961,32 218,35.3569615 218,39.5 C218,43.6430385 221.356961,47 225.5,47 C229.643039,47 233,43.6430385 233,39.5 C233,35.3569615 229.643039,32 225.5,32 Z M222.810622,44.0038087 C222.810622,44.0609395 222.765129,44.1064325 222.707998,44.1064325 L221.090351,44.1064325 C221.03322,44.1064325 220.987727,44.0609395 220.987727,44.0038087 L220.987727,39.3815066 C220.987727,39.3243758 221.03322,39.2788828 221.090351,39.2788828 L222.70694,39.2788828 C222.764071,39.2788828 222.809564,39.3243758 222.809564,39.3815066 L222.809564,44.0038087 L222.810622,44.0038087 Z M226.411976,44.0038087 C226.411976,44.0609395 226.366483,44.1064325 226.309353,44.1064325 L224.691705,44.1064325 C224.634575,44.1064325 224.589082,44.0609395 224.589082,44.0038087 L224.589082,34.2333898 C224.589082,34.176259 224.634575,34.130766 224.691705,34.130766 L226.309353,34.130766 C226.366483,34.130766 226.411976,34.176259 226.411976,34.2333898 L226.411976,44.0038087 Z M230.013331,44.0038087 C230.013331,44.0609395 229.967837,44.1064325 229.910707,44.1064325 L228.29306,44.1064325 C228.235929,44.1064325 228.190436,44.0609395 228.190436,44.0038087 L228.190436,37.3903936 C228.190436,37.3332628 228.235929,37.2877698 228.29306,37.2877698 L229.910707,37.2877698 C229.967837,37.2877698 230.013331,37.3332628 230.013331,37.3903936 L230.013331,44.0038087 Z" transform="translate(-218 -32)"/>
</svg>
