<?xml version="1.0" encoding="UTF-8"?>
<svg width="24px" height="24px" viewBox="0 0 24 24" version="1.1" xmlns="http://www.w3.org/2000/svg" xmlns:xlink="http://www.w3.org/1999/xlink">
    <title>Rococo</title>
    <defs>
        <linearGradient x1="85.24387%" y1="87.3802725%" x2="14.0370622%" y2="16.0196128%" id="linearGradient-1">
            <stop stop-color="#19A0FE" offset="0%"></stop>
            <stop stop-color="#E6007A" offset="100%"></stop>
        </linearGradient>
        <circle id="path-2" cx="12" cy="12" r="12"></circle>
        <linearGradient x1="87.5963853%" y1="81.4302949%" x2="18.2439307%" y2="23.3354607%" id="linearGradient-4">
            <stop stop-color="#6C3BDF" offset="0%"></stop>
            <stop stop-color="#7238DA" offset="11.6090919%"></stop>
            <stop stop-color="#E6007A" offset="100%"></stop>
        </linearGradient>
        <filter x="-62.5%" y="-62.5%" width="225.0%" height="225.0%" filterUnits="objectBoundingBox" id="filter-5">
            <feGaussianBlur stdDeviation="5" in="SourceGraphic"></feGaussianBlur>
        </filter>
        <filter x="-60.9%" y="-52.4%" width="225.6%" height="210.0%" filterUnits="objectBoundingBox" id="filter-6">
            <feGaussianBlur stdDeviation="5" in="SourceGraphic"></feGaussianBlur>
        </filter>
    </defs>
    <g id="页面-1" stroke="none" stroke-width="1" fill="none" fill-rule="evenodd">
        <g id="Project_Requests" transform="translate(-76.000000, -832.000000)">
            <g id="Rococo" transform="translate(76.000000, 832.000000)">
                <g id="椭圆形-+-矩形-蒙版">
                    <mask id="mask-3" fill="white">
                        <use xlink:href="#path-2"></use>
                    </mask>
                    <use id="蒙版" fill="url(#linearGradient-1)" xlink:href="#path-2"></use>
                    <circle id="椭圆形" fill="url(#linearGradient-4)" opacity="0.50424049" filter="url(#filter-5)" mask="url(#mask-3)" cx="12" cy="12" r="12"></circle>
                    <path d="M18.3939354,11.1816363 L22.1295837,10.6489887 C27.050377,9.94735713 31.608253,13.3676635 32.3098845,18.2884569 C32.3698861,18.7092696 32.4,19.1338044 32.4,19.5588732 L32.4,26.2 C32.4,31.1705627 28.3705627,35.2 23.4,35.2 L19.0935981,35.2 C14.1230353,35.2 10.0935981,31.1705627 10.0935981,26.2 C10.0935981,25.9204521 10.1066226,25.6410559 10.1326292,25.3627203 L10.7033829,19.2542411 C11.0907647,15.1082953 14.2716246,11.7694162 18.3939354,11.1816363 Z" id="矩形" fill="#1AA0FF" opacity="0.800354004" filter="url(#filter-6)" mask="url(#mask-3)"></path>
                </g>
                <g id="rococo.afea08ac" transform="translate(6.000000, 7.600000)" fill="#FFFFFF" fill-rule="nonzero">
                    <path d="M1.888,0.0771332472 L1.888,0.681133247 C2.05678539,0.293285925 2.44976091,0.0520692449 2.872,0.0771332472 L3.416,0.0771332472 L3.416,0.841133247 L2.736,0.841133247 C2.132,0.841133247 1.9,1.12513325 1.9,1.82113325 L1.9,2.92513325 L3.18,2.92513325 L3.18,3.64113325 L0.06,3.64113325 L0.06,2.92513325 L0.948,2.92513325 L0.948,0.801133247 L0.06,0.801133247 L0.06,0.0771332472 L1.888,0.0771332472 Z" id="路径"></path>
                    <path d="M5.98,3.72913325 C5.104,3.72913325 4.276,3.22513325 4.276,1.86113325 C4.276,0.497133247 5.104,0.00113324722 5.98,0.00113324722 C6.856,0.00113324722 7.68,0.497133247 7.68,1.86113325 C7.68,3.22513325 6.848,3.72913325 5.98,3.72913325 Z M5.98,0.701133247 C5.524,0.701133247 5.232,1.04113325 5.232,1.86113325 C5.232,2.68113325 5.524,3.02513325 5.98,3.02513325 C6.436,3.02513325 6.728,2.68113325 6.728,1.86113325 C6.728,1.04113325 6.436,0.701133247 5.98,0.701133247 Z" id="形状"></path>
                    <path d="M11.828,1.36513325 L10.928,1.36513325 C10.872,0.985133247 10.696,0.701133247 10.272,0.701133247 C9.848,0.701133247 9.58,1.06513325 9.58,1.86513325 C9.58,2.66513325 9.844,3.02513325 10.268,3.02513325 C10.56,3.02513325 10.856,2.88113325 10.944,2.33713325 L11.86,2.33713325 C11.7781815,3.15097333 11.0773327,3.76071178 10.26,3.72913325 C9.22,3.72913325 8.632,2.92913325 8.632,1.86513325 C8.632,0.801133247 9.236,0.00113324722 10.28,0.00113324722 C11.0771405,-0.0296545189 11.758206,0.570457411 11.828,1.36513325 L11.828,1.36513325 Z" id="路径"></path>
                    <path d="M1.7,8.57313325 C0.828,8.57313325 0,8.06913325 0,6.70513325 C0,5.34113325 0.828,4.84513325 1.7,4.84513325 C2.572,4.84513325 3.404,5.34113325 3.404,6.70513325 C3.404,8.06913325 2.568,8.57313325 1.7,8.57313325 Z M1.7,5.54513325 C1.244,5.54513325 0.952,5.88513325 0.952,6.70513325 C0.952,7.52513325 1.244,7.86913325 1.7,7.86913325 C2.156,7.86913325 2.452,7.52513325 2.452,6.70513325 C2.452,5.88513325 2.16,5.54513325 1.7,5.54513325 Z" id="形状"></path>
                    <path d="M7.548,6.20913325 L6.648,6.20913325 C6.596,5.82913325 6.416,5.54513325 5.992,5.54513325 C5.568,5.54513325 5.304,5.90913325 5.304,6.71313325 C5.304,7.51713325 5.58,7.86913325 5.98,7.86913325 C6.272,7.86913325 6.572,7.72513325 6.656,7.18113325 L7.58,7.18113325 C7.49629199,7.99399417 6.79662441,8.60270496 5.98,8.57313325 C4.94,8.57313325 4.352,7.77313325 4.352,6.71313325 C4.352,5.65313325 4.952,4.84513325 6,4.84513325 C6.79861548,4.81018328 7.48214941,5.41247028 7.548,6.20913325 Z" id="路径"></path>
                    <path d="M10.256,8.57313325 C9.384,8.57313325 8.556,8.06913325 8.556,6.70513325 C8.556,5.34113325 9.384,4.84513325 10.256,4.84513325 C11.128,4.84513325 11.98,5.34113325 11.98,6.70513325 C11.98,8.06913325 11.124,8.57313325 10.256,8.57313325 Z M10.256,5.54513325 C9.8,5.54513325 9.508,5.88513325 9.508,6.70513325 C9.508,7.52513325 9.8,7.86913325 10.256,7.86913325 C10.712,7.86913325 11.008,7.52513325 11.008,6.70513325 C11.008,5.88513325 10.716,5.54513325 10.256,5.54513325 Z" id="形状"></path>
                </g>
            </g>
        </g>
    </g>
</svg>