<?xml version="1.0" encoding="UTF-8"?>
<svg width="543px" height="80px" viewBox="0 0 543 80" version="1.1" xmlns="http://www.w3.org/2000/svg" xmlns:xlink="http://www.w3.org/1999/xlink">
    <title>Service</title>
    <defs>
        <linearGradient x1="100%" y1="50%" x2="0%" y2="50%" id="linearGradient-1">
            <stop stop-color="#00BCFC" offset="0%"></stop>
            <stop stop-color="#39CA9F" offset="100%"></stop>
        </linearGradient>
        <linearGradient x1="100%" y1="50%" x2="0%" y2="50%" id="linearGradient-2">
            <stop stop-color="#00A3FF" offset="0%"></stop>
            <stop stop-color="#00DD60" offset="100%"></stop>
        </linearGradient>
        <linearGradient x1="103.6448%" y1="50%" x2="0%" y2="49.3026524%" id="linearGradient-3">
            <stop stop-color="#0079BE" offset="0%"></stop>
            <stop stop-color="#002044" offset="100%"></stop>
        </linearGradient>
        <linearGradient x1="100%" y1="50%" x2="0%" y2="50%" id="linearGradient-4">
            <stop stop-color="#00A3FF" stop-opacity="0.538151988" offset="0%"></stop>
            <stop stop-color="#00DD60" stop-opacity="0.594707462" offset="100%"></stop>
        </linearGradient>
    </defs>
    <g id="Elara-Web" stroke="none" stroke-width="1" fill="none" fill-rule="evenodd">
        <g id="Elara切图" transform="translate(-135.000000, -513.000000)">
            <g id="Service" transform="translate(135.000000, 514.000000)">
                <g id="编组-19">
                    <g id="编组-4" transform="translate(0.000000, 34.000000)" fill="url(#linearGradient-1)">
                        <g id="编组-3">
                            <circle id="椭圆形" cx="5.25" cy="5.25" r="5.25"></circle>
                            <circle id="椭圆形备份-3" fill-opacity="0.9" cx="26.75" cy="5.25" r="5.25"></circle>
                            <circle id="椭圆形备份-5" fill-opacity="0.7" cx="48.25" cy="5.25" r="5.25"></circle>
                            <circle id="椭圆形备份-92" fill-opacity="0.5" cx="69.75" cy="5.25" r="5.25"></circle>
                            <circle id="椭圆形备份-93" fill-opacity="0.3" cx="91.25" cy="5.25" r="5.25"></circle>
                            <circle id="椭圆形备份-94" opacity="0.1" cx="112.75" cy="5.25" r="5.25"></circle>
                        </g>
                        <g id="编组-3备份" transform="translate(483.000000, 5.500000) scale(-1, 1) translate(-483.000000, -5.500000) translate(424.000000, 0.000000)">
                            <circle id="椭圆形" cx="5.25" cy="5.25" r="5.25"></circle>
                            <circle id="椭圆形备份-3" fill-opacity="0.9" cx="26.75" cy="5.25" r="5.25"></circle>
                            <circle id="椭圆形备份-5" fill-opacity="0.7" cx="48.25" cy="5.25" r="5.25"></circle>
                            <circle id="椭圆形备份-92" fill-opacity="0.5" cx="69.75" cy="5.25" r="5.25"></circle>
                            <circle id="椭圆形备份-93" fill-opacity="0.3" cx="91.25" cy="5.25" r="5.25"></circle>
                            <circle id="椭圆形备份-94" opacity="0.1" cx="112.75" cy="5.25" r="5.25"></circle>
                        </g>
                        <g id="编组-3备份-2" transform="translate(484.000000, 5.500000) scale(-1, 1) translate(-484.000000, -5.500000) translate(425.000000, 0.000000)">
                            <circle id="椭圆形" cx="5.25" cy="5.25" r="5.25"></circle>
                            <circle id="椭圆形备份-3" fill-opacity="0.9" cx="26.75" cy="5.25" r="5.25"></circle>
                            <circle id="椭圆形备份-5" fill-opacity="0.7" cx="48.25" cy="5.25" r="5.25"></circle>
                            <circle id="椭圆形备份-92" fill-opacity="0.5" cx="69.75" cy="5.25" r="5.25"></circle>
                            <circle id="椭圆形备份-93" fill-opacity="0.3" cx="91.25" cy="5.25" r="5.25"></circle>
                            <circle id="椭圆形备份-94" opacity="0.1" cx="112.75" cy="5.25" r="5.25"></circle>
                        </g>
                    </g>
                    <g id="编组-5" transform="translate(128.000000, 0.000000)">
                        <polygon id="路径-13" stroke="url(#linearGradient-2)" stroke-width="0.5" points="50.5906452 4.4556495 226.009614 4.4556495 233.102566 0 278.769346 0 287 4.4556495 287 70.8953841 278.769346 75.3510336 249.17474 75.3510336 178.624866 75.3510336 170.394211 70.8953841 156.818117 70.8953841 148.587463 75.3510336 55.4839221 75.3510336 50.5906452 78 13.1239314 78 0 70.8953841 0 7.37509175 9.84238579 0 45.3640646 0"></polygon>
                        <polygon id="路径-13" fill="url(#linearGradient-3)" opacity="0.5" points="47.6113513 8.88441239 230.119837 8.88441239 236.317769 5 271.807927 5 279 8.88441239 279 66.8062323 271.807927 70.6906447 178.91242 70.6906447 171.720347 66.8062323 154.488805 66.8062323 147.296731 70.6906447 51.8871724 70.6906447 47.6113513 73 19.4678944 73 8 66.8062323 8 11.4295672 16.600429 5 43.0442844 5"></polygon>
                    </g>
                </g>
                <path d="M360.682031,35.7734375 C361.746028,35.7734375 362.620197,35.9625405 363.309799,36.3223326 C363.593875,36.4705461 363.871223,36.6578346 364.141147,36.885058 L364.342188,37.0629768 L364.342188,36.0546875 L369.807031,36.0546875 L369.807031,48.3032752 L369.818988,48.8652634 C369.77229,49.9243629 369.590219,50.6294447 369.273282,51.3043341 C368.9062,52.0860045 368.416068,52.7166887 367.807476,53.2001094 C367.204198,53.6793088 366.440422,54.030915 365.511094,54.2450459 C364.630759,54.447888 363.622759,54.5507812 362.486719,54.5507812 C359.820852,54.5507812 358.013542,54.1111782 357.023186,53.3155784 C355.96876,52.4685083 355.435938,51.3365168 355.435938,49.9140625 C355.435938,49.6946449 355.450257,49.3721504 355.47998,48.9466027 L355.496131,48.7252412 L360.96555,49.3483395 C361.138466,49.8944137 361.223987,50.1607579 361.410996,50.2874649 C361.687253,50.477775 362.036533,50.5625 362.451563,50.5625 C362.965191,50.5625 363.366707,50.451844 363.625626,50.1720926 C363.877435,49.900023 363.981129,49.4333093 363.99935,48.8051603 L364.002344,48.5898438 L364.002344,47.8960062 C363.763861,48.0932079 363.546864,48.2364121 363.3309,48.3515924 C362.52404,48.7807735 361.652925,48.9960938 360.717188,48.9960938 C358.887345,48.9960937 357.404368,48.2047952 356.277196,46.604383 C355.499475,45.50052 355.096094,44.0448167 355.096094,42.2265625 C355.096094,40.1329404 355.625666,38.5511169 356.634942,37.4577349 C357.666048,36.340704 359.012382,35.7734375 360.682031,35.7734375 Z M362.357813,40.2304688 C361.911996,40.2304688 361.552045,40.3857068 361.284892,40.710312 C360.974143,41.087889 360.853906,41.7255862 360.853906,42.5898438 C360.853906,43.3299558 360.983535,43.8951875 361.302945,44.2569681 C361.590842,44.5830553 361.97227,44.7382812 362.439844,44.7382812 C362.886046,44.7382812 363.259483,44.5681064 363.561533,44.2308664 C363.897865,43.8553508 364.0375,43.2798143 364.0375,42.53125 C364.0375,41.7759516 363.883933,41.1853388 363.528967,40.7810725 C363.209562,40.4173047 362.820628,40.2304688 362.357813,40.2304688 Z M393.328125,35.7734375 C394.882532,35.7734375 396.027963,35.9000514 396.767813,36.1371303 C397.556582,36.389885 398.2128,36.7845475 398.739771,37.3158733 C399.368956,37.9502582 399.875406,38.8533384 400.241618,40.0371234 L400.241618,40.0371234 L395.181,40.535 L395.419371,40.5728561 C396.322909,40.7212273 397.05164,40.900812 397.606535,41.1084326 L397.785063,41.1786735 C398.656701,41.5396545 399.318964,42.0593661 399.780529,42.7275361 C400.250244,43.4075052 400.484375,44.1547264 400.484375,44.96875 C400.484375,45.7787442 400.244694,46.5684944 399.755516,47.3353141 C399.273736,48.0905369 398.520721,48.7005855 397.48109,49.1486272 C396.499063,49.5718438 395.163236,49.7929687 393.46875,49.7929688 C391.056693,49.7929688 389.352671,49.4209697 388.332429,48.7353008 C387.115876,47.9176986 386.38952,46.7111096 386.164147,45.107953 L386.164147,45.107953 L391.820785,44.5758929 C392.093421,45.3307648 392.29452,45.699552 392.592246,45.9046524 C392.872896,46.0979887 393.250742,46.1796875 393.714844,46.1796875 C394.217621,46.1796875 394.617105,46.0918939 394.904963,45.8681593 C394.998362,45.3045349 394.947183,45.2086191 394.84524,45.1554248 C394.605608,45.0319777 393.965729,44.8923362 392.937473,44.7113046 C391.23622,44.4143879 390.055824,44.1358537 389.393915,43.8831248 C388.662735,43.6039471 388.045049,43.1339304 387.543999,42.46882 C387.036324,41.7949143 386.78125,41.0269408 386.78125,40.1640625 C386.78125,39.2215894 387.05928,38.4113553 387.60616,37.7299959 C388.137573,37.0679078 388.866124,36.5681382 389.799472,36.2410302 C390.676512,35.9336563 391.851815,35.7734375 393.328125,35.7734375 Z M393.09375,39.2929688 C392.704316,39.2929688 392.404937,39.333237 392.222986,39.4747542 C392.705835,40.1992017 393.280925,40.2946846 394.110978,40.3938037 C394.228657,40.4071368 394.344173,40.4208727 394.457527,40.4350071 L394.652,40.46 L394.63835,40.418538 C394.50121,40.0021836 394.394259,39.7708139 394.237184,39.6319235 L394.175775,39.5839939 C393.877285,39.3850008 393.514968,39.2929688 393.09375,39.2929688 Z M217.14375,35.7734375 C219.303403,35.7734375 220.940743,36.1794871 222.071762,36.9500715 C223.36789,37.8331478 224.238757,39.1687915 224.666141,40.9710691 L224.666141,40.9710691 L219.187557,41.7005933 C218.987354,40.9531007 218.802553,40.5826919 218.484683,40.3518177 C218.186567,40.1352916 217.782417,40.0429687 217.284375,40.0429688 C216.65304,40.0429688 216.138836,40.2645932 215.747064,40.7190479 C215.320755,41.2135664 215.135938,41.9709219 215.135938,42.9648438 C215.135938,43.8324725 215.317574,44.5054906 215.731978,44.9599981 C216.119696,45.3852375 216.614964,45.59375 217.214063,45.59375 C217.717733,45.59375 218.145066,45.4729484 218.489648,45.2137216 C218.92299,44.8877214 219.204366,44.3361739 219.375561,43.5914585 L219.375561,43.5914585 L224.92206,44.2220683 C224.512246,45.7723096 224.06031,46.6683644 223.435713,47.4255809 C222.81624,48.1765864 222.02612,48.7618431 221.062632,49.1777979 C220.123936,49.5830501 218.932109,49.7929687 217.483594,49.7929688 C216.10895,49.7929688 214.964776,49.6614611 214.049951,49.4053101 C213.09552,49.1380695 212.275884,48.7035761 211.588925,48.105668 C210.904204,47.5097068 210.367719,46.8099912 209.978887,46.0069668 C209.592994,45.210015 209.389844,44.1548907 209.389844,42.8359375 C209.389844,41.4616181 209.632609,40.3206106 210.101127,39.4086734 C210.448849,38.7301916 210.923025,38.1210187 211.525273,37.5823888 C212.125814,37.0452849 212.744387,36.6476882 213.379156,36.3853172 C214.358362,35.9821148 215.612116,35.7734375 217.14375,35.7734375 Z M151.260938,31.0273438 C153.588301,31.0273437 155.352794,31.4805678 156.571469,32.3439681 C157.938314,33.3123429 158.728157,34.8912203 158.886375,37.1172497 L158.886375,37.1172497 L153.21,37.449 L153.408922,37.5029934 C154.527082,37.8084351 155.411516,38.1165036 156.063164,38.424898 L156.251676,38.5174238 C157.351595,39.078083 158.144285,39.7800867 158.644177,40.6089666 C159.147616,41.4437297 159.401563,42.3770338 159.401563,43.4101562 C159.401563,44.6107356 159.06987,45.7178067 158.405675,46.7311292 C157.744217,47.7402772 156.821735,48.5082482 155.633908,49.0300436 C154.486988,49.533869 153.04223,49.7929688 151.296094,49.7929688 C148.185901,49.7929687 146.062751,49.1495455 144.872228,47.9590221 C143.556984,46.6437781 142.857057,44.9426814 142.787303,42.8485229 L142.787303,42.8485229 L148.791938,42.4723624 C148.947059,43.5911222 149.122812,44.1763257 149.427381,44.5658942 C149.882555,45.144615 150.538435,45.4179688 151.378125,45.4179688 C151.987619,45.4179688 152.469121,45.2959476 152.802613,45.0069211 C153.087418,44.7600901 153.245313,44.4782343 153.245313,44.1484375 C153.245313,43.8371165 153.094064,43.5670266 152.824893,43.3247721 C152.467883,43.0034633 151.624524,42.7291623 150.330947,42.4448537 C147.894455,41.8970518 146.167799,41.1536452 145.132579,40.2488409 C144.018676,39.2828785 143.460156,38.0519757 143.460156,36.5546875 C143.460156,35.5760515 143.74129,34.6505581 144.308846,33.7797276 C144.869717,32.919155 145.708397,32.2361159 146.83601,31.7430532 C147.912067,31.2725339 149.385324,31.0273438 151.260938,31.0273438 Z M150.733594,35.2265625 C150.266377,35.2265625 149.900656,35.3009959 149.660096,35.5024646 C149.473019,35.6591416 149.370313,35.8470162 149.370313,36.0742188 C149.809001,36.6379467 150.33877,36.7888456 151.143608,36.956532 C151.703196,37.0771166 152.225297,37.1983423 152.709972,37.320062 L152.909,37.371 L152.886875,37.2460537 C152.737287,36.4681678 152.558038,36.0066789 152.262474,35.7149317 L152.178916,35.6394626 C151.82999,35.3513585 151.342793,35.2265625 150.733594,35.2265625 Z M232.605469,35.7734375 C234.487023,35.7734375 235.967976,36.0702592 237.055846,36.6389185 C238.179481,37.226273 239.034747,38.0776996 239.622073,39.1927689 C240.151819,40.1985177 240.444635,41.484102 240.483763,43.0544338 L240.488281,43.421875 L240.488281,44.4609375 L231.027613,44.4609375 C231.124624,44.869959 231.248507,45.1430295 231.426892,45.3469331 C231.790769,45.7724841 232.267171,45.9804688 232.851563,45.9804688 C233.235278,45.9804688 233.599484,45.8836024 233.938018,45.695595 C234.162539,45.5663255 234.39846,45.3275172 234.65796,44.9946328 L234.789731,44.8204226 L240.545502,45.3515037 C239.483089,47.2700711 238.500653,48.2941437 237.352922,48.9077384 C236.282524,49.4799896 234.75011,49.78125 232.746094,49.78125 C231.00192,49.78125 229.633754,49.5238762 228.634833,49.0326714 C227.608556,48.5280145 226.754572,47.7299711 226.079748,46.6307302 C225.413123,45.5448443 225.074219,44.2693282 225.074219,42.8007812 C225.074219,40.7041755 225.75506,39.0131852 227.096062,37.7184243 C228.425991,36.4343552 230.256663,35.7734375 232.605469,35.7734375 Z M232.804688,39.5976562 C232.213754,39.5976562 231.741154,39.8315334 231.387658,40.3008292 C231.218251,40.5206345 231.099919,40.8135128 231.020903,41.1757813 L231.020903,41.1757813 L234.558243,41.1757813 L234.511386,40.9707242 C234.409473,40.5748962 234.257543,40.2652706 234.040754,40.0505863 C233.727556,39.7404295 233.311865,39.5976562 232.804688,39.5976562 Z M378.323437,35.7734375 C380.204992,35.7734375 381.685945,36.0702592 382.773815,36.6389185 C383.897449,37.226273 384.752716,38.0776996 385.340042,39.1927689 C385.869788,40.1985177 386.162603,41.484102 386.201731,43.0544338 L386.20625,43.421875 L386.20625,44.4609375 L376.745582,44.4609375 C376.842593,44.869959 376.966476,45.1430295 377.144861,45.3469331 C377.508737,45.7724841 377.98514,45.9804687 378.569531,45.9804688 C378.953247,45.9804688 379.317453,45.8836024 379.655987,45.695595 C379.880507,45.5663255 380.116428,45.3275172 380.375928,44.9946328 L380.5077,44.8204226 L386.26347,45.3515037 C385.201057,47.2700711 384.218621,48.2941437 383.07089,48.9077384 C382.000492,49.4799896 380.468079,49.78125 378.464062,49.78125 C376.719889,49.78125 375.351723,49.5238762 374.352802,49.0326714 C373.326525,48.5280145 372.47254,47.7299711 371.797717,46.6307302 C371.131092,45.5448443 370.792187,44.2693282 370.792187,42.8007812 C370.792188,40.7041755 371.473028,39.0131852 372.814031,37.7184243 C374.14396,36.4343552 375.974632,35.7734375 378.323437,35.7734375 Z M378.522656,39.5976562 C377.931723,39.5976562 377.459122,39.8315334 377.105627,40.3008292 C376.93622,40.5206345 376.817888,40.8135128 376.738872,41.1757812 L376.738872,41.1757812 L380.276212,41.1757812 L380.229355,40.9707242 C380.127442,40.5748962 379.975511,40.2652706 379.758722,40.0505863 C379.445525,39.7404295 379.029834,39.5976562 378.522656,39.5976562 Z M167.390625,35.7734375 C169.272179,35.7734375 170.753132,36.0702592 171.841002,36.6389185 C172.964637,37.226273 173.819903,38.0776996 174.40723,39.1927689 C174.936975,40.1985177 175.229791,41.484102 175.268919,43.0544338 L175.273438,43.421875 L175.273438,44.4609375 L165.812769,44.4609375 C165.90978,44.869959 166.033663,45.1430295 166.212048,45.3469331 C166.575925,45.7724841 167.052327,45.9804687 167.636719,45.9804688 C168.020435,45.9804688 168.38464,45.8836024 168.723174,45.695595 C168.947695,45.5663255 169.183616,45.3275172 169.443116,44.9946328 L169.574887,44.8204226 L175.330658,45.3515037 C174.268245,47.2700711 173.285809,48.2941437 172.138078,48.9077384 C171.06768,49.4799896 169.535267,49.78125 167.53125,49.78125 C165.787077,49.78125 164.41891,49.5238762 163.41999,49.0326714 C162.393713,48.5280145 161.539728,47.7299711 160.864904,46.6307302 C160.198279,45.5448443 159.859375,44.2693282 159.859375,42.8007812 C159.859375,40.7041755 160.540216,39.0131852 161.881218,37.7184243 C163.211147,36.4343552 165.041819,35.7734375 167.390625,35.7734375 Z M167.589844,39.5976562 C166.99891,39.5976562 166.52631,39.8315334 166.172814,40.3008292 C166.003408,40.5206345 165.885075,40.8135128 165.80606,41.1757813 L165.80606,41.1757813 L169.343399,41.1757813 L169.296542,40.9707242 C169.19463,40.5748962 169.042699,40.2652706 168.82591,40.0505863 C168.512712,39.7404295 168.097022,39.5976562 167.589844,39.5976562 Z M346.310156,35.7734375 C347.777675,35.7734375 348.956232,35.8576094 349.846275,36.0219869 C350.810501,36.2000646 351.611257,36.5759145 352.250626,37.1375407 C352.713973,37.5385139 353.086411,38.1022769 353.354272,38.8388941 C353.573763,39.4424947 353.697391,40.0227722 353.728234,40.5792282 L353.735937,40.8554688 L353.735874,46.3436137 C353.746393,47.0051933 353.776282,47.355758 353.835224,47.6194426 C353.92498,48.0209861 354.160811,48.5671041 354.527447,49.2626211 L354.654482,49.5 L349.061753,49.5 C348.711697,48.8730901 348.58977,48.6058481 348.530033,48.4223711 C348.072488,48.7690142 347.61899,49.0397848 347.166773,49.2286712 C346.268909,49.5944677 345.226119,49.78125 344.036719,49.78125 C342.398219,49.78125 341.168093,49.3781084 340.322739,48.6228681 C339.440373,47.834562 339.001562,46.8619187 339.001562,45.7070312 C339.001562,44.6224557 339.329095,43.7357513 339.963838,43.0384277 C340.5688,42.3738214 341.669905,41.85081 343.305437,41.5254172 C345.077562,41.1694443 346.22689,40.9204666 346.753116,40.7773019 C347.168441,40.6643093 347.603426,40.5228454 348.058109,40.3530903 C348.035307,40.1188104 347.979856,39.9353734 347.860883,39.8202386 C347.684622,39.6496637 347.358339,39.609375 346.93125,39.609375 C346.275137,39.609375 345.773694,39.6938434 345.443271,39.9053146 C345.178029,40.0753412 345.000406,40.4375962 344.847343,40.9339181 L344.790973,41.1262096 L339.262706,40.5435388 C339.564874,39.1405302 339.851881,38.4442119 340.212896,37.9353107 C340.576272,37.4230827 341.095897,36.9742559 341.778936,36.5977096 C342.254677,36.3343529 342.906946,36.1245788 343.740323,35.9800135 C344.532284,35.8426325 345.388864,35.7734375 346.310156,35.7734375 Z M348.071,43.789 L347.714086,43.9026259 C347.363095,44.0089913 347.006849,44.1077935 346.643615,44.1996 C345.808654,44.4218479 345.255259,44.6164232 345.029323,44.8355127 C344.872297,44.9879202 344.782812,45.1584371 344.782812,45.3554688 C344.782812,45.5780445 344.855469,45.7631553 345.012002,45.9056704 C345.197399,46.0744651 345.4781,46.1328125 345.829687,46.1328125 C346.272826,46.1328125 346.685155,46.0256934 347.066449,45.8106045 C347.425821,45.6078819 347.689064,45.3669258 347.840394,45.0735321 C348.001487,44.7612081 348.071875,44.3532369 348.071875,43.8554688 L348.071875,43.8554688 L348.071,43.789 Z M281.853125,31.3203125 L281.853125,49.5 L276.388281,49.5 L276.388281,48.4441668 C276.018235,48.7995347 275.704447,49.0286142 275.408971,49.1853002 C274.65214,49.5809162 273.809738,49.78125 272.880469,49.78125 C271.002053,49.78125 269.574042,49.0580845 268.584921,47.6327142 C267.636127,46.2654562 267.153906,44.6058085 267.153906,42.6484375 C267.153906,40.4325244 267.707085,38.7500409 268.765341,37.5788488 C269.850936,36.3773989 271.229481,35.7734375 272.903906,35.7734375 C273.7165,35.7734375 274.453591,35.9126843 275.116215,36.1862839 C275.359553,36.2867587 275.593007,36.4053542 275.816521,36.542156 L276.036719,36.6850297 L276.036719,31.3203125 L281.853125,31.3203125 Z M274.380469,40.3359375 C273.977672,40.3359375 273.644496,40.5101488 273.373793,40.8428875 C273.04979,41.2411412 272.923438,41.9207349 272.923438,42.8476562 C272.923438,43.7097984 273.058623,44.3578387 273.390494,44.7634592 C273.672966,45.1087021 274.020145,45.2890625 274.439063,45.2890625 C274.897116,45.2890625 275.277211,45.1073836 275.581992,44.7498517 C275.931736,44.3395752 276.071875,43.6591591 276.071875,42.7421875 C276.071875,41.9202837 275.924247,41.2917608 275.572024,40.8830495 C275.257833,40.5184693 274.860721,40.3359375 274.380469,40.3359375 Z M335.989063,31.002401 L335.989063,36.0546875 L338.614063,36.0546875 L338.614063,40.5351562 L335.989063,40.5351562 L335.989063,44.4476553 C335.999116,44.9072005 336.003847,45.1383336 336.072373,45.2543024 C336.878459,45.40625 337.512949,45.2343573 338.368952,44.9255667 L338.368952,44.9255667 L338.83525,49.2932188 L337.88282,49.4882579 C336.857615,49.6840059 335.89169,49.78125 334.985156,49.78125 C333.685695,49.78125 332.735545,49.5961937 332.122015,49.2638647 C331.461513,48.9060932 330.970246,48.364631 330.653437,47.6345934 C330.366127,46.9725309 330.207813,45.9030932 330.207813,44.4179688 L330.207813,44.4179688 L330.207813,40.5351562 L328.45,40.5351563 L328.45,36.0546875 L330.207813,36.0546875 L330.207813,33.9638747 L335.989063,31.002401 Z M304.542188,35.7734375 C306.009707,35.7734375 307.188263,35.8576094 308.078307,36.0219869 C309.042533,36.2000646 309.843288,36.5759145 310.482657,37.1375407 C310.946004,37.5385139 311.318442,38.1022769 311.586303,38.8388941 C311.805794,39.4424947 311.929422,40.0227722 311.960265,40.5792282 L311.967969,40.8554688 L311.967906,46.3436137 C311.978424,47.0051933 312.008314,47.355758 312.067255,47.6194426 C312.157012,48.0209861 312.392842,48.5671041 312.759478,49.2626211 L312.886514,49.5 L307.293784,49.5 C306.943728,48.8730901 306.821801,48.6058481 306.762064,48.4223711 C306.304519,48.7690142 305.851021,49.0397848 305.398805,49.2286712 C304.50094,49.5944677 303.45815,49.78125 302.26875,49.78125 C300.630251,49.78125 299.400124,49.3781084 298.55477,48.6228681 C297.672405,47.834562 297.233594,46.8619187 297.233594,45.7070312 C297.233594,44.6224557 297.561126,43.7357513 298.19587,43.0384277 C298.800832,42.3738214 299.901936,41.85081 301.537468,41.5254172 C303.309594,41.1694443 304.458921,40.9204666 304.985148,40.7773019 C305.400472,40.6643093 305.835458,40.5228454 306.290141,40.3530903 C306.267338,40.1188104 306.211887,39.9353734 306.092914,39.8202386 C305.916654,39.6496637 305.590371,39.609375 305.163281,39.609375 C304.507168,39.609375 304.005726,39.6938434 303.675302,39.9053146 C303.41006,40.0753412 303.232437,40.4375962 303.079375,40.9339181 L303.023005,41.1262096 L297.494738,40.5435388 C297.796906,39.1405302 298.083912,38.4442119 298.444928,37.9353107 C298.808303,37.4230827 299.327928,36.9742559 300.010967,36.5977096 C300.486708,36.3343529 301.138978,36.1245788 301.972354,35.9800135 C302.764315,35.8426325 303.620896,35.7734375 304.542188,35.7734375 Z M306.303,43.789 L305.946117,43.9026259 C305.595127,44.0089913 305.23888,44.1077935 304.875646,44.1996 C304.040686,44.4218479 303.48729,44.6164232 303.261354,44.8355127 C303.104328,44.9879202 303.014844,45.1584371 303.014844,45.3554688 C303.014844,45.5780445 303.0875,45.7631553 303.244033,45.9056704 C303.42943,46.0744651 303.710132,46.1328125 304.061719,46.1328125 C304.504857,46.1328125 304.917186,46.0256934 305.29848,45.8106045 C305.657852,45.6078819 305.921096,45.3669258 306.072425,45.0735321 C306.233518,44.7612081 306.303906,44.3532369 306.303906,43.8554688 L306.303906,43.8554688 L306.303,43.789 Z M184.2,35.7734375 C185.085225,35.7734375 186.069652,36.077841 187.147704,36.7134413 L187.147704,36.7134413 L185.296879,40.9732756 C184.424042,40.6148175 184.002864,40.4765625 183.696094,40.4765625 C183.250466,40.4765625 182.904329,40.6593469 182.656928,41.0304241 C182.198585,41.707026 182.004688,42.9833242 182.004688,44.828125 L182.004688,44.828125 L182.004688,49.5 L176.211719,49.5 L176.211719,36.0546875 L181.676563,36.0546875 L181.676563,36.8750053 C181.86017,36.6581601 182.036636,36.4949204 182.21276,36.3669669 C182.749109,35.977312 183.409373,35.7734375 184.2,35.7734375 Z M192.332353,36.0546875 L194.384538,42.7591581 L196.506458,36.0546875 L202.444616,36.0546875 L196.734789,49.5 L191.839959,49.5 L186.244076,36.0546875 L192.332353,36.0546875 Z M208.217188,36.0546875 L208.217188,49.5 L202.447656,49.5 L202.447656,36.0546875 L208.217188,36.0546875 Z M261.057942,31.3203125 L267.890826,49.5 L261.241162,49.5 L260.397412,46.6640625 L255.097818,46.6640625 L254.265787,49.5 L247.743549,49.5 L254.576433,31.3203125 L261.057942,31.3203125 Z M257.760074,37.9799111 L256.547439,41.9492188 L258.98024,41.9492188 L257.760074,37.9799111 Z M287.880009,36.0546875 L289.932195,42.7591581 L292.054115,36.0546875 L297.992272,36.0546875 L292.282446,49.5 L287.387616,49.5 L281.791732,36.0546875 L287.880009,36.0546875 Z M322.96875,35.7734375 C324.449173,35.7734375 325.597475,36.2297808 326.430814,37.1067498 C327.24753,37.9662258 327.6875,39.2834428 327.6875,41.0898438 L327.6875,41.0898438 L327.6875,49.5 L321.894531,49.5 L321.894531,42.1648613 C321.870246,41.4669507 321.797281,41.0658238 321.587729,40.8307866 C321.387184,40.6058508 321.099235,40.5117188 320.742188,40.5117188 C320.323644,40.5117188 319.982938,40.6680403 319.722301,40.9853385 C319.411347,41.3638909 319.296875,42.0568928 319.296875,43.0234375 L319.296875,43.0234375 L319.296875,49.5 L313.527344,49.5 L313.527344,36.0546875 L318.96875,36.0546875 L318.96875,37.3131075 C319.434669,36.8685727 319.843538,36.5775398 320.252657,36.3635754 C320.995739,35.9749521 321.899772,35.7734375 322.96875,35.7734375 Z M208.217188,31.3203125 L208.217188,35.5664062 L202.447656,35.5664063 L202.447656,31.3203125 L208.217188,31.3203125 Z" id="ServiceAdvantages" stroke="url(#linearGradient-4)" fill="#FFFFFF" fill-rule="nonzero"></path>
            </g>
        </g>
    </g>
</svg>