<svg width="24" height="24" viewBox="0 0 24 24" xmlns="http://www.w3.org/2000/svg"><g fill="none" fill-rule="evenodd"><circle fill="#FFF" cx="12" cy="12" r="12"/><path d="M11.3870345,6.3719726 C7.63639077,6.60932594 5.87859339,9.29118827 5.56934273,9.8207397 L5.54122903,9.8207397 C5.27964575,9.82096904 5.03910678,9.96415176 4.91419723,10.1939853 C4.78928768,10.4238189 4.79998573,10.7035435 4.94208467,10.9231653 C4.83976925,11.1153524 4.42820316,11.9624503 4.33602711,13.3146731 L3.3829267,12.3767817 C3.19723481,12.2066586 3.13261544,11.9412642 3.2193142,11.7048183 C4.3198963,8.25236412 6.94967916,6.5752208 6.94967916,6.5752208 C7.15861605,6.67141993 7.40111714,6.66098198 7.60101521,6.54718541 C7.80091328,6.43338884 7.9336836,6.23019491 7.95762432,6.00142485 C12.0133708,4.13900766 15.4473897,5.61566806 16.1654412,5.970085 C16.1656437,6.22164423 16.2980601,6.45457993 16.5141115,6.58343609 C16.7301628,6.71229224 16.9980423,6.71809886 17.2194744,6.59872569 C17.6571153,6.906198 18.0635585,7.25583483 18.4329721,7.64261952 L17.5010722,8.57451944 C15.8552687,6.73330273 13.3771155,6.39086869 12.6715078,6.32957161 C12.5441923,6.0872676 12.2895465,5.93908928 12.0159794,5.94811984 C11.7424124,5.9571504 11.4980931,6.12179976 11.3870345,6.3719726 Z M17.8799158,17.1256921 C17.7944092,17.2171787 17.7714676,17.3507386 17.8215443,17.4655145 C17.871621,17.5802904 17.9851323,17.6543159 18.1103559,17.6538609 L20.727695,17.6538609 L20.727695,18.0916971 C20.7278173,18.7090115 20.4826443,19.3010774 20.0461371,19.7375846 C19.6096299,20.1740918 19.017564,20.4191426 18.4002496,20.4191426 L5.679954,20.4191426 C5.06263962,20.4191426 4.47057373,20.1740918 4.03406654,19.7375846 C3.59755935,19.3010774 3.35238632,18.7090115 3.3525086,18.0916971 L3.3525086,17.6538609 L5.89518508,17.6501738 C6.02977564,17.6521611 6.15256118,17.5736292 6.20720103,17.4506127 C6.26411515,17.323228 6.23601257,17.1738986 6.13668635,17.075917 L1.98876386,12.9671694 C1.55181991,12.5347913 1.39190488,11.8951311 1.57397161,11.3080004 C2.219204,9.22943031 4.37428017,4.5468867 10.8183082,3.55000267 C10.8183082,3.55000267 15.565375,2.95085831 18.883713,5.90049207 C18.883713,5.90049207 21.8762087,8.26019909 22.4785792,11.6614955 C22.5573897,12.1071668 22.4163604,12.6436314 22.0946659,12.9616388 L17.8799158,17.1256921 Z M4.08945616,18.2069172 C4.08945616,19.0723435 4.7910228,19.7739102 5.6564491,19.7739102 L18.3767447,19.7739102 C19.242171,19.7739102 19.9437377,19.0723435 19.9437377,18.2069172 L4.08945616,18.2069172 Z M21.3581792,12.7335031 C21.6336916,12.4601864 21.7378221,12.0581612 21.6296377,11.6854613 C21.2687685,10.4526066 20.2009089,7.71221244 17.5918656,5.94796274 C17.5844527,5.69845559 17.4470124,5.47102136 17.229568,5.34843782 C17.0121237,5.22585427 16.7463867,5.22599864 16.5290757,5.34881838 C12.0368756,3.17668964 8.25443122,5.0354198 7.67049591,5.35112278 C7.45388856,5.1905141 7.16523658,5.16575358 6.92444091,5.2871263 C6.68364524,5.40849901 6.53185517,5.65526373 6.53212163,5.92491873 C6.53224789,5.96899058 6.53641323,6.01295811 6.54456539,6.05626961 L6.53212163,6.0401388 C3.86961627,7.74539582 2.84922734,10.5060687 2.4574791,11.6628782 C2.34624409,11.991077 2.4317369,12.3539744 2.67777988,12.5980043 L7.47830883,17.445543 C7.61899506,17.5879033 7.84711213,17.5934026 7.99449474,17.4579868 C8.06962682,17.3889603 8.11314748,17.2921309 8.11488979,17.1901189 C8.11663209,17.088107 8.07644343,16.9898478 8.00371235,16.918296 L7.70644457,16.4864511 C6.71647374,14.7042271 7.08103004,13.0206315 7.53453623,12.0232865 L9.02963184,12.9233857 C8.39234113,14.4972762 9.0648106,16.2971337 10.5779924,17.0675567 C12.0911743,17.8379796 13.9422431,17.322959 14.8400775,15.8817219 C15.7379119,14.4404849 15.3841644,12.5519498 14.025574,11.5333708 L14.8657588,10.0769891 C15.823468,10.8291457 18.2126713,13.210975 16.0755695,16.9943412 C15.9754378,17.1550283 16.013287,17.3654389 16.1631394,17.4811583 C16.3129918,17.5968776 16.526135,17.5802889 16.6562787,17.4427777 L21.3581792,12.7335031 Z M18.872191,8.12838733 L17.7199903,9.3160758 C17.6548894,9.38345407 17.5647308,9.4207708 17.4710547,9.4191105 C17.3773787,9.4174502 17.2885991,9.37696199 17.2259267,9.30731908 C16.6866968,8.70356592 15.1851488,7.32276861 12.5968452,7.10984192 C12.460553,7.27918559 12.2545307,7.37720662 12.0371562,7.37613006 C11.8197817,7.3750535 11.6147404,7.27499667 11.4801323,7.10431136 C10.5269387,7.17347997 9.59804191,7.43731051 8.75079928,7.87951198 L9.3577786,9.02203419 C9.36625062,9.03801312 9.38083743,9.04987589 9.3982077,9.05491327 C9.41557797,9.05995065 9.43424826,9.05773244 9.44995466,9.04876524 C12.3779271,7.44720628 15.1519654,9.311467 15.1519654,9.311467 C18.7468316,11.8002205 17.5485429,15.4872627 17.5485429,15.4872627 L19.0394906,13.9967759 C19.1284405,12.6141351 18.6832301,11.5978941 18.4997998,11.2453206 C18.1782687,11.2280668 17.9078387,10.9982322 17.8389688,10.6836899 C17.770099,10.3691476 17.9197448,10.0473363 18.2046478,9.89730226 C18.4895507,9.74726818 18.8395692,9.80594895 19.0599633,10.0406963 C19.2803575,10.2754437 19.3168674,10.6284641 19.1491801,10.9033475 C19.5510677,11.6508953 19.7317327,12.8201485 19.7870384,13.2487672 L20.7940618,12.2422047 C20.9249518,12.1113147 20.9258735,11.9195885 20.8682635,11.7416887 C20.346547,10.1534953 19.5837902,8.96949383 18.872191,8.12838733 L18.872191,8.12838733 Z M9.47760747,9.85761013 C9.29553424,9.95718191 9.06722818,9.89109873 8.96649125,9.70966756 L8.159029,8.22701571 C7.36503408,8.75216916 6.69516354,9.44421668 6.1961399,10.2548889 C6.28238549,10.4575151 6.27015763,10.6886246 6.16301179,10.8810185 C6.05586594,11.0734125 5.86582747,11.2054977 5.64815326,11.2388683 C5.1937253,11.90991 5.03518249,13.3091425 4.98494654,13.9525314 L6.47036367,15.4126001 C6.30444677,14.5922332 5.97768265,12.0020861 7.93504119,10.1585649 C7.97425988,10.1218569 8.03558568,10.1230834 8.07330527,10.1613302 L8.48210608,10.5696702 C8.50142283,10.589102 8.51187653,10.6156364 8.51100437,10.6430221 C8.51013222,10.6704077 8.49801133,10.6962232 8.47749727,10.7143866 C8.23538002,10.9310909 8.02319997,11.1790734 7.84655217,11.451795 L9.3319693,12.3500507 C10.2310112,10.9871134 11.997181,10.4954728 13.4711351,11.19785 L14.3246853,9.71934604 C12.2110884,8.59664169 10.2210074,9.45295724 9.47760747,9.85761013 L9.47760747,9.85761013 Z M5.56427305,10.1415124 C5.33518961,10.1415124 5.1494808,10.3272212 5.1494808,10.5563046 C5.1494808,10.7853881 5.33518961,10.9710969 5.56427305,10.9710969 C5.79335648,10.9710969 5.97906529,10.7853881 5.97906529,10.5563046 C5.97906529,10.3272212 5.79335648,10.1415124 5.56427305,10.1415124 Z M7.26953007,5.53270961 C7.04044663,5.53270961 6.85473782,5.71841843 6.85473782,5.94750186 C6.85473782,6.1765853 7.04044663,6.36229411 7.26953007,6.36229411 C7.4986135,6.36229411 7.68432232,6.1765853 7.68432232,5.94750186 C7.68432232,5.71841843 7.4986135,5.53270961 7.26953007,5.53270961 Z M12.0626849,6.27011806 C11.8336015,6.27011806 11.6478927,6.45582687 11.6478927,6.6849103 C11.6478927,6.91399374 11.8336015,7.09970255 12.0626849,7.09970255 C12.2917684,7.09970255 12.4774772,6.91399374 12.4774772,6.6849103 C12.4774772,6.45582687 12.2917684,6.27011806 12.0626849,6.27011806 L12.0626849,6.27011806 Z M16.9019278,5.53270961 C16.6728444,5.53270961 16.4871356,5.71841843 16.4871356,5.94750186 C16.4871356,6.1765853 16.6728444,6.36229411 16.9019278,6.36229411 C17.1310113,6.36229411 17.3167201,6.1765853 17.3167201,5.94750186 C17.3167201,5.71841843 17.1310113,5.53270961 16.9019278,5.53270961 Z M18.5610968,10.1415124 C18.3320134,10.1415124 18.1463046,10.3272212 18.1463046,10.5563046 C18.1463046,10.7853881 18.3320134,10.9710969 18.5610968,10.9710969 C18.7901803,10.9710969 18.9758891,10.7853881 18.9758891,10.5563046 C18.9758891,10.3272212 18.7901803,10.1415124 18.5610968,10.1415124 Z" fill="#2E86AB" fill-rule="nonzero"/></g></svg>