<?xml version="1.0" encoding="UTF-8"?>
<svg width="24px" height="24px" viewBox="0 0 24 24" version="1.1" xmlns="http://www.w3.org/2000/svg" xmlns:xlink="http://www.w3.org/1999/xlink">
    <title>Stafi</title>
    <g id="页面-1" stroke="none" stroke-width="1" fill="none" fill-rule="evenodd">
        <g id="Project_Requests" transform="translate(-76.000000, -556.000000)">
            <g id="Stafi" transform="translate(76.000000, 556.000000)">
                <circle id="椭圆形" fill="#22292E" cx="12" cy="12" r="12"></circle>
                <path d="M17.4677062,15.7067799 C16.8634638,15.6725973 16.1865741,15.52166 15.437037,15.2539683 C15.4124562,15.2381663 15.3877489,15.2225678 15.3629149,15.2071727 L17.2104019,4.66666667 L19.7333333,4.7875 L17.4677062,15.7067799 Z M17.0914856,17.5199902 L16.5492465,20.1333333 L14.074734,20.1333333 L12.9787927,16.6680847 C13.6203385,16.7124955 14.2341309,16.8015101 14.8201699,16.9351283 L15.1888002,18.0801107 L15.2099508,17.0316715 C15.2861358,17.0520736 15.3618312,17.0732624 15.437037,17.0952381 C15.9885199,17.3168161 16.5400028,17.4584001 17.0914856,17.5199902 Z M12.2546001,14.3371137 L11.8573138,12.8880534 L11.4698662,14.350063 C10.898886,14.386822 10.3655979,14.4841575 9.87000173,14.6420696 L11.2681442,9.91442059 L12.5857417,9.91442059 L14.0831894,14.6273697 C13.5215991,14.4535721 12.9120693,14.3568202 12.2546001,14.3371137 Z M10.7830519,16.6867313 L9.74701536,20.1333333 L7.35820036,20.1333333 L6.84140436,17.5478492 C7.46900211,17.51328 8.04285498,17.3624098 8.56296296,17.0952381 C8.65506827,17.0683242 8.74790791,17.0425905 8.84148191,17.0180371 L8.90075354,18.0801107 L9.21958023,16.9261432 C9.72054359,16.8138848 10.2417008,16.7340808 10.7830519,16.6867313 Z M6.47475858,15.7135531 L4.26666667,4.66666667 L6.4605201,4.66666667 L8.72933483,15.1512654 C8.67324782,15.1844877 8.61779054,15.218722 8.56296296,15.2539683 C7.91921648,15.5608466 7.25090373,15.7142858 6.55802469,15.7142858 C6.53038218,15.7142858 6.50262681,15.7140416 6.47475858,15.7135531 Z" id="Combined-Shape" fill="#00F3AB" fill-rule="nonzero"></path>
            </g>
        </g>
    </g>
</svg>