<?xml version="1.0" encoding="UTF-8"?>
<svg width="24px" height="24px" viewBox="0 0 24 24" version="1.1" xmlns="http://www.w3.org/2000/svg" xmlns:xlink="http://www.w3.org/1999/xlink">
    <title>Statemine</title>
    <g id="页面-1" stroke="none" stroke-width="1" fill="none" fill-rule="evenodd">
        <g id="Project_Requests" transform="translate(-76.000000, -688.000000)" fill-rule="nonzero">
            <g id="Statemine" transform="translate(76.000000, 688.000000)">
                <path d="M15.1050579,23.5882338 C21.5050627,21.8733577 25.3031099,15.2949469 23.5882338,8.89494211 C21.8733577,2.49493732 15.2949469,-1.30310991 8.89494211,0.411766211 C2.49493732,2.12664233 -1.30310991,8.70505309 0.411766211,15.1050579 C2.12664233,21.5050627 8.70505309,25.3031099 15.1050579,23.5882338 Z" id="椭圆形" fill="#000000"></path>
                <path d="M6.73966558,9.510018 C5.96255846,7.3749799 7.06340523,5.01419383 9.19847932,4.23708671 C9.97742199,6.37713956 9.82841897,5.96790913 10.6055861,8.10299521 C11.3826332,10.2381173 11.2337502,9.82889885 12.0125969,11.9689277 C9.87760676,12.7459749 7.51676071,11.6451281 6.73966558,9.510018 Z" id="路径" fill="#FFFFFF"></path>
                <path d="M17.2735311,14.45795 C18.0506983,16.59306 16.9498515,18.9538341 14.8147414,19.7310012 C14.0357747,17.5909724 14.1847778,18.0001908 13.4077306,15.8650807 C12.6305635,13.7299706 12.7795665,14.1391891 12.0005999,11.9991602 C14.1357099,11.2221131 16.496484,12.3229598 17.2735311,14.45795 Z" id="路径" fill="#FFFFFF"></path>
                <path d="M9.014421,20.2337964 C7.27388099,18.7733989 7.04684934,16.1784429 8.50733086,14.4379149 C10.2519139,15.9017916 9.91827667,15.6219011 11.6588047,17.0822986 C13.3993327,18.5428161 13.0658155,18.2629256 14.8103025,19.7268023 C13.349905,21.4673303 10.754949,21.6943139 9.014421,20.2337964 Z" id="路径" fill="#FFFFFF"></path>
                <path d="M14.9823398,3.76016907 C16.7228678,5.22065059 16.9498515,7.81558255 15.4894539,9.55608656 C13.7448469,8.09224588 14.0783642,8.37216041 12.3378362,6.91167889 C10.5973081,5.45119737 10.9309453,5.7311239 9.18637432,4.26723522 C10.6468558,2.52670721 13.2418118,2.29968756 14.9823398,3.76016907 Z" id="路径" fill="#FFFFFF"></path>
            </g>
        </g>
    </g>
</svg>