<?xml version="1.0" encoding="UTF-8"?>
<svg width="24px" height="24px" viewBox="0 0 24 24" version="1.1" xmlns="http://www.w3.org/2000/svg" xmlns:xlink="http://www.w3.org/1999/xlink">
    <title>Subsocial</title>
    <defs>
        <linearGradient x1="50%" y1="0%" x2="50%" y2="100%" id="linearGradient-1">
            <stop stop-color="#F50083" offset="0%"></stop>
            <stop stop-color="#720497" offset="100%"></stop>
        </linearGradient>
    </defs>
    <g id="页面-1" stroke="none" stroke-width="1" fill="none" fill-rule="evenodd">
        <g id="Project_Requests" transform="translate(-76.000000, -644.000000)" fill="url(#linearGradient-1)">
            <g id="Subsocial" transform="translate(76.000000, 644.000000)">
                <path d="M24,12 C24,18.62744 18.62744,24 12,24 C5.372584,24 0,18.62744 0,12 C0,5.372584 5.372584,0 12,0 C18.62744,0 24,5.372584 24,12 Z M11.95912,2.559104 C9.50696,2.559104 7.519104,4.54696 7.519104,6.999104 L7.519104,9.87912 C7.519104,12.33128 9.50696,14.31912 11.95912,14.31912 C12.30328,14.31912 12.63832,14.27992 12.96,14.20584 C13.1532,14.16136 13.20736,13.92288 13.064,13.786 L13.04,13.76304 L10.48216,11.32 C10.08552,10.93472 9.83912,10.39568 9.83912,9.79912 L9.83912,7.079104 C9.83912,5.908256 10.78824,4.959104 11.95912,4.959104 C13.12992,4.959104 14.07912,5.908256 14.07912,7.079104 L14.07912,8 C14.07912,8.17672 14.2224,8.32 14.39912,8.32 L16.07912,8.32 C16.25584,8.32 16.39912,8.17672 16.39912,8 L16.39912,6.999104 C16.39912,4.54696 14.41128,2.559104 11.95912,2.559104 Z M16.4,16.76 C16.4,19.21216 14.41216,21.2 11.96,21.2 C9.50784,21.2 7.52,19.21216 7.52,16.76 L7.52,15.76 C7.52,15.58328 7.663272,15.44 7.84,15.44 L9.52,15.44 C9.69672,15.44 9.84,15.58328 9.84,15.76 L9.84,16.68 C9.84,17.85088 10.78912,18.8 11.96,18.8 C13.13088,18.8 14.08,17.85088 14.08,16.68 L14.08,13.96 C14.08,13.36336 13.83352,12.82432 13.43688,12.43912 L10.87912,9.99608 L10.85504,9.97312 C10.71168,9.83616 10.76592,9.59776 10.95912,9.55328 C11.2808,9.4792 11.61584,9.44 11.96,9.44 C14.41216,9.44 16.4,11.42784 16.4,13.88 L16.4,16.76 Z" id="形状"></path>
            </g>
        </g>
    </g>
</svg>