<?xml version="1.0" encoding="UTF-8"?>
<svg width="16px" height="16px" viewBox="0 0 16 16" version="1.1" xmlns="http://www.w3.org/2000/svg" xmlns:xlink="http://www.w3.org/1999/xlink">
    <title>编组 19</title>
    <g id="页面-1" stroke="none" stroke-width="1" fill="none" fill-rule="evenodd">
        <g id="Project_Settings" transform="translate(-941.000000, -134.000000)">
            <g id="编组-21" transform="translate(492.000000, 130.000000)">
                <g id="编组-20" transform="translate(10.000000, 4.000000)">
                    <g id="编组-19" transform="translate(439.000000, 0.000000)">
                        <rect id="矩形" x="0" y="0" width="16" height="16"></rect>
                        <g id="形状备份-6" transform="translate(2.000000, 2.000000)" fill="#DF3D4B" fill-rule="nonzero">
                            <path d="M6,0 C9.3137085,0 12,2.6862915 12,6 C12,9.3137085 9.3137085,12 6,12 C2.6862915,12 0,9.3137085 0,6 C0,2.6862915 2.6862915,0 6,0 Z M6,3.42857143 C5.08131705,3.42857143 4.23241899,3.91868293 3.77307751,4.71428571 C3.31373603,5.50988848 3.31373603,6.49011152 3.77307751,7.28571429 C4.23241899,8.08131707 5.08131705,8.57142857 6,8.57142857 C7.42016077,8.57142857 8.57142853,7.42016077 8.57142853,6 C8.57142853,4.57983923 7.42016077,3.42857143 6,3.42857143 Z" id="形状备份-3"></path>
                        </g>
                    </g>
                </g>
            </g>
        </g>
    </g>
</svg>