<?xml version="1.0" encoding="UTF-8"?>
<svg width="80px" height="80px" viewBox="0 0 80 80" version="1.1" xmlns="http://www.w3.org/2000/svg" xmlns:xlink="http://www.w3.org/1999/xlink">
    <title>Polkadot 生态的 所有网络</title>
    <defs>
        <circle id="path-1" cx="24" cy="24" r="24"></circle>
    </defs>
    <g id="页面-1" stroke="none" stroke-width="1" fill="none" fill-rule="evenodd">
        <g id="Linkweb3-首页" transform="translate(-188.000000, -1927.000000)">
            <g id="编组-11" transform="translate(100.000000, 1867.000000)">
                <g id="Polkadot-生态的-所有网络" transform="translate(88.000000, 60.000000)">
                    <rect id="矩形" fill="#FFFFFF" x="0" y="0" width="80" height="80"></rect>
                    <path d="M4.8,72.8 C6.1254834,72.8 7.2,73.8745166 7.2,75.2 C7.2,76.5254834 6.1254834,77.6 4.8,77.6 C3.4745166,77.6 2.4,76.5254834 2.4,75.2 C2.4,73.8745166 3.4745166,72.8 4.8,72.8 Z M31.2,72.8 C32.5254834,72.8 33.6,73.8745166 33.6,75.2 C33.6,76.5254834 32.5254834,77.6 31.2,77.6 C29.8745166,77.6 28.8,76.5254834 28.8,75.2 C28.8,73.8745166 29.8745166,72.8 31.2,72.8 Z M57.6,72.8 C58.9254834,72.8 60,73.8745166 60,75.2 C60,76.5254834 58.9254834,77.6 57.6,77.6 C56.2745166,77.6 55.2,76.5254834 55.2,75.2 C55.2,73.8745166 56.2745166,72.8 57.6,72.8 Z M22.4,72.8 C23.7254834,72.8 24.8,73.8745166 24.8,75.2 C24.8,76.5254834 23.7254834,77.6 22.4,77.6 C21.0745166,77.6 20,76.5254834 20,75.2 C20,73.8745166 21.0745166,72.8 22.4,72.8 Z M48.8,72.8 C50.1254834,72.8 51.2,73.8745166 51.2,75.2 C51.2,76.5254834 50.1254834,77.6 48.8,77.6 C47.4745166,77.6 46.4,76.5254834 46.4,75.2 C46.4,73.8745166 47.4745166,72.8 48.8,72.8 Z M75.2,72.8 C76.5254834,72.8 77.6,73.8745166 77.6,75.2 C77.6,76.5254834 76.5254834,77.6 75.2,77.6 C73.8745166,77.6 72.8,76.5254834 72.8,75.2 C72.8,73.8745166 73.8745166,72.8 75.2,72.8 Z M13.6,72.8 C14.9254834,72.8 16,73.8745166 16,75.2 C16,76.5254834 14.9254834,77.6 13.6,77.6 C12.2745166,77.6 11.2,76.5254834 11.2,75.2 C11.2,73.8745166 12.2745166,72.8 13.6,72.8 Z M40,72.8 C41.3254834,72.8 42.4,73.8745166 42.4,75.2 C42.4,76.5254834 41.3254834,77.6 40,77.6 C38.6745166,77.6 37.6,76.5254834 37.6,75.2 C37.6,73.8745166 38.6745166,72.8 40,72.8 Z M66.4,72.8 C67.7254834,72.8 68.8,73.8745166 68.8,75.2 C68.8,76.5254834 67.7254834,77.6 66.4,77.6 C65.0745166,77.6 64,76.5254834 64,75.2 C64,73.8745166 65.0745166,72.8 66.4,72.8 Z M31.2,64 C32.5254834,64 33.6,65.0745166 33.6,66.4 C33.6,67.7254834 32.5254834,68.8 31.2,68.8 C29.8745166,68.8 28.8,67.7254834 28.8,66.4 C28.8,65.0745166 29.8745166,64 31.2,64 Z M75.2,64 C76.5254834,64 77.6,65.0745166 77.6,66.4 C77.6,67.7254834 76.5254834,68.8 75.2,68.8 C73.8745166,68.8 72.8,67.7254834 72.8,66.4 C72.8,65.0745166 73.8745166,64 75.2,64 Z M57.6,64 C58.9254834,64 60,65.0745166 60,66.4 C60,67.7254834 58.9254834,68.8 57.6,68.8 C56.2745166,68.8 55.2,67.7254834 55.2,66.4 C55.2,65.0745166 56.2745166,64 57.6,64 Z M13.6,64 C14.9254834,64 16,65.0745166 16,66.4 C16,67.7254834 14.9254834,68.8 13.6,68.8 C12.2745166,68.8 11.2,67.7254834 11.2,66.4 C11.2,65.0745166 12.2745166,64 13.6,64 Z M22.4,64 C23.7254834,64 24.8,65.0745166 24.8,66.4 C24.8,67.7254834 23.7254834,68.8 22.4,68.8 C21.0745166,68.8 20,67.7254834 20,66.4 C20,65.0745166 21.0745166,64 22.4,64 Z M40,64 C41.3254834,64 42.4,65.0745166 42.4,66.4 C42.4,67.7254834 41.3254834,68.8 40,68.8 C38.6745166,68.8 37.6,67.7254834 37.6,66.4 C37.6,65.0745166 38.6745166,64 40,64 Z M4.8,64 C6.1254834,64 7.2,65.0745166 7.2,66.4 C7.2,67.7254834 6.1254834,68.8 4.8,68.8 C3.4745166,68.8 2.4,67.7254834 2.4,66.4 C2.4,65.0745166 3.4745166,64 4.8,64 Z M66.4,64 C67.7254834,64 68.8,65.0745166 68.8,66.4 C68.8,67.7254834 67.7254834,68.8 66.4,68.8 C65.0745166,68.8 64,67.7254834 64,66.4 C64,65.0745166 65.0745166,64 66.4,64 Z M48.8,64 C50.1254834,64 51.2,65.0745166 51.2,66.4 C51.2,67.7254834 50.1254834,68.8 48.8,68.8 C47.4745166,68.8 46.4,67.7254834 46.4,66.4 C46.4,65.0745166 47.4745166,64 48.8,64 Z M4.8,55.2 C6.1254834,55.2 7.2,56.2745166 7.2,57.6 C7.2,58.9254834 6.1254834,60 4.8,60 C3.4745166,60 2.4,58.9254834 2.4,57.6 C2.4,56.2745166 3.4745166,55.2 4.8,55.2 Z M31.2,55.2 C32.5254834,55.2 33.6,56.2745166 33.6,57.6 C33.6,58.9254834 32.5254834,60 31.2,60 C29.8745166,60 28.8,58.9254834 28.8,57.6 C28.8,56.2745166 29.8745166,55.2 31.2,55.2 Z M57.6,55.2 C58.9254834,55.2 60,56.2745166 60,57.6 C60,58.9254834 58.9254834,60 57.6,60 C56.2745166,60 55.2,58.9254834 55.2,57.6 C55.2,56.2745166 56.2745166,55.2 57.6,55.2 Z M22.4,55.2 C23.7254834,55.2 24.8,56.2745166 24.8,57.6 C24.8,58.9254834 23.7254834,60 22.4,60 C21.0745166,60 20,58.9254834 20,57.6 C20,56.2745166 21.0745166,55.2 22.4,55.2 Z M48.8,55.2 C50.1254834,55.2 51.2,56.2745166 51.2,57.6 C51.2,58.9254834 50.1254834,60 48.8,60 C47.4745166,60 46.4,58.9254834 46.4,57.6 C46.4,56.2745166 47.4745166,55.2 48.8,55.2 Z M75.2,55.2 C76.5254834,55.2 77.6,56.2745166 77.6,57.6 C77.6,58.9254834 76.5254834,60 75.2,60 C73.8745166,60 72.8,58.9254834 72.8,57.6 C72.8,56.2745166 73.8745166,55.2 75.2,55.2 Z M13.6,55.2 C14.9254834,55.2 16,56.2745166 16,57.6 C16,58.9254834 14.9254834,60 13.6,60 C12.2745166,60 11.2,58.9254834 11.2,57.6 C11.2,56.2745166 12.2745166,55.2 13.6,55.2 Z M40,55.2 C41.3254834,55.2 42.4,56.2745166 42.4,57.6 C42.4,58.9254834 41.3254834,60 40,60 C38.6745166,60 37.6,58.9254834 37.6,57.6 C37.6,56.2745166 38.6745166,55.2 40,55.2 Z M66.4,55.2 C67.7254834,55.2 68.8,56.2745166 68.8,57.6 C68.8,58.9254834 67.7254834,60 66.4,60 C65.0745166,60 64,58.9254834 64,57.6 C64,56.2745166 65.0745166,55.2 66.4,55.2 Z M4.8,46.4 C6.1254834,46.4 7.2,47.4745166 7.2,48.8 C7.2,50.1254834 6.1254834,51.2 4.8,51.2 C3.4745166,51.2 2.4,50.1254834 2.4,48.8 C2.4,47.4745166 3.4745166,46.4 4.8,46.4 Z M31.2,46.4 C32.5254834,46.4 33.6,47.4745166 33.6,48.8 C33.6,50.1254834 32.5254834,51.2 31.2,51.2 C29.8745166,51.2 28.8,50.1254834 28.8,48.8 C28.8,47.4745166 29.8745166,46.4 31.2,46.4 Z M57.6,46.4 C58.9254834,46.4 60,47.4745166 60,48.8 C60,50.1254834 58.9254834,51.2 57.6,51.2 C56.2745166,51.2 55.2,50.1254834 55.2,48.8 C55.2,47.4745166 56.2745166,46.4 57.6,46.4 Z M22.4,46.4 C23.7254834,46.4 24.8,47.4745166 24.8,48.8 C24.8,50.1254834 23.7254834,51.2 22.4,51.2 C21.0745166,51.2 20,50.1254834 20,48.8 C20,47.4745166 21.0745166,46.4 22.4,46.4 Z M48.8,46.4 C50.1254834,46.4 51.2,47.4745166 51.2,48.8 C51.2,50.1254834 50.1254834,51.2 48.8,51.2 C47.4745166,51.2 46.4,50.1254834 46.4,48.8 C46.4,47.4745166 47.4745166,46.4 48.8,46.4 Z M75.2,46.4 C76.5254834,46.4 77.6,47.4745166 77.6,48.8 C77.6,50.1254834 76.5254834,51.2 75.2,51.2 C73.8745166,51.2 72.8,50.1254834 72.8,48.8 C72.8,47.4745166 73.8745166,46.4 75.2,46.4 Z M13.6,46.4 C14.9254834,46.4 16,47.4745166 16,48.8 C16,50.1254834 14.9254834,51.2 13.6,51.2 C12.2745166,51.2 11.2,50.1254834 11.2,48.8 C11.2,47.4745166 12.2745166,46.4 13.6,46.4 Z M40,46.4 C41.3254834,46.4 42.4,47.4745166 42.4,48.8 C42.4,50.1254834 41.3254834,51.2 40,51.2 C38.6745166,51.2 37.6,50.1254834 37.6,48.8 C37.6,47.4745166 38.6745166,46.4 40,46.4 Z M66.4,46.4 C67.7254834,46.4 68.8,47.4745166 68.8,48.8 C68.8,50.1254834 67.7254834,51.2 66.4,51.2 C65.0745166,51.2 64,50.1254834 64,48.8 C64,47.4745166 65.0745166,46.4 66.4,46.4 Z M48.8,37.6 C50.1254834,37.6 51.2,38.6745166 51.2,40 C51.2,41.3254834 50.1254834,42.4 48.8,42.4 C47.4745166,42.4 46.4,41.3254834 46.4,40 C46.4,38.6745166 47.4745166,37.6 48.8,37.6 Z M40,37.6 C41.3254834,37.6 42.4,38.6745166 42.4,40 C42.4,41.3254834 41.3254834,42.4 40,42.4 C38.6745166,42.4 37.6,41.3254834 37.6,40 C37.6,38.6745166 38.6745166,37.6 40,37.6 Z M75.2,37.6 C76.5254834,37.6 77.6,38.6745166 77.6,40 C77.6,41.3254834 76.5254834,42.4 75.2,42.4 C73.8745166,42.4 72.8,41.3254834 72.8,40 C72.8,38.6745166 73.8745166,37.6 75.2,37.6 Z M13.6,37.6 C14.9254834,37.6 16,38.6745166 16,40 C16,41.3254834 14.9254834,42.4 13.6,42.4 C12.2745166,42.4 11.2,41.3254834 11.2,40 C11.2,38.6745166 12.2745166,37.6 13.6,37.6 Z M22.4,37.6 C23.7254834,37.6 24.8,38.6745166 24.8,40 C24.8,41.3254834 23.7254834,42.4 22.4,42.4 C21.0745166,42.4 20,41.3254834 20,40 C20,38.6745166 21.0745166,37.6 22.4,37.6 Z M31.2,37.6 C32.5254834,37.6 33.6,38.6745166 33.6,40 C33.6,41.3254834 32.5254834,42.4 31.2,42.4 C29.8745166,42.4 28.8,41.3254834 28.8,40 C28.8,38.6745166 29.8745166,37.6 31.2,37.6 Z M4.8,37.6 C6.1254834,37.6 7.2,38.6745166 7.2,40 C7.2,41.3254834 6.1254834,42.4 4.8,42.4 C3.4745166,42.4 2.4,41.3254834 2.4,40 C2.4,38.6745166 3.4745166,37.6 4.8,37.6 Z M66.4,37.6 C67.7254834,37.6 68.8,38.6745166 68.8,40 C68.8,41.3254834 67.7254834,42.4 66.4,42.4 C65.0745166,42.4 64,41.3254834 64,40 C64,38.6745166 65.0745166,37.6 66.4,37.6 Z M57.6,37.6 C58.9254834,37.6 60,38.6745166 60,40 C60,41.3254834 58.9254834,42.4 57.6,42.4 C56.2745166,42.4 55.2,41.3254834 55.2,40 C55.2,38.6745166 56.2745166,37.6 57.6,37.6 Z M4.8,28.8 C6.1254834,28.8 7.2,29.8745166 7.2,31.2 C7.2,32.5254834 6.1254834,33.6 4.8,33.6 C3.4745166,33.6 2.4,32.5254834 2.4,31.2 C2.4,29.8745166 3.4745166,28.8 4.8,28.8 Z M40,28.8 C41.3254834,28.8 42.4,29.8745166 42.4,31.2 C42.4,32.5254834 41.3254834,33.6 40,33.6 C38.6745166,33.6 37.6,32.5254834 37.6,31.2 C37.6,29.8745166 38.6745166,28.8 40,28.8 Z M31.2,28.8 C32.5254834,28.8 33.6,29.8745166 33.6,31.2 C33.6,32.5254834 32.5254834,33.6 31.2,33.6 C29.8745166,33.6 28.8,32.5254834 28.8,31.2 C28.8,29.8745166 29.8745166,28.8 31.2,28.8 Z M57.6,28.8 C58.9254834,28.8 60,29.8745166 60,31.2 C60,32.5254834 58.9254834,33.6 57.6,33.6 C56.2745166,33.6 55.2,32.5254834 55.2,31.2 C55.2,29.8745166 56.2745166,28.8 57.6,28.8 Z M13.6,28.8 C14.9254834,28.8 16,29.8745166 16,31.2 C16,32.5254834 14.9254834,33.6 13.6,33.6 C12.2745166,33.6 11.2,32.5254834 11.2,31.2 C11.2,29.8745166 12.2745166,28.8 13.6,28.8 Z M66.4,28.8 C67.7254834,28.8 68.8,29.8745166 68.8,31.2 C68.8,32.5254834 67.7254834,33.6 66.4,33.6 C65.0745166,33.6 64,32.5254834 64,31.2 C64,29.8745166 65.0745166,28.8 66.4,28.8 Z M22.4,28.8 C23.7254834,28.8 24.8,29.8745166 24.8,31.2 C24.8,32.5254834 23.7254834,33.6 22.4,33.6 C21.0745166,33.6 20,32.5254834 20,31.2 C20,29.8745166 21.0745166,28.8 22.4,28.8 Z M48.8,28.8 C50.1254834,28.8 51.2,29.8745166 51.2,31.2 C51.2,32.5254834 50.1254834,33.6 48.8,33.6 C47.4745166,33.6 46.4,32.5254834 46.4,31.2 C46.4,29.8745166 47.4745166,28.8 48.8,28.8 Z M75.2,28.8 C76.5254834,28.8 77.6,29.8745166 77.6,31.2 C77.6,32.5254834 76.5254834,33.6 75.2,33.6 C73.8745166,33.6 72.8,32.5254834 72.8,31.2 C72.8,29.8745166 73.8745166,28.8 75.2,28.8 Z M75.2,20 C76.5254834,20 77.6,21.0745166 77.6,22.4 C77.6,23.7254834 76.5254834,24.8 75.2,24.8 C73.8745166,24.8 72.8,23.7254834 72.8,22.4 C72.8,21.0745166 73.8745166,20 75.2,20 Z M13.6,20 C14.9254834,20 16,21.0745166 16,22.4 C16,23.7254834 14.9254834,24.8 13.6,24.8 C12.2745166,24.8 11.2,23.7254834 11.2,22.4 C11.2,21.0745166 12.2745166,20 13.6,20 Z M40,20 C41.3254834,20 42.4,21.0745166 42.4,22.4 C42.4,23.7254834 41.3254834,24.8 40,24.8 C38.6745166,24.8 37.6,23.7254834 37.6,22.4 C37.6,21.0745166 38.6745166,20 40,20 Z M31.2,20 C32.5254834,20 33.6,21.0745166 33.6,22.4 C33.6,23.7254834 32.5254834,24.8 31.2,24.8 C29.8745166,24.8 28.8,23.7254834 28.8,22.4 C28.8,21.0745166 29.8745166,20 31.2,20 Z M4.8,20 C6.1254834,20 7.2,21.0745166 7.2,22.4 C7.2,23.7254834 6.1254834,24.8 4.8,24.8 C3.4745166,24.8 2.4,23.7254834 2.4,22.4 C2.4,21.0745166 3.4745166,20 4.8,20 Z M48.8,20 C50.1254834,20 51.2,21.0745166 51.2,22.4 C51.2,23.7254834 50.1254834,24.8 48.8,24.8 C47.4745166,24.8 46.4,23.7254834 46.4,22.4 C46.4,21.0745166 47.4745166,20 48.8,20 Z M22.4,20 C23.7254834,20 24.8,21.0745166 24.8,22.4 C24.8,23.7254834 23.7254834,24.8 22.4,24.8 C21.0745166,24.8 20,23.7254834 20,22.4 C20,21.0745166 21.0745166,20 22.4,20 Z M66.4,20 C67.7254834,20 68.8,21.0745166 68.8,22.4 C68.8,23.7254834 67.7254834,24.8 66.4,24.8 C65.0745166,24.8 64,23.7254834 64,22.4 C64,21.0745166 65.0745166,20 66.4,20 Z M57.6,20 C58.9254834,20 60,21.0745166 60,22.4 C60,23.7254834 58.9254834,24.8 57.6,24.8 C56.2745166,24.8 55.2,23.7254834 55.2,22.4 C55.2,21.0745166 56.2745166,20 57.6,20 Z M4.8,11.2 C6.1254834,11.2 7.2,12.2745166 7.2,13.6 C7.2,14.9254834 6.1254834,16 4.8,16 C3.4745166,16 2.4,14.9254834 2.4,13.6 C2.4,12.2745166 3.4745166,11.2 4.8,11.2 Z M40,11.2 C41.3254834,11.2 42.4,12.2745166 42.4,13.6 C42.4,14.9254834 41.3254834,16 40,16 C38.6745166,16 37.6,14.9254834 37.6,13.6 C37.6,12.2745166 38.6745166,11.2 40,11.2 Z M31.2,11.2 C32.5254834,11.2 33.6,12.2745166 33.6,13.6 C33.6,14.9254834 32.5254834,16 31.2,16 C29.8745166,16 28.8,14.9254834 28.8,13.6 C28.8,12.2745166 29.8745166,11.2 31.2,11.2 Z M57.6,11.2 C58.9254834,11.2 60,12.2745166 60,13.6 C60,14.9254834 58.9254834,16 57.6,16 C56.2745166,16 55.2,14.9254834 55.2,13.6 C55.2,12.2745166 56.2745166,11.2 57.6,11.2 Z M22.4,11.2 C23.7254834,11.2 24.8,12.2745166 24.8,13.6 C24.8,14.9254834 23.7254834,16 22.4,16 C21.0745166,16 20,14.9254834 20,13.6 C20,12.2745166 21.0745166,11.2 22.4,11.2 Z M66.4,11.2 C67.7254834,11.2 68.8,12.2745166 68.8,13.6 C68.8,14.9254834 67.7254834,16 66.4,16 C65.0745166,16 64,14.9254834 64,13.6 C64,12.2745166 65.0745166,11.2 66.4,11.2 Z M48.8,11.2 C50.1254834,11.2 51.2,12.2745166 51.2,13.6 C51.2,14.9254834 50.1254834,16 48.8,16 C47.4745166,16 46.4,14.9254834 46.4,13.6 C46.4,12.2745166 47.4745166,11.2 48.8,11.2 Z M75.2,11.2 C76.5254834,11.2 77.6,12.2745166 77.6,13.6 C77.6,14.9254834 76.5254834,16 75.2,16 C73.8745166,16 72.8,14.9254834 72.8,13.6 C72.8,12.2745166 73.8745166,11.2 75.2,11.2 Z M13.6,11.2 C14.9254834,11.2 16,12.2745166 16,13.6 C16,14.9254834 14.9254834,16 13.6,16 C12.2745166,16 11.2,14.9254834 11.2,13.6 C11.2,12.2745166 12.2745166,11.2 13.6,11.2 Z M4.8,2.4 C6.1254834,2.4 7.2,3.4745166 7.2,4.8 C7.2,6.1254834 6.1254834,7.2 4.8,7.2 C3.4745166,7.2 2.4,6.1254834 2.4,4.8 C2.4,3.4745166 3.4745166,2.4 4.8,2.4 Z M31.2,2.4 C32.5254834,2.4 33.6,3.4745166 33.6,4.8 C33.6,6.1254834 32.5254834,7.2 31.2,7.2 C29.8745166,7.2 28.8,6.1254834 28.8,4.8 C28.8,3.4745166 29.8745166,2.4 31.2,2.4 Z M57.6,2.4 C58.9254834,2.4 60,3.4745166 60,4.8 C60,6.1254834 58.9254834,7.2 57.6,7.2 C56.2745166,7.2 55.2,6.1254834 55.2,4.8 C55.2,3.4745166 56.2745166,2.4 57.6,2.4 Z M22.4,2.4 C23.7254834,2.4 24.8,3.4745166 24.8,4.8 C24.8,6.1254834 23.7254834,7.2 22.4,7.2 C21.0745166,7.2 20,6.1254834 20,4.8 C20,3.4745166 21.0745166,2.4 22.4,2.4 Z M48.8,2.4 C50.1254834,2.4 51.2,3.4745166 51.2,4.8 C51.2,6.1254834 50.1254834,7.2 48.8,7.2 C47.4745166,7.2 46.4,6.1254834 46.4,4.8 C46.4,3.4745166 47.4745166,2.4 48.8,2.4 Z M75.2,2.4 C76.5254834,2.4 77.6,3.4745166 77.6,4.8 C77.6,6.1254834 76.5254834,7.2 75.2,7.2 C73.8745166,7.2 72.8,6.1254834 72.8,4.8 C72.8,3.4745166 73.8745166,2.4 75.2,2.4 Z M13.6,2.4 C14.9254834,2.4 16,3.4745166 16,4.8 C16,6.1254834 14.9254834,7.2 13.6,7.2 C12.2745166,7.2 11.2,6.1254834 11.2,4.8 C11.2,3.4745166 12.2745166,2.4 13.6,2.4 Z M40,2.4 C41.3254834,2.4 42.4,3.4745166 42.4,4.8 C42.4,6.1254834 41.3254834,7.2 40,7.2 C38.6745166,7.2 37.6,6.1254834 37.6,4.8 C37.6,3.4745166 38.6745166,2.4 40,2.4 Z M66.4,2.4 C67.7254834,2.4 68.8,3.4745166 68.8,4.8 C68.8,6.1254834 67.7254834,7.2 66.4,7.2 C65.0745166,7.2 64,6.1254834 64,4.8 C64,3.4745166 65.0745166,2.4 66.4,2.4 Z" id="形状结合" fill="#BABABA"></path>
                    <g id="椭圆形备份-21-+-椭圆形备份-30-+-椭圆形备份-39-+-椭圆形备份-48-+-椭圆形备份-57-+-椭圆形备份-22-+-椭圆形备份-31-+-椭圆形备份-40-+-椭圆形备份-49-+-椭圆形备份-58-+-椭圆形备份-23-+-椭圆形备份-32-+-椭圆形备份-41-+-椭圆形备份-50-+-椭圆形备份-59-+-椭圆形备份-24-+-椭圆形备份-33-+-椭圆形备份-42-+-椭圆形备份-51-+-椭圆形备份-60-+-椭圆形备份-27-+-椭圆形备份-36-+-椭圆形备份-45-+-椭圆形备份-54-+-椭圆形备份-63蒙版" transform="translate(16.000000, 16.800000)">
                        <mask id="mask-2" fill="white">
                            <use xlink:href="#path-1"></use>
                        </mask>
                        <use id="蒙版" fill="#39CA9F" xlink:href="#path-1"></use>
                        <path d="M16.8,36 C17.6836556,36 18.4,36.7163444 18.4,37.6 C18.4,38.4836556 17.6836556,39.2 16.8,39.2 C15.9163444,39.2 15.2,38.4836556 15.2,37.6 C15.2,36.7163444 15.9163444,36 16.8,36 Z M38.4,36 C39.2836556,36 40,36.7163444 40,37.6 C40,38.4836556 39.2836556,39.2 38.4,39.2 C37.5163444,39.2 36.8,38.4836556 36.8,37.6 C36.8,36.7163444 37.5163444,36 38.4,36 Z M9.6,36 C10.4836556,36 11.2,36.7163444 11.2,37.6 C11.2,38.4836556 10.4836556,39.2 9.6,39.2 C8.7163444,39.2 8,38.4836556 8,37.6 C8,36.7163444 8.7163444,36 9.6,36 Z M31.2,36 C32.0836556,36 32.8,36.7163444 32.8,37.6 C32.8,38.4836556 32.0836556,39.2 31.2,39.2 C30.3163444,39.2 29.6,38.4836556 29.6,37.6 C29.6,36.7163444 30.3163444,36 31.2,36 Z M24,36 C24.8836556,36 25.6,36.7163444 25.6,37.6 C25.6,38.4836556 24.8836556,39.2 24,39.2 C23.1163444,39.2 22.4,38.4836556 22.4,37.6 C22.4,36.7163444 23.1163444,36 24,36 Z M16.8,28.8 C17.6836556,28.8 18.4,29.5163444 18.4,30.4 C18.4,31.2836556 17.6836556,32 16.8,32 C15.9163444,32 15.2,31.2836556 15.2,30.4 C15.2,29.5163444 15.9163444,28.8 16.8,28.8 Z M38.4,28.8 C39.2836556,28.8 40,29.5163444 40,30.4 C40,31.2836556 39.2836556,32 38.4,32 C37.5163444,32 36.8,31.2836556 36.8,30.4 C36.8,29.5163444 37.5163444,28.8 38.4,28.8 Z M9.6,28.8 C10.4836556,28.8 11.2,29.5163444 11.2,30.4 C11.2,31.2836556 10.4836556,32 9.6,32 C8.7163444,32 8,31.2836556 8,30.4 C8,29.5163444 8.7163444,28.8 9.6,28.8 Z M31.2,28.8 C32.0836556,28.8 32.8,29.5163444 32.8,30.4 C32.8,31.2836556 32.0836556,32 31.2,32 C30.3163444,32 29.6,31.2836556 29.6,30.4 C29.6,29.5163444 30.3163444,28.8 31.2,28.8 Z M24,28.8 C24.8836556,28.8 25.6,29.5163444 25.6,30.4 C25.6,31.2836556 24.8836556,32 24,32 C23.1163444,32 22.4,31.2836556 22.4,30.4 C22.4,29.5163444 23.1163444,28.8 24,28.8 Z M16.8,21.6 C17.6836556,21.6 18.4,22.3163444 18.4,23.2 C18.4,24.0836556 17.6836556,24.8 16.8,24.8 C15.9163444,24.8 15.2,24.0836556 15.2,23.2 C15.2,22.3163444 15.9163444,21.6 16.8,21.6 Z M38.4,21.6 C39.2836556,21.6 40,22.3163444 40,23.2 C40,24.0836556 39.2836556,24.8 38.4,24.8 C37.5163444,24.8 36.8,24.0836556 36.8,23.2 C36.8,22.3163444 37.5163444,21.6 38.4,21.6 Z M9.6,21.6 C10.4836556,21.6 11.2,22.3163444 11.2,23.2 C11.2,24.0836556 10.4836556,24.8 9.6,24.8 C8.7163444,24.8 8,24.0836556 8,23.2 C8,22.3163444 8.7163444,21.6 9.6,21.6 Z M31.2,21.6 C32.0836556,21.6 32.8,22.3163444 32.8,23.2 C32.8,24.0836556 32.0836556,24.8 31.2,24.8 C30.3163444,24.8 29.6,24.0836556 29.6,23.2 C29.6,22.3163444 30.3163444,21.6 31.2,21.6 Z M24,21.6 C24.8836556,21.6 25.6,22.3163444 25.6,23.2 C25.6,24.0836556 24.8836556,24.8 24,24.8 C23.1163444,24.8 22.4,24.0836556 22.4,23.2 C22.4,22.3163444 23.1163444,21.6 24,21.6 Z M16.8,14.4 C17.6836556,14.4 18.4,15.1163444 18.4,16 C18.4,16.8836556 17.6836556,17.6 16.8,17.6 C15.9163444,17.6 15.2,16.8836556 15.2,16 C15.2,15.1163444 15.9163444,14.4 16.8,14.4 Z M38.4,14.4 C39.2836556,14.4 40,15.1163444 40,16 C40,16.8836556 39.2836556,17.6 38.4,17.6 C37.5163444,17.6 36.8,16.8836556 36.8,16 C36.8,15.1163444 37.5163444,14.4 38.4,14.4 Z M9.6,14.4 C10.4836556,14.4 11.2,15.1163444 11.2,16 C11.2,16.8836556 10.4836556,17.6 9.6,17.6 C8.7163444,17.6 8,16.8836556 8,16 C8,15.1163444 8.7163444,14.4 9.6,14.4 Z M31.2,14.4 C32.0836556,14.4 32.8,15.1163444 32.8,16 C32.8,16.8836556 32.0836556,17.6 31.2,17.6 C30.3163444,17.6 29.6,16.8836556 29.6,16 C29.6,15.1163444 30.3163444,14.4 31.2,14.4 Z M24,14.4 C24.8836556,14.4 25.6,15.1163444 25.6,16 C25.6,16.8836556 24.8836556,17.6 24,17.6 C23.1163444,17.6 22.4,16.8836556 22.4,16 C22.4,15.1163444 23.1163444,14.4 24,14.4 Z M16.8,7.2 C17.6836556,7.2 18.4,7.9163444 18.4,8.8 C18.4,9.6836556 17.6836556,10.4 16.8,10.4 C15.9163444,10.4 15.2,9.6836556 15.2,8.8 C15.2,7.9163444 15.9163444,7.2 16.8,7.2 Z M38.4,7.2 C39.2836556,7.2 40,7.9163444 40,8.8 C40,9.6836556 39.2836556,10.4 38.4,10.4 C37.5163444,10.4 36.8,9.6836556 36.8,8.8 C36.8,7.9163444 37.5163444,7.2 38.4,7.2 Z M9.6,7.2 C10.4836556,7.2 11.2,7.9163444 11.2,8.8 C11.2,9.6836556 10.4836556,10.4 9.6,10.4 C8.7163444,10.4 8,9.6836556 8,8.8 C8,7.9163444 8.7163444,7.2 9.6,7.2 Z M31.2,7.2 C32.0836556,7.2 32.8,7.9163444 32.8,8.8 C32.8,9.6836556 32.0836556,10.4 31.2,10.4 C30.3163444,10.4 29.6,9.6836556 29.6,8.8 C29.6,7.9163444 30.3163444,7.2 31.2,7.2 Z M24,7.2 C24.8836556,7.2 25.6,7.9163444 25.6,8.8 C25.6,9.6836556 24.8836556,10.4 24,10.4 C23.1163444,10.4 22.4,9.6836556 22.4,8.8 C22.4,7.9163444 23.1163444,7.2 24,7.2 Z" id="形状结合" fill="#FFFFFF" mask="url(#mask-2)"></path>
                    </g>
                </g>
            </g>
        </g>
    </g>
</svg>