<?xml version="1.0" encoding="UTF-8"?>
<svg width="20px" height="20px" viewBox="0 0 20 20" version="1.1" xmlns="http://www.w3.org/2000/svg" xmlns:xlink="http://www.w3.org/1999/xlink">
    <title>info 2</title>
    <g id="页面-1" stroke="none" stroke-width="1" fill="none" fill-rule="evenodd">
        <g id="Project_Settings" transform="translate(-1152.000000, -300.000000)">
            <g id="info-2" transform="translate(1152.000000, 300.000000)">
                <g id="编组" transform="translate(3.000000, 3.000000)">
                    <polygon id="路径" points="0 0 14 0 14 14 0 14"></polygon>
                    <path d="M7,0 C10.864,0 14,3.136 14,7 C14,10.864 10.864,14 7,14 C3.136,14 0,10.864 0,7 C0,3.136 3.136,0 7,0 Z M8.08507241,6.16295626 C7.5567975,5.29284757 6.3817985,4.99200263 5.46063868,5.49100028 C4.84653213,5.82366538 4.48465257,6.34882243 4.375,7.06647143 L4.375,7.06647143 L6.41716501,7.06647143 L5.35995816,9.81327407 L5.31405467,9.94853134 C5.0472692,10.8536019 5.55955799,11.8142814 6.51001781,12.1406762 C7.14602329,12.3590852 7.85675554,12.245589 8.381408,11.8418356 C8.7311763,11.5726666 9.14570696,11.103326 9.625,10.4338138 L9.625,10.4338138 L7.16696588,10.4338138 L8.22417274,7.68701112 L8.27488809,7.53473428 C8.40512602,7.07384721 8.33855718,6.58046483 8.08507241,6.16295626 Z M7.4375,1.75 C6.71262627,1.75 6.125,2.33762627 6.125,3.0625 C6.125,3.78737373 6.71262627,4.375 7.4375,4.375 C8.16237373,4.375 8.75,3.78737373 8.75,3.0625 C8.75,2.33762627 8.16237373,1.75 7.4375,1.75 Z" id="形状结合" fill="#7C7E7C" fill-rule="nonzero"></path>
                </g>
            </g>
        </g>
    </g>
</svg>