<?xml version="1.0" encoding="UTF-8"?>
<svg width="32px" height="33px" viewBox="0 0 32 33" version="1.1" xmlns="http://www.w3.org/2000/svg" xmlns:xlink="http://www.w3.org/1999/xlink">
    <title>twitter</title>
    <g id="页面-1" stroke="none" stroke-width="1" fill="none" fill-rule="evenodd" opacity="0.699999988">
        <g id="ElaraEN" transform="translate(-848.000000, -2466.000000)" fill="#2A292B" fill-rule="nonzero">
            <g id="bottom" transform="translate(0.000000, 2264.000000)">
                <g id="编组备份-2" transform="translate(800.000000, 202.792683)">
                    <g id="twitter" transform="translate(48.000000, 0.000000)">
                        <path d="M16,0 C7.163444,0 0,7.00524618 0,15.6466553 C0,24.2880644 7.163444,31.2933106 16,31.2933106 C24.836556,31.2933106 32,24.2880644 32,15.6466553 C32,11.4969043 30.3142906,7.5171163 27.3137085,4.58279923 C24.3131264,1.64848216 20.2434638,0 16,0 Z M22.39,13.2116446 C22.39,13.3485528 22.39,13.485461 22.39,13.6321484 C22.3880513,16.972627 20.523438,20.0462011 17.5264526,21.6490777 C14.5294673,23.2519543 10.8771639,23.1289908 8,21.328347 C9.73908051,21.5293818 11.4890573,21.0514743 12.87,19.9983813 C11.4646988,19.9727636 10.2312454,19.0769436 9.8,17.7687329 C10.0042778,17.8075988 10.211892,17.8272468 10.42,17.8274079 C10.7141456,17.8277033 11.0069195,17.7882125 11.29,17.7100579 C9.75632333,17.4077874 8.65244995,16.0911302 8.65,14.5611686 L8.65,14.5611686 C9.10706922,14.8086106 9.61782512,14.9460504 10.14,14.9621141 C8.70076904,14.0131435 8.26304837,12.1339863 9.14,10.6690631 C10.8099389,12.6798768 13.2744436,13.9026895 15.92,14.033094 C15.5833816,12.6166424 16.2601933,11.1554704 17.5709891,10.4687661 C18.881785,9.7820617 20.5006551,10.0405637 21.52,11.0993461 C22.2572905,10.9573705 22.9642101,10.6927551 23.61,10.3170133 C23.3645138,11.063209 22.8489042,11.6960956 22.16,12.0968204 C22.7975154,12.0036712 23.4175108,11.819144 24,11.5491874 C23.5679344,12.1919675 23.022846,12.754816 22.39,13.2116446 Z" id="形状"></path>
                    </g>
                </g>
            </g>
        </g>
    </g>
</svg>