<?xml version="1.0" encoding="UTF-8"?>
<svg width="24px" height="24px" viewBox="0 0 24 24" version="1.1" xmlns="http://www.w3.org/2000/svg" xmlns:xlink="http://www.w3.org/1999/xlink">
    <title>Westend</title>
    <defs>
        <circle id="path-1" cx="12" cy="12" r="12"></circle>
        <linearGradient x1="2.37600687%" y1="48.7598272%" x2="106.095061%" y2="48.7000559%" id="linearGradient-3">
            <stop stop-color="#F79420" stop-opacity="0.92" offset="0%"></stop>
            <stop stop-color="#C4C4C4" stop-opacity="0" offset="100%"></stop>
        </linearGradient>
    </defs>
    <g id="页面-1" stroke="none" stroke-width="1" fill="none" fill-rule="evenodd">
        <g id="Project_Requests" transform="translate(-76.000000, -920.000000)">
            <g id="Westend" transform="translate(76.000000, 920.000000)">
                <circle id="椭圆形" fill="#E6007A" fill-rule="nonzero" cx="12" cy="12" r="12"></circle>
                <g id="Clipped">
                    <mask id="mask-2" fill="white">
                        <use xlink:href="#path-1"></use>
                    </mask>
                    <g id="椭圆形"></g>
                    <g id="编组" mask="url(#mask-2)" fill-rule="nonzero">
                        <g transform="translate(-40.639925, -41.599966)">
                            <rect id="矩形" fill="url(#linearGradient-3)" x="36.319924" y="40.6399674" width="40.7999655" height="26.8800483"></rect>
                            <path d="M40.1882677,2.7379158 C40.6941413,8.78678131 43.1722981,14.597783 47.1744861,19.1487959 C51.2791165,23.8157243 56.965369,26.9590889 63.0614912,28.0775229 C66.0648093,28.6303408 69.2025721,28.7331853 72.2185302,28.2125135 C75.0872598,27.7175528 77.9817006,26.4641139 79.6017888,23.9121051 C80.3254349,22.7808156 80.767264,21.4372297 80.7480166,20.0873238 C80.7287692,18.6475007 80.120464,17.3490171 79.230342,16.243295 C78.2442701,15.0156247 76.9827012,13.9742523 75.7340598,13.0164769 C74.4982021,12.0714853 73.1662509,11.2358019 71.7126387,10.6636935 C68.485246,9.40384832 65.2771008,10.1045124 62.1842966,11.4094598 C58.9056253,12.7913969 55.735975,14.4241252 52.5598179,16.0118949 C46.0602751,19.2581041 39.4198483,22.4658184 32.2031131,23.7128798 C30.390924,24.0277333 28.5467181,24.2078549 26.7089041,24.2271023 C25.0631766,24.2463497 23.2766125,24.233566 21.6822354,23.7835495 C20.9778367,23.5843241 20.2541906,23.2499359 19.8443926,22.6136214 C19.3129336,21.7908654 19.4985134,20.7622767 19.7290517,19.8751711 C20.1197459,18.3967095 20.8561757,17.0210925 21.8102165,15.831917 C23.782504,13.369969 26.5808368,11.7372407 29.584083,10.8823099 C31.3002217,10.3937985 33.0803939,10.1430073 34.8605662,10.0466265 C36.5767049,9.95670934 38.4016921,9.89235971 40.1050197,10.1751821 C41.7699285,10.4452207 42.9225554,11.4865931 43.4924662,13.0678992 C44.0687832,14.6556689 43.9663266,16.3398195 43.9086992,17.9982589 C43.8254612,20.485918 44.0303602,24.0406607 46.8222868,25.056322 C48.2694785,25.5834719 49.9984296,25.0306109 51.41359,24.6192329 C52.8864066,24.1884638 54.3207858,23.622819 55.6911601,22.9350823 C57.1062774,22.2214908 58.4510124,21.3794874 59.7061175,20.4087847 C60.781963,19.5860286 62.0306044,18.6602845 62.7542505,17.4903564 C63.2664621,16.6611367 63.5610627,15.5233835 62.6516932,14.867678 C62.6005583,14.8291831 62.5107848,14.8356468 62.4596498,14.867678 C59.8277785,16.4811589 58.3678463,19.3803396 57.8171398,22.3500465 C57.3047846,25.120528 57.3175683,28.5339169 59.1681948,30.8416126 C60.6538382,32.6929142 63.5673828,33.1878749 65.4052255,31.5165655 C66.2825638,30.7194775 66.5579171,29.4917066 66.1544391,28.3796502 C65.6741151,27.0619334 64.4447211,26.1298692 63.1063062,25.8084083 C61.3454532,25.3841029 59.488363,25.8598306 57.8234598,26.4384027 C56.2802178,26.9783364 54.801038,27.6854067 53.3858776,28.5017708 C50.4338669,30.2052263 47.757195,32.3329297 45.0293164,34.3706585 C42.2437961,36.4469396 39.3814253,38.4589429 36.1668781,39.8152694 C32.5617043,41.3451661 28.6363623,42.1165416 24.717441,42.0651179 C22.9501242,42.0394039 20.9330218,42.0072635 19.3129336,41.2166048 C17.5711844,40.3616639 17.0332617,38.5489318 17.4750909,36.7490525 C17.8976726,35.0263209 18.9478069,33.5671355 20.1260659,32.2879424 C21.2980049,31.0151698 22.6362761,29.8966784 24.070641,28.9324681 C26.9330362,27.0168312 30.1475876,25.6991001 33.4389852,24.7283974 C34.2650305,24.4842135 35.097482,24.2655972 35.929948,24.0663718 C36.8264331,23.8477555 37.8189688,23.5264382 38.7474851,23.5843241 C40.8414222,23.7191998 41.1616018,26.2390338 41.5201974,27.8653989 C43.1210625,35.0456114 43.7422089,42.5536551 46.7838638,49.3288887 C47.1616737,50.1774133 47.5779066,51.006633 48.0389545,51.8101559 C48.3527308,52.3629739 48.7369326,52.9607791 49.4157063,53.0700585 C50.901321,53.2950524 51.8042124,51.4051842 52.246056,50.2995483 C52.8287649,48.8339279 53.3218439,46.8797818 52.8864066,45.311317 C52.5021905,43.9421349 51.2214891,43.4343043 49.908771,43.5564393 C48.2694785,43.7107204 46.7198301,44.520664 45.2342298,45.1699058 C43.3772114,45.979835 41.5394046,46.8476358 39.7208107,47.7411476 C36.1092364,49.5153159 32.5488918,51.3923286 28.9309199,53.1664824 C21.7141229,56.7341525 14.1067897,59.9289394 6.02559622,60.7838703 C4.08533987,60.9895593 2.13876347,61.0537653 0.192043436,60.9573844 C0.256105794,61.0215904 0.320168152,61.0859401 0.384086872,61.1501461 C0.435365486,58.6432395 2.34359065,56.5991332 4.61047884,55.7698704 C7.12700913,54.8506617 9.89332516,55.5448908 12.1409659,56.8497807 C14.5678664,58.2640363 16.4377403,60.3917397 18.1667058,62.5771854 C19.8507127,64.7113524 21.4837283,66.8776943 23.3599222,68.8575946 C30.2820611,76.1405942 39.3622152,81.3409925 49.1467593,83.5650767 C51.4007919,84.0792992 53.9621802,84.5614906 55.9344821,83.0186794 C57.3688469,81.8937099 58.0156469,80.0746837 58.2525053,78.3197198 C58.5278585,76.2177275 58.2973202,73.9871797 57.6506638,71.9687845 C56.9333378,69.7317729 55.3900957,68.1569305 52.9824571,67.9769527 C50.3826313,67.7840474 47.7059739,68.8124924 45.2342298,69.468198 C42.1541375,70.2846339 39.0804658,71.1009263 36.0003878,71.9173622 C32.9587186,72.7208708 29.9234555,73.5308431 26.8818006,74.3343517 C25.3833447,74.7328023 23.8785975,75.1313966 22.3801704,75.5299908 C20.8880632,75.9284415 19.3897797,76.4234165 17.8721051,76.6999189 C16.4120292,76.9633502 15.2339138,76.2820772 15.1761715,74.739266 C15.1313566,73.6272239 15.5283708,72.5279656 16.0086949,71.5444791 C17.1677064,69.1724482 18.4739465,66.8776943 19.914775,64.6663939 C22.8732781,60.1152373 26.3951422,55.9305865 30.3781115,52.2472594 C31.3450366,51.3537619 32.3375866,50.4859611 33.3557472,49.6503065 C33.2660886,49.6503065 33.1764444,49.6503065 33.0867858,49.6503065 C36.1924887,52.0672815 36.506265,56.3869805 37.1338032,59.9803617 C37.5372237,62.294363 38.0431008,64.5957242 38.632216,66.8712306 C38.9331798,68.0283749 39.2597614,69.1789119 39.6119506,70.3231288 C39.9001092,71.2681204 40.1498475,72.277318 40.5980907,73.1579599 C40.8990568,73.7428521 41.3601104,74.3343517 42.0516851,74.4307325 C42.7240483,74.5271133 43.2811466,74.1157353 43.6781752,73.6079765 C44.2608841,72.8494264 44.6258959,71.9044348 45.0293164,71.0430403 C45.5095687,70.021059 45.9706165,68.9861503 46.4060682,67.9447778 C48.1158006,63.8628853 49.4861462,59.6331896 50.4978861,55.3263319 C51.6377077,50.4473944 52.3164815,45.4591632 52.5278011,40.4452294 C52.5342073,40.2523844 52.2652603,40.1881052 52.1692098,40.3488069 C49.908771,44.2378272 48.858608,48.7889407 49.2364035,53.2757619 C49.5501798,57.0362223 51.0421864,61.0345178 54.9163072,62.3072904 C56.8501716,62.9436048 58.9633676,62.8601514 60.9484389,62.5257631 C63.0166763,62.1787347 65.0465625,61.5679878 66.9549313,60.7002732 C70.7265667,58.9839478 73.9859905,56.1298692 75.7084923,52.298696 C76.5217683,50.4923817 76.9891649,48.5189451 76.9635975,46.5326673 C76.94435,44.8163563 76.6369656,42.7464986 75.2794469,41.5444394 C73.7234211,40.162394 71.6615037,40.9787654 70.2078914,42.0844027 C68.6709694,43.254312 67.3839767,44.7456435 66.3785137,46.3912417 C61.5695278,54.2464072 63.3433082,64.3706441 65.9687157,72.6694486 C68.5878033,80.9359346 72.9101451,88.6561669 78.6027894,95.1870801 C79.300868,95.9905887 80.0243705,96.7748498 80.767264,97.5398635 C80.9465237,97.7198414 81.1898458,97.4562665 81.0361536,97.2698249 C73.364758,87.5054863 65.187471,78.1397419 56.5300035,69.2367978 C47.9300916,60.3980597 38.8627399,51.9965688 29.3855759,44.1028366 C24.8326383,40.3102402 20.0749309,36.7619081 15.5859695,32.8986175 C13.4601334,31.0665921 11.4109998,29.1381571 9.55390958,27.0297586 C8.59340512,25.936964 7.68417928,24.7927471 6.8516559,23.5971079 C6.48020914,23.0571743 6.11522606,22.5107769 5.77595411,21.9514522 C5.60301447,21.6686298 5.43653853,21.3858074 5.27638263,21.1029851 C5.03306058,20.6788233 5.03952427,20.485918 5.25081514,20.0552926 C6.41629042,17.7154365 9.66278686,17.2782037 11.9617062,17.0468036 C15.0096955,16.7447338 18.083396,16.9054642 21.0994977,17.4389342 C27.1827644,18.5124814 32.9395142,20.9808931 38.363269,23.8799303 C48.9418459,29.5238527 58.5343222,37.1218926 69.9645694,41.0687586 C72.6796068,42.0072635 75.4714903,42.7207846 78.3211162,43.1000453 C79.7426972,43.2928931 81.1705983,43.4021582 82.6049632,43.4214487 C83.2004845,43.4278837 83.4950852,43.5564393 83.7896859,43.0164784 C84.0778228,42.4893716 84.2379787,41.8979855 84.2827937,41.2937439 C84.4748371,38.9024814 83.0340086,36.6333524 81.2602282,35.1548909 C79.5056952,33.6957055 77.3093331,32.8664714 75.0744761,32.5322124 C69.6186901,31.7222689 64.5151035,33.9399756 59.7894273,36.4469396 C58.4702598,37.1476037 57.1638761,37.8675583 55.8448523,38.5617874 C54.6025309,39.2174642 52.6686808,40.6316465 51.2599122,39.7509916 C50.2097348,39.0953292 49.9663984,37.6039977 49.825533,36.4726507 C49.6206197,34.807762 49.4925524,33.130032 49.3836895,31.4587083 C48.9546584,24.7992107 49.1531655,18.1011034 49.9792109,11.4801295 C50.1905305,9.75734039 50.4530712,8.03469497 50.754035,6.32468966 C50.9973714,4.94275256 51.1638617,3.45136363 51.7401788,2.15287997 C52.3228877,0.8543963 53.481928,0.0123928434 54.9355259,0.533079048 C56.3314964,1.03437418 57.3816307,2.31361041 58.3613826,3.37423026 C65.3539469,10.9659069 70.0862304,20.7045344 78.4683447,26.965409 C80.6647068,28.6046297 83.2004845,30.2309374 85.9604805,30.5973425 C88.2144413,30.8994698 90.8142814,30.1280929 92.0181079,28.0518118 C92.7097228,26.8562444 92.7352903,25.4484526 92.5880618,24.1113304 C92.4280495,22.6457962 92.1334489,21.1865821 91.806817,19.7466155 C91.1472333,16.854042 90.2315438,14.0256745 89.0789959,11.3001516 C87.9135206,8.55538118 86.5047233,5.91977534 84.8718513,3.42565251 C84.8270364,3.35498282 84.7374066,3.31002426 84.6540968,3.33573539 C79.2623732,5.24482238 77.354148,11.1458848 74.6518943,15.626228 C73.1342197,18.146062 71.0978699,20.6916071 68.3444812,21.90003 C65.4437204,23.1792662 62.3315251,22.2858405 60.1864416,20.0359015 C57.4329093,17.1433281 56.8246042,13.0357244 56.2866814,9.24958157 C56.1905879,9.32025126 56.1009581,9.39738463 56.0048645,9.46805432 C60.8523454,11.5957577 62.8694478,16.9311754 64.8609828,21.4566208 C65.3859781,22.6521163 65.9239008,23.8414354 66.5258859,24.9984361 C67.2814195,26.4511865 68.1459741,27.8396878 68.9142915,29.2924382 C70.3358725,31.9858151 71.4500692,35.1227448 70.5280596,38.1761062 C69.6507213,41.0751864 67.0060663,42.2065363 64.5023197,43.4085932 C63.3688757,43.9549905 62.2354316,44.5527957 61.313422,45.4205965 C60.3016389,46.3719656 59.6228077,47.6061571 59.0721013,48.866074 C57.9388008,51.469462 57.1703398,54.5420995 54.6217496,56.1555804 C53.1809642,57.0683971 51.6633327,56.9526252 50.1521074,56.2648885 C48.8714061,55.6863164 47.6867552,55.017784 46.3036115,54.6963806 C41.2448413,53.5328875 35.2511742,55.9177165 33.0931921,60.8416126 C31.8445075,63.6956911 32.5424856,66.8584469 33.86161,69.5582587 C35.0654652,72.0202067 36.8264331,74.1928687 38.901163,75.9734 C43.5052787,79.9202733 49.4541293,81.771618 55.447838,81.977307 C58.6431995,82.0866152 61.9089434,81.7845453 65.0274587,81.0774176 C67.5119578,80.5117728 70.0029206,79.598956 72.0328068,78.0111863 C74.0435892,76.442664 75.3626131,74.205796 75.5163053,71.6280762 C75.7084923,68.4911752 74.3700774,65.4571187 72.9229289,62.7573069 C71.3924705,59.9032283 69.5931226,57.0362223 69.132046,53.7707226 C68.7094643,50.8009296 69.657185,47.953286 71.0595186,45.3691742 C72.423501,42.8493489 74.1460028,40.5545074 75.5931514,38.0861029 C77.1876721,35.3670149 78.1546402,32.4486441 78.9614525,29.4081383 C80.402281,23.9506 82.0735041,17.0018451 87.9007369,14.6362779 C91.1857282,13.2992993 94.7908876,14.192725 98.0054965,15.2855197 C100.842195,16.2497587 103.698141,17.2911311 106.381147,18.641037 C108.916925,19.9138096 111.324721,21.5400742 113.111286,23.7770858 C113.348144,24.0728355 113.713271,24.3684417 113.559578,24.7348611 C113.450701,24.9919724 113.24573,25.2362999 113.085718,25.4612363 C112.662993,26.0527358 112.182812,26.5989895 111.65121,27.1004283 C110.658674,28.0453768 109.512446,28.8103331 108.3023,29.4274288 C105.792089,30.7130569 102.993742,31.3944305 100.208179,31.7158339 C97.0064972,32.088674 93.7663208,32.0693834 90.5581756,31.7222689 C83.988193,31.0087492 77.6102538,28.9067426 71.6615037,26.0655196 C68.7094643,24.6577277 65.8535184,23.0507106 63.0872024,21.3086741 C60.4105162,19.6180598 57.8106761,17.8118173 55.0828549,16.2048002 C52.4381568,14.6492052 49.6526365,13.2735882 46.6750152,12.4700796 C44.1840524,11.7951266 40.6173007,11.3066153 39.2277402,14.1220553 C38.7730957,15.0413358 38.8115188,16.1341305 39.413445,16.9761339 C39.9129159,17.676798 40.706948,18.0689286 41.5009844,18.351751 C43.4476513,19.0459514 46.1051044,19.174507 47.1936905,21.225077 C48.3783414,23.4557685 47.3857914,26.2133227 48.4551875,28.4889153 C48.6600865,28.9260331 48.858608,29.3502954 49.3516727,29.4402844 C49.8767542,29.5367083 50.4210544,29.4788511 50.9397297,29.3695716 C52.0667532,29.1381571 53.3026252,28.4632042 54.4744636,28.6689075 C56.0561431,28.9453237 55.9344821,30.7644792 56.3378164,31.9408278 C56.6581282,32.8664714 57.5673541,33.8756834 58.623952,33.464291 C58.7839643,33.4000132 58.8224592,33.1364526 58.623952,33.0914653 C53.8085024,31.9986707 48.7881537,32.2622313 43.8830886,32.294363 C38.7026559,32.332944 33.5286294,32.3843663 28.348211,32.4550791 C23.1677352,32.5257775 17.9937661,32.6093458 12.8133334,32.7057697 C10.9434595,32.7443364 8.97763563,32.6350569 7.17828774,33.2457321 C6.49945657,33.4707116 5.83355278,33.804985 5.3339813,34.3320918 C5.02674053,34.6534952 4.4375392,35.4505832 4.5976951,35.9262534 C4.70642874,36.2476712 5.2571352,36.6333524 5.50060088,36.8711875 C5.88468776,37.2440276 6.28170201,37.5975771 6.69164364,37.9446917 C7.42160979,38.5553668 8.19639087,39.1274609 8.99688306,39.6481471 C10.6745699,40.7473523 12.4739178,41.6408618 14.331008,42.3865213 C18.2819031,43.9742666 22.4698002,44.8677785 26.6576829,45.523441 C36.5766905,47.0790503 46.6622027,47.2268964 56.670912,46.686934 C61.7424674,46.4105323 66.8075592,45.9605588 71.8600108,45.4270171 C73.819371,45.2213281 75.7788747,44.9384913 77.7511623,45.0156247 C79.4225291,45.0799025 81.2154133,45.3627392 82.6049632,46.352675 C83.290258,46.8412152 83.8024696,47.490457 84.1482052,48.2489783 C84.1611326,48.1718306 84.1674527,48.0946972 84.1802364,48.0175494 C82.1568139,49.6438715 79.7299135,50.5888056 77.2389507,51.2251919 C74.6006157,51.9001449 71.8855783,52.3244072 69.1833246,52.6715217 C63.554599,53.3914763 57.855491,53.5650336 52.1948204,53.2050491 C49.370877,53.0250713 46.5853566,52.6393756 43.7806319,52.26655 C42.8393174,52.1444149 41.8019496,52.1508355 41.1039673,52.9029362 C40.5852874,53.4557542 40.4956366,54.2335516 40.5596704,54.9599268 C40.6493212,55.9434277 40.956687,56.8884193 41.1872153,57.8397309 C41.4753709,59.0481538 41.7122982,60.5138316 40.2266879,60.9573844 C39.1060763,61.2980928 37.786952,61.0859401 36.6407385,61.0473016 C35.1679219,61.002343 33.7015259,60.9573844 32.2287237,60.9124259 C25.6714817,60.7067369 19.1079628,60.5073679 12.5507639,60.3016789 C12.3650405,60.2952152 12.2818744,60.5717176 12.4546704,60.6616347 C18.7622271,63.9786572 25.0696403,67.2890723 31.3770534,70.6059512 C34.2714367,72.1295149 37.1401951,73.7942744 40.2010744,74.9642024 C42.986589,76.0249659 46.0730876,76.5906107 48.9674565,75.619908 C51.6185034,74.7328023 53.7636731,72.7980042 55.6526652,70.7923927 C57.6314164,68.6968642 59.4115169,66.4084304 60.9740064,63.9786572 C64.1180892,59.0803286 66.36573,53.5843098 67.5119578,47.8697176 C68.8311253,41.3130272 68.7414955,34.595638 68.8822603,27.9360974 C68.9527863,24.5805944 69.0872311,21.2122933 69.4970291,17.8760233 C69.70832,16.1341305 69.9966006,14.398414 70.3936148,12.6885524 C70.720103,11.2809041 71.1491485,9.86018489 71.9303932,8.63251455 C72.717958,7.40470057 73.8706496,6.46617267 75.3177981,6.17688659 C76.6625331,5.90699159 78.0265155,6.28619479 78.8718226,7.40470057 C80.0756491,9.00525406 80.1269277,11.4157798 81.7470159,12.7142635 C83.7320872,14.3084969 86.511187,12.7271909 88.1953375,11.4414909 C90.1483776,9.95024565 92.0501391,7.69398665 94.566813,7.20547526 C95.1751181,7.08970337 95.8410219,7.08323968 96.4172959,7.3211035 C97.2562829,7.66827552 97.5316362,8.43960929 97.5444199,9.29454013 C97.5635237,10.9851544 97.3522328,12.7079434 97.1922206,14.392094 C97.0385284,15.9669363 97.019281,17.7731788 96.206005,19.174507 C95.3928727,20.5822989 93.7918883,21.1286962 92.3639872,21.6880209 C90.7631464,22.3178717 89.155842,22.9478661 87.5548576,23.5778605 C86.0628941,24.1627527 84.5452195,24.8763441 82.9443787,25.1142079 C81.1963095,25.3776393 79.5377264,24.8184582 77.9817006,24.0599082 C76.6049344,23.3849552 75.2794469,22.600694 73.9987743,21.7651543 C68.8183416,18.3774621 64.3806587,13.9999634 59.3603819,10.3937985 C54.5384973,6.93543662 48.8649998,4.01068834 42.8073006,3.95926609 C40.265108,3.93987502 37.3066997,4.25487222 35.7506452,6.5305223 C34.4315208,8.45885673 34.3546747,10.9979381 34.16898,13.2478771 C33.9064393,16.3912417 32.9907354,19.3546285 32.4016202,22.4401072 C31.9021493,25.0884968 31.8637262,27.7304083 32.7730239,30.2952152 C34.3610809,34.7820508 38.2287955,38.4525079 42.8200987,39.6931344 C45.3558908,40.3809472 47.8980748,40.07883 50.4594774,39.7124249 C53.1873561,39.3203087 56.3122489,38.7674908 58.8544903,40.1816774 C61.4926817,41.6537176 62.4852173,44.7970658 62.3059576,47.6704349 C62.1970803,49.3803253 61.7296837,51.0451997 61.1660498,52.6522312 C60.737148,53.8864371 59.7509324,55.4549019 60.4873623,56.7469362 C60.7690356,57.2354476 61.198081,57.6340419 61.5823115,58.0326362 C62.1202342,58.5918172 62.6581569,59.1446783 63.2216471,59.6781482 C64.2077191,60.6038924 65.2643171,61.471607 66.4490398,62.1337762 C69.0231687,63.5671355 71.7574536,63.5157133 74.4789547,62.5386905 C75.9133195,62.024468 77.2837656,61.3559787 78.6796355,60.7516954 C80.165279,60.1089173 81.6701698,59.5238815 83.2004845,58.9967316 C86.152524,57.9747502 89.1814095,57.1712416 92.2423262,56.5798857 C98.4280783,55.3906097 104.78677,55.0756413 111.055688,55.6670259 C114.148636,55.956355 117.215873,56.4705776 120.238438,57.1969528 C120.48176,57.2548387 120.584174,56.8819556 120.340852,56.8240696 C108.21899,53.9057132 95.3160266,54.4906772 83.5015489,58.482509 C82.0223692,58.9839478 80.5622932,59.5368088 79.1214647,60.1409485 C77.6678525,60.7516954 76.2527351,61.4523595 74.7863391,62.0115406 C73.2943756,62.5771854 71.7063186,63.0014908 70.0990142,62.8858625 C68.6261545,62.7765543 67.2366046,62.2044459 66.0072106,61.407401 C64.777673,60.6166761 63.6955075,59.6202623 62.664477,58.5918172 C62.2163278,58.1418007 61.7680349,57.6854641 61.3389895,57.2162002 C61.07642,56.9269141 60.8139941,56.631308 60.6858694,56.2519612 C60.4873623,55.6734465 60.6730857,55.0949174 60.8715928,54.5485345 C61.9152634,51.6815859 63.0359238,48.7182279 62.6196621,45.6070093 C62.2803901,43.0807548 60.9419752,40.6959286 58.5663534,39.616001 C56.1778042,38.5296557 53.4435049,38.9089163 50.9397297,39.2624515 C48.1926324,39.6481471 45.4839581,40.0531189 42.7624713,39.281742 C40.3227383,38.5874985 38.1007282,37.1861704 36.3461666,35.3541593 C34.5916049,33.5221339 33.2916992,31.2401637 32.7217884,28.7588965 C32.0238103,25.7377387 32.6833653,22.7164659 33.4005621,19.7660065 C33.7719658,18.2489065 34.1497757,16.7382701 34.3546747,15.1891389 C34.5275712,13.9292937 34.585213,12.6565212 34.7132803,11.3965324 C34.9886191,8.80602874 35.6737991,5.97766128 38.3760815,4.96199999 C39.8232688,4.42206636 41.4689633,4.3320056 43.0058077,4.35771672 C44.5490498,4.38989154 46.0858857,4.61482798 47.5842985,4.98771112 C50.6003572,5.74626115 53.4435049,7.08970337 56.0944944,8.70318424 C61.3647006,11.9044348 65.8150235,16.243295 70.7265667,19.9395207 C73.1599309,21.7714743 75.7468436,23.5456856 78.5516545,24.7605722 C79.8899257,25.3391444 81.3050431,25.7055638 82.7714391,25.5320496 C84.3146812,25.3456081 85.7682934,24.6963662 87.2028019,24.1307215 C88.8036426,23.5007271 90.4109471,22.8707327 92.0117879,22.2407383 C93.2539656,21.7522269 94.6116279,21.3216014 95.6361948,20.4344958 C96.7118965,19.5088953 97.0961271,18.1525257 97.2881705,16.7961561 C97.5187088,15.1762115 97.6468335,13.5371631 97.7620308,11.9107549 C97.8197731,11.1072463 97.8901556,10.3037377 97.9029393,9.50022913 C97.915723,8.87023474 97.8518043,8.22745659 97.4803576,7.7003067 C96.9040836,6.87755068 95.8217745,6.67186167 94.8805175,6.76824248 C92.4664008,7.01257 90.5326081,9.01171775 88.752364,10.4837156 C86.9722636,11.9558571 83.5271164,14.4178051 81.5227977,11.9878883 C80.1973101,10.3808711 80.2100939,7.97034534 78.577222,6.55623342 C76.8482565,5.0648445 74.1460028,5.68191151 72.6092244,7.15405301 C70.5600908,9.11456225 69.9966006,12.2129684 69.5227402,14.8870691 C68.3572649,21.4694045 68.5109572,28.1739468 68.3316975,34.8334731 C68.1587578,41.3258828 67.5695565,47.7861493 65.4052255,53.9442799 C63.426618,59.5882311 60.3592376,64.8463717 56.4211262,69.3331786 C54.5064804,71.5059842 52.367717,73.7236047 49.6846533,74.9127802 C46.6237797,76.2626861 43.2939591,75.7419999 40.265108,74.5849992 C37.0889739,73.3765763 34.1113526,71.6216125 31.1081064,70.0403064 C27.9896054,68.4011144 24.8711332,66.7619224 21.7526178,65.1227304 C18.7044848,63.522177 15.6564955,61.9216235 12.6083626,60.3209264 C12.5763314,60.4431619 12.5444439,60.5587902 12.5124127,60.6810257 C18.4739465,60.8673237 24.4420877,61.0473016 30.4037221,61.2337431 C33.2532761,61.3238039 36.1348613,61.5422766 38.9844153,61.4908544 C39.7976554,61.4780706 40.7389684,61.3622988 41.3152826,60.7195206 C41.9556347,60.0123928 41.795542,58.9904115 41.6098416,58.1354807 C41.2576523,56.4641139 39.7528318,52.8129473 42.6408103,52.5879534 C43.2619423,52.5365311 43.8958867,52.6715217 44.5042206,52.7679456 C45.2086048,52.8772251 45.9129891,52.973649 46.6173734,53.0636379 C48.0709713,53.2500508 49.5309754,53.3978969 50.9973714,53.5071764 C56.6964794,53.9442943 62.4339387,53.8350148 68.1074792,53.179338 C71.123581,52.8322234 74.1524665,52.38225 77.1043623,51.6430192 C79.7299135,50.9873568 82.284795,49.997421 84.4107747,48.287545 C84.4813008,48.2296878 84.4748371,48.1268433 84.4428059,48.0561305 C83.0788235,45.0799025 79.4993752,44.5656513 76.585687,44.6235085 C74.5237696,44.6685101 72.4683159,44.977058 70.425646,45.189182 C67.9346832,45.4463076 65.4437204,45.6777221 62.9527576,45.8769905 C53.0848994,46.6676579 43.1402812,46.9312041 33.2789011,45.9798494 C28.7452252,45.5427315 24.192302,44.8999246 19.7803303,43.7621427 C15.8422189,42.7464986 11.9680263,41.280884 8.60618886,38.9539036 C7.74177795,38.356084 6.92203831,37.7068422 6.14725724,36.9933226 C5.8015216,36.6719191 5.44932227,36.3505157 5.13547417,35.9969662 C4.94989443,35.7912628 4.93696704,35.7526961 5.02674053,35.4891499 C5.10990668,35.2577354 5.22524766,35.0391765 5.37247617,34.8399081 C6.37147549,33.5028577 8.39489799,33.2328765 9.93814008,33.1557431 C12.3907517,33.0336081 14.862467,33.0528843 17.314935,33.0078826 C19.8251452,32.9628953 22.3353554,32.9243286 24.845422,32.885762 C29.9042512,32.8150492 34.9630229,32.7507714 40.0217759,32.7122047 C42.5319474,32.6929142 45.0357083,32.6736236 47.5458898,32.6607681 C49.9407878,32.6479125 52.3357002,32.6414919 54.7242063,32.8664714 C55.9920808,32.9886065 57.2471859,33.1814543 58.4895073,33.464291 C58.4895073,33.342156 58.4895073,33.2136004 58.4895073,33.0914653 C57.3175683,33.5414244 56.6900158,32.0436723 56.504436,31.1501604 C56.3378164,30.3595074 56.2226191,29.485286 55.6335614,28.8810315 C54.6089371,27.8203973 53.0785075,28.3539391 51.868246,28.7074742 C51.1318449,28.9260331 50.1905305,29.2667271 49.4157063,29.0610237 C48.6793052,28.8617553 48.4359688,27.4668478 48.3335121,26.8176059 C48.0773776,25.1719502 48.3079015,23.4557685 47.8212287,21.8486077 C46.9183373,18.8789009 43.7486151,18.8339423 41.3216859,17.8760233 C39.8104621,17.2783474 38.7026559,15.889803 39.5607223,14.2313635 C40.7069514,12.0200631 43.4604494,12.1229076 45.5415855,12.5857079 C49.6334178,13.4920609 53.3538607,15.5426309 56.8694191,17.7603951 C60.4425474,20.0101904 63.9132621,22.4079324 67.6208351,24.439255 C75.0424449,28.4953502 83.1941645,31.4972894 91.6595885,32.210809 C95.6104836,32.545068 99.6959671,32.422933 103.563696,31.5101449 C106.906286,30.7194775 110.268123,29.2474366 112.586147,26.6311644 C113.130533,26.0140973 113.610713,25.3391444 114.014191,24.6255529 C114.046223,24.5678106 114.052543,24.4842135 114.014191,24.4327913 C111.926563,21.3858074 108.814511,19.3481648 105.516736,17.8246011 C103.832586,17.0404836 102.0973,16.3783144 100.355551,15.7419999 C98.2551386,14.9705225 96.1356226,14.186405 93.9263331,13.8070581 C91.8580957,13.4535661 89.7128685,13.4792772 87.740581,14.2698584 C86.1973389,14.8933891 84.8526039,15.9219778 83.751191,17.1625755 C81.1642783,20.07454 79.9732355,23.8220443 78.9998037,27.524705 C78.4363135,29.6524084 77.9176382,31.7994023 77.1428571,33.8692628 C76.4319948,35.7784072 75.4523865,37.5397199 74.3700774,39.2560309 C72.4170373,42.3479546 70.0990142,45.3627392 69.0679837,48.9303518 C68.5620921,50.6787946 68.4404311,52.4979644 68.7605993,54.2914088 C69.125726,56.3355582 70.0093843,58.2511089 70.9634251,60.0767425 C72.9484964,63.875669 75.7084923,67.9897364 74.9720625,72.5022544 C74.3509736,76.2756135 71.1107972,78.6217896 67.7489598,79.862531 C63.8940146,81.2895703 59.5716728,81.7331231 55.4926529,81.6045675 C47.4050101,81.3537763 39.086872,77.8697033 34.8157369,70.6510534 C33.7335427,68.8189561 32.8754806,66.7491387 32.7538052,64.5957242 C32.6193317,62.2815792 33.5158313,60.1603395 35.0526671,58.4632616 C37.5308174,55.7441593 41.3665095,54.439255 44.9844871,54.8763728 C45.8809723,54.985638 46.7710656,55.2041969 47.6163153,55.5384702 C48.564036,55.9112959 49.4413169,56.4448664 50.3890376,56.8240696 C52.0475345,57.4862388 53.7316706,57.2868699 55.159701,56.2005389 C58.2332578,53.8607259 58.4446924,49.753151 60.5769921,46.7705024 C62.7285393,43.7621427 66.7884554,43.511452 69.2857382,40.9401972 C71.8600108,38.2853856 71.4309654,34.1649551 70.0990142,31.0216048 C69.247387,29.022457 68.075448,27.1904891 67.0445612,25.2877221 C66.2057177,23.7321272 65.4948554,22.1121827 64.7841367,20.4923817 C63.4585055,17.471109 62.1266979,14.3020332 59.8662734,11.8465489 C58.8096754,10.702332 57.5608904,9.77026777 56.1329892,9.14673707 C55.9728333,9.07592374 55.8256048,9.19169563 55.8511723,9.36520982 C56.3442801,12.7978606 56.8757391,16.448984 58.9953988,19.3030626 C60.7051168,21.6108875 63.3625556,23.2306884 66.3016676,22.8579489 C69.125726,22.5043132 71.4372854,20.5116292 73.1534672,18.3646784 C75.0361248,16.0118949 76.2399514,13.2606608 77.7191311,10.6509097 C79.3584667,7.75819264 81.4331678,4.86561918 84.686128,3.71493858 C84.6157456,3.68276376 84.5388994,3.65705264 84.4683734,3.62487782 C87.8431382,8.78031762 90.2507912,14.5463607 91.5314638,20.5822989 C92.1334489,23.4300574 93.145232,27.2804349 90.3148536,29.2602921 C87.7022297,31.0858826 84.4235585,30.160239 81.8622133,28.7524759 C72.5194509,23.6292827 67.3582656,13.633544 60.788283,5.66266408 C59.9559033,4.6470028 59.0913487,3.65705264 58.1949066,2.70574099 C57.3112483,1.76721308 56.382775,0.751551798 55.1724848,0.243792975 C54.1799061,-0.167585036 53.065695,-0.0776679153 52.246056,0.661634676 C51.4776237,1.36229876 51.1062343,2.4229186 50.8628979,3.41286876 C50.1072781,6.49834748 49.7166701,9.72516558 49.370877,12.8814576 C48.9994733,16.2175839 48.7881537,19.5666376 48.7369326,22.9221549 C48.685697,26.2776723 48.7881537,29.6331322 49.0507089,32.9821859 C49.1659636,34.4477918 49.2428097,35.9519789 49.5245692,37.3982943 C49.7102639,38.3496634 50.0624632,39.4167326 50.8885085,40.0081172 C51.8874504,40.7216412 53.0785075,40.3423791 54.0902619,39.866706 C55.498973,39.1981737 56.8629554,38.4332318 58.2332578,37.694001 C60.9484389,36.2283807 63.6890438,34.7499191 66.6347632,33.7792595 C71.2772732,32.2493757 77.0595474,32.1529518 80.9978023,35.4891499 C82.9443787,37.1411831 84.756654,40.1881023 83.4438066,42.7464958 C83.2452995,43.138612 82.9508424,43.048623 82.5473645,43.0421881 C82.2016289,43.0357675 81.8622133,43.0293325 81.5164776,43.0164784 C80.767264,42.9843395 80.0180505,42.926488 79.2751569,42.8493489 C77.8087609,42.6950721 76.3488286,42.4443771 74.9144638,42.1165416 C63.0551712,39.4360088 53.1041181,31.9922501 42.78169,25.9562114 C37.4859882,22.8579489 31.9597767,20.0231178 26.068496,18.2553702 C23.2317975,17.406903 20.318253,16.8154035 17.3597499,16.6032508 C14.6063612,16.4104892 11.6735693,16.448984 8.98409932,17.1368644 C7.94660513,17.4004393 6.90925457,17.8053536 6.05762739,18.4675229 C5.68618063,18.7568089 5.35322873,19.0910536 5.09065925,19.4831841 C4.89861581,19.7723266 4.52084899,20.3766099 4.57844766,20.7430293 C4.62972627,21.0323154 4.93696704,21.3987348 5.0843392,21.6493824 C5.25081514,21.9322048 5.42375478,22.2150272 5.59655078,22.4915295 C5.98078129,23.1021328 6.38425924,23.6999524 6.80684098,24.2849882 C7.58162205,25.3583918 8.41414543,26.3933005 9.29134009,27.3897144 C13.0759029,31.6708466 17.6095356,35.1870226 22.0663223,38.7160685 C31.8253032,46.3912417 41.1359841,54.5678106 49.9920233,63.2328909 C58.8096754,71.86594 67.1854696,80.9553256 75.0552286,90.4688731 C76.9891649,92.8022654 78.8909264,95.1678326 80.767264,97.5526473 C80.8568939,97.4627302 80.9465237,97.3726694 81.0361536,97.2827523 C75.4138917,91.4523595 70.9443213,84.5357794 67.9282195,77.0084524 C66.4297923,73.2672681 65.2835645,69.3782808 64.5343509,65.4120165 C63.6827238,60.8930348 63.3625556,56.142653 64.5663821,51.6623098 C65.552454,47.9918383 67.6143714,44.3149606 70.8161966,42.142257 C71.7446698,41.5122998 72.8908977,40.9980487 74.0243418,41.3001674 C74.9785262,41.5572953 75.6188625,42.3993812 75.9901656,43.267182 C76.7521629,45.0413358 76.7138117,47.2011853 76.3488286,49.0653424 C75.5740476,53.0507824 73.0510536,56.4705776 69.7275674,58.7268366 C66.487391,60.9252096 62.3891238,62.313754 58.4702598,62.4036712 C56.4724048,62.4486297 54.3784132,62.0566428 52.8031543,60.7452317 C51.3239458,59.5174178 50.4786818,57.7047116 50.0240401,55.8598593 C49.0314901,51.8165765 49.5437736,47.3554664 51.0549988,43.511452 C51.4584193,42.4893716 51.9450778,41.5058719 52.4957842,40.5545074 C52.3741232,40.5223685 52.2588541,40.4902281 52.137193,40.4580849 C51.7786018,48.9689185 50.0496507,57.4091055 47.0272002,65.3735216 C46.2459698,67.4368754 45.3686889,69.468198 44.4145763,71.454562 C44.0367664,72.2451432 43.6525646,73.3828964 42.8713342,73.8778715 C41.8595799,74.5206496 41.116774,73.4664935 40.7709852,72.6308101 C39.9449356,70.6253422 39.4198483,68.4268255 38.8819586,66.331297 C38.3248459,64.1649551 37.8573918,61.9730457 37.4795819,59.774529 C36.8520437,56.1491167 36.4870463,51.8230115 33.3557472,49.3867459 C33.2660886,49.3160475 33.1700382,49.3160475 33.0867858,49.3867459 C28.9437324,52.7872218 25.2296525,56.6827302 22.0215073,60.9830956 C20.4014191,63.1492938 18.9222394,65.4184802 17.5775044,67.77112 C16.905137,68.9475118 16.2712643,70.1431509 15.682063,71.3580375 C15.2530176,72.2386795 14.913602,73.1707437 14.8176521,74.1543738 C14.740806,74.9706661 14.8560033,75.8770192 15.438741,76.4940862 C16.213522,77.3169859 17.385461,77.2333888 18.3907804,76.995525 C21.4644808,76.2691498 24.5124701,75.3755804 27.5669806,74.5657518 C33.6823216,72.9393436 39.7976554,71.3195426 45.9129891,69.6931344 C48.442375,69.0246451 51.4456068,67.8097585 54.0774494,68.5553812 C56.7412944,69.3139312 57.5353229,72.2643906 57.849171,74.7070912 C58.1115968,76.7641249 58.0412144,79.0525587 57.0999574,80.9423983 C56.6516645,81.8422877 55.9920808,82.6200851 55.1084224,83.1087401 C53.7956899,83.8351154 52.2652603,83.7707657 50.8308811,83.5265818 C45.7337007,82.6457962 40.732565,80.7239255 36.2053012,78.2490501 C31.6588129,75.767711 27.4901345,72.5986352 23.8913813,68.8703784 C22.0087236,66.9161892 20.3630679,64.7884858 18.6981648,62.6544624 C17.0395817,60.533079 15.272265,58.4440142 13.0053768,56.9461616 C10.9627069,55.5963131 8.47820779,54.7028012 6.00634878,55.0370746 C3.95735879,55.3134763 1.99139132,56.5090724 0.877194662,58.2640363 C0.320168152,59.1317509 0.0191037973,60.121701 0,61.1566098 C0,61.2659179 0.089629846,61.3430513 0.192043436,61.349515 C15.0672942,62.0437154 28.1432976,53.7707226 41.0399336,47.5482998 C42.6664209,46.7640674 44.2993072,46.0055605 45.9578184,45.2920408 C47.3986038,44.6749307 49.0250983,43.8135649 50.6451721,43.9421349 C52.8607817,44.1221128 52.7903418,46.5326673 52.4701737,48.2039766 C52.3164958,49.0074852 52.0731594,49.7981526 51.7401788,50.5438184 C51.3815732,51.3537619 50.8500855,52.4208167 49.9151772,52.6715217 C48.9034229,52.9415029 48.4103582,51.7008765 48.0325483,50.9937774 C47.6163153,50.209545 47.2321135,49.3996158 46.8799142,48.5832373 C46.213953,47.0212074 45.676059,45.4141759 45.2150111,43.7814332 C44.292901,40.5095129 43.6973796,37.1604592 43.0890457,33.8178405 C42.7752838,32.1079501 42.4615075,30.3916391 42.1029163,28.6881981 C41.8147564,27.3125666 41.6226483,25.7248113 40.873439,24.503461 C40.0730028,23.1857299 38.7346727,23.0828854 37.3387166,23.3657078 C35.8402894,23.6677776 34.3482828,24.0663718 32.8882787,24.5099247 C29.9106574,25.4162778 26.9906636,26.6247007 24.3587779,28.3089374 C21.9318775,29.8581117 19.504977,31.8958262 18.0450447,34.4220807 C16.7514448,36.652643 16.2392332,39.8602711 18.8133621,41.3965898 C20.0364361,42.1293971 21.5285432,42.2772433 22.9180931,42.3865213 C24.6854098,42.5215148 26.4719739,42.4893716 28.2329418,42.2965266 C31.588373,41.9236966 34.8669581,40.9723362 37.8958149,39.4617199 C40.6813345,38.0732473 43.2043149,36.2412362 45.6888714,34.3770791 C48.1606155,32.5193569 50.6003572,30.6101981 53.2642022,29.0353126 C54.6409539,28.2189341 56.0753906,27.4989939 57.5801378,26.9461616 C59.2194734,26.3418783 61.0508525,25.8019446 62.8053855,26.142653 C64.3871224,26.4511865 66.0199944,27.7432639 65.9687157,29.5045622 C65.9303645,30.7580442 64.9441489,31.6387005 63.8107048,31.9729595 C62.6005583,32.332944 61.2173284,32.1593724 60.2247928,31.3558638 C59.078565,30.4366408 58.4574761,29.0417476 58.1693391,27.6339844 C57.5608904,24.6899026 58.0795656,21.2958903 59.4948267,18.6538208 C59.8149948,18.0561448 60.1864416,17.4840364 60.6218071,16.9696702 C61.0573162,16.448984 61.72322,15.6454754 62.37002,15.3948279 C62.6068783,15.3049108 62.6196621,15.2791996 62.779818,15.5363109 C62.8759115,15.6905776 62.8886952,15.9090504 62.8822316,16.0890283 C62.8629841,16.4683751 62.7029719,16.8411146 62.5237122,17.1625755 C62.1202342,17.882487 61.4734342,18.435348 60.8651291,18.9752817 C58.3741663,21.1930458 55.4285906,22.8964438 52.2780728,23.9570637 C51.560876,24.1949275 50.8308811,24.4070802 50.0880738,24.5805944 C49.1211487,24.8056744 48.0709713,25.0498583 47.09764,24.7413248 C45.592821,24.2655972 44.7667613,22.6842911 44.4594056,21.2315407 C43.8062425,18.088176 45.1637756,14.5848556 43.2619423,11.7115296 C42.5063368,10.560849 41.3665095,9.9630294 40.0217759,9.77026777 C38.3376584,9.53240395 36.5702843,9.56457877 34.8733643,9.66095958 C28.8860906,9.98242047 22.3416755,12.4506885 19.8443926,18.3903895 C19.3320374,19.6052761 18.7750109,21.2507881 19.3705323,22.536488 C19.8827439,23.6420665 21.1186015,24.1050104 22.2392619,24.3106994 C25.5946356,24.9405501 29.1998669,24.651264 32.5425,24.0534445 C39.8552856,22.7421771 46.5789504,19.4445456 53.1681517,16.1469142 C56.504436,14.4820111 59.8342422,12.7014797 63.3240607,11.3708213 C65.0082113,10.7280431 66.7819917,10.2523155 68.600587,10.35516 C70.3615837,10.4515408 72.0392705,11.1007826 73.5504814,11.9878883 C74.9848462,12.8300354 76.29755,13.8841915 77.5270877,15.009161 C78.7885128,16.1598416 79.9923393,17.5225313 80.3061874,19.2645678 C80.9017088,22.6200851 78.3659311,25.5834719 75.4972015,26.8625645 C72.4875634,28.2125135 68.9142915,28.3475041 65.6741151,28.0518118 C62.3635563,27.7561195 59.0978124,26.8497807 56.1009581,25.4098141 C50.2673622,22.6071577 45.6248378,17.7731788 42.9609785,11.8657963 C41.6610713,8.98600662 40.8606366,5.89406421 40.5980907,2.74423586 C40.553267,2.49358829 40.1690547,2.49358829 40.1882677,2.7379158 Z" id="路径" fill="#E6007A"></path>
                        </g>
                    </g>
                </g>
                <path d="M8.31407313,16.5214379 L10.77266,16.5214379 L11.5565046,13.6791089 C11.6645919,13.2871938 12.2156862,13.2874379 12.3234287,13.6794392 L13.1045586,16.5214379 L15.5584198,16.5214379 L17.4399284,9.25337668 L15.1361253,9.25337668 L14.5477858,12.1377772 C14.4623215,12.5566387 13.8731345,12.5682159 13.7715684,12.1530171 L13.0623291,9.25337668 L10.8148895,9.25337668 L10.123964,12.1710293 C10.0253137,12.587607 9.43486275,12.5795345 9.34743056,12.1604144 L9.13994609,11.1657386 C8.90746868,10.0512403 7.9325861,9.25337668 6.80327877,9.25337668 L6.43729023,9.25337668 L8.31407313,16.5214379 Z" id="路径" fill="#FFFFFF" fill-rule="nonzero"></path>
            </g>
        </g>
    </g>
</svg>