<?xml version="1.0" encoding="UTF-8"?>
<svg width="20px" height="20px" viewBox="0 0 20 20" version="1.1" xmlns="http://www.w3.org/2000/svg" xmlns:xlink="http://www.w3.org/1999/xlink">
    <title>编组 2</title>
    <g id="页面-1" stroke="none" stroke-width="1" fill="none" fill-rule="evenodd">
        <g id="Dashboard_create-project" transform="translate(-1124.000000, -197.000000)">
            <g id="编组-3备份" transform="translate(674.000000, 187.000000)">
                <g id="编组-2" transform="translate(450.000000, 10.000000)">
                    <rect id="矩形" x="0" y="0" width="20" height="20"></rect>
                    <path d="M10,1 C14.9705627,1 19,5.02943725 19,10 C19,14.9705627 14.9705627,19 10,19 C5.02943725,19 1,14.9705627 1,10 C1,5.02943725 5.02943725,1 10,1 Z M7.17157288,5.75735931 C6.78104858,5.36683502 6.1478836,5.36683502 5.75735931,5.75735931 C5.36683502,6.1478836 5.36683502,6.78104858 5.75735931,7.17157288 L5.75735931,7.17157288 L8.58578644,9.99858579 L5.75735931,12.8284271 C5.36683502,13.2189514 5.36683502,13.8521164 5.75735931,14.2426407 C6.1478836,14.633165 6.78104858,14.633165 7.17157288,14.2426407 L7.17157288,14.2426407 L10,11.4127993 L12.8284271,14.2426407 C13.2189514,14.633165 13.8521164,14.633165 14.2426407,14.2426407 C14.633165,13.8521164 14.633165,13.2189514 14.2426407,12.8284271 L14.2426407,12.8284271 L11.4142136,9.99858579 L14.2426407,7.17157288 C14.633165,6.78104858 14.633165,6.1478836 14.2426407,5.75735931 C13.8521164,5.36683502 13.2189514,5.36683502 12.8284271,5.75735931 L12.8284271,5.75735931 L10,8.58437222 Z" id="形状结合" fill="#C5C7C4"></path>
                </g>
            </g>
        </g>
    </g>
</svg>